<?xml version="1.0" encoding="utf-8"?>
<!-- Generator: Adobe Illustrator 16.0.0, SVG Export Plug-In . SVG Version: 6.00 Build 0)  -->
<!DOCTYPE svg PUBLIC "-//W3C//DTD SVG 1.1//EN" "http://www.w3.org/Graphics/SVG/1.1/DTD/svg11.dtd">
<svg version="1.1" id="Layer_1" xmlns="http://www.w3.org/2000/svg" xmlns:xlink="http://www.w3.org/1999/xlink" x="0px" y="0px"
	 width="260px" height="18px" viewBox="0 0 260 18" enable-background="new 0 0 260 18" xml:space="preserve">
<g>
	<g>
		<g>
			<path fill="#FFFFFF" d="M30.374,0.262c-1.042,0-30.374,0-30.374,0v17.441h3.384v-4.078H30.98c1.736,0,2.518-1.736,2.518-2.949
				c0-1.216,0-7.811,0-7.811C33.498,0.347,31.416,0.262,30.374,0.262z M29.939,8.247c0,1.213-0.433,1.733-1.389,1.733
				c-1.3,0-25.167,0-25.167,0V3.474h24.908c1.214,0,1.647,0.607,1.647,1.301C29.939,5.467,29.939,8.247,29.939,8.247z"/>
		</g>
	</g>
	<g>
		<g>
			<path fill="#FFFFFF" d="M69.613,0.2H39.819c-0.897,0-1.624,0.761-1.624,1.696v13.911c0,0.938,0.727,1.694,1.624,1.694h29.793
				c0.897,0,1.625-0.756,1.625-1.694V1.896C71.238,0.961,70.51,0.2,69.613,0.2z M67.933,13.2c0,0.592-0.581,1.074-1.298,1.074
				H42.799c-0.718,0-1.3-0.482-1.3-1.074V4.382c0-0.591,0.582-1.073,1.3-1.073h23.835c0.717,0,1.298,0.482,1.298,1.073V13.2z"/>
		</g>
	</g>
	<g>
		<g>
			<path fill="#FFFFFF" d="M107.522,13.625c0.435-0.089,1.736-0.693,1.736-2.776c0,0,0-5.21,0-7.291
				c0-2.083-0.868-3.296-2.603-3.296H75.848v17.441h3.385v-4.167h24.472l1.91,3.994h3.99L107.522,13.625z M105.961,8.417
				c0,1.043-0.434,1.563-1.563,1.563c-1.129,0-25.079,0-25.079,0V3.558h25.079c1.042,0,1.563,0.523,1.563,1.39
				C105.961,5.814,105.961,8.417,105.961,8.417z"/>
		</g>
	</g>
	<path fill="#FFFFFF" d="M146.661,0.084v3.474H120.02c-1.129,0-1.302,0.781-1.302,1.3c0,0.523,0,1.129,0,1.129
		s-0.086,1.216,1.129,1.216c1.214,0,23.689,0,24.212,0c2.256,0,2.779,1.82,2.779,2.776c0,0.954,0,4.686,0,4.686
		c0,2.259-1.651,2.952-2.868,2.952s-28.549,0-28.549,0v-3.383h26.559c1.21,0,1.475-0.52,1.475-1.218c0-0.692,0-1.474,0-1.474
		c0-1.062-1.739-0.867-2.434-0.867c-0.692,0-23.084,0-23.084,0c-1.995,0-2.516-1.479-2.516-2.691c0-1.216,0-5.466,0-5.466
		c0-1.562,1.476-2.345,2.952-2.345C119.846,0.173,146.661,0.084,146.661,0.084z"/>
	<path fill="#FFFFFF" d="M184.328,0.173v3.211H157.86c-1.216,0-1.474,0.865-1.474,1.647c0,0.782,0,7.639,0,7.639
		c0,1.216,0.345,1.563,1.209,1.563c0.871,0,26.646,0,26.646,0v3.296h-28.555c-2.425,0-2.69-1.649-2.69-3.124
		c0-1.474,0-11.977,0-11.977c0-2.345,2.085-2.345,2.779-2.345S184.328,0.173,184.328,0.173z"/>
	<polygon fill="#FFFFFF" points="217.938,0 217.938,7.204 192.918,7.204 192.918,0 189.533,0 189.533,17.733 192.918,17.733 
		192.918,10.587 217.938,10.587 217.938,17.733 221.322,17.733 221.322,0 	"/>
	<polygon fill="#FFFFFF" points="260.001,3.474 260.001,0.084 226.587,0.084 226.587,17.617 260.001,17.617 260.001,14.234 
		229.972,14.234 229.972,10.414 260.001,10.414 260.001,7.03 229.972,7.03 229.972,3.474 	"/>
</g>
</svg>
