<?xml version="1.0" encoding="utf-8"?>
<!-- Generator: Adobe Illustrator 16.0.0, SVG Export Plug-In . SVG Version: 6.00 Build 0)  -->
<!DOCTYPE svg PUBLIC "-//W3C//DTD SVG 1.1//EN" "http://www.w3.org/Graphics/SVG/1.1/DTD/svg11.dtd">
<svg version="1.1" id="Layer_1" xmlns="http://www.w3.org/2000/svg" xmlns:xlink="http://www.w3.org/1999/xlink" x="0px" y="0px"
	 width="160px" height="160px" viewBox="0 0 160 160" enable-background="new 0 0 160 160" xml:space="preserve">
<g>
	<path fill="#FFFFFF" d="M45.731,97.629l3.853-12.504c0,0,17.725,2.271,23.079-10.983c4.508-11.128-3.918-14.211-9.422-14.211
		l-18.199-0.018c1.515,1.037,1.265,2.402,0.967,3.24L35.404,97.547c-0.422,1.34-2.011,2.453-2.855,3.453h14.73
		C46.471,100,45.312,99.205,45.731,97.629z M56.446,64h1.901c1.929,0,7.262-0.253,3.828,9.855
		c-3.615,10.595-11.616,8.673-11.616,8.673L56.446,64z"/>
	<path fill="#FFFFFF" d="M89,74.076v-0.142c0-1.201-0.49-2.332-1.358-3.189c-1.481-1.487-3.843-2.084-6.3-1.622
		c-1.988,0.37-3.677,1.429-4.518,2.212c-3.004,2.797-3.392,7.429-3.392,9.523c0,0.498,0.02,0.896,0.038,1.121
		c-0.169,0.061-0.473,0.187-0.473,0.187c-2.182,0.797-8.023,2.361-10.113,7.161c-0.263,0.61-0.646,1.913-0.646,3.457
		c0,1.315,0.285,2.785,1.128,4.127c1.471,2.295,3.979,3.748,7.969,3.673c4.349-0.075,8.621-2.544,9.391-3.081
		c0.752,0.697,2.703,2.498,3.73,3.498h9.896c-3.174-2-7.859-4.468-9.723-6.605C86.145,92.74,88.01,91,88.344,86h-5.15
		c0,0,1.003,0.527,1.003,1.736c0,1.119-0.45,2.634-1.315,3.729c-1.506-2.23-3.123-4.787-3.675-8.525
		c2.008-1.01,4.859-2.101,7.122-4.065C88.453,76.997,89,75.236,89,74.076z M73.589,96.542c-1.997,0.184-5.329-0.589-5.321-4.592
		c0-3.431,3.726-5.921,5.732-6.802c0.835,3.326,2.674,7.062,4.63,9.664C78.044,95.17,75.748,96.34,73.589,96.542z M84.441,73.216
		c-0.51,3.228-4.69,6.492-5.707,6.935c-0.179-1.815-0.104-4.683,1.42-7.025c0.996-1.555,2.332-2.234,3.41-1.859
		C84.42,71.564,84.527,72.36,84.441,73.216z"/>
	<path fill="#FFFFFF" d="M114.57,63.022c5.891-1.413,10.746,3.201,11.196,3.512l1.685-5.349c-2.342-0.694-19.242-6.42-31.176,7.227
		c-7.347,8.378-9.15,25.578,0.168,30.183c9.977,4.929,20.982-0.762,21.783-1.158l4.575-14.16c0.485-1.752,1.597-2.277,3.56-3.277
		h-15.833c2.317,1,2.147,2.37,1.952,3.077l-4.547,14.329c-0.6,0.124-13.328,3.197-6.2-19.06
		C103.267,73.564,107.562,64.708,114.57,63.022z"/>
	<path fill="#FFFFFF" d="M80,0C35.888,0,0,35.888,0,80s35.888,80,80,80s80-35.888,80-80S124.112,0,80,0z M80,154.92
		c-41.312,0-74.92-33.608-74.92-74.92S38.688,5.08,80,5.08S154.921,38.688,154.921,80S121.312,154.92,80,154.92z"/>
	<rect x="42" y="37" fill="#FFFFFF" width="75" height="5"/>
	<rect x="42" y="119" fill="#FFFFFF" width="75" height="5"/>
</g>
</svg>
