<?xml version="1.0" standalone="no"?>
<!DOCTYPE svg PUBLIC "-//W3C//DTD SVG 1.1//EN" "http://www.w3.org/Graphics/SVG/1.1/DTD/svg11.dtd" >
<svg xmlns="http://www.w3.org/2000/svg">
<metadata>
Created by FontPrep 20130207 at Thu Mar 20 12:29:40 2014
 By Fueled LDN 2
Copyright 2006 House Industries/Brand Design Co., Inc. All Rights Reserved.
</metadata>
<defs>
<font id="74ed5a2bb44e5a5b87f32af0b8b4d490" horiz-adv-x='1024' >
  <font-face 
    font-family="UnitedItalicCond-Light"
    font-weight="300"
    font-stretch="normal"
    units-per-em="2048"
    panose-1="0 0 0 0 0 0 0 0 0 0"
    ascent="1556"
    descent="-492"
    x-height="991"
    cap-height="1413"
    bbox="-260 -348 1425 1720"
    underline-thickness="102"
    underline-position="-102"
    unicode-range="U+0020-FB02"
  />
<missing-glyph horiz-adv-x="296" 
 />
    <glyph glyph-name=".notdef" horiz-adv-x="296" 
 />
    <glyph glyph-name=".null" horiz-adv-x="0" 
 />
    <glyph glyph-name="nonmarkingreturn" horiz-adv-x="681" 
 />
    <glyph glyph-name="space" unicode=" " horiz-adv-x="296" 
 />
    <glyph glyph-name="exclam" unicode="!" horiz-adv-x="352" 
d="M10 0l39 221h82l-39 -221h-82zM76 367l184 1046h82l-184 -1046h-82z" />
    <glyph glyph-name="quotedbl" unicode="&#x22;" horiz-adv-x="446" 
d="M326 938l84 475h71l-84 -475h-71zM133 938l84 475h72l-84 -475h-72z" />
    <glyph glyph-name="numbersign" unicode="#" horiz-adv-x="741" 
d="M346 1094l-67 -394h180l67 394h-180zM137 1094l13 65h135l45 254h73l-45 -254h181l45 254h71l-45 -254h142l-13 -65h-141l-68 -394h140l-13 -65h-139l-43 -254h-72l43 254h-180l-43 -254h-73l43 254h-136l13 65h135l67 394h-135z" />
    <glyph glyph-name="dollar" unicode="$" horiz-adv-x="655" 
d="M115 41l-131 131l39 211h79l-32 -184l86 -86h145l105 104l67 377l-63 63l-195 56l-115 114l72 406l139 139h86l33 193h72l-33 -193h61l136 -135l-37 -207h-82l33 180l-91 90h-137l-104 -104l-62 -342l68 -68l192 -53l113 -112l-78 -441l-139 -139h-94l-31 -195h-72
l31 195h-61z" />
    <glyph glyph-name="percent" unicode="%" horiz-adv-x="1026" 
d="M72 0l807 1413h75l-807 -1413h-75zM610 61h99l67 68l72 408l-66 65h-98l-68 -67l-71 -408zM569 0l-104 104l80 455l104 105h174l105 -105l-80 -455l-105 -104h-174zM246 811h98l68 68l71 407l-65 66h-99l-67 -68l-72 -407zM205 750l-105 104l80 455l105 104h174l104 -104
l-80 -455l-104 -104h-174z" />
    <glyph glyph-name="ampersand" unicode="&#x26;" horiz-adv-x="790" 
d="M211 72h166l104 104l90 514h-266l-117 -117l-71 -407zM170 0l-139 139l80 459l133 133l-92 92l79 451l140 139h245l140 -139l-33 -191h-82l29 164l-95 94h-163l-105 -104l-69 -391l81 -82h451l-12 -74h-105l-96 -551l-139 -139h-248z" />
    <glyph glyph-name="quotesingle" unicode="'" horiz-adv-x="253" 
d="M133 938l84 475h72l-84 -475h-72z" />
    <glyph glyph-name="parenleft" unicode="(" horiz-adv-x="423" 
d="M168 -104l-131 131l239 1353l136 136h116l-12 -72h-63l-101 -101l-229 -1290l86 -86h47l-12 -71h-76z" />
    <glyph glyph-name="parenright" unicode=")" horiz-adv-x="423" 
d="M266 1516l131 -132l-239 -1353l-135 -135h-117l12 71h64l100 101l229 1290l-86 86h-47l12 72h76z" />
    <glyph glyph-name="asterisk" unicode="*" horiz-adv-x="571" 
d="M184 905l-51 45l178 180l-209 66l29 64l205 -78l31 231h69l-47 -231l229 78l15 -64l-238 -66l117 -188l-61 -37l-99 193z" />
    <glyph glyph-name="plus" unicode="+" horiz-adv-x="573" 
d="M16 670l13 69h231l49 271h74l-49 -271h229l-12 -69h-229l-48 -273h-73l47 273h-232z" />
    <glyph glyph-name="comma" unicode="," horiz-adv-x="327" 
d="M-49 -174l10 57h37l16 17l19 100h-51l32 188h115l-55 -315l-47 -47h-76z" />
    <glyph glyph-name="hyphen" unicode="-" horiz-adv-x="389" 
d="M29 668l14 75h317l-14 -75h-317z" />
    <glyph glyph-name="period" unicode="." horiz-adv-x="327" 
d="M-18 0l32 188h115l-33 -188h-114z" />
    <glyph glyph-name="slash" unicode="/" horiz-adv-x="446" 
d="M-104 -125l589 1661h80l-592 -1661h-77z" />
    <glyph glyph-name="zero" unicode="0" horiz-adv-x="761" 
d="M199 72h163l105 104l190 1071l-94 94h-164l-104 -104l-191 -1071zM158 0l-140 139l201 1135l139 139h246l139 -139l-200 -1135l-140 -139h-245z" />
    <glyph glyph-name="one" unicode="1" horiz-adv-x="577" 
d="M-53 0l12 72h197l225 1269h-193l13 72h274l-237 -1341h176l-13 -72h-454z" />
    <glyph glyph-name="two" unicode="2" horiz-adv-x="679" 
d="M-20 0l104 594l125 125h227l90 90l78 438l-94 94h-135l-105 -104l-30 -166h-82l37 203l139 139h217l139 -139l-88 -502l-125 -125h-227l-90 -90l-86 -485h395l-12 -72h-477z" />
    <glyph glyph-name="three" unicode="3" horiz-adv-x="716" 
d="M125 0l-139 139l41 234h82l-37 -207l94 -94h160l104 104l76 432l-82 82h-221l14 74h221l117 117l66 366l-95 94h-159l-105 -104l-35 -197h-82l41 234l140 139h241l140 -139l-74 -418l-133 -133l92 -92l-86 -492l-137 -139h-244z" />
    <glyph glyph-name="four" unicode="4" horiz-adv-x="686" 
d="M-10 420l10 61l328 932h75l-319 -924h350l164 924h80l-164 -924h98l-12 -69h-98l-74 -420h-80l74 420h-432z" />
    <glyph glyph-name="five" unicode="5" horiz-adv-x="686" 
d="M133 0l-139 139l43 242h82l-39 -215l94 -94h148l104 104l98 561l-82 82h-147l-123 -123h-82l127 717h496l-13 -72h-413l-94 -540l90 90h200l127 -127l-108 -625l-140 -139h-229z" />
    <glyph glyph-name="six" unicode="6" horiz-adv-x="733" 
d="M324 778l-136 -135l-84 -477l95 -94h161l105 104l92 518l-84 84h-149zM158 0l-140 139l201 1135l139 139h240l139 -139l-41 -227h-82l37 200l-94 94h-158l-104 -104l-90 -500l112 113h197l129 -129l-102 -582l-138 -139h-245z" />
    <glyph glyph-name="seven" unicode="7" horiz-adv-x="581" 
d="M109 0l88 498l370 843h-444l12 72h531l-11 -59l-376 -856l-89 -498h-81z" />
    <glyph glyph-name="eight" unicode="8" horiz-adv-x="772" 
d="M319 764h175l116 117l66 366l-94 94h-170l-105 -104l-69 -391zM211 72h170l104 104l76 432l-82 82h-174l-117 -117l-71 -407zM170 0l-139 139l80 459l133 133l-92 92l79 451l140 139h252l139 -139l-74 -418l-133 -133l92 -92l-86 -492l-139 -139h-252z" />
    <glyph glyph-name="nine" unicode="9" horiz-adv-x="733" 
d="M266 670h150l133 133l80 444l-94 94h-162l-105 -104l-86 -483zM135 0l-139 139l41 228h82l-37 -201l94 -94h158l104 104l94 533l-110 -111h-197l-129 129l97 547l137 139h245l140 -139l-201 -1135l-139 -139h-240z" />
    <glyph glyph-name="colon" unicode=":" horiz-adv-x="348" 
d="M102 637l33 188h115l-33 -188h-115zM-8 0l33 188h114l-33 -188h-114z" />
    <glyph glyph-name="semicolon" unicode=";" horiz-adv-x="348" 
d="M102 637l33 188h115l-33 -188h-115zM-39 -174l10 57h37l17 17l18 100h-51l33 188h114l-55 -315l-47 -47h-76z" />
    <glyph glyph-name="less" unicode="&#x3c;" 
d="M557 401l-506 267l15 77l600 271l-15 -82l-518 -232l438 -225z" />
    <glyph glyph-name="equal" unicode="=" horiz-adv-x="677" 
d="M102 817l13 74h526l-14 -74h-525zM51 516l12 74h527l-15 -74h-524z" />
    <glyph glyph-name="greater" unicode="&#x3e;" 
d="M150 1012l505 -267l-14 -77l-600 -271l14 82l518 232l-438 225z" />
    <glyph glyph-name="question" unicode="?" horiz-adv-x="653" 
d="M129 0l39 221h82l-39 -221h-82zM195 367l51 292l98 99h105l63 63l76 426l-94 94h-156l-105 -104l-28 -164h-82l35 201l139 139h238l139 -139l-86 -490l-99 -98h-104l-63 -63l-46 -256h-81z" />
    <glyph glyph-name="at" unicode="@" horiz-adv-x="1167" 
d="M408 68h57l180 180l98 559l-114 117h-90l-86 -86l-123 -693zM367 0l-121 121l133 749l121 121h153l109 -110l26 110h68l-160 -909l15 -14h86l82 82l147 841l-152 152h-477l-159 -160l-175 -987l152 -152h524l-12 -67h-553l-194 194l184 1045l194 194h557l195 -194
l-158 -899l-116 -117h-166l-43 43l16 117l-160 -160h-116z" />
    <glyph glyph-name="A" unicode="A" horiz-adv-x="677" 
d="M451 1354l-283 -834h270zM-90 0l485 1413h127l-10 -1413h-80l6 446h-295l-149 -446h-84z" />
    <glyph glyph-name="B" unicode="B" horiz-adv-x="755" 
d="M326 1341l-101 -567h254l117 117l63 356l-94 94h-239zM465 700h-254l-111 -628h265l104 104l78 442zM6 0l250 1413h350l139 -139l-71 -408l-133 -133l92 -92l-88 -502l-139 -139h-400z" />
    <glyph glyph-name="C" unicode="C" horiz-adv-x="716" 
d="M158 0l-140 139l201 1135l139 139h220l139 -139l-41 -227h-82l37 200l-94 94h-138l-104 -104l-191 -1071l95 -94h137l104 104l35 199h82l-41 -236l-139 -139h-219z" />
    <glyph glyph-name="D" unicode="D" horiz-adv-x="765" 
d="M100 72h267l104 104l191 1071l-95 94h-241zM6 0l250 1413h352l140 -139l-201 -1135l-139 -139h-402z" />
    <glyph glyph-name="E" unicode="E" horiz-adv-x="655" 
d="M6 0l250 1413h434l-12 -72h-352l-107 -596h332l-12 -71h-332l-107 -602h361l-12 -72h-443z" />
    <glyph glyph-name="F" unicode="F" horiz-adv-x="626" 
d="M6 0l250 1413h426l-12 -72h-344l-109 -604h322l-13 -71h-321l-117 -666h-82z" />
    <glyph glyph-name="G" unicode="G" horiz-adv-x="731" 
d="M158 0l-140 139l201 1135l139 139h228l139 -139l-35 -203h-82l31 176l-94 94h-146l-104 -104l-191 -1071l95 -94h145l105 104l79 449h-178l12 71h261l-99 -557l-139 -139h-227z" />
    <glyph glyph-name="H" unicode="H" horiz-adv-x="768" 
d="M430 0l117 664h-342l-117 -664h-82l250 1413h82l-119 -672h342l119 672h82l-250 -1413h-82z" />
    <glyph glyph-name="I" unicode="I" horiz-adv-x="512" 
d="M180 1346l13 67h376l-12 -67h-149l-226 -1278h150l-13 -68h-376l12 68h145l226 1278h-146z" />
    <glyph glyph-name="J" unicode="J" horiz-adv-x="497" 
d="M-80 0l12 72h160l105 104l219 1237h82l-226 -1274l-139 -139h-213z" />
    <glyph glyph-name="K" unicode="K" horiz-adv-x="765" 
d="M6 0l250 1413h82l-156 -881l520 881h89l-349 -584l148 -829h-82l-125 735l-229 -360l-66 -375h-82z" />
    <glyph glyph-name="L" unicode="L" horiz-adv-x="575" 
d="M338 1413l-238 -1341h338l-12 -72h-420l250 1413h82z" />
    <glyph glyph-name="M" unicode="M" horiz-adv-x="1064" 
d="M6 0l250 1413h139l25 -1335l495 1335h144l-250 -1413h-80l238 1348l-500 -1348h-119l-26 1348l-238 -1348h-78z" />
    <glyph glyph-name="N" unicode="N" horiz-adv-x="794" 
d="M6 0l250 1413h86l154 -1214l215 1214h77l-249 -1413h-86l-154 1221l-215 -1221h-78z" />
    <glyph glyph-name="O" unicode="O" horiz-adv-x="761" 
d="M199 72h163l105 104l190 1071l-94 94h-164l-104 -104l-191 -1071zM158 0l-140 139l201 1135l139 139h246l139 -139l-200 -1135l-140 -139h-245z" />
    <glyph glyph-name="P" unicode="P" horiz-adv-x="716" 
d="M326 1341l-121 -679h250l104 104l88 481l-94 94h-227zM6 0l250 1413h338l139 -139l-98 -545l-139 -139h-303l-105 -590h-82z" />
    <glyph glyph-name="Q" unicode="Q" horiz-adv-x="761" 
d="M199 72h163l105 104l190 1071l-94 94h-164l-104 -104l-191 -1071zM444 -254l-139 139l21 115h-168l-140 139l201 1135l139 139h246l139 -139l-200 -1135l-140 -139l-16 -86l113 -113z" />
    <glyph glyph-name="R" unicode="R" horiz-adv-x="757" 
d="M326 1341l-109 -616h244l117 117l71 405l-94 94h-229zM416 651h-213l-115 -651h-82l250 1413h340l139 -139l-80 -457l-161 -162l57 -583h84l-12 -72h-146z" />
    <glyph glyph-name="S" unicode="S" 
d="M127 0l-131 131l39 211h80l-33 -184l86 -86h151l105 104l74 422l-64 64l-194 55l-115 114l78 443l139 139h219l135 -135l-37 -207h-81l32 180l-90 90h-137l-104 -104l-68 -379l68 -67l192 -54l113 -112l-84 -486l-140 -139h-233z" />
    <glyph glyph-name="T" unicode="T" horiz-adv-x="583" 
d="M682 1343h-236l-235 -1343h-82l238 1343h-240l14 70h555z" />
    <glyph glyph-name="U" unicode="U" horiz-adv-x="749" 
d="M164 0l-139 139l225 1274h82l-221 -1247l94 -94h145l105 104l219 1237h82l-226 -1274l-139 -139h-227z" />
    <glyph glyph-name="V" unicode="V" horiz-adv-x="675" 
d="M154 0l24 1413h80l-29 -1339l428 1339h80l-456 -1413h-127z" />
    <glyph glyph-name="W" unicode="W" horiz-adv-x="1034" 
d="M113 0l86 1413h84l-93 -1325l404 1325h119l-39 -1325l352 1325h80l-389 -1413h-119l41 1327l-406 -1327h-120z" />
    <glyph glyph-name="X" unicode="X" horiz-adv-x="688" 
d="M432 0l-92 664l-320 -664h-86l357 729l-94 684h82l81 -633l312 633h82l-344 -690l104 -723h-82z" />
    <glyph glyph-name="Y" unicode="Y" horiz-adv-x="649" 
d="M156 0l86 485l-88 928h77l76 -799l355 799h79l-417 -928l-86 -485h-82z" />
    <glyph glyph-name="Z" unicode="Z" horiz-adv-x="624" 
d="M-51 0l10 59l614 1282h-378l14 72h467l-10 -57l-615 -1284h395l-12 -72h-485z" />
    <glyph glyph-name="bracketleft" unicode="[" horiz-adv-x="399" 
d="M-12 -104l284 1620h230l-13 -72h-147l-260 -1477h147l-12 -71h-229z" />
    <glyph glyph-name="backslash" unicode="\" horiz-adv-x="419" 
d="M256 -125h-78l-6 1661h78z" />
    <glyph glyph-name="bracketright" unicode="]" horiz-adv-x="399" 
d="M418 1516l-285 -1620h-229l12 71h147l261 1477h-148l12 72h230z" />
    <glyph glyph-name="asciicircum" unicode="^" horiz-adv-x="647" 
d="M41 750l340 663h119l116 -663h-75l-107 612l-307 -612h-86z" />
    <glyph glyph-name="underscore" unicode="_" horiz-adv-x="593" 
d="M-154 -147l11 55h608l-8 -55h-611z" />
    <glyph glyph-name="grave" unicode="`" horiz-adv-x="602" 
d="M362 1087l-147 148l8 45h47l148 -147l-8 -46h-48z" />
    <glyph glyph-name="a" unicode="a" 
d="M170 68h57l181 180l98 559l-115 117h-90l-86 -86l-123 -693zM432 0l-47 47l16 109l-155 -156h-117l-121 121l133 749l121 121h154l108 -110l27 110h67l-159 -909l18 -19h68l-10 -63h-103z" />
    <glyph glyph-name="b" unicode="b" horiz-adv-x="679" 
d="M373 924l-178 -179l-99 -557l121 -120h88l86 86l123 692l-78 78h-63zM-16 0l249 1413h80l-100 -563l141 141h123l121 -121l-133 -749l-121 -121h-149l-117 117l-25 -117h-69z" />
    <glyph glyph-name="c" unicode="c" horiz-adv-x="630" 
d="M129 0l-121 121l133 749l121 121h203l121 -121l-33 -188h-80l29 164l-78 78h-123l-86 -86l-123 -693l78 -77h123l86 86l27 155h79l-32 -188l-121 -121h-203z" />
    <glyph glyph-name="d" unicode="d" 
d="M170 68h57l181 180l98 559l-115 117h-90l-86 -86l-123 -693zM432 0l-47 47l16 109l-155 -156h-117l-121 121l133 749l121 121h154l104 -106l94 528h80l-235 -1331l18 -19h68l-10 -63h-103z" />
    <glyph glyph-name="e" unicode="e" horiz-adv-x="661" 
d="M215 838l-51 -289h289l53 297l-78 78h-127zM129 0l-121 121l133 749l121 121h207l121 -121l-70 -389h-368l-60 -336l78 -77h127l86 86l23 131h79l-28 -164l-121 -121h-207z" />
    <glyph glyph-name="f" unicode="f" horiz-adv-x="452" 
d="M61 924l13 67h123l53 299l123 123h223l-12 -67h-172l-88 -89l-48 -266h209l-14 -67h-207l-164 -924h-80l164 924h-123z" />
    <glyph glyph-name="g" unicode="g" 
d="M180 125h58l190 190l86 492l-115 117h-98l-86 -86l-113 -635zM61 -348l-110 110l24 134h80l-20 -109l67 -68h150l86 86l72 406l-154 -154h-117l-121 121l123 692l121 121h162l108 -110l27 110h68l-215 -1218l-121 -121h-230z" />
    <glyph glyph-name="h" unicode="h" horiz-adv-x="684" 
d="M-16 0l249 1413h80l-100 -563l141 141h111l121 -121l-140 -788l19 -19h67l-10 -63h-102l-58 57l140 789l-82 82h-43l-182 -183l-132 -745h-79z" />
    <glyph glyph-name="i" unicode="i" horiz-adv-x="354" 
d="M209 1180l35 200h80l-35 -200h-80zM68 0l-58 57l164 934h80l-160 -909l19 -19h67l-10 -63h-102z" />
    <glyph glyph-name="j" unicode="j" horiz-adv-x="333" 
d="M209 1180l35 200h80l-35 -200h-80zM-260 -348l12 67h129l86 86l207 1186h80l-213 -1218l-121 -121h-180z" />
    <glyph glyph-name="k" unicode="k" horiz-adv-x="645" 
d="M-16 0l249 1413h80l-178 -1001l410 579h90l-273 -379l130 -612h-80l-109 532l-190 -256l-50 -276h-79z" />
    <glyph glyph-name="l" unicode="l" horiz-adv-x="354" 
d="M68 0l-58 57l240 1356h80l-236 -1331l19 -19h67l-10 -63h-102z" />
    <glyph glyph-name="m" unicode="m" horiz-adv-x="1024" 
d="M-16 0l176 991h67l-20 -137l137 137h107l110 -110l111 110h133l121 -121l-140 -788l19 -19h67l-10 -63h-102l-58 57l140 789l-82 82h-62l-143 -144l-137 -784h-80l149 848l-81 80h-35l-176 -176l-132 -752h-79z" />
    <glyph glyph-name="n" unicode="n" horiz-adv-x="684" 
d="M-16 0l176 991h67l-20 -137l137 137h121l121 -121l-140 -788l19 -19h67l-10 -63h-102l-58 57l140 789l-82 82h-49l-176 -176l-132 -752h-79z" />
    <glyph glyph-name="o" unicode="o" 
d="M170 68h147l86 86l123 692l-77 78h-148l-86 -86l-123 -693zM129 0l-121 121l133 749l121 121h227l121 -121l-133 -749l-121 -121h-227z" />
    <glyph glyph-name="p" unicode="p" horiz-adv-x="677" 
d="M365 924l-168 -168l-101 -568l123 -120h84l86 86l123 692l-78 78h-69zM-78 -348l238 1339h67l-20 -137l137 137h131l121 -121l-133 -749l-121 -121h-149l-111 109l-80 -457h-80z" />
    <glyph glyph-name="q" unicode="q" horiz-adv-x="679" 
d="M170 68h57l181 180l98 559l-115 117h-90l-86 -86l-123 -693zM303 -348l86 491l-143 -143h-117l-121 121l133 749l121 121h154l108 -110l27 110h67l-235 -1339h-80z" />
    <glyph glyph-name="r" unicode="r" horiz-adv-x="471" 
d="M-16 0l176 991h67l-20 -137l137 137h143l-12 -71h-113l-165 -166l-134 -754h-79z" />
    <glyph glyph-name="s" unicode="s" horiz-adv-x="638" 
d="M113 0l-123 123l28 162h80l-24 -138l80 -79h129l86 86l43 239l-50 49l-194 52l-92 92l51 284l121 121h198l121 -121l-28 -163h-80l24 139l-77 78h-119l-86 -86l-41 -228l49 -49l197 -53l90 -90l-54 -297l-120 -121h-209z" />
    <glyph glyph-name="t" unicode="t" horiz-adv-x="522" 
d="M70 924l12 67h117l53 305h80l-53 -305h243l-12 -67h-244l-137 -779l78 -77h160l-13 -68h-188l-121 121l141 803h-116z" />
    <glyph glyph-name="u" unicode="u" horiz-adv-x="667" 
d="M406 0l-48 47l15 98l-146 -145h-102l-121 121l154 870h80l-150 -846l82 -82h35l174 175l135 753h78l-160 -909l19 -19h67l-10 -63h-102z" />
    <glyph glyph-name="v" unicode="v" horiz-adv-x="595" 
d="M102 0l-10 991h82l2 -938l340 938h80l-363 -991h-131z" />
    <glyph glyph-name="w" unicode="w" horiz-adv-x="950" 
d="M86 0l20 991h80l-26 -934l305 934h117l4 -934l276 934h74l-299 -991h-119l-4 924l-305 -924h-123z" />
    <glyph glyph-name="x" unicode="x" horiz-adv-x="608" 
d="M362 0l-102 455l-266 -455h-86l299 506l-107 485h78l94 -436l254 436h82l-284 -481l118 -510h-80z" />
    <glyph glyph-name="y" unicode="y" horiz-adv-x="595" 
d="M102 0l-10 991h82l2 -940l340 940h80l-442 -1210l-129 -129h-177l13 67h125l106 107l64 174h-54z" />
    <glyph glyph-name="z" unicode="z" horiz-adv-x="516" 
d="M-86 0l10 59l500 865h-340l12 67h428l-10 -57l-500 -866h346l-12 -68h-434z" />
    <glyph glyph-name="braceleft" unicode="{" horiz-adv-x="432" 
d="M176 -104l-131 131l107 600l-64 63h-84l14 74h82l93 92l92 524l135 136h117l-13 -72h-63l-101 -101l-90 -503l-114 -115l80 -80l-105 -592l86 -86h47l-12 -71h-76z" />
    <glyph glyph-name="bar" unicode="|" horiz-adv-x="421" 
d="M23 -125l294 1661h80l-295 -1661h-79z" />
    <glyph glyph-name="braceright" unicode="}" horiz-adv-x="432" 
d="M264 1516l131 -132l-98 -559l63 -63h84l-14 -74h-82l-92 -92l-100 -565l-136 -135h-116l12 71h64l100 101l98 544l115 115l-80 80l96 551l-86 86h-47l12 72h76z" />
    <glyph glyph-name="asciitilde" unicode="~" horiz-adv-x="700" 
d="M127 1174l23 126l112 113h121l174 -174h45l74 74l18 100h78l-22 -127l-113 -112h-121l-174 174h-45l-74 -74l-18 -100h-78z" />
    <glyph glyph-name="exclamdown" unicode="&#xa1;" horiz-adv-x="352" 
d="M342 1413l-39 -221h-82l39 221h82zM276 1047l-184 -1047h-82l185 1047h81z" />
    <glyph glyph-name="cent" unicode="&#xa2;" horiz-adv-x="647" 
d="M150 143l-140 140l150 852l139 139h90l33 178h72l-33 -178h57l139 -139l-41 -228h-79l34 201l-94 94h-137l-104 -104l-140 -789l94 -94h136l104 104l35 197h82l-41 -233l-139 -140h-95l-32 -184h-72l33 184h-51z" />
    <glyph glyph-name="sterling" unicode="&#xa3;" horiz-adv-x="700" 
d="M55 666l13 69h98l96 539l139 139h201l139 -139l-45 -252h-82l41 225l-94 94h-119l-104 -104l-90 -502h244l-13 -69h-243l-91 -510l-84 -84h461l-12 -72h-561l12 72l107 106l86 488h-99z" />
    <glyph glyph-name="yen" unicode="&#xa5;" horiz-adv-x="649" 
d="M20 477l13 66h203l-82 870h77l76 -805l357 805h77l-393 -870h203l-10 -66h-219l-25 -141h217l-10 -66h-219l-47 -270h-82l47 270h-217l12 66h217l25 141h-220z" />
    <glyph glyph-name="section" unicode="&#xa7;" horiz-adv-x="706" 
d="M104 713l99 561l139 139h225l135 -135l-49 -279h-82l45 252l-90 90h-143l-104 -104l-82 -455h387l28 -28l-8 -41h-500zM90 -195l-131 132l51 282h80l-45 -256l86 -86h160l104 105l82 469h-387l-29 28l9 41h501l-100 -575l-139 -140h-242z" />
    <glyph glyph-name="dieresis" unicode="&#xa8;" horiz-adv-x="602" 
d="M420 1106l24 151h76l-24 -151h-76zM205 1106l24 151h76l-24 -151h-76z" />
    <glyph glyph-name="copyright" unicode="&#xa9;" horiz-adv-x="1099" 
d="M211 72h477l105 104l190 1071l-94 94h-477l-105 -104l-190 -1071zM170 0l-139 139l200 1135l140 139h559l139 -139l-201 -1135l-139 -139h-559zM391 244l-90 90l133 751l90 91h181l90 -91l-35 -202h-80l31 178l-47 47h-101l-53 -53l-125 -697l47 -47h100l54 54l32 172h80
l-36 -203l-91 -90h-180z" />
    <glyph glyph-name="ordfeminine" unicode="&#xaa;" horiz-adv-x="567" 
d="M246 774h71l117 117l68 385l-68 70h-106l-66 -66l-78 -444zM479 707l-55 55l8 47l-102 -102h-115l-113 112l86 484l111 110h150l75 -78l19 78h63l-110 -616l22 -23h33l-12 -67h-60z" />
    <glyph glyph-name="guillemotleft" unicode="&#xab;" horiz-adv-x="534" 
d="M352 315l-119 402l259 403h83l-262 -407l119 -398h-80zM168 315l-119 402l258 403h84l-262 -407l119 -398h-80z" />
    <glyph glyph-name="registered" unicode="&#xae;" horiz-adv-x="714" 
d="M391 1225l-39 -209h88l43 43l25 127l-39 39h-78zM252 758l90 512h156l67 -68l-28 -162l-66 -65l23 -170h28l-8 -47h-70l-26 211h-74l-37 -211h-55zM250 664h231l92 92l93 520l-88 88h-232l-92 -92l-92 -520zM223 614l-121 121l101 561l116 117h285l121 -121l-100 -561
l-117 -117h-285z" />
    <glyph glyph-name="macron" unicode="&#xaf;" horiz-adv-x="602" 
d="M190 1151l11 63h329l-10 -63h-330z" />
    <glyph glyph-name="degree" unicode="&#xb0;" horiz-adv-x="444" 
d="M246 1069h92l55 55l31 181l-55 55h-93l-55 -55l-31 -181zM213 1016l-90 90l39 217l90 90h151l91 -90l-39 -217l-90 -90h-152z" />
    <glyph glyph-name="twosuperior" unicode="&#xb2;" horiz-adv-x="516" 
d="M76 725l47 264l88 88h192l52 51l28 160l-65 66h-101l-67 -68l-17 -86h-73l20 111l103 102h174l102 -102l-37 -209l-84 -84h-192l-53 -53l-31 -179h295l-11 -61h-370z" />
    <glyph glyph-name="threesuperior" unicode="&#xb3;" horiz-adv-x="548" 
d="M193 725l-103 102l21 111h71l-16 -88l63 -64h121l66 66l24 145l-47 47h-151l10 62h151l70 70l21 112l-64 64h-121l-65 -66l-17 -90h-73l20 115l102 102h191l102 -102l-24 -148l-88 -88l61 -61l-33 -187l-102 -102h-190z" />
    <glyph glyph-name="acute" unicode="&#xb4;" horiz-adv-x="602" 
d="M293 1087l8 46l148 147h59l-8 -45l-148 -148h-59z" />
    <glyph glyph-name="paragraph" unicode="&#xb6;" horiz-adv-x="942" 
d="M223 240h178l197 1101h-203l-104 -104l-162 -903zM324 -197l12 72h160l104 105l242 1361h-164l-207 -1173h-289l-139 139l172 967l139 139h582l-260 -1470l-139 -140h-213z" />
    <glyph glyph-name="periodcentered" unicode="&#xb7;" horiz-adv-x="348" 
d="M102 637l33 188h115l-33 -188h-115z" />
    <glyph glyph-name="cedilla" unicode="&#xb8;" horiz-adv-x="602" 
d="M45 -301l10 55h144l22 23l10 57l-22 23h-74l-8 8l25 135h63l-16 -88h57l51 -51l-18 -111l-51 -51h-193z" />
    <glyph glyph-name="onesuperior" unicode="&#xb9;" horiz-adv-x="454" 
d="M61 725l11 61h137l98 566h-135l10 61h209l-110 -627h133l-13 -61h-340z" />
    <glyph glyph-name="ordmasculine" unicode="&#xba;" horiz-adv-x="567" 
d="M246 774h116l66 66l78 444l-62 62h-116l-66 -66l-78 -444zM215 707l-113 112l86 484l111 110h176l113 -113l-86 -483l-111 -110h-176z" />
    <glyph glyph-name="guillemotright" unicode="&#xbb;" horiz-adv-x="534" 
d="M377 1120l119 -401l-258 -404h-84l262 408l-119 397h80zM193 1120l118 -401l-258 -404h-84l262 408l-118 397h80z" />
    <glyph glyph-name="onequarter" unicode="&#xbc;" horiz-adv-x="1083" 
d="M61 725l11 61h137l98 566h-135l10 61h209l-110 -627h133l-13 -61h-340zM84 0l807 1413h76l-807 -1413h-76zM483 172l9 47l210 469h76l-203 -452h234l82 452h72l-80 -452h73l-10 -64h-76l-28 -172h-74l31 172h-316z" />
    <glyph glyph-name="onehalf" unicode="&#xbd;" horiz-adv-x="1052" 
d="M489 0l48 264l88 88h192l51 51l29 160l-66 66h-100l-67 -68l-17 -86h-74l21 111l102 102h174l103 -102l-37 -209l-84 -84h-193l-53 -53l-31 -179h295l-10 -61h-371zM84 0l807 1413h76l-807 -1413h-76zM61 725l11 61h137l98 566h-135l10 61h209l-110 -627h133l-13 -61
h-340z" />
    <glyph glyph-name="threequarters" unicode="&#xbe;" horiz-adv-x="1126" 
d="M127 0l807 1413h76l-807 -1413h-76zM526 172l9 47l210 469h76l-203 -452h234l82 452h72l-80 -452h73l-10 -64h-76l-28 -172h-74l31 172h-316zM193 725l-103 102l21 111h71l-16 -88l63 -64h121l66 66l24 145l-47 47h-151l10 62h151l70 70l21 112l-64 64h-121l-65 -66
l-17 -90h-73l20 115l102 102h191l102 -102l-24 -148l-88 -88l61 -61l-33 -187l-102 -102h-190z" />
    <glyph glyph-name="questiondown" unicode="&#xbf;" horiz-adv-x="653" 
d="M524 1413l-39 -221h-82l39 221h82zM459 1047l-51 -293l-99 -99h-104l-64 -63l-75 -426l94 -94h155l105 104l29 164h81l-34 -201l-140 -139h-237l-139 139l86 490l98 98h104l64 64l45 256h82z" />
    <glyph glyph-name="Agrave" unicode="&#xc0;" horiz-adv-x="677" 
d="M504 1507l-148 148l9 45h47l147 -148l-8 -45h-47zM451 1354l-283 -834h270zM-90 0l485 1413h127l-10 -1413h-80l6 446h-295l-149 -446h-84z" />
    <glyph glyph-name="Aacute" unicode="&#xc1;" horiz-adv-x="677" 
d="M410 1507l8 45l147 148h60l-9 -45l-147 -148h-59zM451 1354l-283 -834h270zM-90 0l485 1413h127l-10 -1413h-80l6 446h-295l-149 -446h-84z" />
    <glyph glyph-name="Acircumflex" unicode="&#xc2;" horiz-adv-x="677" 
d="M303 1522l6 41l127 127h105l127 -127l-9 -41h-43l-122 123h-11l-123 -123h-57zM451 1354l-283 -834h270zM-90 0l485 1413h127l-10 -1413h-80l6 446h-295l-149 -446h-84z" />
    <glyph glyph-name="Atilde" unicode="&#xc3;" horiz-adv-x="677" 
d="M291 1532l14 70l72 71h92l86 -86h29l37 37l10 49h69l-14 -69l-72 -72h-92l-86 86h-28l-37 -37l-11 -49h-69zM451 1354l-283 -834h270zM-90 0l485 1413h127l-10 -1413h-80l6 446h-295l-149 -446h-84z" />
    <glyph glyph-name="Adieresis" unicode="&#xc4;" horiz-adv-x="677" 
d="M553 1526l25 151h75l-24 -151h-76zM338 1526l24 151h76l-24 -151h-76zM451 1354l-283 -834h270zM-90 0l485 1413h127l-10 -1413h-80l6 446h-295l-149 -446h-84z" />
    <glyph glyph-name="Aring" unicode="&#xc5;" horiz-adv-x="677" 
d="M461 1530h57l33 33l14 82l-33 32h-57l-33 -32l-14 -82zM432 1485l-61 61l18 113l62 61h110l62 -61l-19 -113l-61 -61h-111zM451 1354l-283 -834h270zM-90 0l485 1413h127l-10 -1413h-80l6 446h-295l-149 -446h-84z" />
    <glyph glyph-name="AE" unicode="&#xc6;" horiz-adv-x="964" 
d="M449 520l12 834l-283 -834h271zM4 0h-86l485 1413h596l-12 -72h-450l-5 -596h328l-12 -71h-318l-4 -602h244l-12 -72h-316l7 446h-295z" />
    <glyph glyph-name="Ccedilla" unicode="&#xc7;" horiz-adv-x="716" 
d="M158 0l-140 139l201 1135l139 139h220l139 -139l-41 -227h-82l37 200l-94 94h-138l-104 -104l-191 -1071l95 -94h137l104 104l35 199h82l-41 -236l-139 -139h-98l-17 -88h57l52 -51l-19 -111l-51 -51h-192l10 55h143l23 23l10 57l-23 23h-73l-9 8l25 135h-57z" />
    <glyph glyph-name="Egrave" unicode="&#xc8;" horiz-adv-x="655" 
d="M508 1507l-148 148l9 45h47l147 -148l-8 -45h-47zM6 0l250 1413h434l-12 -72h-352l-107 -596h332l-12 -71h-332l-107 -602h361l-12 -72h-443z" />
    <glyph glyph-name="Eacute" unicode="&#xc9;" horiz-adv-x="655" 
d="M414 1507l8 45l147 148h60l-8 -45l-148 -148h-59zM6 0l250 1413h434l-12 -72h-352l-107 -596h332l-12 -71h-332l-107 -602h361l-12 -72h-443z" />
    <glyph glyph-name="Ecircumflex" unicode="&#xca;" horiz-adv-x="655" 
d="M307 1522l6 41l127 127h105l127 -127l-8 -41h-43l-123 123h-11l-122 -123h-58zM6 0l250 1413h434l-12 -72h-352l-107 -596h332l-12 -71h-332l-107 -602h361l-12 -72h-443z" />
    <glyph glyph-name="Edieresis" unicode="&#xcb;" horiz-adv-x="655" 
d="M557 1526l25 151h75l-24 -151h-76zM342 1526l25 151h75l-24 -151h-76zM6 0l250 1413h434l-12 -72h-352l-107 -596h332l-12 -71h-332l-107 -602h361l-12 -72h-443z" />
    <glyph glyph-name="Igrave" unicode="&#xcc;" horiz-adv-x="512" 
d="M422 1507l-148 148l9 45h47l147 -148l-8 -45h-47zM180 1346l13 67h376l-12 -67h-149l-226 -1278h150l-13 -68h-376l12 68h145l226 1278h-146z" />
    <glyph glyph-name="Iacute" unicode="&#xcd;" horiz-adv-x="512" 
d="M328 1507l8 45l147 148h60l-8 -45l-148 -148h-59zM180 1346l13 67h376l-12 -67h-149l-226 -1278h150l-13 -68h-376l12 68h145l226 1278h-146z" />
    <glyph glyph-name="Icircumflex" unicode="&#xce;" horiz-adv-x="512" 
d="M221 1522l6 41l127 127h105l127 -127l-8 -41h-43l-123 123h-11l-122 -123h-58zM180 1346l13 67h376l-12 -67h-149l-226 -1278h150l-13 -68h-376l12 68h145l226 1278h-146z" />
    <glyph glyph-name="Idieresis" unicode="&#xcf;" horiz-adv-x="512" 
d="M471 1526l25 151h75l-24 -151h-76zM256 1526l25 151h75l-24 -151h-76zM180 1346l13 67h376l-12 -67h-149l-226 -1278h150l-13 -68h-376l12 68h145l226 1278h-146z" />
    <glyph glyph-name="Eth" unicode="&#xd0;" horiz-adv-x="765" 
d="M100 72h267l104 104l191 1071l-95 94h-241l-105 -585h187l-13 -70h-186zM16 686l13 70h110l117 657h352l140 -139l-201 -1135l-139 -139h-402l121 686h-111z" />
    <glyph glyph-name="Ntilde" unicode="&#xd1;" horiz-adv-x="794" 
d="M350 1532l15 70l71 71h92l86 -86h29l37 37l10 49h70l-15 -69l-71 -72h-92l-86 86h-29l-37 -37l-10 -49h-70zM6 0l250 1413h86l154 -1214l215 1214h77l-249 -1413h-86l-154 1221l-215 -1221h-78z" />
    <glyph glyph-name="Ograve" unicode="&#xd2;" horiz-adv-x="761" 
d="M522 1507l-147 148l8 45h47l148 -148l-9 -45h-47zM199 72h163l105 104l190 1071l-94 94h-164l-104 -104l-191 -1071zM158 0l-140 139l201 1135l139 139h246l139 -139l-200 -1135l-140 -139h-245z" />
    <glyph glyph-name="Oacute" unicode="&#xd3;" horiz-adv-x="761" 
d="M428 1507l8 45l148 148h59l-8 -45l-148 -148h-59zM199 72h163l105 104l190 1071l-94 94h-164l-104 -104l-191 -1071zM158 0l-140 139l201 1135l139 139h246l139 -139l-200 -1135l-140 -139h-245z" />
    <glyph glyph-name="Ocircumflex" unicode="&#xd4;" horiz-adv-x="761" 
d="M322 1522l6 41l127 127h104l127 -127l-8 -41h-43l-123 123h-10l-123 -123h-57zM199 72h163l105 104l190 1071l-94 94h-164l-104 -104l-191 -1071zM158 0l-140 139l201 1135l139 139h246l139 -139l-200 -1135l-140 -139h-245z" />
    <glyph glyph-name="Otilde" unicode="&#xd5;" horiz-adv-x="761" 
d="M309 1532l15 70l71 71h92l86 -86h29l37 37l10 49h70l-14 -69l-72 -72h-92l-86 86h-29l-37 -37l-10 -49h-70zM199 72h163l105 104l190 1071l-94 94h-164l-104 -104l-191 -1071zM158 0l-140 139l201 1135l139 139h246l139 -139l-200 -1135l-140 -139h-245z" />
    <glyph glyph-name="Odieresis" unicode="&#xd6;" horiz-adv-x="761" 
d="M571 1526l25 151h76l-25 -151h-76zM356 1526l25 151h76l-25 -151h-76zM199 72h163l105 104l190 1071l-94 94h-164l-104 -104l-191 -1071zM158 0l-140 139l201 1135l139 139h246l139 -139l-200 -1135l-140 -139h-245z" />
    <glyph glyph-name="multiply" unicode="&#xd7;" horiz-adv-x="698" 
d="M139 440l-49 49l213 213l-213 216l49 49l213 -215l215 215l49 -49l-215 -216l215 -213l-49 -49l-215 213z" />
    <glyph glyph-name="Oslash" unicode="&#xd8;" horiz-adv-x="761" 
d="M125 141l463 1180l-21 20h-168l-104 -104l-191 -1075zM195 72h167l105 104l190 1075l-20 21l-463 -1180zM158 0l-140 139l201 1135l139 139h246l139 -139l-200 -1135l-140 -139h-245z" />
    <glyph glyph-name="Ugrave" unicode="&#xd9;" horiz-adv-x="749" 
d="M539 1507l-148 148l8 45h47l148 -148l-8 -45h-47zM164 0l-139 139l225 1274h82l-221 -1247l94 -94h145l105 104l219 1237h82l-226 -1274l-139 -139h-227z" />
    <glyph glyph-name="Uacute" unicode="&#xda;" horiz-adv-x="749" 
d="M444 1507l9 45l147 148h59l-8 -45l-147 -148h-60zM164 0l-139 139l225 1274h82l-221 -1247l94 -94h145l105 104l219 1237h82l-226 -1274l-139 -139h-227z" />
    <glyph glyph-name="Ucircumflex" unicode="&#xdb;" horiz-adv-x="749" 
d="M338 1522l6 41l127 127h104l127 -127l-8 -41h-43l-123 123h-10l-123 -123h-57zM164 0l-139 139l225 1274h82l-221 -1247l94 -94h145l105 104l219 1237h82l-226 -1274l-139 -139h-227z" />
    <glyph glyph-name="Udieresis" unicode="&#xdc;" horiz-adv-x="749" 
d="M588 1526l24 151h76l-24 -151h-76zM373 1526l24 151h76l-24 -151h-76zM164 0l-139 139l225 1274h82l-221 -1247l94 -94h145l105 104l219 1237h82l-226 -1274l-139 -139h-227z" />
    <glyph glyph-name="Yacute" unicode="&#xdd;" horiz-adv-x="649" 
d="M393 1507l8 45l148 148h59l-8 -45l-147 -148h-60zM156 0l86 485l-88 928h77l76 -799l355 799h79l-417 -928l-86 -485h-82z" />
    <glyph glyph-name="Thorn" unicode="&#xde;" horiz-adv-x="720" 
d="M504 1071h-228l-120 -680h250l104 105l88 481zM6 0l250 1413h82l-49 -270h256l139 -139l-98 -545l-140 -140h-303l-55 -319h-82z" />
    <glyph glyph-name="germandbls" unicode="&#xdf;" horiz-adv-x="722" 
d="M-16 0l229 1292l121 121h268l121 -121l-70 -399l-141 -141l100 -101l-94 -530l-121 -121h-229l12 68h178l86 86l84 473l-92 92h-141l12 67h137l136 136l59 346l-78 78h-188l-86 -86l-224 -1260h-79z" />
    <glyph glyph-name="agrave" unicode="&#xe0;" 
d="M434 1087l-147 148l8 45h47l147 -147l-8 -46h-47zM170 68h57l181 180l98 559l-115 117h-90l-86 -86l-123 -693zM432 0l-47 47l16 109l-155 -156h-117l-121 121l133 749l121 121h154l108 -110l27 110h67l-159 -909l18 -19h68l-10 -63h-103z" />
    <glyph glyph-name="aacute" unicode="&#xe1;" 
d="M340 1087l8 46l148 147h59l-8 -45l-148 -148h-59zM170 68h57l181 180l98 559l-115 117h-90l-86 -86l-123 -693zM432 0l-47 47l16 109l-155 -156h-117l-121 121l133 749l121 121h154l108 -110l27 110h67l-159 -909l18 -19h68l-10 -63h-103z" />
    <glyph glyph-name="acircumflex" unicode="&#xe2;" 
d="M233 1102l7 41l127 127h104l127 -127l-8 -41h-43l-123 123h-10l-123 -123h-58zM170 68h57l181 180l98 559l-115 117h-90l-86 -86l-123 -693zM432 0l-47 47l16 109l-155 -156h-117l-121 121l133 749l121 121h154l108 -110l27 110h67l-159 -909l18 -19h68l-10 -63h-103z
" />
    <glyph glyph-name="atilde" unicode="&#xe3;" 
d="M221 1112l15 70l71 71h92l86 -86h29l37 37l10 49h70l-15 -69l-71 -72h-92l-86 86h-29l-37 -37l-10 -49h-70zM170 68h57l181 180l98 559l-115 117h-90l-86 -86l-123 -693zM432 0l-47 47l16 109l-155 -156h-117l-121 121l133 749l121 121h154l108 -110l27 110h67l-159 -909
l18 -19h68l-10 -63h-103z" />
    <glyph glyph-name="adieresis" unicode="&#xe4;" 
d="M483 1106l25 151h76l-25 -151h-76zM268 1106l25 151h76l-25 -151h-76zM170 68h57l181 180l98 559l-115 117h-90l-86 -86l-123 -693zM432 0l-47 47l16 109l-155 -156h-117l-121 121l133 749l121 121h154l108 -110l27 110h67l-159 -909l18 -19h68l-10 -63h-103z" />
    <glyph glyph-name="aring" unicode="&#xe5;" 
d="M391 1110h58l32 33l15 82l-33 32h-57l-33 -32l-15 -82zM362 1065l-61 61l18 113l62 61h111l61 -61l-18 -113l-62 -61h-111zM170 68h57l181 180l98 559l-115 117h-90l-86 -86l-123 -693zM432 0l-47 47l16 109l-155 -156h-117l-121 121l133 749l121 121h154l108 -110
l27 110h67l-159 -909l18 -19h68l-10 -63h-103z" />
    <glyph glyph-name="ae" unicode="&#xe6;" horiz-adv-x="1032" 
d="M586 838l-51 -289h288l54 297l-78 78h-127zM299 68l86 86l57 327h-237l-86 -86l-45 -250l78 -77h147zM111 0l-121 121l55 307l121 121h289l53 297l-78 78h-129l-86 -86l-22 -129h-80l28 161l121 121h205l84 -86l86 86h203l121 -121l-70 -389h-369l-59 -336l78 -77h127
l86 86l22 131h80l-29 -164l-120 -121h-203l-86 84l-84 -84h-223z" />
    <glyph glyph-name="ccedilla" unicode="&#xe7;" horiz-adv-x="630" 
d="M129 0l-121 121l133 749l121 121h203l121 -121l-33 -188h-80l29 164l-78 78h-123l-86 -86l-123 -693l78 -77h123l86 86l27 155h79l-32 -188l-121 -121h-84l-17 -88h58l51 -51l-18 -111l-52 -51h-192l10 55h143l23 23l10 57l-22 23h-74l-8 8l24 135h-55z" />
    <glyph glyph-name="egrave" unicode="&#xe8;" horiz-adv-x="661" 
d="M418 1087l-148 148l9 45h47l147 -147l-8 -46h-47zM215 838l-51 -289h289l53 297l-78 78h-127zM129 0l-121 121l133 749l121 121h207l121 -121l-70 -389h-368l-60 -336l78 -77h127l86 86l23 131h79l-28 -164l-121 -121h-207z" />
    <glyph glyph-name="eacute" unicode="&#xe9;" horiz-adv-x="661" 
d="M324 1087l8 46l147 147h60l-9 -45l-147 -148h-59zM215 838l-51 -289h289l53 297l-78 78h-127zM129 0l-121 121l133 749l121 121h207l121 -121l-70 -389h-368l-60 -336l78 -77h127l86 86l23 131h79l-28 -164l-121 -121h-207z" />
    <glyph glyph-name="ecircumflex" unicode="&#xea;" horiz-adv-x="661" 
d="M217 1102l6 41l127 127h105l127 -127l-9 -41h-43l-122 123h-11l-123 -123h-57zM215 838l-51 -289h289l53 297l-78 78h-127zM129 0l-121 121l133 749l121 121h207l121 -121l-70 -389h-368l-60 -336l78 -77h127l86 86l23 131h79l-28 -164l-121 -121h-207z" />
    <glyph glyph-name="edieresis" unicode="&#xeb;" horiz-adv-x="661" 
d="M467 1106l25 151h75l-24 -151h-76zM252 1106l24 151h76l-24 -151h-76zM215 838l-51 -289h289l53 297l-78 78h-127zM129 0l-121 121l133 749l121 121h207l121 -121l-70 -389h-368l-60 -336l78 -77h127l86 86l23 131h79l-28 -164l-121 -121h-207z" />
    <glyph glyph-name="igrave" unicode="&#xec;" horiz-adv-x="354" 
d="M256 1087l-147 148l8 45h47l147 -147l-8 -46h-47zM68 0l-58 57l164 934h80l-160 -909l19 -19h67l-10 -63h-102z" />
    <glyph glyph-name="iacute" unicode="&#xed;" horiz-adv-x="354" 
d="M162 1087l8 46l147 147h60l-8 -45l-148 -148h-59zM68 0l-58 57l164 934h80l-160 -909l19 -19h67l-10 -63h-102z" />
    <glyph glyph-name="icircumflex" unicode="&#xee;" horiz-adv-x="354" 
d="M55 1102l6 41l127 127h105l127 -127l-8 -41h-43l-123 123h-10l-123 -123h-58zM68 0l-58 57l164 934h80l-160 -909l19 -19h67l-10 -63h-102z" />
    <glyph glyph-name="idieresis" unicode="&#xef;" horiz-adv-x="354" 
d="M90 1106l25 151h75l-24 -151h-76zM305 1106l25 151h76l-25 -151h-76zM68 0l-58 57l164 934h80l-160 -909l19 -19h67l-10 -63h-102z" />
    <glyph glyph-name="eth" unicode="&#xf0;" 
d="M317 68l86 86l115 655l-115 115h-102l-86 -86l-123 -693l78 -77h147zM129 0l-121 121l133 749l121 121h166l104 -104l41 233l-241 242l10 51h45l242 -242l127 127h22l-16 -88l-111 -110l-174 -979l-121 -121h-227z" />
    <glyph glyph-name="ntilde" unicode="&#xf1;" horiz-adv-x="684" 
d="M211 1112l14 70l72 71h92l86 -86h29l37 37l10 49h70l-15 -69l-71 -72h-93l-86 86h-28l-37 -37l-10 -49h-70zM-16 0l176 991h67l-20 -137l137 137h121l121 -121l-140 -788l19 -19h67l-10 -63h-102l-58 57l140 789l-82 82h-49l-176 -176l-132 -752h-79z" />
    <glyph glyph-name="ograve" unicode="&#xf2;" 
d="M418 1087l-148 148l9 45h47l147 -147l-8 -46h-47zM170 68h147l86 86l123 692l-77 78h-148l-86 -86l-123 -693zM129 0l-121 121l133 749l121 121h227l121 -121l-133 -749l-121 -121h-227z" />
    <glyph glyph-name="oacute" unicode="&#xf3;" 
d="M324 1087l8 46l147 147h60l-9 -45l-147 -148h-59zM170 68h147l86 86l123 692l-77 78h-148l-86 -86l-123 -693zM129 0l-121 121l133 749l121 121h227l121 -121l-133 -749l-121 -121h-227z" />
    <glyph glyph-name="ocircumflex" unicode="&#xf4;" 
d="M217 1102l6 41l127 127h105l127 -127l-9 -41h-43l-122 123h-11l-123 -123h-57zM170 68h147l86 86l123 692l-77 78h-148l-86 -86l-123 -693zM129 0l-121 121l133 749l121 121h227l121 -121l-133 -749l-121 -121h-227z" />
    <glyph glyph-name="otilde" unicode="&#xf5;" 
d="M205 1112l14 70l72 71h92l86 -86h29l37 37l10 49h69l-14 -69l-72 -72h-92l-86 86h-28l-37 -37l-11 -49h-69zM170 68h147l86 86l123 692l-77 78h-148l-86 -86l-123 -693zM129 0l-121 121l133 749l121 121h227l121 -121l-133 -749l-121 -121h-227z" />
    <glyph glyph-name="odieresis" unicode="&#xf6;" 
d="M467 1106l25 151h75l-24 -151h-76zM252 1106l24 151h76l-24 -151h-76zM170 68h147l86 86l123 692l-77 78h-148l-86 -86l-123 -693zM129 0l-121 121l133 749l121 121h227l121 -121l-133 -749l-121 -121h-227z" />
    <glyph glyph-name="divide" unicode="&#xf7;" horiz-adv-x="686" 
d="M336 885l26 145h84l-26 -145h-84zM76 668l14 73h528l-14 -73h-528zM246 375l26 145h84l-26 -145h-84z" />
    <glyph glyph-name="oslash" unicode="&#xf8;" 
d="M109 125l360 782l-16 17h-152l-86 -86l-123 -697zM166 68h151l86 86l123 696l-16 16l-360 -782zM129 0l-121 121l133 749l121 121h227l121 -121l-133 -749l-121 -121h-227z" />
    <glyph glyph-name="ugrave" unicode="&#xf9;" horiz-adv-x="667" 
d="M416 1087l-148 148l8 45h48l147 -147l-8 -46h-47zM406 0l-48 47l15 98l-146 -145h-102l-121 121l154 870h80l-150 -846l82 -82h35l174 175l135 753h78l-160 -909l19 -19h67l-10 -63h-102z" />
    <glyph glyph-name="uacute" unicode="&#xfa;" horiz-adv-x="667" 
d="M322 1087l8 46l147 147h60l-9 -45l-147 -148h-59zM406 0l-48 47l15 98l-146 -145h-102l-121 121l154 870h80l-150 -846l82 -82h35l174 175l135 753h78l-160 -909l19 -19h67l-10 -63h-102z" />
    <glyph glyph-name="ucircumflex" unicode="&#xfb;" horiz-adv-x="667" 
d="M215 1102l6 41l127 127h105l127 -127l-9 -41h-43l-122 123h-11l-123 -123h-57zM406 0l-48 47l15 98l-146 -145h-102l-121 121l154 870h80l-150 -846l82 -82h35l174 175l135 753h78l-160 -909l19 -19h67l-10 -63h-102z" />
    <glyph glyph-name="udieresis" unicode="&#xfc;" horiz-adv-x="667" 
d="M465 1106l24 151h76l-24 -151h-76zM250 1106l24 151h76l-24 -151h-76zM406 0l-48 47l15 98l-146 -145h-102l-121 121l154 870h80l-150 -846l82 -82h35l174 175l135 753h78l-160 -909l19 -19h67l-10 -63h-102z" />
    <glyph glyph-name="yacute" unicode="&#xfd;" horiz-adv-x="595" 
d="M287 1087l8 46l147 147h60l-8 -45l-148 -148h-59zM102 0l-10 991h82l2 -940l340 940h80l-442 -1210l-129 -129h-177l13 67h125l106 107l64 174h-54z" />
    <glyph glyph-name="thorn" unicode="&#xfe;" horiz-adv-x="679" 
d="M373 924l-178 -179l-99 -557l123 -120h84l86 86l123 692l-78 78h-61zM-78 -348l311 1761h80l-100 -563l141 141h121l121 -121l-133 -749l-121 -121h-149l-111 109l-80 -457h-80z" />
    <glyph glyph-name="ydieresis" unicode="&#xff;" horiz-adv-x="595" 
d="M430 1106l25 151h75l-24 -151h-76zM215 1106l25 151h75l-24 -151h-76zM102 0l-10 991h82l2 -940l340 940h80l-442 -1210l-129 -129h-177l13 67h125l106 107l64 174h-54z" />
    <glyph glyph-name="Amacron" unicode="&#x100;" horiz-adv-x="677" 
d="M326 1571l10 63h330l-11 -63h-329zM451 1354l-283 -834h270zM-90 0l485 1413h127l-10 -1413h-80l6 446h-295l-149 -446h-84z" />
    <glyph glyph-name="amacron" unicode="&#x101;" 
d="M256 1151l10 63h330l-10 -63h-330zM170 68h57l181 180l98 559l-115 117h-90l-86 -86l-123 -693zM432 0l-47 47l16 109l-155 -156h-117l-121 121l133 749l121 121h154l108 -110l27 110h67l-159 -909l18 -19h68l-10 -63h-103z" />
    <glyph glyph-name="Abreve" unicode="&#x102;" horiz-adv-x="677" 
d="M395 1532l-73 74l12 73h72l-11 -57l37 -37h117l41 41l10 53h70l-13 -73l-73 -74h-189zM451 1354l-283 -834h270zM-90 0l485 1413h127l-10 -1413h-80l6 446h-295l-149 -446h-84z" />
    <glyph glyph-name="abreve" unicode="&#x103;" 
d="M326 1112l-74 74l12 74h72l-10 -58l36 -37h117l41 41l10 54h70l-12 -74l-74 -74h-188zM170 68h57l181 180l98 559l-115 117h-90l-86 -86l-123 -693zM432 0l-47 47l16 109l-155 -156h-117l-121 121l133 749l121 121h154l108 -110l27 110h67l-159 -909l18 -19h68l-10 -63
h-103z" />
    <glyph glyph-name="Aogonek" unicode="&#x104;" horiz-adv-x="677" 
d="M451 1354l-283 -834h270zM-90 0l485 1413h127l-10 -1413l-129 -129l-16 -98l18 -19h82l-10 -55h-111l-55 55l24 133l117 117l6 442h-295l-149 -446h-84z" />
    <glyph glyph-name="aogonek" unicode="&#x105;" 
d="M170 68h57l181 180l98 559l-115 117h-90l-86 -86l-123 -693zM350 -301l-55 55l24 133l113 113l-47 47l16 109l-155 -156h-117l-121 121l133 749l121 121h154l108 -110l27 110h67l-159 -909l18 -19h68l-10 -63h-19l-129 -129l-16 -98l18 -19h82l-10 -55h-111z" />
    <glyph glyph-name="Cacute" unicode="&#x106;" horiz-adv-x="716" 
d="M422 1507l8 45l148 148h59l-8 -45l-148 -148h-59zM158 0l-140 139l201 1135l139 139h220l139 -139l-41 -227h-82l37 200l-94 94h-138l-104 -104l-191 -1071l95 -94h137l104 104l35 199h82l-41 -236l-139 -139h-219z" />
    <glyph glyph-name="cacute" unicode="&#x107;" horiz-adv-x="630" 
d="M315 1087l9 46l147 147h59l-8 -45l-147 -148h-60zM129 0l-121 121l133 749l121 121h203l121 -121l-33 -188h-80l29 164l-78 78h-123l-86 -86l-123 -693l78 -77h123l86 86l27 155h79l-32 -188l-121 -121h-203z" />
    <glyph glyph-name="Ccircumflex" unicode="&#x108;" horiz-adv-x="716" 
d="M315 1522l7 41l127 127h104l127 -127l-8 -41h-43l-123 123h-10l-123 -123h-58zM158 0l-140 139l201 1135l139 139h220l139 -139l-41 -227h-82l37 200l-94 94h-138l-104 -104l-191 -1071l95 -94h137l104 104l35 199h82l-41 -236l-139 -139h-219z" />
    <glyph glyph-name="ccircumflex" unicode="&#x109;" horiz-adv-x="630" 
d="M209 1102l6 41l127 127h104l127 -127l-8 -41h-43l-123 123h-10l-123 -123h-57zM129 0l-121 121l133 749l121 121h203l121 -121l-33 -188h-80l29 164l-78 78h-123l-86 -86l-123 -693l78 -77h123l86 86l27 155h79l-32 -188l-121 -121h-203z" />
    <glyph glyph-name="Ccaron" unicode="&#x10c;" horiz-adv-x="716" 
d="M453 1522l-127 127l8 41h43l123 -123h10l123 123h57l-6 -41l-127 -127h-104zM158 0l-140 139l201 1135l139 139h220l139 -139l-41 -227h-82l37 200l-94 94h-138l-104 -104l-191 -1071l95 -94h137l104 104l35 199h82l-41 -236l-139 -139h-219z" />
    <glyph glyph-name="ccaron" unicode="&#x10d;" horiz-adv-x="630" 
d="M346 1102l-127 127l8 41h43l123 -123h10l123 123h58l-6 -41l-127 -127h-105zM129 0l-121 121l133 749l121 121h203l121 -121l-33 -188h-80l29 164l-78 78h-123l-86 -86l-123 -693l78 -77h123l86 86l27 155h79l-32 -188l-121 -121h-203z" />
    <glyph glyph-name="Dcaron" unicode="&#x10e;" horiz-adv-x="765" 
d="M461 1522l-127 127l8 41h43l123 -123h10l123 123h57l-6 -41l-127 -127h-104zM100 72h267l104 104l191 1071l-95 94h-241zM6 0l250 1413h352l140 -139l-201 -1135l-139 -139h-402z" />
    <glyph glyph-name="dcaron" unicode="&#x10f;" 
d="M735 1182l41 231h72l-39 -215l-16 -16h-58zM170 68h57l181 180l98 559l-115 117h-90l-86 -86l-123 -693zM432 0l-47 47l16 109l-155 -156h-117l-121 121l133 749l121 121h154l104 -106l94 528h80l-235 -1331l18 -19h68l-10 -63h-103z" />
    <glyph glyph-name="Dcroat" unicode="&#x110;" horiz-adv-x="765" 
d="M100 72h267l104 104l191 1071l-95 94h-241l-105 -585h187l-13 -70h-186zM16 686l13 70h110l117 657h352l140 -139l-201 -1135l-139 -139h-402l121 686h-111z" />
    <glyph glyph-name="dcroat" unicode="&#x111;" 
d="M170 68h57l181 180l98 559l-115 117h-90l-86 -86l-123 -693zM432 0l-47 47l16 109l-155 -156h-117l-121 121l133 749l121 121h154l104 -106l51 289h-153l10 63h156l30 176h80l-30 -176h81l-10 -63h-84l-192 -1092l18 -19h68l-10 -63h-103z" />
    <glyph glyph-name="Emacron" unicode="&#x112;" horiz-adv-x="655" 
d="M330 1571l10 63h330l-11 -63h-329zM6 0l250 1413h434l-12 -72h-352l-107 -596h332l-12 -71h-332l-107 -602h361l-12 -72h-443z" />
    <glyph glyph-name="emacron" unicode="&#x113;" horiz-adv-x="661" 
d="M240 1151l10 63h330l-11 -63h-329zM215 838l-51 -289h289l53 297l-78 78h-127zM129 0l-121 121l133 749l121 121h207l121 -121l-70 -389h-368l-60 -336l78 -77h127l86 86l23 131h79l-28 -164l-121 -121h-207z" />
    <glyph glyph-name="Edotaccent" unicode="&#x116;" horiz-adv-x="655" 
d="M463 1526l-31 30l14 93l31 30h60l30 -30l-14 -93l-31 -30h-59zM6 0l250 1413h434l-12 -72h-352l-107 -596h332l-12 -71h-332l-107 -602h361l-12 -72h-443z" />
    <glyph glyph-name="edotaccent" unicode="&#x117;" horiz-adv-x="661" 
d="M373 1106l-31 31l14 92l31 31h59l31 -31l-14 -92l-31 -31h-59zM215 838l-51 -289h289l53 297l-78 78h-127zM129 0l-121 121l133 749l121 121h207l121 -121l-70 -389h-368l-60 -336l78 -77h127l86 86l23 131h79l-28 -164l-121 -121h-207z" />
    <glyph glyph-name="Eogonek" unicode="&#x118;" horiz-adv-x="655" 
d="M6 0l250 1413h434l-12 -72h-352l-107 -596h332l-12 -71h-332l-107 -602h361l-12 -72l-130 -129l-16 -98l19 -19h81l-10 -55h-110l-56 55l25 133l113 113h-359z" />
    <glyph glyph-name="eogonek" unicode="&#x119;" horiz-adv-x="661" 
d="M215 838l-51 -289h289l53 297l-78 78h-127zM129 0l-121 121l133 749l121 121h207l121 -121l-70 -389h-368l-60 -336l78 -77h127l86 86l23 131h79l-28 -164l-250 -250l-17 -98l19 -19h82l-10 -55h-111l-55 55l24 133l113 113h-123z" />
    <glyph glyph-name="Ecaron" unicode="&#x11a;" horiz-adv-x="655" 
d="M444 1522l-127 127l9 41h43l123 -123h10l123 123h57l-6 -41l-127 -127h-105zM6 0l250 1413h434l-12 -72h-352l-107 -596h332l-12 -71h-332l-107 -602h361l-12 -72h-443z" />
    <glyph glyph-name="ecaron" unicode="&#x11b;" horiz-adv-x="661" 
d="M354 1102l-127 127l9 41h43l122 -123h11l123 123h57l-6 -41l-127 -127h-105zM215 838l-51 -289h289l53 297l-78 78h-127zM129 0l-121 121l133 749l121 121h207l121 -121l-70 -389h-368l-60 -336l78 -77h127l86 86l23 131h79l-28 -164l-121 -121h-207z" />
    <glyph glyph-name="Gcircumflex" unicode="&#x11c;" horiz-adv-x="731" 
d="M319 1522l7 41l127 127h104l127 -127l-8 -41h-43l-123 123h-10l-123 -123h-58zM158 0l-140 139l201 1135l139 139h228l139 -139l-35 -203h-82l31 176l-94 94h-146l-104 -104l-191 -1071l95 -94h145l105 104l79 449h-178l12 71h261l-99 -557l-139 -139h-227z" />
    <glyph glyph-name="gcircumflex" unicode="&#x11d;" 
d="M236 1102l6 41l127 127h104l127 -127l-8 -41h-43l-123 123h-10l-123 -123h-57zM180 125h58l190 190l86 492l-115 117h-98l-86 -86l-113 -635zM61 -348l-110 110l24 134h80l-20 -109l67 -68h150l86 86l72 406l-154 -154h-117l-121 121l123 692l121 121h162l108 -110
l27 110h68l-215 -1218l-121 -121h-230z" />
    <glyph glyph-name="Gbreve" unicode="&#x11e;" horiz-adv-x="731" 
d="M412 1532l-74 74l12 73h72l-10 -57l37 -37h116l41 41l10 53h70l-12 -73l-74 -74h-188zM158 0l-140 139l201 1135l139 139h228l139 -139l-35 -203h-82l31 176l-94 94h-146l-104 -104l-191 -1071l95 -94h145l105 104l79 449h-178l12 71h261l-99 -557l-139 -139h-227z" />
    <glyph glyph-name="gbreve" unicode="&#x11f;" 
d="M328 1112l-74 74l12 74h72l-10 -58l37 -37h116l41 41l10 54h70l-12 -74l-74 -74h-188zM180 125h58l190 190l86 492l-115 117h-98l-86 -86l-113 -635zM61 -348l-110 110l24 134h80l-20 -109l67 -68h150l86 86l72 406l-154 -154h-117l-121 121l123 692l121 121h162
l108 -110l27 110h68l-215 -1218l-121 -121h-230z" />
    <glyph glyph-name="Gcommaaccent" unicode="&#x122;" horiz-adv-x="731" 
d="M180 -305l41 231h72l-39 -215l-16 -16h-58zM158 0l-140 139l201 1135l139 139h228l139 -139l-35 -203h-82l31 176l-94 94h-146l-104 -104l-191 -1071l95 -94h145l105 104l79 449h-178l12 71h261l-99 -557l-139 -139h-227z" />
    <glyph glyph-name="gcommaaccent" unicode="&#x123;" 
d="M479 1311l-41 -232h-71l39 215l16 17h57zM180 125h58l190 190l86 492l-115 117h-98l-86 -86l-113 -635zM61 -348l-110 110l24 134h80l-20 -109l67 -68h150l86 86l72 406l-154 -154h-117l-121 121l123 692l121 121h162l108 -110l27 110h68l-215 -1218l-121 -121h-230z" />
    <glyph glyph-name="Hcircumflex" unicode="&#x124;" horiz-adv-x="768" 
d="M348 1522l6 41l127 127h105l127 -127l-8 -41h-43l-123 123h-11l-122 -123h-58zM430 0l117 664h-342l-117 -664h-82l250 1413h82l-119 -672h342l119 672h82l-250 -1413h-82z" />
    <glyph glyph-name="hcircumflex" unicode="&#x125;" horiz-adv-x="684" 
d="M109 1458l6 41l127 127h104l127 -127l-8 -41h-43l-123 123h-10l-123 -123h-57zM-16 0l249 1413h80l-100 -563l141 141h111l121 -121l-140 -788l19 -19h67l-10 -63h-102l-58 57l140 789l-82 82h-43l-182 -183l-132 -745h-79z" />
    <glyph glyph-name="Imacron" unicode="&#x12a;" horiz-adv-x="512" 
d="M244 1571l10 63h330l-11 -63h-329zM180 1346l13 67h376l-12 -67h-149l-226 -1278h150l-13 -68h-376l12 68h145l226 1278h-146z" />
    <glyph glyph-name="imacron" unicode="&#x12b;" horiz-adv-x="354" 
d="M78 1151l10 63h330l-10 -63h-330zM68 0l-58 57l164 934h80l-160 -909l19 -19h67l-10 -63h-102z" />
    <glyph glyph-name="Iogonek" unicode="&#x12e;" horiz-adv-x="512" 
d="M8 -301l-55 55l24 133l113 113h-147l12 68h145l226 1278h-146l13 67h376l-12 -67h-149l-226 -1278h150l-13 -68h-145l-129 -129l-16 -98l18 -19h82l-10 -55h-111z" />
    <glyph glyph-name="iogonek" unicode="&#x12f;" horiz-adv-x="354" 
d="M209 1180l35 200h80l-35 -200h-80zM-14 -301l-56 55l25 133l113 113l-58 57l164 934h80l-160 -909l19 -19h67l-10 -63h-18l-129 -129l-17 -98l19 -19h81l-10 -55h-110z" />
    <glyph glyph-name="Idotaccent" unicode="&#x130;" horiz-adv-x="512" 
d="M377 1526l-31 30l14 93l31 30h60l30 -30l-14 -93l-31 -30h-59zM180 1346l13 67h376l-12 -67h-149l-226 -1278h150l-13 -68h-376l12 68h145l226 1278h-146z" />
    <glyph glyph-name="dotlessi" unicode="&#x131;" horiz-adv-x="354" 
d="M68 0l-58 57l164 934h80l-160 -909l19 -19h67l-10 -63h-102z" />
    <glyph glyph-name="Jcircumflex" unicode="&#x134;" horiz-adv-x="497" 
d="M289 1522l6 41l127 127h104l127 -127l-8 -41h-43l-123 123h-10l-123 -123h-57zM-80 0l12 72h160l105 104l219 1237h82l-226 -1274l-139 -139h-213z" />
    <glyph glyph-name="jcircumflex" unicode="&#x135;" horiz-adv-x="333" 
d="M55 1102l6 41l127 127h105l127 -127l-8 -41h-43l-123 123h-10l-123 -123h-58zM-260 -348l12 67h129l86 86l207 1186h80l-213 -1218l-121 -121h-180z" />
    <glyph glyph-name="Kcommaaccent" unicode="&#x136;" horiz-adv-x="765" 
d="M201 -303l41 231h71l-39 -215l-16 -16h-57zM6 0l250 1413h82l-156 -881l520 881h89l-349 -584l148 -829h-82l-125 735l-229 -360l-66 -375h-82z" />
    <glyph glyph-name="kcommaaccent" unicode="&#x137;" horiz-adv-x="645" 
d="M141 -303l41 231h72l-39 -215l-16 -16h-58zM-16 0l249 1413h80l-178 -1001l410 579h90l-273 -379l130 -612h-80l-109 532l-190 -256l-50 -276h-79z" />
    <glyph glyph-name="Lacute" unicode="&#x139;" horiz-adv-x="575" 
d="M281 1507l8 45l147 148h60l-9 -45l-147 -148h-59zM338 1413l-238 -1341h338l-12 -72h-420l250 1413h82z" />
    <glyph glyph-name="lacute" unicode="&#x13a;" horiz-adv-x="354" 
d="M266 1475l8 45l148 147h59l-8 -45l-147 -147h-60zM68 0l-58 57l240 1356h80l-236 -1331l19 -19h67l-10 -63h-102z" />
    <glyph glyph-name="Lcommaaccent" unicode="&#x13b;" horiz-adv-x="575" 
d="M131 -303l41 231h72l-39 -215l-17 -16h-57zM338 1413l-238 -1341h338l-12 -72h-420l250 1413h82z" />
    <glyph glyph-name="lcommaaccent" unicode="&#x13c;" horiz-adv-x="354" 
d="M-8 -303l41 231h71l-38 -215l-17 -16h-57zM68 0l-58 57l240 1356h80l-236 -1331l19 -19h67l-10 -63h-102z" />
    <glyph glyph-name="Lcaron" unicode="&#x13d;" horiz-adv-x="575" 
d="M438 1245l41 232h72l-39 -215l-16 -17h-58zM338 1413l-238 -1341h338l-12 -72h-420l250 1413h82z" />
    <glyph glyph-name="lcaron" unicode="&#x13e;" horiz-adv-x="354" 
d="M371 1182l41 231h71l-39 -215l-16 -16h-57zM68 0l-58 57l240 1356h80l-236 -1331l19 -19h67l-10 -63h-102z" />
    <glyph glyph-name="Lslash" unicode="&#x141;" horiz-adv-x="575" 
d="M4 604l16 88l119 62l117 659h82l-109 -612l222 117l-19 -89l-219 -114l-113 -643h338l-12 -72h-420l117 668z" />
    <glyph glyph-name="lslash" unicode="&#x142;" horiz-adv-x="364" 
d="M-4 647l14 84l142 74l108 608h80l-100 -563l147 78l-16 -84l-146 -76l-121 -686l19 -19h67l-10 -63h-102l-58 57l117 664z" />
    <glyph glyph-name="Nacute" unicode="&#x143;" horiz-adv-x="794" 
d="M469 1507l8 45l148 148h59l-8 -45l-148 -148h-59zM6 0l250 1413h86l154 -1214l215 1214h77l-249 -1413h-86l-154 1221l-215 -1221h-78z" />
    <glyph glyph-name="nacute" unicode="&#x144;" horiz-adv-x="684" 
d="M330 1087l8 46l147 147h60l-8 -45l-148 -148h-59zM-16 0l176 991h67l-20 -137l137 137h121l121 -121l-140 -788l19 -19h67l-10 -63h-102l-58 57l140 789l-82 82h-49l-176 -176l-132 -752h-79z" />
    <glyph glyph-name="Ncommaaccent" unicode="&#x145;" horiz-adv-x="794" 
d="M184 -303l41 231h72l-39 -215l-16 -16h-58zM6 0l250 1413h86l154 -1214l215 1214h77l-249 -1413h-86l-154 1221l-215 -1221h-78z" />
    <glyph glyph-name="ncommaaccent" unicode="&#x146;" horiz-adv-x="684" 
d="M141 -303l41 231h72l-39 -215l-16 -16h-58zM-16 0l176 991h67l-20 -137l137 137h121l121 -121l-140 -788l19 -19h67l-10 -63h-102l-58 57l140 789l-82 82h-49l-176 -176l-132 -752h-79z" />
    <glyph glyph-name="Ncaron" unicode="&#x147;" horiz-adv-x="794" 
d="M500 1522l-127 127l8 41h43l123 -123h10l123 123h57l-6 -41l-127 -127h-104zM6 0l250 1413h86l154 -1214l215 1214h77l-249 -1413h-86l-154 1221l-215 -1221h-78z" />
    <glyph glyph-name="ncaron" unicode="&#x148;" horiz-adv-x="684" 
d="M360 1102l-127 127l9 41h43l123 -123h10l123 123h57l-6 -41l-127 -127h-105zM-16 0l176 991h67l-20 -137l137 137h121l121 -121l-140 -788l19 -19h67l-10 -63h-102l-58 57l140 789l-82 82h-49l-176 -176l-132 -752h-79z" />
    <glyph glyph-name="Omacron" unicode="&#x14c;" horiz-adv-x="761" 
d="M344 1571l10 63h330l-10 -63h-330zM199 72h163l105 104l190 1071l-94 94h-164l-104 -104l-191 -1071zM158 0l-140 139l201 1135l139 139h246l139 -139l-200 -1135l-140 -139h-245z" />
    <glyph glyph-name="omacron" unicode="&#x14d;" 
d="M240 1151l10 63h330l-11 -63h-329zM170 68h147l86 86l123 692l-77 78h-148l-86 -86l-123 -693zM129 0l-121 121l133 749l121 121h227l121 -121l-133 -749l-121 -121h-227z" />
    <glyph glyph-name="Ohungarumlaut" unicode="&#x150;" horiz-adv-x="761" 
d="M541 1507l8 45l147 148h52l-9 -45l-147 -148h-51zM367 1507l8 45l147 148h51l-8 -45l-147 -148h-51zM199 72h163l105 104l190 1071l-94 94h-164l-104 -104l-191 -1071zM158 0l-140 139l201 1135l139 139h246l139 -139l-200 -1135l-140 -139h-245z" />
    <glyph glyph-name="ohungarumlaut" unicode="&#x151;" 
d="M436 1087l8 46l148 147h51l-8 -45l-148 -148h-51zM262 1087l8 46l148 147h51l-8 -45l-148 -148h-51zM170 68h147l86 86l123 692l-77 78h-148l-86 -86l-123 -693zM129 0l-121 121l133 749l121 121h227l121 -121l-133 -749l-121 -121h-227z" />
    <glyph glyph-name="OE" unicode="&#x152;" horiz-adv-x="1077" 
d="M199 72h241l226 1269h-267l-104 -104l-191 -1071zM158 0l-140 139l201 1135l139 139h754l-12 -72h-352l-107 -596h332l-12 -71h-332l-107 -602h361l-13 -72h-712z" />
    <glyph glyph-name="oe" unicode="&#x153;" horiz-adv-x="1050" 
d="M604 838l-51 -289h289l53 297l-78 78h-127zM170 68h147l86 86l123 692l-77 78h-148l-86 -86l-123 -693zM129 0l-121 121l133 749l121 121h223l84 -86l86 86h203l121 -121l-70 -389h-368l-60 -336l78 -77h127l86 86l23 131h79l-28 -164l-121 -121h-203l-86 84l-84 -84
h-223z" />
    <glyph glyph-name="Racute" unicode="&#x154;" horiz-adv-x="757" 
d="M410 1507l8 45l147 148h60l-9 -45l-147 -148h-59zM326 1341l-109 -616h244l117 117l71 405l-94 94h-229zM416 651h-213l-115 -651h-82l250 1413h340l139 -139l-80 -457l-161 -162l57 -583h84l-12 -72h-146z" />
    <glyph glyph-name="racute" unicode="&#x155;" horiz-adv-x="471" 
d="M270 1087l9 46l147 147h59l-8 -45l-147 -148h-60zM-16 0l176 991h67l-20 -137l137 137h143l-12 -71h-113l-165 -166l-134 -754h-79z" />
    <glyph glyph-name="Rcommaaccent" unicode="&#x156;" horiz-adv-x="757" 
d="M195 -303l41 231h71l-39 -215l-16 -16h-57zM326 1341l-109 -616h244l117 117l71 405l-94 94h-229zM416 651h-213l-115 -651h-82l250 1413h340l139 -139l-80 -457l-161 -162l57 -583h84l-12 -72h-146z" />
    <glyph glyph-name="rcommaaccent" unicode="&#x157;" horiz-adv-x="471" 
d="M-70 -303l41 231h72l-39 -215l-16 -16h-58zM-16 0l176 991h67l-20 -137l137 137h143l-12 -71h-113l-165 -166l-134 -754h-79z" />
    <glyph glyph-name="Rcaron" unicode="&#x158;" horiz-adv-x="757" 
d="M440 1522l-127 127l9 41h43l122 -123h11l123 123h57l-6 -41l-127 -127h-105zM326 1341l-109 -616h244l117 117l71 405l-94 94h-229zM416 651h-213l-115 -651h-82l250 1413h340l139 -139l-80 -457l-161 -162l57 -583h84l-12 -72h-146z" />
    <glyph glyph-name="rcaron" unicode="&#x159;" horiz-adv-x="471" 
d="M301 1102l-127 127l8 41h43l123 -123h10l123 123h58l-7 -41l-126 -127h-105zM-16 0l176 991h67l-20 -137l137 137h143l-12 -71h-113l-165 -166l-134 -754h-79z" />
    <glyph glyph-name="Sacute" unicode="&#x15a;" 
d="M406 1507l8 45l147 148h60l-9 -45l-147 -148h-59zM127 0l-131 131l39 211h80l-33 -184l86 -86h151l105 104l74 422l-64 64l-194 55l-115 114l78 443l139 139h219l135 -135l-37 -207h-81l32 180l-90 90h-137l-104 -104l-68 -379l68 -67l192 -54l113 -112l-84 -486
l-140 -139h-233z" />
    <glyph glyph-name="sacute" unicode="&#x15b;" horiz-adv-x="638" 
d="M303 1087l8 46l148 147h59l-8 -45l-148 -148h-59zM113 0l-123 123l28 162h80l-24 -138l80 -79h129l86 86l43 239l-50 49l-194 52l-92 92l51 284l121 121h198l121 -121l-28 -163h-80l24 139l-77 78h-119l-86 -86l-41 -228l49 -49l197 -53l90 -90l-54 -297l-120 -121h-209z
" />
    <glyph glyph-name="Scircumflex" unicode="&#x15c;" 
d="M299 1522l6 41l127 127h105l127 -127l-9 -41h-43l-123 123h-10l-123 -123h-57zM127 0l-131 131l39 211h80l-33 -184l86 -86h151l105 104l74 422l-64 64l-194 55l-115 114l78 443l139 139h219l135 -135l-37 -207h-81l32 180l-90 90h-137l-104 -104l-68 -379l68 -67
l192 -54l113 -112l-84 -486l-140 -139h-233z" />
    <glyph glyph-name="scircumflex" unicode="&#x15d;" horiz-adv-x="638" 
d="M197 1102l6 41l127 127h104l127 -127l-8 -41h-43l-123 123h-10l-123 -123h-57zM113 0l-123 123l28 162h80l-24 -138l80 -79h129l86 86l43 239l-50 49l-194 52l-92 92l51 284l121 121h198l121 -121l-28 -163h-80l24 139l-77 78h-119l-86 -86l-41 -228l49 -49l197 -53
l90 -90l-54 -297l-120 -121h-209z" />
    <glyph glyph-name="Scedilla" unicode="&#x15e;" 
d="M127 0l-131 131l39 211h80l-33 -184l86 -86h151l105 104l74 422l-64 64l-194 55l-115 114l78 443l139 139h219l135 -135l-37 -207h-81l32 180l-90 90h-137l-104 -104l-68 -379l68 -67l192 -54l113 -112l-84 -486l-140 -139h-92l-16 -88h57l51 -51l-18 -111l-51 -51h-193
l11 55h143l22 23l11 57l-23 23h-74l-8 8l25 135h-78z" />
    <glyph glyph-name="scedilla" unicode="&#x15f;" horiz-adv-x="638" 
d="M113 0l-123 123l28 162h80l-24 -138l80 -79h129l86 86l43 239l-50 49l-194 52l-92 92l51 284l121 121h198l121 -121l-28 -163h-80l24 139l-77 78h-119l-86 -86l-41 -228l49 -49l197 -53l90 -90l-54 -297l-120 -121h-89l-16 -88h57l52 -51l-19 -111l-51 -51h-193l11 55
h143l23 23l10 57l-23 23h-73l-9 8l25 135h-57z" />
    <glyph glyph-name="Scaron" unicode="&#x160;" 
d="M436 1522l-127 127l8 41h43l123 -123h11l122 123h58l-6 -41l-127 -127h-105zM127 0l-131 131l39 211h80l-33 -184l86 -86h151l105 104l74 422l-64 64l-194 55l-115 114l78 443l139 139h219l135 -135l-37 -207h-81l32 180l-90 90h-137l-104 -104l-68 -379l68 -67l192 -54
l113 -112l-84 -486l-140 -139h-233z" />
    <glyph glyph-name="scaron" unicode="&#x161;" horiz-adv-x="638" 
d="M334 1102l-127 127l8 41h43l123 -123h10l123 123h57l-6 -41l-127 -127h-104zM113 0l-123 123l28 162h80l-24 -138l80 -79h129l86 86l43 239l-50 49l-194 52l-92 92l51 284l121 121h198l121 -121l-28 -163h-80l24 139l-77 78h-119l-86 -86l-41 -228l49 -49l197 -53l90 -90
l-54 -297l-120 -121h-209z" />
    <glyph glyph-name="Tcommaaccent" unicode="&#x162;" horiz-adv-x="583" 
d="M82 -303l41 231h72l-39 -215l-17 -16h-57zM682 1343h-236l-235 -1343h-82l238 1343h-240l14 70h555z" />
    <glyph glyph-name="tcommaaccent" unicode="&#x163;" horiz-adv-x="522" 
d="M111 -303l41 231h71l-39 -215l-16 -16h-57zM70 924l12 67h117l53 305h80l-53 -305h243l-12 -67h-244l-137 -779l78 -77h160l-13 -68h-188l-121 121l141 803h-116z" />
    <glyph glyph-name="Tcaron" unicode="&#x164;" horiz-adv-x="583" 
d="M397 1522l-127 127l9 41h43l122 -123h11l123 123h57l-6 -41l-127 -127h-105zM682 1343h-236l-235 -1343h-82l238 1343h-240l14 70h555z" />
    <glyph glyph-name="tcaron" unicode="&#x165;" horiz-adv-x="522" 
d="M418 1135l41 231h71l-38 -215l-17 -16h-57zM70 924l12 67h117l53 305h80l-53 -305h243l-12 -67h-244l-137 -779l78 -77h160l-13 -68h-188l-121 121l141 803h-116z" />
    <glyph glyph-name="Umacron" unicode="&#x16a;" horiz-adv-x="749" 
d="M360 1571l11 63h329l-10 -63h-330zM164 0l-139 139l225 1274h82l-221 -1247l94 -94h145l105 104l219 1237h82l-226 -1274l-139 -139h-227z" />
    <glyph glyph-name="umacron" unicode="&#x16b;" horiz-adv-x="667" 
d="M238 1151l10 63h330l-11 -63h-329zM406 0l-48 47l15 98l-146 -145h-102l-121 121l154 870h80l-150 -846l82 -82h35l174 175l135 753h78l-160 -909l19 -19h67l-10 -63h-102z" />
    <glyph glyph-name="Ubreve" unicode="&#x16c;" horiz-adv-x="749" 
d="M430 1532l-74 74l13 73h71l-10 -57l37 -37h117l41 41l10 53h70l-13 -73l-74 -74h-188zM164 0l-139 139l225 1274h82l-221 -1247l94 -94h145l105 104l219 1237h82l-226 -1274l-139 -139h-227z" />
    <glyph glyph-name="ubreve" unicode="&#x16d;" horiz-adv-x="667" 
d="M307 1112l-74 74l13 74h71l-10 -58l37 -37h117l41 41l10 54h70l-13 -74l-73 -74h-189zM406 0l-48 47l15 98l-146 -145h-102l-121 121l154 870h80l-150 -846l82 -82h35l174 175l135 753h78l-160 -909l19 -19h67l-10 -63h-102z" />
    <glyph glyph-name="Uring" unicode="&#x16e;" horiz-adv-x="749" 
d="M496 1530h57l33 33l14 82l-33 32h-57l-33 -32l-14 -82zM467 1485l-61 61l18 113l61 61h111l61 -61l-18 -113l-61 -61h-111zM164 0l-139 139l225 1274h82l-221 -1247l94 -94h145l105 104l219 1237h82l-226 -1274l-139 -139h-227z" />
    <glyph glyph-name="uring" unicode="&#x16f;" horiz-adv-x="667" 
d="M373 1110h57l33 33l14 82l-33 32h-57l-33 -32l-14 -82zM344 1065l-61 61l18 113l61 61h111l62 -61l-19 -113l-61 -61h-111zM406 0l-48 47l15 98l-146 -145h-102l-121 121l154 870h80l-150 -846l82 -82h35l174 175l135 753h78l-160 -909l19 -19h67l-10 -63h-102z" />
    <glyph glyph-name="Uhungarumlaut" unicode="&#x170;" horiz-adv-x="749" 
d="M557 1507l8 45l148 148h51l-8 -45l-148 -148h-51zM383 1507l8 45l148 148h51l-8 -45l-148 -148h-51zM164 0l-139 139l225 1274h82l-221 -1247l94 -94h145l105 104l219 1237h82l-226 -1274l-139 -139h-227z" />
    <glyph glyph-name="uhungarumlaut" unicode="&#x171;" horiz-adv-x="667" 
d="M434 1087l8 46l148 147h51l-8 -45l-148 -148h-51zM260 1087l8 46l148 147h51l-8 -45l-148 -148h-51zM406 0l-48 47l15 98l-146 -145h-102l-121 121l154 870h80l-150 -846l82 -82h35l174 175l135 753h78l-160 -909l19 -19h67l-10 -63h-102z" />
    <glyph glyph-name="Uogonek" unicode="&#x172;" horiz-adv-x="749" 
d="M164 0l-139 139l225 1274h82l-221 -1247l94 -94h145l105 104l219 1237h82l-226 -1274l-139 -139h-78l-129 -129l-16 -98l18 -19h82l-10 -55h-111l-55 55l25 133l112 113h-65z" />
    <glyph glyph-name="uogonek" unicode="&#x173;" horiz-adv-x="667" 
d="M324 -301l-56 55l25 133l113 113l-48 47l15 98l-146 -145h-102l-121 121l154 870h80l-150 -846l82 -82h35l174 175l135 753h78l-160 -909l19 -19h67l-10 -63h-19l-129 -129l-16 -98l18 -19h82l-10 -55h-110z" />
    <glyph glyph-name="Ydieresis" unicode="&#x178;" horiz-adv-x="649" 
d="M537 1526l24 151h76l-25 -151h-75zM322 1526l24 151h76l-25 -151h-75zM156 0l86 485l-88 928h77l76 -799l355 799h79l-417 -928l-86 -485h-82z" />
    <glyph glyph-name="Zacute" unicode="&#x179;" horiz-adv-x="624" 
d="M373 1507l8 45l147 148h60l-8 -45l-148 -148h-59zM-51 0l10 59l614 1282h-378l14 72h467l-10 -57l-615 -1284h395l-12 -72h-485z" />
    <glyph glyph-name="zacute" unicode="&#x17a;" horiz-adv-x="516" 
d="M246 1087l8 46l147 147h60l-8 -45l-148 -148h-59zM-86 0l10 59l500 865h-340l12 67h428l-10 -57l-500 -866h346l-12 -68h-434z" />
    <glyph glyph-name="Zdotaccent" unicode="&#x17b;" horiz-adv-x="624" 
d="M422 1526l-31 30l15 93l30 30h60l30 -30l-14 -93l-31 -30h-59zM-51 0l10 59l614 1282h-378l14 72h467l-10 -57l-615 -1284h395l-12 -72h-485z" />
    <glyph glyph-name="zdotaccent" unicode="&#x17c;" horiz-adv-x="516" 
d="M295 1106l-31 31l15 92l30 31h60l30 -31l-14 -92l-31 -31h-59zM-86 0l10 59l500 865h-340l12 67h428l-10 -57l-500 -866h346l-12 -68h-434z" />
    <glyph glyph-name="Zcaron" unicode="&#x17d;" horiz-adv-x="624" 
d="M403 1522l-127 127l9 41h43l123 -123h10l123 123h57l-6 -41l-127 -127h-105zM-51 0l10 59l614 1282h-378l14 72h467l-10 -57l-615 -1284h395l-12 -72h-485z" />
    <glyph glyph-name="zcaron" unicode="&#x17e;" horiz-adv-x="516" 
d="M276 1102l-126 127l8 41h43l123 -123h10l123 123h57l-6 -41l-127 -127h-105zM-86 0l10 59l500 865h-340l12 67h428l-10 -57l-500 -866h346l-12 -68h-434z" />
    <glyph glyph-name="florin" unicode="&#x192;" horiz-adv-x="569" 
d="M63 795l13 69h153l74 410l139 139h199l-12 -72h-146l-104 -104l-66 -373h224l-13 -69h-223l-119 -672l-123 -123h-149l12 72h96l88 88l111 635h-154z" />
    <glyph glyph-name="Scommaaccent" unicode="&#x218;" 
d="M166 -303l41 231h72l-39 -215l-17 -16h-57zM127 0l-131 131l39 211h80l-33 -184l86 -86h151l105 104l74 422l-64 64l-194 55l-115 114l78 443l139 139h219l135 -135l-37 -207h-81l32 180l-90 90h-137l-104 -104l-68 -379l68 -67l192 -54l113 -112l-84 -486l-140 -139
h-233z" />
    <glyph glyph-name="scommaaccent" unicode="&#x219;" horiz-adv-x="638" 
d="M127 -303l41 231h72l-39 -215l-17 -16h-57zM113 0l-123 123l28 162h80l-24 -138l80 -79h129l86 86l43 239l-50 49l-194 52l-92 92l51 284l121 121h198l121 -121l-28 -163h-80l24 139l-77 78h-119l-86 -86l-41 -228l49 -49l197 -53l90 -90l-54 -297l-120 -121h-209z" />
    <glyph glyph-name="uni0237" unicode="&#x237;" horiz-adv-x="333" 
d="M-260 -348l12 67h129l86 86l207 1186h80l-213 -1218l-121 -121h-180z" />
    <glyph glyph-name="circumflex" unicode="&#x2c6;" horiz-adv-x="602" 
d="M176 1102l6 41l127 127h105l127 -127l-9 -41h-43l-122 123h-11l-123 -123h-57z" />
    <glyph glyph-name="caron" unicode="&#x2c7;" horiz-adv-x="602" 
d="M289 1102l-127 127l8 41h43l123 -123h10l123 123h57l-6 -41l-127 -127h-104z" />
    <glyph glyph-name="breve" unicode="&#x2d8;" horiz-adv-x="602" 
d="M260 1112l-74 74l13 74h71l-10 -58l37 -37h117l41 41l10 54h70l-13 -74l-73 -74h-189z" />
    <glyph glyph-name="dotaccent" unicode="&#x2d9;" horiz-adv-x="602" 
d="M319 1106l-30 31l14 92l31 31h59l31 -31l-14 -92l-31 -31h-60z" />
    <glyph glyph-name="ring" unicode="&#x2da;" horiz-adv-x="602" 
d="M317 1110h58l33 33l14 82l-33 32h-57l-33 -32l-14 -82zM289 1065l-62 61l19 113l61 61h111l61 -61l-18 -113l-62 -61h-110z" />
    <glyph glyph-name="ogonek" unicode="&#x2db;" horiz-adv-x="602" 
d="M72 -301l-56 55l25 133l113 113h84l-129 -129l-17 -98l19 -19h82l-11 -55h-110z" />
    <glyph glyph-name="tilde" unicode="&#x2dc;" horiz-adv-x="602" 
d="M158 1112l14 70l72 71h92l86 -86h29l36 37l11 49h69l-14 -69l-72 -72h-92l-86 86h-29l-36 -37l-11 -49h-69z" />
    <glyph glyph-name="hungarumlaut" unicode="&#x2dd;" horiz-adv-x="602" 
d="M379 1087l8 46l148 147h51l-8 -45l-148 -148h-51zM205 1087l8 46l147 147h52l-9 -45l-147 -148h-51z" />
    <glyph glyph-name="endash" unicode="&#x2013;" horiz-adv-x="524" 
d="M29 668l14 75h453l-15 -75h-452z" />
    <glyph glyph-name="emdash" unicode="&#x2014;" horiz-adv-x="745" 
d="M29 668l14 75h674l-15 -75h-673z" />
    <glyph glyph-name="quoteleft" unicode="&#x2018;" horiz-adv-x="276" 
d="M150 1051l55 315l47 47h76l-11 -57h-36l-17 -17l-18 -100h51l-33 -188h-114z" />
    <glyph glyph-name="quoteright" unicode="&#x2019;" horiz-adv-x="276" 
d="M131 1051l10 57h37l17 16l18 101h-51l33 188h114l-55 -315l-47 -47h-76z" />
    <glyph glyph-name="quotesinglbase" unicode="&#x201a;" horiz-adv-x="276" 
d="M-84 -174l10 57h37l17 17l18 100h-51l33 188h114l-55 -315l-47 -47h-76z" />
    <glyph glyph-name="quotedblleft" unicode="&#x201c;" horiz-adv-x="485" 
d="M358 1051l56 315l47 47h76l-11 -57h-37l-16 -17l-18 -100h51l-33 -188h-115zM150 1051l55 315l47 47h76l-11 -57h-36l-17 -17l-18 -100h51l-33 -188h-114z" />
    <glyph glyph-name="quotedblright" unicode="&#x201d;" horiz-adv-x="485" 
d="M340 1051l10 57h37l16 16l19 101h-51l32 188h115l-55 -315l-47 -47h-76zM131 1051l10 57h37l17 16l18 101h-51l33 188h114l-55 -315l-47 -47h-76z" />
    <glyph glyph-name="quotedblbase" unicode="&#x201e;" horiz-adv-x="485" 
d="M125 -174l10 57h37l16 17l19 100h-51l32 188h115l-55 -315l-47 -47h-76zM-84 -174l10 57h37l17 17l18 100h-51l33 188h114l-55 -315l-47 -47h-76z" />
    <glyph glyph-name="dagger" unicode="&#x2020;" horiz-adv-x="428" 
d="M129 1151l12 63h125l35 199h76l-35 -199h127l-12 -63h-127l-103 -582h-73l100 582h-125z" />
    <glyph glyph-name="daggerdbl" unicode="&#x2021;" horiz-adv-x="428" 
d="M129 1151l12 63h125l35 199h76l-37 -199h129l-12 -63h-127l-58 -320h129l-12 -63h-127l-35 -199h-73l34 199h-127l13 63h125l55 320h-125z" />
    <glyph glyph-name="bullet" unicode="&#x2022;" horiz-adv-x="352" 
d="M119 580l-68 67l21 117l69 67h107l69 -67l-22 -117l-68 -67h-108z" />
    <glyph glyph-name="ellipsis" unicode="&#x2026;" horiz-adv-x="897" 
d="M582 0l32 188h115l-33 -188h-114zM283 0l32 188h115l-33 -188h-114zM-16 0l32 188h115l-33 -188h-114z" />
    <glyph glyph-name="perthousand" unicode="&#x2030;" horiz-adv-x="1523" 
d="M72 0l807 1413h75l-807 -1413h-75zM1108 61h98l68 68l72 408l-66 65h-98l-68 -67l-72 -408zM1067 0l-104 104l79 455l105 105h174l104 -105l-79 -455l-105 -104h-174zM610 61h99l67 68l72 408l-66 65h-98l-68 -67l-71 -408zM569 0l-104 104l80 455l104 105h174l105 -105
l-80 -455l-105 -104h-174zM246 811h98l68 68l71 407l-65 66h-99l-67 -68l-72 -407zM205 750l-105 104l80 455l105 104h174l104 -104l-80 -455l-104 -104h-174z" />
    <glyph glyph-name="guilsinglleft" unicode="&#x2039;" horiz-adv-x="350" 
d="M168 315l-119 402l258 403h84l-262 -407l119 -398h-80z" />
    <glyph glyph-name="guilsinglright" unicode="&#x203a;" horiz-adv-x="350" 
d="M193 1120l118 -401l-258 -404h-84l262 408l-118 397h80z" />
    <glyph glyph-name="fraction" unicode="&#x2044;" horiz-adv-x="649" 
d="M-106 0l806 1413h76l-807 -1413h-75z" />
    <glyph glyph-name="Euro" unicode="&#x20ac;" horiz-adv-x="722" 
d="M66 776l12 66h69l78 432l140 139h219l139 -139l-41 -227h-82l37 200l-94 94h-137l-105 -104l-72 -395h324l-12 -66h-324l-20 -117h323l-12 -65h-322l-75 -428l94 -94h137l104 104l35 199h82l-41 -236l-139 -139h-219l-139 139l79 455h-71l12 65h72l20 117h-71z" />
    <glyph glyph-name="servicemark" unicode="&#x2120;" horiz-adv-x="925" 
d="M465 825l104 588h88l9 -518l190 518h92l-104 -588h-53l94 535l-199 -535h-65l-11 533l-94 -533h-51zM201 825l-72 72l16 94h58l-15 -80l37 -37h72l39 39l26 146l-22 22l-104 31l-60 59l31 170l72 72h118l72 -72l-16 -94h-60l15 80l-37 37h-70l-39 -39l-24 -139l24 -25
l103 -28l59 -60l-33 -176l-72 -72h-118z" />
    <glyph glyph-name="trademark" unicode="&#x2122;" horiz-adv-x="862" 
d="M170 1364l8 49h279l-8 -49h-113l-94 -539h-58l95 539h-109zM401 825l105 588h88l8 -518l191 518h92l-105 -588h-53l94 535l-198 -535h-66l-10 533l-94 -533h-52z" />
    <glyph glyph-name="minus" unicode="&#x2212;" horiz-adv-x="493" 
d="M14 668l15 75h454l-14 -75h-455z" />
    <glyph glyph-name="fi" unicode="&#xfb01;" horiz-adv-x="806" 
d="M662 1180l34 200h80l-35 -200h-79zM520 0l-57 57l164 934h80l-160 -909l18 -19h68l-10 -63h-103zM61 924l13 67h123l53 299l123 123h223l-12 -67h-172l-88 -89l-48 -266h209l-14 -67h-207l-164 -924h-80l164 924h-123z" />
    <glyph glyph-name="fl" unicode="&#xfb02;" horiz-adv-x="806" 
d="M520 0l-57 57l239 1356h80l-235 -1331l18 -19h68l-10 -63h-103zM61 924l13 67h123l53 299l123 123h223l-12 -67h-172l-88 -89l-48 -266h209l-14 -67h-207l-164 -924h-80l164 924h-123z" />
    <glyph glyph-name="commaaccent" horiz-adv-x="602" 
d="M109 -303l41 231h71l-39 -215l-16 -16h-57z" />
    <glyph glyph-name="published" horiz-adv-x="1099" 
d="M532 1108l-79 -444h141l53 53l62 344l-47 47h-130zM297 244l166 932h239l91 -91l-70 -399l-90 -90h-193l-61 -352h-82zM211 72h477l105 104l190 1071l-94 94h-477l-105 -104l-190 -1071zM170 0l-139 139l200 1135l140 139h559l139 -139l-201 -1135l-139 -139h-559z" />
    <glyph glyph-name="G.alt" horiz-adv-x="731" 
d="M158 0l-140 139l201 1135l139 139h228l139 -139l-35 -203h-82l31 176l-94 94h-146l-104 -104l-191 -1071l95 -94h118l138 137l73 416h-178l12 71h261l-123 -696h-68l14 115l-114 -115h-174z" />
    <glyph glyph-name="Gbreve.alt" horiz-adv-x="731" 
d="M416 1532l-74 74l12 73h72l-10 -57l37 -37h116l41 41l11 53h69l-12 -73l-74 -74h-188zM158 0l-140 139l201 1135l139 139h228l139 -139l-35 -203h-82l31 176l-94 94h-146l-104 -104l-191 -1071l95 -94h118l138 137l73 416h-178l12 71h261l-123 -696h-68l14 115l-114 -115
h-174z" />
    <glyph glyph-name="Gcircumflex.alt" horiz-adv-x="731" 
d="M324 1522l6 41l127 127h104l127 -127l-8 -41h-43l-123 123h-10l-123 -123h-57zM158 0l-140 139l201 1135l139 139h228l139 -139l-35 -203h-82l31 176l-94 94h-146l-104 -104l-191 -1071l95 -94h118l138 137l73 416h-178l12 71h261l-123 -696h-68l14 115l-114 -115h-174z
" />
    <glyph glyph-name="Gcommaaccent.alt" horiz-adv-x="731" 
d="M145 -303l41 231h72l-39 -215l-16 -16h-58zM158 0l-140 139l201 1135l139 139h228l139 -139l-35 -203h-82l31 176l-94 94h-146l-104 -104l-191 -1071l95 -94h118l138 137l73 416h-178l12 71h261l-123 -696h-68l14 115l-114 -115h-174z" />
    <glyph glyph-name="I.alt" horiz-adv-x="352" 
d="M10 0l250 1413h82l-250 -1413h-82z" />
    <glyph glyph-name="Iacute.alt" horiz-adv-x="352" 
d="M248 1507l8 45l147 148h60l-8 -45l-148 -148h-59zM10 0l250 1413h82l-250 -1413h-82z" />
    <glyph glyph-name="Igrave.alt" horiz-adv-x="352" 
d="M342 1507l-147 148l8 45h47l147 -148l-8 -45h-47zM10 0l250 1413h82l-250 -1413h-82z" />
    <glyph glyph-name="Icircumflex.alt" horiz-adv-x="352" 
d="M141 1522l6 41l127 127h105l127 -127l-8 -41h-43l-123 123h-10l-123 -123h-58zM10 0l250 1413h82l-250 -1413h-82z" />
    <glyph glyph-name="Idieresis.alt" horiz-adv-x="352" 
d="M391 1526l25 151h76l-25 -151h-76zM176 1526l25 151h75l-24 -151h-76zM10 0l250 1413h82l-250 -1413h-82z" />
    <glyph glyph-name="Idotaccent.alt" horiz-adv-x="352" 
d="M297 1526l-31 30l15 93l30 30h60l30 -30l-14 -93l-31 -30h-59zM10 0l250 1413h82l-250 -1413h-82z" />
    <glyph glyph-name="Imacron.alt" horiz-adv-x="352" 
d="M164 1571l10 63h330l-10 -63h-330zM10 0l250 1413h82l-250 -1413h-82z" />
    <glyph glyph-name="Iogonek.alt" horiz-adv-x="352" 
d="M-74 -301l-55 55l25 133l114 115l250 1411h82l-250 -1413l-129 -129l-16 -98l18 -19h82l-10 -55h-111z" />
    <glyph glyph-name="J.alt" horiz-adv-x="684" 
d="M125 0l-139 139l65 377h82l-61 -350l94 -94h119l104 104l219 1237h82l-225 -1274l-139 -139h-201z" />
    <glyph glyph-name="Jcircumflex.alt" horiz-adv-x="684" 
d="M492 1522l6 41l127 127h104l127 -127l-8 -41h-43l-123 123h-10l-123 -123h-57zM125 0l-139 139l65 377h82l-61 -350l94 -94h119l104 104l219 1237h82l-225 -1274l-139 -139h-201z" />
    <glyph glyph-name="Q.alt" horiz-adv-x="761" 
d="M199 72h163l29 28l-112 113l47 47l112 -113l29 29l190 1071l-94 94h-164l-104 -104l-191 -1071zM604 -113l-158 156l-43 -43h-245l-140 139l201 1135l139 139h246l139 -139l-200 -1135l-49 -49l157 -156z" />
    <glyph glyph-name="at.alt" horiz-adv-x="1193" 
d="M434 72h55l191 190l131 737l-119 119h-98l-105 -104l-149 -848zM393 0l-139 139l160 912l139 139h170l111 -111l22 111h70l-193 -1092l27 -26h59l88 88l183 1024l-158 157h-475l-168 -167l-209 -1174h-80l213 1210l203 203h557l203 -203l-193 -1087l-123 -123h-139
l-66 66l15 94l-160 -160h-117z" />
    <glyph glyph-name="ampersand.alt" horiz-adv-x="788" 
d="M399 72l105 104l43 248l-242 293l-110 -111l-78 -440l94 -94h188zM170 0l-139 139l86 492l141 141l-94 115l67 387l140 139h202l140 -139l-39 -223h-82l35 196l-95 94h-120l-105 -104l-59 -332l317 -381l51 289h82l-118 -674l-140 -139h-270z" />
    <glyph glyph-name="zero.tabular" horiz-adv-x="829" 
d="M225 72h181l104 104l190 1071l-94 94h-180l-104 -104l-191 -1071zM184 0l-139 139l201 1135l139 139h262l139 -139l-200 -1135l-140 -139h-262z" />
    <glyph glyph-name="one.tabular" horiz-adv-x="829" 
d="M39 0l12 72h232l225 1269h-227l12 72h309l-237 -1341h210l-12 -72h-524z" />
    <glyph glyph-name="two.tabular" horiz-adv-x="829" 
d="M47 0l105 594l124 125h244l90 90l78 438l-94 94h-152l-104 -104l-31 -166h-82l37 203l139 139h234l139 -139l-88 -502l-125 -125h-244l-90 -90l-86 -485h412l-12 -72h-494z" />
    <glyph glyph-name="three.tabular" horiz-adv-x="829" 
d="M174 0l-139 139l41 234h82l-37 -207l94 -94h176l105 104l75 432l-82 82h-237l14 74h238l117 117l65 366l-94 94h-176l-105 -104l-35 -197h-81l41 234l139 139h258l139 -139l-74 -418l-133 -133l92 -92l-86 -492l-137 -139h-260z" />
    <glyph glyph-name="four.tabular" horiz-adv-x="829" 
d="M53 420l10 61l328 932h76l-320 -924h367l164 924h80l-164 -924h98l-12 -69h-98l-74 -420h-80l74 420h-449z" />
    <glyph glyph-name="five.tabular" horiz-adv-x="829" 
d="M197 0l-140 139l43 242h82l-39 -215l95 -94h163l105 104l98 561l-82 82h-164l-122 -123h-82l127 717h512l-13 -72h-430l-94 -540l90 90h217l127 -127l-108 -625l-140 -139h-245z" />
    <glyph glyph-name="six.tabular" horiz-adv-x="829" 
d="M365 778l-136 -135l-84 -477l95 -94h178l104 104l92 518l-84 84h-165zM199 0l-140 139l201 1135l139 139h256l140 -139l-41 -227h-82l37 200l-95 94h-174l-104 -104l-90 -500l112 113h213l129 -129l-102 -582l-137 -139h-262z" />
    <glyph glyph-name="seven.tabular" horiz-adv-x="829" 
d="M233 0l89 498l385 843h-474l13 72h559l-10 -59l-392 -856l-88 -498h-82z" />
    <glyph glyph-name="eight.tabular" horiz-adv-x="829" 
d="M340 764h190l117 117l66 366l-95 94h-186l-104 -104l-70 -391zM231 72h187l104 104l76 432l-82 82h-190l-117 -117l-72 -407zM190 0l-139 139l80 459l133 133l-92 92l80 451l139 139h268l140 -139l-74 -418l-133 -133l92 -92l-86 -492l-139 -139h-269z" />
    <glyph glyph-name="nine.tabular" horiz-adv-x="829" 
d="M307 670h166l133 133l80 444l-94 94h-178l-105 -104l-86 -483zM176 0l-139 139l41 228h82l-37 -201l94 -94h174l105 104l94 533l-111 -111h-213l-129 129l96 547l138 139h262l139 -139l-201 -1135l-139 -139h-256z" />
    <glyph glyph-name="plus.tabular" horiz-adv-x="829" 
d="M145 670l13 69h231l49 271h74l-49 -271h229l-12 -69h-229l-48 -273h-73l47 273h-232z" />
    <glyph glyph-name="minus.tabular" horiz-adv-x="829" 
d="M182 668l15 75h454l-14 -75h-455z" />
    <glyph glyph-name="multiply.tabular" horiz-adv-x="829" 
d="M205 440l-49 49l213 213l-213 216l49 49l213 -215l215 215l49 -49l-215 -216l215 -213l-49 -49l-215 213z" />
    <glyph glyph-name="divide.tabular" horiz-adv-x="829" 
d="M408 885l26 145h84l-26 -145h-84zM147 668l15 73h528l-14 -73h-529zM317 375l27 145h84l-27 -145h-84z" />
    <glyph glyph-name="equal.tabular" horiz-adv-x="829" 
d="M178 817l12 74h527l-15 -74h-524zM127 516l12 74h527l-15 -74h-524z" />
    <glyph glyph-name="greater.tabular" horiz-adv-x="829" 
d="M219 1012l506 -267l-14 -77l-600 -271l14 82l518 232l-438 225z" />
    <glyph glyph-name="less.tabular" horiz-adv-x="829" 
d="M627 401l-506 267l14 77l600 271l-14 -82l-518 -232l438 -225z" />
    <glyph glyph-name="numbersign.tabular" horiz-adv-x="829" 
d="M391 1094l-67 -394h180l67 394h-180zM182 1094l13 65h135l45 254h74l-46 -254h181l45 254h71l-45 -254h142l-13 -65h-141l-68 -394h140l-13 -65h-139l-43 -254h-71l43 254h-181l-43 -254h-73l43 254h-136l13 65h135l67 394h-135z" />
    <glyph glyph-name="dollar.tabular" horiz-adv-x="829" 
d="M203 41l-131 131l39 211h79l-32 -184l86 -86h145l105 104l67 377l-63 63l-195 56l-115 114l72 406l139 139h86l33 193h72l-33 -193h61l136 -135l-37 -207h-82l33 180l-90 90h-138l-104 -104l-62 -342l68 -68l193 -53l112 -112l-78 -441l-139 -139h-94l-31 -195h-72
l31 195h-61z" />
    <glyph glyph-name="cent.tabular" horiz-adv-x="829" 
d="M242 143l-140 140l150 852l139 139h90l33 178h72l-33 -178h57l140 -139l-41 -228h-80l35 201l-95 94h-137l-104 -104l-140 -789l95 -94h135l104 104l35 197h82l-41 -233l-139 -140h-94l-33 -184h-72l33 184h-51z" />
    <glyph glyph-name="sterling.tabular" horiz-adv-x="829" 
d="M121 666l12 69h98l97 539l139 139h201l139 -139l-45 -252h-82l41 225l-94 94h-119l-105 -104l-90 -502h244l-12 -69h-244l-90 -510l-84 -84h461l-13 -72h-561l13 72l106 106l86 488h-98z" />
    <glyph glyph-name="yen.tabular" horiz-adv-x="829" 
d="M111 477l12 66h203l-82 870h78l75 -805l357 805h77l-393 -870h203l-10 -66h-219l-25 -141h217l-10 -66h-219l-47 -270h-82l47 270h-217l12 66h217l25 141h-219z" />
    <glyph glyph-name="florin.tabular" horiz-adv-x="829" 
d="M143 795l13 69h204l74 410l139 139h250l-12 -72h-197l-104 -104l-66 -373h275l-12 -69h-275l-119 -672l-123 -123h-200l12 72h148l88 88l110 635h-205z" />
    <glyph glyph-name="Euro.tabular" horiz-adv-x="829" 
d="M119 776l12 66h70l78 432l139 139h219l139 -139l-41 -227h-82l37 200l-94 94h-137l-105 -104l-71 -395h323l-12 -66h-324l-20 -117h323l-12 -65h-321l-76 -428l94 -94h137l105 104l35 199h81l-41 -236l-139 -139h-219l-139 139l80 455h-72l12 65h72l20 117h-71z" />
    <glyph glyph-name="section.tabular" horiz-adv-x="829" 
d="M166 713l98 561l139 139h226l135 -135l-49 -279h-82l45 252l-90 90h-144l-104 -104l-82 -455h387l29 -28l-8 -41h-500zM152 -195l-132 132l52 282h80l-46 -256l87 -86h159l105 105l82 469h-387l-29 28l8 41h502l-101 -575l-139 -140h-241z" />
    <glyph glyph-name="space.tabular" horiz-adv-x="413" 
 />
    <glyph glyph-name="colon.tabular" horiz-adv-x="413" 
d="M135 637l33 188h115l-33 -188h-115zM25 0l32 188h115l-33 -188h-114z" />
    <glyph glyph-name="semicolon.tabular" horiz-adv-x="413" 
d="M135 637l33 188h115l-33 -188h-115zM-6 -174l10 57h37l16 17l19 100h-51l32 188h115l-55 -315l-47 -47h-76z" />
    <glyph glyph-name="comma.tabular" horiz-adv-x="413" 
d="M-6 -174l10 57h37l16 17l19 100h-51l32 188h115l-55 -315l-47 -47h-76z" />
    <glyph glyph-name="period.tabular" horiz-adv-x="413" 
d="M25 0l32 188h115l-33 -188h-114z" />
    <glyph glyph-name="parenleft.tabular" horiz-adv-x="501" 
d="M205 -104l-131 131l239 1353l136 136h116l-12 -72h-64l-100 -101l-229 -1290l86 -86h47l-12 -71h-76z" />
    <glyph glyph-name="parenright.tabular" horiz-adv-x="501" 
d="M303 1516l131 -132l-239 -1353l-136 -135h-116l12 71h63l101 101l229 1290l-86 86h-47l12 72h76z" />
    <glyph glyph-name="bracketleft.tabular" horiz-adv-x="501" 
d="M39 -104l285 1620h229l-12 -72h-148l-260 -1477h148l-13 -71h-229z" />
    <glyph glyph-name="bracketright.tabular" horiz-adv-x="501" 
d="M469 1516l-285 -1620h-229l12 71h148l260 1477h-148l13 72h229z" />
    <glyph glyph-name="braceleft.tabular" horiz-adv-x="501" 
d="M205 -104l-131 131l106 600l-63 63h-84l14 74h82l92 92l92 524l136 136h116l-12 -72h-64l-100 -101l-90 -503l-115 -115l80 -80l-104 -592l86 -86h47l-12 -71h-76z" />
    <glyph glyph-name="braceright.tabular" horiz-adv-x="501" 
d="M303 1516l131 -132l-98 -559l63 -63h84l-14 -74h-82l-92 -92l-100 -565l-136 -135h-116l12 71h63l101 101l98 544l115 115l-80 80l96 551l-86 86h-47l12 72h76z" />
    <glyph glyph-name="zero.numerator" horiz-adv-x="571" 
d="M240 786h131l65 66l78 436l-63 64h-132l-65 -66l-78 -436zM203 725l-103 102l84 484l103 102h200l103 -102l-84 -484l-103 -102h-200z" />
    <glyph glyph-name="one.numerator" horiz-adv-x="454" 
d="M61 725l11 61h137l98 566h-135l10 61h209l-110 -627h133l-13 -61h-340z" />
    <glyph glyph-name="two.numerator" horiz-adv-x="516" 
d="M76 725l47 264l88 88h192l52 51l28 160l-65 66h-101l-67 -68l-17 -86h-73l20 111l103 102h174l102 -102l-37 -209l-84 -84h-192l-53 -53l-31 -179h295l-11 -61h-370z" />
    <glyph glyph-name="three.numerator" horiz-adv-x="548" 
d="M193 725l-103 102l21 111h71l-16 -88l63 -64h121l66 66l24 145l-47 47h-151l10 62h151l70 70l21 112l-64 64h-121l-65 -66l-17 -90h-73l20 115l102 102h191l102 -102l-24 -148l-88 -88l61 -61l-33 -187l-102 -102h-190z" />
    <glyph glyph-name="four.numerator" horiz-adv-x="552" 
d="M76 897l8 47l211 469h76l-203 -452h233l82 452h72l-80 -452h74l-10 -64h-76l-29 -172h-74l31 172h-315z" />
    <glyph glyph-name="five.numerator" horiz-adv-x="559" 
d="M203 725l-103 102l19 111h71l-14 -88l64 -64h120l66 66l37 197l-64 63h-131l-61 -61h-68l62 362h385l-13 -61h-309l-39 -226l47 48h164l103 -103l-43 -244l-103 -102h-190z" />
    <glyph glyph-name="six.numerator" horiz-adv-x="559" 
d="M274 1073l-71 -72l-27 -151l64 -64h131l65 66l29 164l-57 57h-134zM203 725l-103 102l84 484l103 102h192l103 -102l-17 -99h-73l14 76l-64 64h-123l-65 -66l-39 -213l61 62h168l97 -97l-35 -211l-103 -102h-200z" />
    <glyph glyph-name="seven.numerator" horiz-adv-x="425" 
d="M150 725l53 303l221 324h-301l10 61h391l-8 -43l-240 -346l-55 -299h-71z" />
    <glyph glyph-name="eight.numerator" horiz-adv-x="559" 
d="M262 1106h152l69 70l21 112l-64 64h-137l-65 -66l-23 -133zM223 786h137l66 66l25 145l-48 47h-151l-70 -69l-22 -125zM186 725l-102 102l27 160l88 88l-62 62l31 174l102 102h207l103 -102l-25 -148l-88 -88l61 -61l-32 -187l-103 -102h-207z" />
    <glyph glyph-name="nine.numerator" horiz-adv-x="555" 
d="M266 1069h133l72 72l27 147l-64 64h-131l-65 -66l-29 -160zM195 725l-103 102l19 111h73l-16 -88l63 -64h123l66 66l39 217l-62 -61h-168l-96 96l35 207l102 102h201l102 -102l-84 -484l-102 -102h-192z" />
    <glyph glyph-name="zero.denominator" horiz-adv-x="571" 
d="M117 61h131l65 66l78 436l-63 64h-131l-66 -66l-78 -436zM80 0l-103 102l84 484l103 102h201l102 -102l-84 -484l-102 -102h-201z" />
    <glyph glyph-name="one.denominator" horiz-adv-x="454" 
d="M-61 0l10 61h137l98 566h-135l10 61h209l-110 -627h133l-12 -61h-340z" />
    <glyph glyph-name="two.denominator" horiz-adv-x="516" 
d="M-47 0l47 264l88 88h193l51 51l28 160l-65 66h-100l-68 -68l-16 -86h-74l20 111l103 102h174l102 -102l-37 -209l-84 -84h-192l-53 -53l-31 -179h295l-10 -61h-371z" />
    <glyph glyph-name="three.denominator" horiz-adv-x="548" 
d="M70 0l-103 102l21 111h71l-16 -88l63 -64h121l66 66l24 145l-47 47h-151l10 62h152l69 70l21 112l-64 64h-121l-65 -66l-17 -90h-73l20 115l103 102h190l102 -102l-24 -148l-88 -88l61 -61l-33 -187l-102 -102h-190z" />
    <glyph glyph-name="four.denominator" horiz-adv-x="552" 
d="M-47 172l8 47l211 469h76l-203 -452h234l81 452h72l-80 -452h74l-10 -64h-76l-29 -172h-73l30 172h-315z" />
    <glyph glyph-name="five.denominator" horiz-adv-x="559" 
d="M80 0l-103 102l19 111h72l-15 -88l64 -64h121l65 66l37 197l-64 63h-131l-61 -61h-68l62 362h385l-12 -61h-310l-39 -226l48 48h163l103 -103l-43 -244l-103 -102h-190z" />
    <glyph glyph-name="six.denominator" horiz-adv-x="559" 
d="M152 348l-72 -72l-27 -151l64 -64h131l65 66l29 164l-57 57h-133zM80 0l-103 102l84 484l103 102h192l103 -102l-17 -99h-73l14 76l-64 64h-122l-66 -66l-39 -213l62 62h168l96 -97l-35 -211l-102 -102h-201z" />
    <glyph glyph-name="seven.denominator" horiz-adv-x="425" 
d="M27 0l53 303l221 324h-301l10 61h391l-8 -43l-239 -346l-56 -299h-71z" />
    <glyph glyph-name="eight.denominator" horiz-adv-x="559" 
d="M139 381h152l69 70l21 112l-64 64h-137l-65 -66l-23 -133zM100 61h138l65 66l25 145l-47 47h-152l-70 -69l-22 -125zM63 0l-102 102l27 160l88 88l-62 62l31 174l102 102h207l103 -102l-25 -148l-88 -88l62 -61l-33 -187l-103 -102h-207z" />
    <glyph glyph-name="nine.denominator" horiz-adv-x="555" 
d="M143 344h133l72 72l27 147l-64 64h-131l-65 -66l-29 -160zM72 0l-103 102l19 111h73l-16 -88l64 -64h122l66 66l39 217l-62 -61h-168l-96 96l35 207l102 102h201l103 -102l-84 -484l-103 -102h-192z" />
    <glyph glyph-name="B.swash" horiz-adv-x="755" 
d="M326 1341l-101 -567h254l117 117l63 356l-94 94h-239zM100 72h265l104 104l78 442l-82 82h-254zM6 0l238 1341h-316l13 72h665l139 -139l-71 -408l-133 -133l92 -92l-88 -502l-139 -139h-400z" />
    <glyph glyph-name="D.swash" horiz-adv-x="765" 
d="M100 72h267l104 104l191 1071l-95 94h-241zM6 0l238 1341h-316l13 72h667l140 -139l-201 -1135l-139 -139h-402z" />
    <glyph glyph-name="H.swash" horiz-adv-x="768" 
d="M430 0l117 664h-342l-117 -664h-82l234 1317l-25 24h-287l13 72h315l70 -70l-107 -602h342l119 672h82l-250 -1413h-82z" />
    <glyph glyph-name="K.swash" horiz-adv-x="765" 
d="M508 0l-125 735l-229 -360l-66 -375h-82l234 1317l-25 24h-287l13 72h315l70 -70l-144 -811l520 881h89l-349 -584l148 -829h-82z" />
    <glyph glyph-name="M.swash" horiz-adv-x="1064" 
d="M-59 1413h454l25 -1335l495 1335h144l-250 -1413h-80l238 1348l-500 -1348h-119l-26 1348l-238 -1348h-78l238 1341h-316z" />
    <glyph glyph-name="N.swash" horiz-adv-x="794" 
d="M-59 1413h401l154 -1214l215 1214h77l-249 -1413h-86l-154 1221l-215 -1221h-78l238 1341h-316z" />
    <glyph glyph-name="P.swash" horiz-adv-x="716" 
d="M326 1341l-121 -679h250l104 104l88 481l-94 94h-227zM6 0l238 1341h-316l13 72h653l139 -139l-98 -545l-139 -139h-303l-105 -590h-82z" />
    <glyph glyph-name="R.swash" horiz-adv-x="757" 
d="M326 1341l-109 -616h244l117 117l71 405l-94 94h-229zM-59 1413h655l139 -139l-80 -457l-161 -162l57 -583h84l-12 -72h-146l-61 651h-213l-115 -651h-82l238 1341h-316z" />
    <glyph glyph-name="U.swash" horiz-adv-x="749" 
d="M164 0l-139 139l208 1178l-24 24h-287l12 72h316l69 -70l-208 -1177l94 -94h145l105 104l219 1237h82l-226 -1274l-139 -139h-227z" />
    <glyph glyph-name="V.swash" horiz-adv-x="675" 
d="M154 0l22 1311l-31 30h-286l12 72h315l70 -70l-27 -1269l428 1339h80l-456 -1413h-127z" />
    <glyph glyph-name="W.swash" horiz-adv-x="1034" 
d="M113 0l80 1317l-25 24h-287l13 72h315l70 -70l-89 -1255l404 1325h119l-39 -1325l352 1325h80l-389 -1413h-119l41 1327l-406 -1327h-120z" />
    <glyph glyph-name="X.swash" horiz-adv-x="688" 
d="M432 0l-92 664l-320 -664h-86l357 729l-80 578l-35 34h-276l12 72h305l70 -70l73 -563l312 633h82l-344 -690l104 -723h-82z" />
    <glyph glyph-name="Y.swash" horiz-adv-x="634" 
d="M156 0l86 485l-78 822l-35 34h-276l12 72h305l70 -70l67 -729l355 799h79l-417 -928l-86 -485h-82z" />
    </font>
</defs>
</svg>
