<?xml version="1.0" standalone="no"?>
<!DOCTYPE svg PUBLIC "-//W3C//DTD SVG 1.1//EN" "http://www.w3.org/Graphics/SVG/1.1/DTD/svg11.dtd" >
<svg xmlns="http://www.w3.org/2000/svg">
<metadata>
Created by FontPrep 20130207 at Mon Apr 28 13:29:51 2014
 By Fueled LDN 2
Copyright 2006 House Industries/Brand Design Co., Inc. All Rights Reserved.
</metadata>
<defs>
<font id="12a5ade78f6ca396faf7728fcfcd2c6d" horiz-adv-x='1024' >
  <font-face 
    font-family="UnitedItalicCond-Heavy"
    font-weight="700"
    font-stretch="normal"
    units-per-em="2048"
    panose-1="0 0 0 0 0 0 0 0 0 0"
    ascent="1556"
    descent="-492"
    x-height="1036"
    cap-height="1413"
    bbox="-250 -348 1829 1772"
    underline-thickness="102"
    underline-position="-102"
    unicode-range="U+0020-FB02"
  />
<missing-glyph horiz-adv-x="317" 
 />
    <glyph glyph-name=".notdef" horiz-adv-x="317" 
 />
    <glyph glyph-name=".null" horiz-adv-x="0" 
 />
    <glyph glyph-name="nonmarkingreturn" horiz-adv-x="681" 
 />
    <glyph glyph-name="space" unicode=" " horiz-adv-x="317" 
 />
    <glyph glyph-name="exclam" unicode="!" horiz-adv-x="456" 
d="M4 0l45 266h250l-47 -266h-248zM72 391l180 1022h250l-180 -1022h-250z" />
    <glyph glyph-name="quotedbl" unicode="&#x22;" horiz-adv-x="555" 
d="M379 893l90 520h186l-90 -520h-186zM102 893l91 520h184l-92 -520h-183z" />
    <glyph glyph-name="numbersign" unicode="#" horiz-adv-x="864" 
d="M436 1022l-49 -281h145l50 281h-146zM129 1022l31 174h123l39 217h184l-39 -217h145l39 217h185l-39 -217h125l-31 -174h-125l-49 -281h125l-31 -174h-125l-37 -217h-184l37 217h-146l-39 -217h-184l39 217h-123l31 174h123l49 281h-123z" />
    <glyph glyph-name="dollar" unicode="$" horiz-adv-x="815" 
d="M147 41l-161 162l43 235h250l-25 -149l39 -39h125l41 41l45 258l-31 31l-254 67l-129 129l78 432l164 164h82l35 195h221l-35 -195h65l164 -164l-41 -233h-248l25 147l-41 41h-117l-41 -41l-43 -245l29 -29l254 -68l129 -131l-78 -444l-164 -164h-86l-32 -195h-222
l35 195h-76z" />
    <glyph glyph-name="percent" unicode="%" horiz-adv-x="1275" 
d="M158 0l846 1413h151l-848 -1413h-149zM860 135h80l37 37l61 346l-34 35h-80l-37 -37l-62 -346zM766 0l-125 125l78 434l125 125h252l125 -125l-76 -434l-125 -125h-254zM311 864h80l37 37l61 346l-34 35h-80l-37 -35l-62 -346zM217 729l-125 125l78 434l123 125h254
l125 -125l-78 -434l-125 -125h-252z" />
    <glyph glyph-name="ampersand" unicode="&#x26;" horiz-adv-x="899" 
d="M303 201h141l41 43l66 370h-178l-54 -55l-57 -317zM164 0l-164 164l72 401l159 162l-112 113l74 409l163 164h389l164 -164l-39 -215h-247l24 137l-43 41h-137l-41 -41l-53 -307l41 -41h508l-35 -209h-88l-78 -450l-164 -164h-393z" />
    <glyph glyph-name="quotesingle" unicode="'" horiz-adv-x="278" 
d="M102 893l91 520h186l-90 -520h-187z" />
    <glyph glyph-name="parenleft" unicode="(" horiz-adv-x="542" 
d="M188 -113l-170 170l228 1295l172 172h260l-37 -209h-113l-49 -49l-196 -1121l47 -49h96l-37 -209h-201z" />
    <glyph glyph-name="parenright" unicode=")" horiz-adv-x="542" 
d="M408 1524l170 -170l-230 -1295l-170 -172h-260l37 209h111l49 49l198 1121l-49 49h-94l37 209h201z" />
    <glyph glyph-name="asterisk" unicode="*" horiz-adv-x="585" 
d="M334 1413h194l-69 -196l176 92l29 -170l-193 -35l115 -139l-164 -105l-55 174l-121 -174l-125 105l160 137l-181 37l90 170l144 -92v196z" />
    <glyph glyph-name="plus" unicode="+" horiz-adv-x="655" 
d="M27 612l34 193h207l43 246h201l-43 -246h207l-33 -193h-207l-43 -247h-203l43 247h-206z" />
    <glyph glyph-name="comma" unicode="," horiz-adv-x="352" 
d="M-80 -213l17 111h75l17 16l14 86h-88l51 283h238l-70 -404l-92 -92h-162z" />
    <glyph glyph-name="hyphen" unicode="-" horiz-adv-x="456" 
d="M41 600l39 215h385l-39 -215h-385z" />
    <glyph glyph-name="period" unicode="." horiz-adv-x="354" 
d="M-45 0l51 283h238l-49 -283h-240z" />
    <glyph glyph-name="slash" unicode="/" horiz-adv-x="618" 
d="M-90 -133l629 1677h225l-631 -1677h-223z" />
    <glyph glyph-name="zero" unicode="0" horiz-adv-x="880" 
d="M317 209h132l40 41l162 913l-43 41h-131l-41 -41l-162 -913zM176 0l-164 164l191 1085l164 164h385l163 -164l-190 -1085l-164 -164h-385z" />
    <glyph glyph-name="one" unicode="1" horiz-adv-x="684" 
d="M-37 0l39 209h170l176 995h-170l35 209h422l-213 -1204h166l-37 -209h-588z" />
    <glyph glyph-name="two" unicode="2" 
d="M-14 0l110 629l148 147h258l41 41l59 346l-41 41h-98l-41 -41l-33 -174h-248l45 260l164 164h352l162 -164l-96 -559l-141 -143h-258l-45 -43l-50 -287h406l-37 -217h-657z" />
    <glyph glyph-name="three" unicode="3" horiz-adv-x="856" 
d="M141 0l-164 164l48 264h249l-34 -184l43 -43h145l41 43l59 323l-47 47h-266l37 209h276l54 56l51 292l-41 41h-146l-40 -41l-33 -186h-248l47 264l164 164h395l164 -164l-68 -385l-161 -162l112 -112l-76 -426l-161 -164h-400z" />
    <glyph glyph-name="four" unicode="4" horiz-adv-x="884" 
d="M-4 381l31 178l301 854h225l-264 -819h225l145 819h248l-145 -819h86l-37 -213h-86l-68 -381h-247l67 381h-481z" />
    <glyph glyph-name="five" unicode="5" horiz-adv-x="841" 
d="M162 0l-164 164l49 268h248l-33 -182l41 -41h119l41 41l80 446l-35 37h-102l-97 -98h-227l137 778h682l-41 -223h-432l-59 -342l94 94h221l129 -129l-115 -649l-163 -164h-373z" />
    <glyph glyph-name="six" unicode="6" horiz-adv-x="864" 
d="M410 674l-74 -74l-62 -350l43 -41h127l43 41l68 387l-37 37h-108zM176 0l-164 164l191 1085l164 164h381l163 -164l-45 -243h-248l27 157l-41 41h-127l-41 -41l-67 -381l98 101h227l131 -131l-104 -588l-164 -164h-381z" />
    <glyph glyph-name="seven" unicode="7" horiz-adv-x="710" 
d="M94 0l92 522l340 668h-411l39 223h677l-32 -182l-365 -713l-92 -518h-248z" />
    <glyph glyph-name="eight" unicode="8" horiz-adv-x="876" 
d="M420 823h125l55 54l51 294l-41 41h-143l-41 -41l-53 -303zM303 201h141l43 43l58 323l-47 47h-125l-54 -55l-57 -317zM164 0l-164 164l72 401l161 162l-112 113l72 409l163 164h396l163 -164l-71 -385l-162 -162l115 -112l-74 -426l-164 -164h-395z" />
    <glyph glyph-name="nine" unicode="9" horiz-adv-x="866" 
d="M397 758h109l72 71l59 334l-41 41h-129l-41 -41l-66 -370zM164 0l-164 164l45 256h250l-31 -170l43 -41h127l43 41l70 397l-98 -98h-228l-129 131l101 569l163 164h381l164 -164l-192 -1085l-164 -164h-381z" />
    <glyph glyph-name="colon" unicode=":" horiz-adv-x="376" 
d="M70 575l49 283h239l-51 -283h-237zM-33 0l51 283h238l-49 -283h-240z" />
    <glyph glyph-name="semicolon" unicode=";" horiz-adv-x="376" 
d="M70 575l49 283h239l-51 -283h-237zM-70 -213l19 111h78l18 16l14 86h-92l51 283h238l-72 -404l-92 -92h-162z" />
    <glyph glyph-name="less" unicode="&#x3c;" horiz-adv-x="696" 
d="M594 301l-551 285l43 243l649 287l-41 -239l-438 -181l375 -178z" />
    <glyph glyph-name="equal" unicode="=" horiz-adv-x="649" 
d="M94 778l35 207h533l-37 -207h-531zM31 416l35 209h532l-37 -209h-530z" />
    <glyph glyph-name="greater" unicode="&#x3e;" horiz-adv-x="696" 
d="M158 1114l549 -285l-41 -243l-652 -287l43 238l439 182l-375 178z" />
    <glyph glyph-name="question" unicode="?" horiz-adv-x="763" 
d="M111 0l47 266h248l-46 -266h-249zM180 389l53 305l132 131h120l39 39l54 299l-43 41h-117l-41 -41l-31 -174h-250l47 260l164 164h369l164 -164l-90 -512l-142 -141h-119l-28 -29l-33 -178h-248z" />
    <glyph glyph-name="at" unicode="@" horiz-adv-x="1515" 
d="M635 170h51l100 100l91 525l-70 71h-64l-36 -37l-111 -622zM489 0l-141 141l133 754l140 141h213l112 -112l53 112h158l-149 -850l10 -8h90l45 45l139 807l-149 152h-615l-149 -152l-178 -1014l151 -151h639l-30 -170h-738l-260 262l197 1130l262 263h850l260 -263
l-164 -937l-149 -150h-306l-116 115l-115 -115h-193z" />
    <glyph glyph-name="A" unicode="A" horiz-adv-x="843" 
d="M535 1245l-216 -706h181zM-82 0l461 1413h371l-27 -1413h-248l14 328h-233l-98 -328h-240z" />
    <glyph glyph-name="B" unicode="B" horiz-adv-x="888" 
d="M457 1212l-70 -387h174l51 49l52 297l-41 41h-166zM518 616h-168l-74 -415h183l43 43l57 329zM-6 0l250 1413h520l164 -164l-68 -383l-162 -161l113 -113l-76 -428l-164 -164h-577z" />
    <glyph glyph-name="C" unicode="C" horiz-adv-x="841" 
d="M176 0l-164 164l191 1085l164 164h366l164 -164l-53 -301h-250l39 215l-41 41h-113l-41 -41l-164 -913l43 -41h113l41 41l39 217h248l-53 -303l-164 -164h-365z" />
    <glyph glyph-name="D" unicode="D" horiz-adv-x="884" 
d="M279 209h174l41 41l161 913l-41 41h-161zM-6 0l250 1413h512l164 -164l-193 -1085l-164 -164h-569z" />
    <glyph glyph-name="E" unicode="E" horiz-adv-x="753" 
d="M-6 0l250 1413h594l-39 -217h-346l-66 -369h315l-38 -219h-316l-67 -391h352l-39 -217h-600z" />
    <glyph glyph-name="F" unicode="F" horiz-adv-x="716" 
d="M-6 0l250 1413h579l-39 -217h-331l-70 -397h299l-37 -215h-301l-102 -584h-248z" />
    <glyph glyph-name="G" unicode="G" horiz-adv-x="860" 
d="M176 0l-164 164l191 1085l164 164h376l164 -164l-49 -264h-248l31 178l-41 41h-123l-41 -41l-162 -913l43 -41h121l43 41l54 305h-107l37 207h356l-106 -598l-164 -164h-375z" />
    <glyph glyph-name="H" unicode="H" horiz-adv-x="911" 
d="M465 0l98 563h-223l-98 -563h-248l250 1413h248l-107 -596h223l107 596h248l-250 -1413h-248z" />
    <glyph glyph-name="I" unicode="I" horiz-adv-x="647" 
d="M168 1212l35 201h536l-34 -201h-148l-178 -1011h147l-37 -201h-536l35 201h141l178 1011h-139z" />
    <glyph glyph-name="J" unicode="J" horiz-adv-x="567" 
d="M-82 0l39 217h188l41 39l203 1157h252l-221 -1249l-164 -164h-338z" />
    <glyph glyph-name="K" unicode="K" horiz-adv-x="892" 
d="M-8 0l252 1413h248l-125 -704l358 704h262l-330 -594l115 -819h-252l-65 602l-150 -237l-63 -365h-250z" />
    <glyph glyph-name="L" unicode="L" horiz-adv-x="673" 
d="M492 1413l-211 -1196h309l-39 -217h-557l250 1413h248z" />
    <glyph glyph-name="M" unicode="M" horiz-adv-x="1277" 
d="M-6 0l250 1413h381l-47 -1161l366 1161h385l-250 -1413h-233l217 1235l-399 -1235h-283l33 1235l-217 -1235h-203z" />
    <glyph glyph-name="N" unicode="N" horiz-adv-x="929" 
d="M-6 0l250 1413h217l147 -866l158 866h215l-250 -1413h-209l-151 893l-162 -893h-215z" />
    <glyph glyph-name="O" unicode="O" horiz-adv-x="880" 
d="M317 209h132l40 41l162 913l-43 41h-131l-41 -41l-162 -913zM176 0l-164 164l191 1085l164 164h385l163 -164l-190 -1085l-164 -164h-385z" />
    <glyph glyph-name="P" unicode="P" horiz-adv-x="862" 
d="M457 1219l-90 -508h180l41 41l76 426l-43 41h-164zM-6 0l250 1413h518l164 -164l-103 -571l-164 -162h-327l-90 -516h-248z" />
    <glyph glyph-name="Q" unicode="Q" horiz-adv-x="880" 
d="M317 209h132l40 41l162 913l-43 41h-131l-41 -41l-162 -913zM500 -299l-174 176l20 123h-170l-164 164l191 1085l164 164h385l163 -164l-190 -1085l-164 -164l-8 -41l102 -102z" />
    <glyph glyph-name="R" unicode="R" horiz-adv-x="888" 
d="M457 1219l-78 -441h176l47 47l62 353l-41 41h-166zM449 586h-105l-102 -586h-248l248 1413h522l164 -164l-84 -475l-166 -166l61 -407h74l-35 -201h-248z" />
    <glyph glyph-name="S" unicode="S" horiz-adv-x="813" 
d="M147 0l-161 162l47 262h248l-31 -176l39 -39h114l43 41l56 303l-29 29l-250 67l-127 127l84 473l164 164h358l164 -164l-47 -260h-250l33 174l-43 41h-104l-41 -41l-52 -286l29 -27l248 -70l127 -125l-86 -491l-164 -164h-369z" />
    <glyph glyph-name="T" unicode="T" horiz-adv-x="770" 
d="M846 1188h-225l-209 -1188h-248l211 1188h-236l41 225h707z" />
    <glyph glyph-name="U" unicode="U" horiz-adv-x="849" 
d="M166 0l-162 164l221 1249h248l-205 -1157l41 -39h123l39 39l205 1157h250l-221 -1249l-164 -164h-375z" />
    <glyph glyph-name="V" unicode="V" horiz-adv-x="786" 
d="M113 0l41 1413h252l-68 -1192l338 1192h246l-445 -1413h-364z" />
    <glyph glyph-name="W" unicode="W" horiz-adv-x="1247" 
d="M96 0l84 1413h242l-105 -1137l308 1137h313l-66 -1137l271 1137h215l-389 -1413h-301l59 1141l-313 -1141h-318z" />
    <glyph glyph-name="X" unicode="X" horiz-adv-x="811" 
d="M455 0l-45 596l-242 -596h-260l325 739l-59 674h256l19 -571l231 571h252l-311 -680l84 -733h-250z" />
    <glyph glyph-name="Y" unicode="Y" horiz-adv-x="837" 
d="M193 0l75 432l-112 981h250l45 -678l288 678h240l-461 -981l-78 -432h-247z" />
    <glyph glyph-name="Z" unicode="Z" horiz-adv-x="727" 
d="M-55 0l35 190l538 1006h-358l39 217h630l-32 -190l-539 -1006h365l-39 -217h-639z" />
    <glyph glyph-name="bracketleft" unicode="[" horiz-adv-x="536" 
d="M-18 -113l288 1637h400l-35 -209h-154l-213 -1219h152l-37 -209h-401z" />
    <glyph glyph-name="backslash" unicode="\" horiz-adv-x="540" 
d="M418 -133h-217l-39 1677h217z" />
    <glyph glyph-name="bracketright" unicode="]" horiz-adv-x="536" 
d="M606 1524l-289 -1637h-399l35 209h153l213 1219h-151l37 209h401z" />
    <glyph glyph-name="asciicircum" unicode="^" horiz-adv-x="733" 
d="M45 741l326 672h274l90 -672h-205l-45 523l-227 -523h-213z" />
    <glyph glyph-name="underscore" unicode="_" horiz-adv-x="716" 
d="M-145 -225l28 159h725l-28 -159h-725z" />
    <glyph glyph-name="grave" unicode="`" horiz-adv-x="688" 
d="M422 1110l-139 137l22 131h94l140 -137l-23 -131h-94z" />
    <glyph glyph-name="a" unicode="a" horiz-adv-x="808" 
d="M279 170h51l98 98l94 525l-71 73h-62l-39 -37l-110 -622zM545 0l-111 109l-108 -109h-193l-139 141l131 754l141 141h213l111 -112l53 112h158l-150 -856l4 -4h58l-33 -176h-135z" />
    <glyph glyph-name="b" unicode="b" horiz-adv-x="804" 
d="M455 852l-117 -115l-88 -493l76 -74h61l37 37l108 606l-38 39h-39zM-29 0l250 1413h238l-88 -498l118 121h152l141 -141l-133 -754l-141 -141h-211l-117 117l-41 -117h-168z" />
    <glyph glyph-name="c" unicode="c" horiz-adv-x="761" 
d="M133 0l-139 141l133 754l139 141h352l140 -141l-39 -219h-236l27 153l-39 37h-82l-39 -37l-108 -622l39 -37h81l37 37l27 153h238l-39 -219l-140 -141h-352z" />
    <glyph glyph-name="d" unicode="d" horiz-adv-x="808" 
d="M279 170h51l100 98l90 516l-80 82h-51l-39 -37l-110 -622zM545 0l-111 109l-108 -109h-193l-139 141l131 754l141 141h185l96 -98l84 475h237l-217 -1233l4 -4h58l-33 -176h-135z" />
    <glyph glyph-name="e" unicode="e" horiz-adv-x="782" 
d="M350 829l-39 -223h170l39 223l-39 37h-92zM133 0l-139 141l133 754l141 141h361l139 -141l-78 -449h-407l-41 -239l39 -37h92l39 37l18 106h236l-31 -172l-139 -141h-363z" />
    <glyph glyph-name="f" unicode="f" horiz-adv-x="561" 
d="M70 846l34 190h101l43 236l143 141h309l-32 -190h-168l-29 -29l-29 -158h174l-32 -190h-174l-150 -846h-237l149 846h-102z" />
    <glyph glyph-name="g" unicode="g" horiz-adv-x="794" 
d="M283 215h28l131 129l78 451l-71 71h-62l-37 -37l-106 -577zM72 -348l-138 137l25 148h240l-15 -80l35 -35h98l39 37l54 305l-121 -121h-152l-139 139l125 713l141 141h213l111 -114l55 114h158l-221 -1247l-138 -137h-370z" />
    <glyph glyph-name="h" unicode="h" horiz-adv-x="804" 
d="M-29 0l250 1413h238l-88 -500l123 123h120l152 -153l-123 -703l4 -4h58l-31 -176h-187l-94 96l121 701l-35 34h-35l-108 -108l-127 -723h-238z" />
    <glyph glyph-name="i" unicode="i" horiz-adv-x="425" 
d="M188 1176l41 229h238l-41 -229h-238zM92 0l-94 94l166 942h237l-153 -856l6 -4h55l-33 -176h-184z" />
    <glyph glyph-name="j" unicode="j" horiz-adv-x="397" 
d="M182 1176l41 229h236l-39 -229h-238zM-250 -348l33 190h131l39 39l205 1155h235l-219 -1243l-141 -141h-283z" />
    <glyph glyph-name="k" unicode="k" horiz-adv-x="778" 
d="M-29 0l250 1413h236l-152 -860l275 483h245l-256 -403l103 -633h-232l-57 436l-135 -207l-39 -229h-238z" />
    <glyph glyph-name="l" unicode="l" horiz-adv-x="428" 
d="M92 0l-94 94l233 1319h236l-217 -1233l4 -4h57l-32 -176h-187z" />
    <glyph glyph-name="m" unicode="m" horiz-adv-x="1191" 
d="M-29 0l185 1036h163l-6 -141l142 141h151l117 -116l117 116h161l152 -153l-123 -703l4 -4h58l-31 -176h-187l-94 96l121 701l-35 34h-35l-98 -96l-129 -735h-237l143 797l-35 34h-35l-104 -104l-127 -727h-238z" />
    <glyph glyph-name="n" unicode="n" horiz-adv-x="804" 
d="M-29 0l185 1036h161l-6 -143l144 143h159l152 -153l-123 -703l4 -4h58l-31 -176h-187l-94 96l121 701l-35 34h-39l-104 -104l-127 -727h-238z" />
    <glyph glyph-name="o" unicode="o" horiz-adv-x="802" 
d="M279 170h106l37 37l108 622l-36 37h-107l-39 -37l-108 -622zM133 0l-139 141l133 754l139 141h373l141 -141l-133 -754l-141 -141h-373z" />
    <glyph glyph-name="p" unicode="p" horiz-adv-x="804" 
d="M455 848l-117 -115l-84 -483l80 -80h53l37 37l108 606l-36 35h-41zM-88 -348l244 1384h163l-6 -141l142 141h186l141 -141l-133 -754l-139 -141h-197l-88 88l-75 -436h-238z" />
    <glyph glyph-name="q" unicode="q" horiz-adv-x="808" 
d="M281 172h34l125 125l88 498l-71 71h-62l-39 -37l-112 -618zM326 -348l82 467l-119 -119h-152l-141 141l135 754l139 141h213l113 -112l53 112h158l-244 -1384h-237z" />
    <glyph glyph-name="r" unicode="r" horiz-adv-x="555" 
d="M-29 0l185 1036h161l-6 -143l144 143h155l-37 -207h-124l-115 -114l-125 -715h-238z" />
    <glyph glyph-name="s" unicode="s" horiz-adv-x="753" 
d="M117 0l-142 141l31 183h238l-21 -117l37 -37h88l39 37l31 176l-19 18l-225 62l-113 112l56 320l141 141h340l141 -141l-32 -180h-236l18 114l-36 37h-72l-37 -37l-31 -174l19 -18l223 -62l113 -112l-58 -322l-141 -141h-352z" />
    <glyph glyph-name="t" unicode="t" horiz-adv-x="589" 
d="M57 846l33 190h107l43 246h237l-43 -246h195l-35 -190h-195l-106 -610l37 -37h157l-34 -199h-273l-141 141l123 705h-105z" />
    <glyph glyph-name="u" unicode="u" horiz-adv-x="786" 
d="M528 0l-116 115l-115 -115h-152l-151 152l156 884h235l-141 -796l37 -35h32l107 104l127 727h235l-147 -856l4 -4h57l-30 -176h-138z" />
    <glyph glyph-name="v" unicode="v" horiz-adv-x="741" 
d="M90 0v1036h240l-37 -878l280 878h224l-353 -1036h-354z" />
    <glyph glyph-name="w" unicode="w" horiz-adv-x="1228" 
d="M84 0l35 1036h225l-59 -866l260 866h309l-14 -866l215 866h202l-288 -1036h-314l9 838l-248 -838h-332z" />
    <glyph glyph-name="x" unicode="x" horiz-adv-x="745" 
d="M403 0l-53 412l-190 -412h-252l280 530l-86 506h240l43 -411l182 411h238l-260 -487l90 -549h-232z" />
    <glyph glyph-name="y" unicode="y" horiz-adv-x="741" 
d="M82 0l8 1036h240l-39 -886l282 886h224l-424 -1241l-144 -143h-333l34 190h207l49 49l39 109h-143z" />
    <glyph glyph-name="z" unicode="z" horiz-adv-x="634" 
d="M-80 0l29 160l430 688h-299l33 188h563l-27 -159l-430 -691h313l-32 -186h-580z" />
    <glyph glyph-name="braceleft" unicode="{" horiz-adv-x="573" 
d="M217 -113l-170 170l92 516l-41 39h-82l39 215h88l50 50l83 475l170 172h261l-37 -209h-111l-49 -49l-72 -400l-147 -149l104 -103l-84 -469l49 -49h95l-37 -209h-201z" />
    <glyph glyph-name="bar" unicode="|" horiz-adv-x="454" 
d="M-10 -133l297 1677h223l-295 -1677h-225z" />
    <glyph glyph-name="braceright" unicode="}" horiz-adv-x="573" 
d="M408 1524l167 -170l-86 -486l39 -41h84l-39 -215h-88l-49 -47l-88 -506l-172 -172h-258l35 209h113l49 49l75 430l148 148l-105 102l78 441l-47 49h-96l37 209h203z" />
    <glyph glyph-name="asciitilde" unicode="~" horiz-adv-x="780" 
d="M129 1085l37 201l125 127h172l170 -172h18l29 29l25 143h172l-35 -201l-127 -127h-170l-172 172h-17l-28 -28l-25 -144h-174z" />
    <glyph glyph-name="exclamdown" unicode="&#xa1;" horiz-adv-x="456" 
d="M502 1413l-47 -266h-248l47 266h248zM434 1022l-182 -1022h-248l180 1022h250z" />
    <glyph glyph-name="cent" unicode="&#xa2;" horiz-adv-x="776" 
d="M164 152l-164 163l139 785l164 164h76l29 159h229l-29 -159h68l164 -164l-45 -264h-250l30 178l-40 41h-121l-41 -41l-109 -613l41 -41h119l43 41l31 179h250l-48 -265l-163 -163h-80l-29 -162h-229l28 162h-63z" />
    <glyph glyph-name="sterling" unicode="&#xa3;" horiz-adv-x="843" 
d="M45 578l39 215h90l80 456l164 164h334l163 -164l-49 -276h-248l33 190l-41 41h-80l-43 -41l-65 -370h280l-36 -215h-283l-47 -273l-88 -88h483l-39 -217h-745l39 221l106 107l43 250h-90z" />
    <glyph glyph-name="yen" unicode="&#xa5;" horiz-adv-x="837" 
d="M33 487l24 131h189l-88 795h256l37 -665l280 665h246l-373 -795h189l-25 -131h-225l-25 -55l-8 -43h242l-25 -133h-242l-45 -256h-247l45 256h-244l24 133h242l8 43l-6 55h-229z" />
    <glyph glyph-name="section" unicode="&#xa7;" horiz-adv-x="827" 
d="M78 676l102 573l164 164h377l162 -164l-43 -252h-250l28 166l-40 41h-121l-43 -41l-52 -293h351l90 -88l-21 -106h-704zM115 -195l-162 162l45 254h250l-31 -168l39 -39h127l41 41l53 293h-350l-92 90l20 105h705l-101 -574l-163 -164h-381z" />
    <glyph glyph-name="dieresis" unicode="&#xa8;" horiz-adv-x="688" 
d="M469 1139l35 194h172l-35 -194h-172zM186 1139l35 194h172l-35 -194h-172z" />
    <glyph glyph-name="copyright" unicode="&#xa9;" horiz-adv-x="1275" 
d="M330 170h510l106 104l152 865l-107 106h-510l-106 -106l-152 -865zM223 0l-211 213l174 987l213 213h699l213 -213l-174 -987l-213 -213h-701zM461 274l-101 99l119 669l99 99h284l101 -99l-41 -229h-183l27 160l-23 22h-71l-23 -22l-94 -533l23 -22h73l21 22l28 162h183
l-39 -229l-101 -99h-282z" />
    <glyph glyph-name="ordfeminine" unicode="&#xaa;" horiz-adv-x="610" 
d="M303 840h62l65 63l59 332l-45 45h-71l-35 -33l-66 -377zM514 707l-74 73l-73 -73h-162l-115 114l84 477l115 115h178l72 -72l34 72h121l-100 -569l6 -4h35l-25 -133h-96z" />
    <glyph glyph-name="guillemotleft" unicode="&#xab;" horiz-adv-x="712" 
d="M453 301l-119 412l264 411h203l-273 -419l119 -404h-194zM156 301l-121 412l264 411h205l-273 -419l119 -404h-194z" />
    <glyph glyph-name="registered" unicode="&#xae;" horiz-adv-x="813" 
d="M461 1167l-27 -145h86l23 22l18 101l-22 22h-78zM297 766l84 475h209l67 -67l-26 -152l-62 -61l19 -127h28l-14 -68h-98l-21 180h-63l-31 -180h-92zM289 680h295l78 80l86 491l-76 76h-293l-78 -78l-86 -493zM244 594l-131 133l98 555l131 131h375l131 -131l-96 -555
l-134 -133h-374z" />
    <glyph glyph-name="macron" unicode="&#xaf;" horiz-adv-x="688" 
d="M219 1161l25 150h405l-24 -150h-406z" />
    <glyph glyph-name="degree" unicode="&#xb0;" horiz-adv-x="489" 
d="M276 1026h109l29 31l39 213l-31 28h-107l-30 -28l-37 -213zM201 911l-95 95l54 313l94 94h246l94 -94l-53 -313l-95 -95h-245z" />
    <glyph glyph-name="twosuperior" unicode="&#xb2;" horiz-adv-x="593" 
d="M70 670l55 311l113 102h198l25 23l24 137l-30 31h-72l-31 -31l-12 -76h-182l22 133l113 113h270l113 -113l-43 -253l-113 -101h-196l-27 -26l-18 -103h311l-27 -147h-493z" />
    <glyph glyph-name="threesuperior" unicode="&#xb3;" horiz-adv-x="604" 
d="M178 670l-112 112l20 117h180l-10 -65l31 -31h98l31 33l22 116l-28 29h-164l20 123h170l35 33l18 112l-30 31h-99l-32 -33l-11 -65h-182l23 118l112 113h297l113 -113l-29 -163l-98 -101l70 -69l-33 -185l-113 -112h-299z" />
    <glyph glyph-name="acute" unicode="&#xb4;" horiz-adv-x="688" 
d="M336 1110l24 131l138 137h123l-25 -131l-137 -137h-123z" />
    <glyph glyph-name="paragraph" unicode="&#xb6;" horiz-adv-x="1232" 
d="M340 358h137l154 861h-156l-41 -41l-137 -779zM383 -195l37 205h336l39 41l204 1161h-122l-187 -1054h-493l-162 161l164 930l163 164h924l-256 -1444l-164 -164h-483z" />
    <glyph glyph-name="periodcentered" unicode="&#xb7;" horiz-adv-x="376" 
d="M70 575l49 283h239l-51 -283h-237z" />
    <glyph glyph-name="cedilla" unicode="&#xb8;" horiz-adv-x="688" 
d="M90 -346l19 100h153l12 10l11 66l-11 12h-73l-35 35l22 123h121l-12 -68h70l69 -67l-26 -144l-66 -67h-254z" />
    <glyph glyph-name="onesuperior" unicode="&#xb9;" horiz-adv-x="491" 
d="M51 670l25 145h123l80 453h-121l24 145h305l-106 -598h119l-27 -145h-422z" />
    <glyph glyph-name="ordmasculine" unicode="&#xba;" horiz-adv-x="610" 
d="M307 840h86l35 32l66 375l-33 33h-88l-35 -33l-66 -375zM205 707l-115 114l84 477l115 115h272l117 -115l-84 -477l-117 -114h-272z" />
    <glyph glyph-name="guillemotright" unicode="&#xbb;" horiz-adv-x="712" 
d="M610 1124l119 -409l-264 -414h-203l273 422l-119 401h194zM311 1124l121 -409l-264 -414h-203l271 422l-119 401h194z" />
    <glyph glyph-name="onequarter" unicode="&#xbc;" horiz-adv-x="1331" 
d="M51 670l25 145h123l80 453h-121l24 145h305l-106 -598h119l-27 -145h-422zM156 0l845 1413h152l-846 -1413h-151zM653 178l19 103l182 464h164l-148 -428h148l78 428h182l-78 -428h55l-24 -139h-55l-31 -176h-182l30 176h-340z" />
    <glyph glyph-name="onehalf" unicode="&#xbd;" horiz-adv-x="1296" 
d="M651 2l56 311l112 103h199l24 22l25 137l-31 31h-71l-31 -31l-12 -75h-183l23 133l112 112h271l112 -112l-43 -254l-112 -100h-197l-26 -27l-19 -102h311l-26 -148h-494zM156 0l845 1413h152l-846 -1413h-151zM51 670l25 145h123l80 453h-121l24 145h305l-106 -598h119
l-27 -145h-422z" />
    <glyph glyph-name="threequarters" unicode="&#xbe;" horiz-adv-x="1390" 
d="M217 0l846 1413h151l-845 -1413h-152zM178 670l-112 112l20 117h180l-10 -65l31 -31h98l31 33l22 116l-28 29h-164l20 123h170l35 33l18 112l-30 31h-99l-32 -33l-11 -65h-182l23 118l112 113h297l113 -113l-29 -163l-98 -101l70 -69l-33 -185l-113 -112h-299zM715 178
l18 103l182 464h164l-147 -428h147l78 428h182l-77 -428h55l-25 -139h-55l-31 -176h-182l31 176h-340z" />
    <glyph glyph-name="questiondown" unicode="&#xbf;" horiz-adv-x="763" 
d="M692 1413l-45 -266h-250l47 266h248zM625 1024l-56 -305l-131 -131h-119l-40 -39l-52 -299l41 -41h117l43 41l31 174h248l-45 -260l-164 -164h-369l-164 164l88 512l142 141h120l27 29l35 178h248z" />
    <glyph glyph-name="Agrave" unicode="&#xc0;" horiz-adv-x="843" 
d="M582 1497l-140 137l23 131h94l139 -137l-22 -131h-94zM535 1245l-216 -706h181zM-82 0l461 1413h371l-27 -1413h-248l14 328h-233l-98 -328h-240z" />
    <glyph glyph-name="Aacute" unicode="&#xc1;" horiz-adv-x="843" 
d="M485 1497l25 131l137 137h123l-25 -131l-137 -137h-123zM535 1245l-216 -706h181zM-82 0l461 1413h371l-27 -1413h-248l14 328h-233l-98 -328h-240z" />
    <glyph glyph-name="Acircumflex" unicode="&#xc2;" horiz-adv-x="843" 
d="M367 1505l20 115l131 131h176l131 -131l-20 -115h-74l-127 129h-6l-129 -129h-102zM535 1245l-216 -706h181zM-82 0l461 1413h371l-27 -1413h-248l14 328h-233l-98 -328h-240z" />
    <glyph glyph-name="Atilde" unicode="&#xc3;" horiz-adv-x="843" 
d="M336 1513l24 142l86 84h132l96 -97h24l19 19l12 78h133l-24 -140l-86 -86h-129l-99 99h-24l-19 -19l-12 -80h-133zM535 1245l-216 -706h181zM-82 0l461 1413h371l-27 -1413h-248l14 328h-233l-98 -328h-240z" />
    <glyph glyph-name="Adieresis" unicode="&#xc4;" horiz-adv-x="843" 
d="M635 1526l35 194h172l-35 -194h-172zM352 1526l35 194h172l-35 -194h-172zM535 1245l-216 -706h181zM-82 0l461 1413h371l-27 -1413h-248l14 328h-233l-98 -328h-240z" />
    <glyph glyph-name="Aring" unicode="&#xc5;" horiz-adv-x="843" 
d="M537 1567h104l21 20l16 86l-21 23h-102l-23 -23l-16 -86zM485 1489l-71 72l24 139l72 72h201l71 -72l-24 -139l-72 -72h-201zM535 1245l-216 -706h181zM-82 0l461 1413h371l-27 -1413h-248l14 328h-233l-98 -328h-240z" />
    <glyph glyph-name="AE" unicode="&#xc6;" horiz-adv-x="1124" 
d="M494 539l36 706l-211 -706h175zM158 0h-240l457 1413h833l-39 -217h-430l-6 -369h340l-39 -219h-307l-8 -391h285l-37 -217h-500l16 328h-227z" />
    <glyph glyph-name="Ccedilla" unicode="&#xc7;" horiz-adv-x="841" 
d="M176 0l-164 164l191 1085l164 164h366l164 -164l-53 -301h-250l39 215l-41 41h-113l-41 -41l-164 -913l43 -41h113l41 41l39 217h248l-53 -303l-164 -164h-162l-12 -68h69l70 -67l-27 -144l-65 -67h-254l18 100h154l12 10l10 66l-10 12h-74l-34 35l22 123h-82z" />
    <glyph glyph-name="Egrave" unicode="&#xc8;" horiz-adv-x="753" 
d="M549 1497l-139 137l22 131h94l140 -137l-23 -131h-94zM-6 0l250 1413h594l-39 -217h-346l-66 -369h315l-38 -219h-316l-67 -391h352l-39 -217h-600z" />
    <glyph glyph-name="Eacute" unicode="&#xc9;" horiz-adv-x="753" 
d="M453 1497l24 131l137 137h123l-24 -131l-138 -137h-122zM-6 0l250 1413h594l-39 -217h-346l-66 -369h315l-38 -219h-316l-67 -391h352l-39 -217h-600z" />
    <glyph glyph-name="Ecircumflex" unicode="&#xca;" horiz-adv-x="753" 
d="M-6 0l250 1413h594l-39 -217h-346l-66 -369h315l-38 -219h-316l-67 -391h352l-39 -217h-600zM334 1505l20 115l131 131h177l131 -131l-21 -115h-74l-127 129h-6l-129 -129h-102z" />
    <glyph glyph-name="Edieresis" unicode="&#xcb;" horiz-adv-x="753" 
d="M-6 0l250 1413h594l-39 -217h-346l-66 -369h315l-38 -219h-316l-67 -391h352l-39 -217h-600zM604 1526l35 194h172l-35 -194h-172zM322 1526l34 194h172l-34 -194h-172z" />
    <glyph glyph-name="Igrave" unicode="&#xcc;" horiz-adv-x="647" 
d="M489 1497l-139 137l23 131h94l139 -137l-22 -131h-95zM168 1212l35 201h536l-34 -201h-148l-178 -1011h147l-37 -201h-536l35 201h141l178 1011h-139z" />
    <glyph glyph-name="Iacute" unicode="&#xcd;" horiz-adv-x="647" 
d="M393 1497l25 131l137 137h123l-25 -131l-137 -137h-123zM168 1212l35 201h536l-34 -201h-148l-178 -1011h147l-37 -201h-536l35 201h141l178 1011h-139z" />
    <glyph glyph-name="Icircumflex" unicode="&#xce;" horiz-adv-x="647" 
d="M276 1505l21 115l131 131h176l131 -131l-20 -115h-74l-127 129h-6l-129 -129h-103zM168 1212l35 201h536l-34 -201h-148l-178 -1011h147l-37 -201h-536l35 201h141l178 1011h-139z" />
    <glyph glyph-name="Idieresis" unicode="&#xcf;" horiz-adv-x="647" 
d="M545 1526l35 194h172l-35 -194h-172zM262 1526l35 194h172l-35 -194h-172zM168 1212l35 201h536l-34 -201h-148l-178 -1011h147l-37 -201h-536l35 201h141l178 1011h-139z" />
    <glyph glyph-name="Eth" unicode="&#xd0;" horiz-adv-x="884" 
d="M279 209h174l41 41l159 913l-41 41h-159l-70 -393h119l-35 -211h-121zM18 600l37 211h82l107 602h512l164 -164l-193 -1085l-164 -164h-569l106 600h-82z" />
    <glyph glyph-name="Ntilde" unicode="&#xd1;" horiz-adv-x="929" 
d="M385 1513l25 142l86 84h131l96 -97h25l18 19l12 78h133l-24 -140l-86 -86h-129l-99 99h-24l-19 -19l-12 -80h-133zM-6 0l250 1413h217l147 -866l158 866h215l-250 -1413h-209l-151 893l-162 -893h-215z" />
    <glyph glyph-name="Ograve" unicode="&#xd2;" horiz-adv-x="880" 
d="M578 1497l-140 137l23 131h94l139 -137l-22 -131h-94zM317 209h132l40 41l162 913l-43 41h-131l-41 -41l-162 -913zM176 0l-164 164l191 1085l164 164h385l163 -164l-190 -1085l-164 -164h-385z" />
    <glyph glyph-name="Oacute" unicode="&#xd3;" horiz-adv-x="880" 
d="M317 209h132l40 41l162 913l-43 41h-131l-41 -41l-162 -913zM176 0l-164 164l191 1085l164 164h385l163 -164l-190 -1085l-164 -164h-385zM481 1497l25 131l137 137h123l-25 -131l-137 -137h-123z" />
    <glyph glyph-name="Ocircumflex" unicode="&#xd4;" horiz-adv-x="880" 
d="M317 209h132l40 41l162 913l-43 41h-131l-41 -41l-162 -913zM176 0l-164 164l191 1085l164 164h385l163 -164l-190 -1085l-164 -164h-385zM365 1505l20 115l131 131h176l131 -131l-20 -115h-74l-127 129h-6l-129 -129h-102z" />
    <glyph glyph-name="Otilde" unicode="&#xd5;" horiz-adv-x="880" 
d="M334 1513l24 142l86 84h131l97 -97h24l19 19l12 78h133l-24 -140l-86 -86h-129l-99 99h-24l-19 -19l-12 -80h-133zM317 209h132l40 41l162 913l-43 41h-131l-41 -41l-162 -913zM176 0l-164 164l191 1085l164 164h385l163 -164l-190 -1085l-164 -164h-385z" />
    <glyph glyph-name="Odieresis" unicode="&#xd6;" horiz-adv-x="880" 
d="M317 209h132l40 41l162 913l-43 41h-131l-41 -41l-162 -913zM176 0l-164 164l191 1085l164 164h385l163 -164l-190 -1085l-164 -164h-385zM633 1526l35 194h172l-35 -194h-172zM350 1526l35 194h172l-35 -194h-172z" />
    <glyph glyph-name="multiply" unicode="&#xd7;" horiz-adv-x="727" 
d="M203 385l-142 141l183 183l-183 182l142 139l180 -182l182 182l142 -139l-183 -182l183 -183l-142 -141l-182 182z" />
    <glyph glyph-name="Oslash" unicode="&#xd8;" horiz-adv-x="880" 
d="M322 195h141l41 41l162 919zM262 258l344 961h-141l-41 -41zM176 0l-164 164l191 1085l164 164h385l163 -164l-190 -1085l-164 -164h-385z" />
    <glyph glyph-name="Ugrave" unicode="&#xd9;" horiz-adv-x="849" 
d="M594 1497l-139 137l22 131h94l140 -137l-23 -131h-94zM166 0l-162 164l221 1249h248l-205 -1157l41 -39h123l39 39l205 1157h250l-221 -1249l-164 -164h-375z" />
    <glyph glyph-name="Uacute" unicode="&#xda;" horiz-adv-x="849" 
d="M166 0l-162 164l221 1249h248l-205 -1157l41 -39h123l39 39l205 1157h250l-221 -1249l-164 -164h-375zM498 1497l24 131l137 137h123l-24 -131l-137 -137h-123z" />
    <glyph glyph-name="Ucircumflex" unicode="&#xdb;" horiz-adv-x="849" 
d="M166 0l-162 164l221 1249h248l-205 -1157l41 -39h123l39 39l205 1157h250l-221 -1249l-164 -164h-375zM379 1505l20 115l131 131h177l131 -131l-21 -115h-74l-127 129h-6l-129 -129h-102z" />
    <glyph glyph-name="Udieresis" unicode="&#xdc;" horiz-adv-x="849" 
d="M166 0l-162 164l221 1249h248l-205 -1157l41 -39h123l39 39l205 1157h250l-221 -1249l-164 -164h-375zM649 1526l35 194h172l-35 -194h-172zM367 1526l34 194h172l-34 -194h-172z" />
    <glyph glyph-name="Yacute" unicode="&#xdd;" horiz-adv-x="837" 
d="M492 1497l24 131l137 137h123l-24 -131l-138 -137h-122zM193 0l75 432l-112 981h250l45 -678l288 678h240l-461 -981l-78 -432h-247z" />
    <glyph glyph-name="Thorn" unicode="&#xde;" horiz-adv-x="870" 
d="M578 977h-164l-86 -496h176l41 43l73 412zM-6 0l250 1413h248l-43 -242h268l164 -163l-99 -557l-164 -164h-325l-51 -287h-248z" />
    <glyph glyph-name="germandbls" unicode="&#xdf;" horiz-adv-x="858" 
d="M-29 0l226 1272l139 141h426l141 -141l-69 -398l-138 -137l97 -98l-86 -498l-142 -141h-276l33 176h122l39 39l70 395l-41 41h-106l30 176h111l53 54l55 317l-39 39h-159l-39 -39l-209 -1198h-238z" />
    <glyph glyph-name="agrave" unicode="&#xe0;" horiz-adv-x="808" 
d="M494 1110l-140 137l23 131h94l139 -137l-22 -131h-94zM279 170h51l98 98l94 525l-71 73h-62l-39 -37l-110 -622zM545 0l-111 109l-108 -109h-193l-139 141l131 754l141 141h213l111 -112l53 112h158l-150 -856l4 -4h58l-33 -176h-135z" />
    <glyph glyph-name="aacute" unicode="&#xe1;" horiz-adv-x="808" 
d="M397 1110l25 131l137 137h123l-25 -131l-137 -137h-123zM279 170h51l98 98l94 525l-71 73h-62l-39 -37l-110 -622zM545 0l-111 109l-108 -109h-193l-139 141l131 754l141 141h213l111 -112l53 112h158l-150 -856l4 -4h58l-33 -176h-135z" />
    <glyph glyph-name="acircumflex" unicode="&#xe2;" horiz-adv-x="808" 
d="M281 1118l20 115l131 131h176l131 -131l-20 -115h-74l-127 129h-6l-129 -129h-102zM279 170h51l98 98l94 525l-71 73h-62l-39 -37l-110 -622zM545 0l-111 109l-108 -109h-193l-139 141l131 754l141 141h213l111 -112l53 112h158l-150 -856l4 -4h58l-33 -176h-135z" />
    <glyph glyph-name="atilde" unicode="&#xe3;" horiz-adv-x="808" 
d="M250 1126l24 142l86 84h132l96 -97h24l19 19l12 78h133l-24 -140l-86 -86h-129l-99 99h-24l-19 -19l-12 -80h-133zM279 170h51l98 98l94 525l-71 73h-62l-39 -37l-110 -622zM545 0l-111 109l-108 -109h-193l-139 141l131 754l141 141h213l111 -112l53 112h158l-150 -856
l4 -4h58l-33 -176h-135z" />
    <glyph glyph-name="adieresis" unicode="&#xe4;" horiz-adv-x="808" 
d="M551 1139l35 194h172l-35 -194h-172zM268 1139l35 194h172l-35 -194h-172zM279 170h51l98 98l94 525l-71 73h-62l-39 -37l-110 -622zM545 0l-111 109l-108 -109h-193l-139 141l131 754l141 141h213l111 -112l53 112h158l-150 -856l4 -4h58l-33 -176h-135z" />
    <glyph glyph-name="aring" unicode="&#xe5;" horiz-adv-x="808" 
d="M451 1180h104l20 20l17 86l-21 23h-102l-23 -23l-16 -86zM399 1102l-71 72l24 139l72 71h201l71 -71l-24 -139l-72 -72h-201zM279 170h51l98 98l94 525l-71 73h-62l-39 -37l-110 -622zM545 0l-111 109l-108 -109h-193l-139 141l131 754l141 141h213l111 -112l53 112h158
l-150 -856l4 -4h58l-33 -176h-135z" />
    <glyph glyph-name="ae" unicode="&#xe6;" horiz-adv-x="1177" 
d="M745 829l-40 -227h172l38 227l-36 37h-95zM342 170l64 61l38 218h-141l-45 -46l-35 -196l39 -37h80zM117 0l-140 141l56 318l145 145h293l41 225l-39 37h-84l-37 -37l-20 -112h-234l31 178l141 141h287l84 -86l86 86h297l141 -141l-80 -446h-407l-41 -242l39 -37h92
l39 37l18 106h236l-29 -172l-141 -141h-311l-88 88l-91 -88h-284z" />
    <glyph glyph-name="ccedilla" unicode="&#xe7;" horiz-adv-x="761" 
d="M133 0l-139 141l133 754l139 141h352l140 -141l-39 -219h-236l27 153l-39 37h-82l-39 -37l-108 -622l39 -37h81l37 37l27 153h238l-39 -219l-140 -141h-147l-12 -68h69l70 -67l-27 -144l-65 -67h-254l18 100h154l12 10l10 66l-10 12h-74l-34 35l22 123h-84z" />
    <glyph glyph-name="egrave" unicode="&#xe8;" horiz-adv-x="782" 
d="M473 1110l-139 137l22 131h95l139 -137l-23 -131h-94zM350 829l-39 -223h170l39 223l-39 37h-92zM133 0l-139 141l133 754l141 141h361l139 -141l-78 -449h-407l-41 -239l39 -37h92l39 37l18 106h236l-31 -172l-139 -141h-363z" />
    <glyph glyph-name="eacute" unicode="&#xe9;" horiz-adv-x="782" 
d="M350 829l-39 -223h170l39 223l-39 37h-92zM377 1110l24 131l138 137h123l-25 -131l-137 -137h-123zM133 0l-139 141l133 754l141 141h361l139 -141l-78 -449h-407l-41 -239l39 -37h92l39 37l18 106h236l-31 -172l-139 -141h-363z" />
    <glyph glyph-name="ecircumflex" unicode="&#xea;" horiz-adv-x="782" 
d="M350 829l-39 -223h170l39 223l-39 37h-92zM133 0l-139 141l133 754l141 141h361l139 -141l-78 -449h-407l-41 -239l39 -37h92l39 37l18 106h236l-31 -172l-139 -141h-363zM258 1118l21 115l131 131h176l131 -131l-21 -115h-73l-127 129h-7l-129 -129h-102z" />
    <glyph glyph-name="edieresis" unicode="&#xeb;" horiz-adv-x="782" 
d="M350 829l-39 -223h170l39 223l-39 37h-92zM133 0l-139 141l133 754l141 141h361l139 -141l-78 -449h-407l-41 -239l39 -37h92l39 37l18 106h236l-31 -172l-139 -141h-363zM528 1139l35 194h172l-35 -194h-172zM246 1139l35 194h172l-35 -194h-172z" />
    <glyph glyph-name="igrave" unicode="&#xec;" horiz-adv-x="425" 
d="M301 1110l-139 137l22 131h95l139 -137l-23 -131h-94zM92 0l-94 94l166 942h237l-153 -856l6 -4h55l-33 -176h-184z" />
    <glyph glyph-name="iacute" unicode="&#xed;" horiz-adv-x="425" 
d="M205 1110l24 131l138 137h122l-24 -131l-137 -137h-123zM92 0l-94 94l166 942h237l-153 -856l6 -4h55l-33 -176h-184z" />
    <glyph glyph-name="icircumflex" unicode="&#xee;" horiz-adv-x="425" 
d="M92 0l-94 94l166 942h237l-153 -856l6 -4h55l-33 -176h-184zM88 1118l21 115l131 131h176l131 -131l-21 -115h-73l-127 129h-7l-129 -129h-102z" />
    <glyph glyph-name="idieresis" unicode="&#xef;" horiz-adv-x="425" 
d="M92 0l-94 94l166 942h237l-153 -856l6 -4h55l-33 -176h-184zM358 1139l35 194h172l-35 -194h-172zM76 1139l35 194h172l-35 -194h-172z" />
    <glyph glyph-name="eth" unicode="&#xf0;" horiz-adv-x="802" 
d="M383 170l39 37l100 577l-82 82h-51l-39 -37l-110 -622l39 -37h104zM334 1413h217l203 -203l98 101h63l-34 -199l-78 -78l-158 -893l-141 -141h-371l-139 141l131 754l141 141h185l98 -100l29 170l-244 246v61z" />
    <glyph glyph-name="ntilde" unicode="&#xf1;" horiz-adv-x="804" 
d="M233 1126l25 142l86 84h131l96 -97h25l18 19l13 78h133l-25 -140l-86 -86h-129l-98 99h-25l-18 -19l-12 -80h-134zM-29 0l185 1036h161l-6 -143l144 143h159l152 -153l-123 -703l4 -4h58l-31 -176h-187l-94 96l121 701l-35 34h-39l-104 -104l-127 -727h-238z" />
    <glyph glyph-name="ograve" unicode="&#xf2;" horiz-adv-x="802" 
d="M475 1110l-139 137l22 131h95l139 -137l-23 -131h-94zM279 170h106l37 37l108 622l-36 37h-107l-39 -37l-108 -622zM133 0l-139 141l133 754l139 141h373l141 -141l-133 -754l-141 -141h-373z" />
    <glyph glyph-name="oacute" unicode="&#xf3;" horiz-adv-x="802" 
d="M379 1110l24 131l138 137h123l-25 -131l-137 -137h-123zM279 170h106l37 37l108 622l-36 37h-107l-39 -37l-108 -622zM133 0l-139 141l133 754l139 141h373l141 -141l-133 -754l-141 -141h-373z" />
    <glyph glyph-name="ocircumflex" unicode="&#xf4;" horiz-adv-x="802" 
d="M279 170h106l37 37l108 622l-36 37h-107l-39 -37l-108 -622zM133 0l-139 141l133 754l139 141h373l141 -141l-133 -754l-141 -141h-373zM262 1118l21 115l131 131h176l131 -131l-21 -115h-73l-127 129h-6l-129 -129h-103z" />
    <glyph glyph-name="otilde" unicode="&#xf5;" horiz-adv-x="802" 
d="M231 1126l25 142l86 84h131l96 -97h25l18 19l13 78h133l-25 -140l-86 -86h-129l-98 99h-25l-18 -19l-12 -80h-134zM279 170h106l37 37l108 622l-36 37h-107l-39 -37l-108 -622zM133 0l-139 141l133 754l139 141h373l141 -141l-133 -754l-141 -141h-373z" />
    <glyph glyph-name="odieresis" unicode="&#xf6;" horiz-adv-x="802" 
d="M279 170h106l37 37l108 622l-36 37h-107l-39 -37l-108 -622zM133 0l-139 141l133 754l139 141h373l141 -141l-133 -754l-141 -141h-373zM532 1139l35 194h172l-34 -194h-173zM250 1139l35 194h172l-35 -194h-172z" />
    <glyph glyph-name="divide" unicode="&#xf7;" horiz-adv-x="679" 
d="M301 905l35 191h192l-32 -191h-195zM49 604l35 205h594l-35 -205h-594zM197 315l34 191h195l-35 -191h-194z" />
    <glyph glyph-name="oslash" unicode="&#xf8;" horiz-adv-x="802" 
d="M272 156h125l39 39l109 622zM229 219l273 662h-125l-39 -39zM135 0l-141 141l133 754l141 141h371l141 -141l-133 -754l-141 -141h-371z" />
    <glyph glyph-name="ugrave" unicode="&#xf9;" horiz-adv-x="786" 
d="M481 1110l-139 137l23 131h94l139 -137l-23 -131h-94zM528 0l-116 115l-115 -115h-152l-151 152l156 884h235l-141 -796l37 -35h32l107 104l127 727h235l-147 -856l4 -4h57l-30 -176h-138z" />
    <glyph glyph-name="uacute" unicode="&#xfa;" horiz-adv-x="786" 
d="M385 1110l25 131l137 137h123l-25 -131l-137 -137h-123zM528 0l-116 115l-115 -115h-152l-151 152l156 884h235l-141 -796l37 -35h32l107 104l127 727h235l-147 -856l4 -4h57l-30 -176h-138z" />
    <glyph glyph-name="ucircumflex" unicode="&#xfb;" horiz-adv-x="786" 
d="M528 0l-116 115l-115 -115h-152l-151 152l156 884h235l-141 -796l37 -35h32l107 104l127 727h235l-147 -856l4 -4h57l-30 -176h-138zM266 1118l21 115l131 131h176l131 -131l-20 -115h-74l-127 129h-6l-129 -129h-103z" />
    <glyph glyph-name="udieresis" unicode="&#xfc;" horiz-adv-x="786" 
d="M528 0l-116 115l-115 -115h-152l-151 152l156 884h235l-141 -796l37 -35h32l107 104l127 727h235l-147 -856l4 -4h57l-30 -176h-138zM537 1139l34 194h172l-34 -194h-172zM254 1139l35 194h172l-35 -194h-172z" />
    <glyph glyph-name="yacute" unicode="&#xfd;" horiz-adv-x="741" 
d="M369 1110l24 131l137 137h123l-24 -131l-137 -137h-123zM82 0l8 1036h240l-39 -886l282 886h224l-424 -1241l-144 -143h-333l34 190h207l49 49l39 109h-143z" />
    <glyph glyph-name="thorn" unicode="&#xfe;" horiz-adv-x="804" 
d="M455 852l-115 -115l-86 -489l80 -78h53l39 37l106 606l-38 39h-39zM-88 -348l309 1761h238l-88 -495l118 118h152l141 -141l-131 -754l-141 -141h-197l-88 86l-75 -434h-238z" />
    <glyph glyph-name="ydieresis" unicode="&#xff;" horiz-adv-x="741" 
d="M522 1139l35 194h172l-35 -194h-172zM240 1139l34 194h172l-34 -194h-172zM82 0l8 1036h240l-39 -886l282 886h224l-424 -1241l-144 -143h-333l34 190h207l49 49l39 109h-143z" />
    <glyph glyph-name="Amacron" unicode="&#x100;" horiz-adv-x="843" 
d="M383 1548l25 150h405l-25 -150h-405zM535 1245l-216 -706h181zM-82 0l461 1413h371l-27 -1413h-248l14 328h-233l-98 -328h-240z" />
    <glyph glyph-name="amacron" unicode="&#x101;" horiz-adv-x="808" 
d="M297 1161l25 150h405l-25 -150h-405zM279 170h51l98 98l94 525l-71 73h-62l-39 -37l-110 -622zM545 0l-111 109l-108 -109h-193l-139 141l131 754l141 141h213l111 -112l53 112h158l-150 -856l4 -4h58l-33 -176h-135z" />
    <glyph glyph-name="Abreve" unicode="&#x102;" horiz-adv-x="843" 
d="M438 1513l-86 89l23 124h155l-14 -73l25 -25h108l25 25l14 73h156l-23 -124l-86 -89h-297zM535 1245l-216 -706h181zM-82 0l461 1413h371l-27 -1413h-248l14 328h-233l-98 -328h-240z" />
    <glyph glyph-name="abreve" unicode="&#x103;" horiz-adv-x="808" 
d="M352 1126l-86 88l23 125h155l-14 -73l25 -25h108l25 25l14 73h156l-23 -125l-86 -88h-297zM279 170h51l98 98l94 525l-71 73h-62l-39 -37l-110 -622zM545 0l-111 109l-108 -109h-193l-139 141l131 754l141 141h213l111 -112l53 112h158l-150 -856l4 -4h58l-33 -176h-135z
" />
    <glyph glyph-name="Aogonek" unicode="&#x104;" horiz-adv-x="843" 
d="M535 1245l-216 -706h181zM-82 0l461 1413h371l-27 -1413h-80l-139 -139l-17 -88l13 -13h121l-21 -106h-203l-69 70l28 157l119 119l14 328h-233l-98 -328h-240z" />
    <glyph glyph-name="aogonek" unicode="&#x105;" horiz-adv-x="808" 
d="M279 170h51l98 98l94 525l-71 73h-62l-39 -37l-110 -622zM428 -346l-70 70l29 157l137 137l-90 91l-108 -109h-193l-139 141l131 754l141 141h213l111 -112l53 112h158l-150 -856l4 -4h58l-33 -176h-6l-139 -139l-17 -88l10 -13h123l-20 -106h-203z" />
    <glyph glyph-name="Cacute" unicode="&#x106;" horiz-adv-x="841" 
d="M176 0l-164 164l191 1085l164 164h366l164 -164l-53 -301h-250l39 215l-41 41h-113l-41 -41l-164 -913l43 -41h113l41 41l39 217h248l-53 -303l-164 -164h-365zM473 1497l25 131l137 137h123l-25 -131l-137 -137h-123z" />
    <glyph glyph-name="cacute" unicode="&#x107;" horiz-adv-x="761" 
d="M133 0l-139 141l133 754l139 141h352l140 -141l-39 -219h-236l27 153l-39 37h-82l-39 -37l-108 -622l39 -37h81l37 37l27 153h238l-39 -219l-140 -141h-352zM371 1110l24 131l137 137h123l-24 -131l-137 -137h-123z" />
    <glyph glyph-name="Ccircumflex" unicode="&#x108;" horiz-adv-x="841" 
d="M176 0l-164 164l191 1085l164 164h366l164 -164l-53 -301h-250l39 215l-41 41h-113l-41 -41l-164 -913l43 -41h113l41 41l39 217h248l-53 -303l-164 -164h-365zM354 1505l21 115l131 131h176l131 -131l-20 -115h-74l-127 129h-6l-129 -129h-103z" />
    <glyph glyph-name="ccircumflex" unicode="&#x109;" horiz-adv-x="761" 
d="M133 0l-139 141l133 754l139 141h352l140 -141l-39 -219h-236l27 153l-39 37h-82l-39 -37l-108 -622l39 -37h81l37 37l27 153h238l-39 -219l-140 -141h-352zM254 1118l20 115l132 131h176l131 -131l-21 -115h-74l-126 129h-7l-129 -129h-102z" />
    <glyph glyph-name="Ccaron" unicode="&#x10c;" horiz-adv-x="841" 
d="M176 0l-164 164l191 1085l164 164h366l164 -164l-53 -301h-250l39 215l-41 41h-113l-41 -41l-164 -913l43 -41h113l41 41l39 217h248l-53 -303l-164 -164h-365zM489 1505l-131 133l21 113h74l127 -127h6l129 127h102l-20 -113l-131 -133h-177z" />
    <glyph glyph-name="ccaron" unicode="&#x10d;" horiz-adv-x="761" 
d="M133 0l-139 141l133 754l139 141h352l140 -141l-39 -219h-236l27 153l-39 37h-82l-39 -37l-108 -622l39 -37h81l37 37l27 153h238l-39 -219l-140 -141h-352zM387 1118l-131 133l20 113h74l127 -127h6l129 127h103l-21 -113l-131 -133h-176z" />
    <glyph glyph-name="Dcaron" unicode="&#x10e;" horiz-adv-x="884" 
d="M279 209h174l41 41l161 913l-41 41h-161zM-6 0l250 1413h512l164 -164l-193 -1085l-164 -164h-569zM506 1505l-131 133l20 113h74l127 -127h6l129 127h103l-21 -113l-131 -133h-176z" />
    <glyph glyph-name="dcaron" unicode="&#x10f;" horiz-adv-x="808" 
d="M279 170h51l100 98l90 516l-80 82h-51l-39 -37l-110 -622zM545 0l-111 109l-108 -109h-193l-139 141l131 754l141 141h185l96 -98l84 475h237l-217 -1233l4 -4h58l-33 -176h-135zM885 1130l51 283h154l-39 -215l-68 -68h-98z" />
    <glyph glyph-name="Dcroat" unicode="&#x110;" horiz-adv-x="884" 
d="M279 209h174l41 41l159 913l-41 41h-159l-70 -393h119l-35 -211h-121zM18 600l37 211h82l107 602h512l164 -164l-193 -1085l-164 -164h-569l106 600h-82z" />
    <glyph glyph-name="dcroat" unicode="&#x111;" horiz-adv-x="808" 
d="M279 170h51l100 98l90 516l-80 82h-51l-39 -37l-110 -622zM545 0l-111 109l-108 -109h-193l-139 141l131 754l141 141h185l96 -98l37 205h-185l27 145h182l23 125h237l-22 -125h82l-27 -145h-80l-170 -963l4 -4h58l-33 -176h-135z" />
    <glyph glyph-name="Emacron" unicode="&#x112;" horiz-adv-x="753" 
d="M350 1548l25 150h405l-24 -150h-406zM-6 0l250 1413h594l-39 -217h-346l-66 -369h315l-38 -219h-316l-67 -391h352l-39 -217h-600z" />
    <glyph glyph-name="emacron" unicode="&#x113;" horiz-adv-x="782" 
d="M274 1161l25 150h406l-25 -150h-406zM350 829l-39 -223h170l39 223l-39 37h-92zM133 0l-139 141l133 754l141 141h361l139 -141l-78 -449h-407l-41 -239l39 -37h92l39 37l18 106h236l-31 -172l-139 -141h-363z" />
    <glyph glyph-name="Edotaccent" unicode="&#x116;" horiz-adv-x="753" 
d="M492 1513l-54 54l21 121l53 53h127l53 -53l-22 -121l-54 -54h-124zM-6 0l250 1413h594l-39 -217h-346l-66 -369h315l-38 -219h-316l-67 -391h352l-39 -217h-600z" />
    <glyph glyph-name="edotaccent" unicode="&#x117;" horiz-adv-x="782" 
d="M418 1126l-53 54l20 120l53 54h127l53 -54l-22 -120l-53 -54h-125zM350 829l-39 -223h170l39 223l-39 37h-92zM133 0l-139 141l133 754l141 141h361l139 -141l-78 -449h-407l-41 -239l39 -37h92l39 37l18 106h236l-31 -172l-139 -141h-363z" />
    <glyph glyph-name="Eogonek" unicode="&#x118;" horiz-adv-x="753" 
d="M-6 0l250 1413h594l-39 -217h-346l-66 -369h315l-38 -219h-316l-67 -391h352l-39 -217l-141 -139l-17 -88l13 -13h120l-18 -106h-203l-69 70l28 157l119 119h-432z" />
    <glyph glyph-name="eogonek" unicode="&#x119;" horiz-adv-x="782" 
d="M350 829l-39 -223h170l39 223l-39 37h-92zM133 0l-139 141l133 754l141 141h361l139 -141l-78 -449h-407l-41 -239l39 -37h92l39 37l18 106h236l-31 -172l-139 -141l-142 -139l-16 -88l12 -13h121l-18 -106h-203l-70 70l29 157l119 119h-195z" />
    <glyph glyph-name="Ecaron" unicode="&#x11a;" horiz-adv-x="753" 
d="M-6 0l250 1413h594l-39 -217h-346l-66 -369h315l-38 -219h-316l-67 -391h352l-39 -217h-600zM467 1505l-131 133l20 113h74l127 -127h6l129 127h103l-21 -113l-131 -133h-176z" />
    <glyph glyph-name="ecaron" unicode="&#x11b;" horiz-adv-x="782" 
d="M350 829l-39 -223h170l39 223l-39 37h-92zM133 0l-139 141l133 754l141 141h361l139 -141l-78 -449h-407l-41 -239l39 -37h92l39 37l18 106h236l-31 -172l-139 -141h-363zM391 1118l-131 133l21 113h73l127 -127h6l129 127h103l-21 -113l-131 -133h-176z" />
    <glyph glyph-name="Gcircumflex" unicode="&#x11c;" horiz-adv-x="860" 
d="M176 0l-164 164l191 1085l164 164h376l164 -164l-49 -264h-248l31 178l-41 41h-123l-41 -41l-162 -913l43 -41h121l43 41l54 305h-107l37 207h356l-106 -598l-164 -164h-375zM356 1505l21 115l131 131h176l131 -131l-20 -115h-74l-127 129h-6l-129 -129h-103z" />
    <glyph glyph-name="gcircumflex" unicode="&#x11d;" horiz-adv-x="794" 
d="M283 215h28l131 129l78 451l-71 71h-62l-37 -37l-106 -577zM72 -348l-138 137l25 148h240l-15 -80l35 -35h98l39 37l54 305l-121 -121h-152l-139 139l125 713l141 141h213l111 -114l55 114h158l-221 -1247l-138 -137h-370zM281 1118l20 115l131 131h176l131 -131
l-20 -115h-74l-127 129h-6l-129 -129h-102z" />
    <glyph glyph-name="Gbreve" unicode="&#x11e;" horiz-adv-x="860" 
d="M428 1513l-86 89l23 124h155l-14 -73l24 -25h109l25 25l14 73h156l-23 -124l-86 -89h-297zM176 0l-164 164l191 1085l164 164h376l164 -164l-49 -264h-248l31 178l-41 41h-123l-41 -41l-162 -913l43 -41h121l43 41l54 305h-107l37 207h356l-106 -598l-164 -164h-375z" />
    <glyph glyph-name="gbreve" unicode="&#x11f;" horiz-adv-x="794" 
d="M354 1126l-86 88l23 125h155l-14 -73l25 -25h108l25 25l14 73h156l-23 -125l-86 -88h-297zM283 215h28l131 129l78 451l-71 71h-62l-37 -37l-106 -577zM72 -348l-138 137l25 148h240l-15 -80l35 -35h98l39 37l54 305l-121 -121h-152l-139 139l125 713l141 141h213
l111 -114l55 114h158l-221 -1247l-138 -137h-370z" />
    <glyph glyph-name="Gcommaaccent" unicode="&#x122;" horiz-adv-x="860" 
d="M176 0l-164 164l191 1085l164 164h376l164 -164l-49 -264h-248l31 178l-41 41h-123l-41 -41l-162 -913l43 -41h121l43 41l54 305h-107l37 207h356l-106 -598l-164 -164h-375zM225 -346l51 283h154l-39 -216l-67 -67h-99z" />
    <glyph glyph-name="gcommaaccent" unicode="&#x123;" horiz-adv-x="794" 
d="M283 215h28l131 129l78 451l-71 71h-62l-37 -37l-106 -577zM72 -348l-138 137l25 148h240l-15 -80l35 -35h98l39 37l54 305l-121 -121h-152l-139 139l125 713l141 141h213l111 -114l55 114h158l-221 -1247l-138 -137h-370zM614 1391l-51 -283h-153l39 215l67 68h98z" />
    <glyph glyph-name="Hcircumflex" unicode="&#x124;" horiz-adv-x="911" 
d="M465 0l98 563h-223l-98 -563h-248l250 1413h248l-107 -596h223l107 596h248l-250 -1413h-248zM399 1505l21 115l131 131h176l131 -131l-20 -115h-74l-127 129h-6l-129 -129h-103z" />
    <glyph glyph-name="hcircumflex" unicode="&#x125;" horiz-adv-x="804" 
d="M-29 0l250 1413h238l-88 -500l123 123h120l152 -153l-123 -703l4 -4h58l-31 -176h-187l-94 96l121 701l-35 34h-35l-108 -108l-127 -723h-238zM129 1456l21 115l131 131h176l131 -131l-21 -115h-73l-127 129h-7l-129 -129h-102z" />
    <glyph glyph-name="Imacron" unicode="&#x12a;" horiz-adv-x="647" 
d="M293 1548l24 150h406l-25 -150h-405zM168 1212l35 201h536l-34 -201h-148l-178 -1011h147l-37 -201h-536l35 201h141l178 1011h-139z" />
    <glyph glyph-name="imacron" unicode="&#x12b;" horiz-adv-x="425" 
d="M104 1161l25 150h406l-25 -150h-406zM92 0l-94 94l166 942h237l-153 -856l6 -4h55l-33 -176h-184z" />
    <glyph glyph-name="Iogonek" unicode="&#x12e;" horiz-adv-x="647" 
d="M66 -346l-70 70l29 157l118 119h-190l35 201h141l178 1011h-139l35 201h536l-34 -201h-148l-178 -1011h147l-37 -201h-178l-141 -139l-16 -88l12 -13h121l-19 -106h-202z" />
    <glyph glyph-name="iogonek" unicode="&#x12f;" horiz-adv-x="425" 
d="M188 1176l41 229h238l-41 -229h-238zM14 -346l-69 70l28 157l119 119l-94 94l166 942h237l-153 -856l6 -4h55l-33 -176h-16l-141 -139l-17 -88l13 -13h121l-19 -106h-203z" />
    <glyph glyph-name="Idotaccent" unicode="&#x130;" horiz-adv-x="647" 
d="M434 1513l-53 54l20 121l54 53h127l53 -53l-23 -121l-53 -54h-125zM168 1212l35 201h536l-34 -201h-148l-178 -1011h147l-37 -201h-536l35 201h141l178 1011h-139z" />
    <glyph glyph-name="dotlessi" unicode="&#x131;" horiz-adv-x="425" 
d="M92 0l-94 94l166 942h237l-153 -856l6 -4h55l-33 -176h-184z" />
    <glyph glyph-name="Jcircumflex" unicode="&#x134;" horiz-adv-x="567" 
d="M-82 0l39 217h188l41 39l203 1157h252l-221 -1249l-164 -164h-338zM317 1505l21 115l131 131h176l131 -131l-20 -115h-74l-127 129h-6l-129 -129h-103z" />
    <glyph glyph-name="jcircumflex" unicode="&#x135;" horiz-adv-x="397" 
d="M-250 -348l33 190h131l39 39l205 1155h235l-219 -1243l-141 -141h-283zM80 1118l20 115l131 131h177l131 -131l-21 -115h-74l-127 129h-6l-129 -129h-102z" />
    <glyph glyph-name="Kcommaaccent" unicode="&#x136;" horiz-adv-x="892" 
d="M-8 0l252 1413h248l-125 -704l358 704h262l-330 -594l115 -819h-252l-65 602l-150 -237l-63 -365h-250zM231 -346l52 283h153l-39 -216l-67 -67h-99z" />
    <glyph glyph-name="kcommaaccent" unicode="&#x137;" horiz-adv-x="778" 
d="M-29 0l250 1413h236l-152 -860l275 483h245l-256 -403l103 -633h-232l-57 436l-135 -207l-39 -229h-238zM143 -346l52 283h153l-39 -216l-67 -67h-99z" />
    <glyph glyph-name="Lacute" unicode="&#x139;" horiz-adv-x="673" 
d="M492 1413l-211 -1196h309l-39 -217h-557l250 1413h248zM317 1497l25 131l137 137h123l-24 -131l-138 -137h-123z" />
    <glyph glyph-name="lacute" unicode="&#x13a;" horiz-adv-x="428" 
d="M92 0l-94 94l233 1319h236l-217 -1233l4 -4h57l-32 -176h-187zM289 1475l24 131l138 137h122l-24 -131l-137 -137h-123z" />
    <glyph glyph-name="Lcommaaccent" unicode="&#x13b;" horiz-adv-x="673" 
d="M492 1413l-211 -1196h309l-39 -217h-557l250 1413h248zM143 -346l52 283h153l-39 -216l-67 -67h-99z" />
    <glyph glyph-name="lcommaaccent" unicode="&#x13c;" horiz-adv-x="428" 
d="M92 0l-94 94l233 1319h236l-217 -1233l4 -4h57l-32 -176h-187zM-4 -346l51 283h154l-39 -216l-68 -67h-98z" />
    <glyph glyph-name="Lcaron" unicode="&#x13d;" horiz-adv-x="673" 
d="M492 1413l-211 -1196h309l-39 -217h-557l250 1413h248zM547 1192l51 283h154l-39 -215l-68 -68h-98z" />
    <glyph glyph-name="lcaron" unicode="&#x13e;" horiz-adv-x="428" 
d="M92 0l-94 94l233 1319h236l-217 -1233l4 -4h57l-32 -176h-187zM483 1130l52 283h153l-39 -215l-67 -68h-99z" />
    <glyph glyph-name="Lslash" unicode="&#x141;" horiz-adv-x="673" 
d="M8 541l37 215l88 37l111 620h248l-91 -506l172 72l-36 -215l-172 -74l-84 -473h309l-39 -217h-557l102 578z" />
    <glyph glyph-name="lslash" unicode="&#x142;" horiz-adv-x="471" 
d="M12 586l37 213l109 45l100 569h236l-82 -461l110 47l-37 -213l-110 -47l-99 -559l5 -4h57l-33 -176h-186l-94 94l94 537z" />
    <glyph glyph-name="Nacute" unicode="&#x143;" horiz-adv-x="929" 
d="M-6 0l250 1413h217l147 -866l158 866h215l-250 -1413h-209l-151 893l-162 -893h-215zM535 1497l24 131l137 137h123l-24 -131l-138 -137h-122z" />
    <glyph glyph-name="nacute" unicode="&#x144;" horiz-adv-x="804" 
d="M-29 0l185 1036h161l-6 -143l144 143h159l152 -153l-123 -703l4 -4h58l-31 -176h-187l-94 96l121 701l-35 34h-39l-104 -104l-127 -727h-238zM383 1110l25 131l137 137h123l-25 -131l-137 -137h-123z" />
    <glyph glyph-name="Ncommaaccent" unicode="&#x145;" horiz-adv-x="929" 
d="M-6 0l250 1413h217l147 -866l158 866h215l-250 -1413h-209l-151 893l-162 -893h-215zM223 -346l51 283h154l-39 -216l-67 -67h-99z" />
    <glyph glyph-name="ncommaaccent" unicode="&#x146;" horiz-adv-x="804" 
d="M-29 0l185 1036h161l-6 -143l144 143h159l152 -153l-123 -703l4 -4h58l-31 -176h-187l-94 96l121 701l-35 34h-39l-104 -104l-127 -727h-238zM174 -346l51 283h154l-39 -216l-68 -67h-98z" />
    <glyph glyph-name="Ncaron" unicode="&#x147;" horiz-adv-x="929" 
d="M-6 0l250 1413h217l147 -866l158 866h215l-250 -1413h-209l-151 893l-162 -893h-215zM549 1505l-131 133l20 113h74l127 -127h6l129 127h103l-21 -113l-131 -133h-176z" />
    <glyph glyph-name="ncaron" unicode="&#x148;" horiz-adv-x="804" 
d="M-29 0l185 1036h161l-6 -143l144 143h159l152 -153l-123 -703l4 -4h58l-31 -176h-187l-94 96l121 701l-35 34h-39l-104 -104l-127 -727h-238zM397 1118l-131 133l21 113h73l127 -127h7l129 127h102l-20 -113l-132 -133h-176z" />
    <glyph glyph-name="Omacron" unicode="&#x14c;" horiz-adv-x="880" 
d="M317 209h132l40 41l162 913l-43 41h-131l-41 -41l-162 -913zM176 0l-164 164l191 1085l164 164h385l163 -164l-190 -1085l-164 -164h-385zM381 1548l25 150h405l-25 -150h-405z" />
    <glyph glyph-name="omacron" unicode="&#x14d;" horiz-adv-x="802" 
d="M279 170h106l37 37l108 622l-36 37h-107l-39 -37l-108 -622zM133 0l-139 141l133 754l139 141h373l141 -141l-133 -754l-141 -141h-373zM279 1161l24 150h406l-25 -150h-405z" />
    <glyph glyph-name="Ohungarumlaut" unicode="&#x150;" horiz-adv-x="880" 
d="M317 209h132l40 41l162 913l-43 41h-131l-41 -41l-162 -913zM176 0l-164 164l191 1085l164 164h385l163 -164l-190 -1085l-164 -164h-385zM379 1497l22 131l140 137h90l-25 -131l-137 -137h-90zM621 1497l24 131l137 137h92l-24 -131l-139 -137h-90z" />
    <glyph glyph-name="ohungarumlaut" unicode="&#x151;" horiz-adv-x="802" 
d="M279 170h106l37 37l108 622l-36 37h-107l-39 -37l-108 -622zM133 0l-139 141l133 754l139 141h373l141 -141l-133 -754l-141 -141h-373zM276 1110l23 131l139 137h90l-24 -131l-137 -137h-91zM518 1110l25 131l137 137h92l-24 -131l-140 -137h-90z" />
    <glyph glyph-name="OE" unicode="&#x152;" horiz-adv-x="1200" 
d="M317 209h158l178 995h-176l-41 -41l-162 -913zM176 0l-164 164l191 1085l164 164h915l-37 -217h-346l-65 -369h313l-37 -219h-315l-70 -391h354l-39 -217h-864z" />
    <glyph glyph-name="oe" unicode="&#x153;" horiz-adv-x="1198" 
d="M766 829l-39 -223h170l39 223l-37 37h-94zM279 170h106l37 37l108 622l-36 37h-107l-39 -37l-108 -622zM133 0l-139 141l133 754l139 141h301l88 -88l88 88h301l142 -141l-80 -449h-408l-41 -239l39 -37h92l39 37l19 106h235l-28 -172l-142 -141h-299l-90 88l-88 -88
h-301z" />
    <glyph glyph-name="Racute" unicode="&#x154;" horiz-adv-x="888" 
d="M457 1219l-78 -441h176l47 47l62 353l-41 41h-166zM449 586h-105l-102 -586h-248l248 1413h522l164 -164l-84 -475l-166 -166l61 -407h74l-35 -201h-248zM485 1497l25 131l137 137h123l-25 -131l-137 -137h-123z" />
    <glyph glyph-name="racute" unicode="&#x155;" horiz-adv-x="555" 
d="M-29 0l185 1036h161l-6 -143l144 143h155l-37 -207h-124l-115 -114l-125 -715h-238zM305 1110l25 131l137 137h123l-25 -131l-137 -137h-123z" />
    <glyph glyph-name="Rcommaaccent" unicode="&#x156;" horiz-adv-x="888" 
d="M457 1219l-78 -441h176l47 47l62 353l-41 41h-166zM449 586h-105l-102 -586h-248l248 1413h522l164 -164l-84 -475l-166 -166l61 -407h74l-35 -201h-248zM240 -346l51 283h153l-38 -216l-68 -67h-98z" />
    <glyph glyph-name="rcommaaccent" unicode="&#x157;" horiz-adv-x="555" 
d="M-29 0l185 1036h161l-6 -143l144 143h155l-37 -207h-124l-115 -114l-125 -715h-238zM-47 -346l51 283h154l-39 -216l-68 -67h-98z" />
    <glyph glyph-name="Rcaron" unicode="&#x158;" horiz-adv-x="888" 
d="M457 1219l-78 -441h176l47 47l62 353l-41 41h-166zM449 586h-105l-102 -586h-248l248 1413h522l164 -164l-84 -475l-166 -166l61 -407h74l-35 -201h-248zM500 1505l-131 133l20 113h74l127 -127h6l129 127h102l-20 -113l-131 -133h-176z" />
    <glyph glyph-name="rcaron" unicode="&#x159;" horiz-adv-x="555" 
d="M-29 0l185 1036h161l-6 -143l144 143h155l-37 -207h-124l-115 -114l-125 -715h-238zM322 1118l-132 133l21 113h74l127 -127h6l129 127h102l-20 -113l-131 -133h-176z" />
    <glyph glyph-name="Sacute" unicode="&#x15a;" horiz-adv-x="813" 
d="M147 0l-161 162l47 262h248l-31 -176l39 -39h114l43 41l56 303l-29 29l-250 67l-127 127l84 473l164 164h358l164 -164l-47 -260h-250l33 174l-43 41h-104l-41 -41l-52 -286l29 -27l248 -70l127 -125l-86 -491l-164 -164h-369zM451 1497l24 131l137 137h123l-24 -131
l-138 -137h-122z" />
    <glyph glyph-name="sacute" unicode="&#x15b;" horiz-adv-x="753" 
d="M117 0l-142 141l31 183h238l-21 -117l37 -37h88l39 37l31 176l-19 18l-225 62l-113 112l56 320l141 141h340l141 -141l-32 -180h-236l18 114l-36 37h-72l-37 -37l-31 -174l19 -18l223 -62l113 -112l-58 -322l-141 -141h-352zM348 1110l25 131l137 137h123l-25 -131
l-137 -137h-123z" />
    <glyph glyph-name="Scircumflex" unicode="&#x15c;" horiz-adv-x="813" 
d="M147 0l-161 162l47 262h248l-31 -176l39 -39h114l43 41l56 303l-29 29l-250 67l-127 127l84 473l164 164h358l164 -164l-47 -260h-250l33 174l-43 41h-104l-41 -41l-52 -286l29 -27l248 -70l127 -125l-86 -491l-164 -164h-369zM332 1505l20 115l131 131h176l132 -131
l-21 -115h-74l-127 129h-6l-129 -129h-102z" />
    <glyph glyph-name="scircumflex" unicode="&#x15d;" horiz-adv-x="753" 
d="M117 0l-142 141l31 183h238l-21 -117l37 -37h88l39 37l31 176l-19 18l-225 62l-113 112l56 320l141 141h340l141 -141l-32 -180h-236l18 114l-36 37h-72l-37 -37l-31 -174l19 -18l223 -62l113 -112l-58 -322l-141 -141h-352zM229 1118l21 115l131 131h176l131 -131
l-20 -115h-74l-127 129h-6l-129 -129h-103z" />
    <glyph glyph-name="Scedilla" unicode="&#x15e;" horiz-adv-x="813" 
d="M147 0l-161 162l47 262h248l-31 -176l39 -39h114l43 41l56 303l-29 29l-250 67l-127 127l84 473l164 164h358l164 -164l-47 -260h-250l33 174l-43 41h-104l-41 -41l-52 -286l29 -27l248 -70l127 -125l-86 -491l-164 -164h-160l-12 -68h70l69 -67l-26 -144l-66 -67h-254
l19 100h153l13 10l10 66l-10 12h-74l-35 35l23 123h-89z" />
    <glyph glyph-name="scedilla" unicode="&#x15f;" horiz-adv-x="753" 
d="M117 0l-142 141l31 183h238l-21 -117l37 -37h88l39 37l31 176l-19 18l-225 62l-113 112l56 320l141 141h340l141 -141l-32 -180h-236l18 114l-36 37h-72l-37 -37l-31 -174l19 -18l223 -62l113 -112l-58 -322l-141 -141h-139l-13 -68h70l70 -67l-27 -144l-65 -67h-254
l18 100h154l12 10l10 66l-10 12h-74l-35 35l23 123h-92z" />
    <glyph glyph-name="Scaron" unicode="&#x160;" horiz-adv-x="813" 
d="M465 1505l-131 133l20 113h74l127 -127h6l129 127h103l-21 -113l-131 -133h-176zM147 0l-161 162l47 262h248l-31 -176l39 -39h114l43 41l56 303l-29 29l-250 67l-127 127l84 473l164 164h358l164 -164l-47 -260h-250l33 174l-43 41h-104l-41 -41l-52 -286l29 -27
l248 -70l127 -125l-86 -491l-164 -164h-369z" />
    <glyph glyph-name="scaron" unicode="&#x161;" horiz-adv-x="753" 
d="M365 1118l-132 133l21 113h74l127 -127h6l129 127h102l-20 -113l-131 -133h-176zM117 0l-142 141l31 183h238l-21 -117l37 -37h88l39 37l31 176l-19 18l-225 62l-113 112l56 320l141 141h340l141 -141l-32 -180h-236l18 114l-36 37h-72l-37 -37l-31 -174l19 -18l223 -62
l113 -112l-58 -322l-141 -141h-352z" />
    <glyph glyph-name="Tcommaaccent" unicode="&#x162;" horiz-adv-x="770" 
d="M846 1188h-225l-209 -1188h-248l211 1188h-236l41 225h707zM150 -346l51 283h153l-39 -216l-67 -67h-98z" />
    <glyph glyph-name="tcommaaccent" unicode="&#x163;" horiz-adv-x="589" 
d="M57 846l33 190h107l43 246h237l-43 -246h195l-35 -190h-195l-106 -610l37 -37h157l-34 -199h-273l-141 141l123 705h-105zM123 -346l51 283h154l-39 -216l-68 -67h-98z" />
    <glyph glyph-name="Tcaron" unicode="&#x164;" horiz-adv-x="770" 
d="M846 1188h-225l-209 -1188h-248l211 1188h-236l41 225h707zM477 1505l-131 133l21 113h73l127 -127h6l129 127h103l-21 -113l-131 -133h-176z" />
    <glyph glyph-name="tcaron" unicode="&#x165;" horiz-adv-x="589" 
d="M57 846l33 190h107l43 246h237l-43 -246h195l-35 -190h-195l-106 -610l37 -37h157l-34 -199h-273l-141 141l123 705h-105zM520 1124l51 283h154l-39 -215l-68 -68h-98z" />
    <glyph glyph-name="Umacron" unicode="&#x16a;" horiz-adv-x="849" 
d="M395 1548l25 150h405l-24 -150h-406zM166 0l-162 164l221 1249h248l-205 -1157l41 -39h123l39 39l205 1157h250l-221 -1249l-164 -164h-375z" />
    <glyph glyph-name="umacron" unicode="&#x16b;" horiz-adv-x="786" 
d="M283 1161l24 150h406l-25 -150h-405zM528 0l-116 115l-115 -115h-152l-151 152l156 884h235l-141 -796l37 -35h32l107 104l127 727h235l-147 -856l4 -4h57l-30 -176h-138z" />
    <glyph glyph-name="Ubreve" unicode="&#x16c;" horiz-adv-x="849" 
d="M451 1513l-86 89l22 124h156l-15 -73l25 -25h109l24 25l14 73h156l-22 -124l-86 -89h-297zM166 0l-162 164l221 1249h248l-205 -1157l41 -39h123l39 39l205 1157h250l-221 -1249l-164 -164h-375z" />
    <glyph glyph-name="ubreve" unicode="&#x16d;" horiz-adv-x="786" 
d="M338 1126l-86 88l22 125h156l-14 -73l24 -25h109l24 25l15 73h155l-22 -125l-86 -88h-297zM528 0l-116 115l-115 -115h-152l-151 152l156 884h235l-141 -796l37 -35h32l107 104l127 727h235l-147 -856l4 -4h57l-30 -176h-138z" />
    <glyph glyph-name="Uring" unicode="&#x16e;" horiz-adv-x="849" 
d="M166 0l-162 164l221 1249h248l-205 -1157l41 -39h123l39 39l205 1157h250l-221 -1249l-164 -164h-375zM551 1567h104l21 20l16 86l-20 23h-103l-22 -23l-17 -86zM500 1489l-72 72l25 139l71 72h201l72 -72l-25 -139l-72 -72h-200z" />
    <glyph glyph-name="uring" unicode="&#x16f;" horiz-adv-x="786" 
d="M528 0l-116 115l-115 -115h-152l-151 152l156 884h235l-141 -796l37 -35h32l107 104l127 727h235l-147 -856l4 -4h57l-30 -176h-138zM438 1180h105l20 20l17 86l-21 23h-102l-23 -23l-16 -86zM387 1102l-72 72l25 139l72 71h200l72 -71l-25 -139l-71 -72h-201z" />
    <glyph glyph-name="Uhungarumlaut" unicode="&#x170;" horiz-adv-x="849" 
d="M393 1497l23 131l139 137h90l-24 -131l-138 -137h-90zM635 1497l24 131l138 137h92l-25 -131l-139 -137h-90zM166 0l-162 164l221 1249h248l-205 -1157l41 -39h123l39 39l205 1157h250l-221 -1249l-164 -164h-375z" />
    <glyph glyph-name="uhungarumlaut" unicode="&#x171;" horiz-adv-x="786" 
d="M281 1110l22 131l139 137h90l-24 -131l-137 -137h-90zM522 1110l25 131l137 137h92l-24 -131l-140 -137h-90zM528 0l-116 115l-115 -115h-152l-151 152l156 884h235l-141 -796l37 -35h32l107 104l127 727h235l-147 -856l4 -4h57l-30 -176h-138z" />
    <glyph glyph-name="Uogonek" unicode="&#x172;" horiz-adv-x="849" 
d="M166 0l-162 164l221 1249h248l-205 -1157l41 -39h123l39 39l205 1157h250l-221 -1249l-164 -164h-113l-141 -139l-17 -88l13 -13h120l-18 -106h-203l-69 70l28 157l119 119h-94z" />
    <glyph glyph-name="uogonek" unicode="&#x173;" horiz-adv-x="786" 
d="M412 -346l-70 70l29 157l139 137l-98 97l-115 -115h-152l-151 152l156 884h235l-141 -796l37 -35h32l107 104l127 727h235l-147 -856l4 -4h57l-30 -176h-9l-139 -139l-16 -88l12 -13h121l-21 -106h-202z" />
    <glyph glyph-name="Ydieresis" unicode="&#x178;" horiz-adv-x="837" 
d="M643 1526l35 194h172l-35 -194h-172zM360 1526l35 194h172l-35 -194h-172zM193 0l75 432l-112 981h250l45 -678l288 678h240l-461 -981l-78 -432h-247z" />
    <glyph glyph-name="Zacute" unicode="&#x179;" horiz-adv-x="727" 
d="M-55 0l35 190l538 1006h-358l39 217h630l-32 -190l-539 -1006h365l-39 -217h-639zM426 1497l25 131l137 137h123l-25 -131l-137 -137h-123z" />
    <glyph glyph-name="zacute" unicode="&#x17a;" horiz-adv-x="634" 
d="M-80 0l29 160l430 688h-299l33 188h563l-27 -159l-430 -691h313l-32 -186h-580zM303 1110l25 131l137 137h123l-25 -131l-137 -137h-123z" />
    <glyph glyph-name="Zdotaccent" unicode="&#x17b;" horiz-adv-x="727" 
d="M467 1513l-53 54l20 121l53 53h127l54 -53l-23 -121l-53 -54h-125zM-55 0l35 190l538 1006h-358l39 217h630l-32 -190l-539 -1006h365l-39 -217h-639z" />
    <glyph glyph-name="zdotaccent" unicode="&#x17c;" horiz-adv-x="634" 
d="M344 1126l-53 54l20 120l54 54h127l53 -54l-23 -120l-53 -54h-125zM-80 0l29 160l430 688h-299l33 188h563l-27 -159l-430 -691h313l-32 -186h-580z" />
    <glyph glyph-name="Zcaron" unicode="&#x17d;" horiz-adv-x="727" 
d="M-55 0l35 190l538 1006h-358l39 217h630l-32 -190l-539 -1006h365l-39 -217h-639zM442 1505l-131 133l21 113h74l126 -127h7l129 127h102l-20 -113l-132 -133h-176z" />
    <glyph glyph-name="zcaron" unicode="&#x17e;" horiz-adv-x="634" 
d="M-80 0l29 160l430 688h-299l33 188h563l-27 -159l-430 -691h313l-32 -186h-580zM317 1118l-131 133l21 113h74l127 -127h6l129 127h102l-20 -113l-131 -133h-177z" />
    <glyph glyph-name="florin" unicode="&#x192;" horiz-adv-x="667" 
d="M43 659l39 226h151l66 364l164 164h317l-39 -209h-168l-41 -41l-49 -278h201l-39 -226h-203l-88 -499l-159 -160h-271l37 209h121l37 37l74 413h-150z" />
    <glyph glyph-name="Scommaaccent" unicode="&#x218;" horiz-adv-x="813" 
d="M147 0l-161 162l47 262h248l-31 -176l39 -39h114l43 41l56 303l-29 29l-250 67l-127 127l84 473l164 164h358l164 -164l-47 -260h-250l33 174l-43 41h-104l-41 -41l-52 -286l29 -27l248 -70l127 -125l-86 -491l-164 -164h-369zM186 -346l52 283h153l-39 -216l-67 -67h-99
z" />
    <glyph glyph-name="scommaaccent" unicode="&#x219;" horiz-adv-x="753" 
d="M117 0l-142 141l31 183h238l-21 -117l37 -37h88l39 37l31 176l-19 18l-225 62l-113 112l56 320l141 141h340l141 -141l-32 -180h-236l18 114l-36 37h-72l-37 -37l-31 -174l19 -18l223 -62l113 -112l-58 -322l-141 -141h-352zM158 -346l51 283h153l-38 -216l-68 -67h-98z
" />
    <glyph glyph-name="uni0237" unicode="&#x237;" horiz-adv-x="397" 
d="M-250 -348l33 190h131l39 39l205 1155h235l-219 -1243l-141 -141h-283z" />
    <glyph glyph-name="circumflex" unicode="&#x2c6;" horiz-adv-x="688" 
d="M193 1118l20 115l131 131h176l131 -131l-20 -115h-74l-127 129h-6l-129 -129h-102z" />
    <glyph glyph-name="caron" unicode="&#x2c7;" horiz-adv-x="688" 
d="M334 1118l-131 133l20 113h74l127 -127h6l129 127h103l-21 -113l-131 -133h-176z" />
    <glyph glyph-name="breve" unicode="&#x2d8;" horiz-adv-x="688" 
d="M285 1126l-86 88l22 125h156l-15 -73l25 -25h109l24 25l15 73h155l-22 -125l-86 -88h-297z" />
    <glyph glyph-name="dotaccent" unicode="&#x2d9;" horiz-adv-x="688" 
d="M360 1126l-53 54l21 120l53 54h127l53 -54l-22 -120l-54 -54h-125z" />
    <glyph glyph-name="ring" unicode="&#x2da;" horiz-adv-x="688" 
d="M373 1180h104l21 20l16 86l-20 23h-103l-22 -23l-17 -86zM322 1102l-72 72l24 139l72 71h201l71 -71l-24 -139l-72 -72h-200z" />
    <glyph glyph-name="ogonek" unicode="&#x2db;" horiz-adv-x="688" 
d="M94 -346l-69 70l28 157l119 119h168l-141 -139l-17 -88l13 -13h120l-18 -106h-203z" />
    <glyph glyph-name="tilde" unicode="&#x2dc;" horiz-adv-x="688" 
d="M172 1126l25 142l86 84h131l96 -97h25l18 19l12 78h133l-24 -140l-86 -86h-129l-99 99h-24l-19 -19l-12 -80h-133z" />
    <glyph glyph-name="hungarumlaut" unicode="&#x2dd;" horiz-adv-x="688" 
d="M238 1110l22 131l139 137h90l-24 -131l-137 -137h-90zM479 1110l25 131l137 137h92l-24 -131l-140 -137h-90z" />
    <glyph glyph-name="endash" unicode="&#x2013;" horiz-adv-x="628" 
d="M41 600l39 215h557l-39 -215h-557z" />
    <glyph glyph-name="emdash" unicode="&#x2014;" horiz-adv-x="835" 
d="M41 600l39 215h764l-39 -215h-764z" />
    <glyph glyph-name="quoteleft" unicode="&#x2018;" horiz-adv-x="323" 
d="M102 932l70 389l92 92h166l-18 -110h-78l-23 -25l-14 -78h96l-49 -268h-242z" />
    <glyph glyph-name="quoteright" unicode="&#x2019;" horiz-adv-x="323" 
d="M102 932l19 110h78l22 25l15 80h-97l49 266h242l-70 -387l-92 -94h-166z" />
    <glyph glyph-name="quotesinglbase" unicode="&#x201a;" horiz-adv-x="323" 
d="M-100 -213l18 111h76l24 22l15 80h-96l49 266h241l-69 -387l-92 -92h-166z" />
    <glyph glyph-name="quotedblleft" unicode="&#x201c;" horiz-adv-x="645" 
d="M424 932l70 389l92 92h166l-19 -110h-78l-22 -25l-15 -78h97l-49 -268h-242zM102 932l70 389l92 92h166l-18 -110h-76l-25 -25l-14 -78h96l-47 -268h-244z" />
    <glyph glyph-name="quotedblright" unicode="&#x201d;" horiz-adv-x="645" 
d="M424 932l18 110h78l23 25l14 80h-96l49 266h242l-70 -387l-92 -94h-166zM102 932l21 110h76l24 25l15 80h-97l47 266h242l-68 -387l-94 -94h-166z" />
    <glyph glyph-name="quotedblbase" unicode="&#x201e;" horiz-adv-x="645" 
d="M221 -213l19 111h75l25 22l14 80h-96l49 266h242l-70 -387l-92 -92h-166zM-100 -213l20 111h76l22 22l15 80h-96l49 266h241l-69 -387l-92 -92h-166z" />
    <glyph glyph-name="dagger" unicode="&#x2020;" horiz-adv-x="485" 
d="M113 1073l26 150h125l33 190h174l-35 -190h123l-24 -150h-125l-93 -522h-172l93 522h-125z" />
    <glyph glyph-name="daggerdbl" unicode="&#x2021;" horiz-adv-x="489" 
d="M117 1087l24 150h125l31 176h174l-31 -176h123l-26 -150h-123l-39 -210h125l-27 -150h-125l-31 -176h-172l31 176h-123l25 150h125l37 210h-123z" />
    <glyph glyph-name="bullet" unicode="&#x2022;" horiz-adv-x="473" 
d="M150 492l-99 98l41 225l98 98h193l98 -98l-41 -225l-98 -98h-192z" />
    <glyph glyph-name="ellipsis" unicode="&#x2026;" horiz-adv-x="1032" 
d="M651 0l51 283h238l-49 -283h-240zM307 0l51 283h238l-49 -283h-240zM-37 0l51 283h238l-49 -283h-240z" />
    <glyph glyph-name="perthousand" unicode="&#x2030;" horiz-adv-x="1871" 
d="M158 0l846 1413h151l-848 -1413h-149zM1468 135h80l37 37l62 346l-37 35h-80l-35 -37l-61 -346zM1374 0l-125 125l76 434l125 125h254l125 -125l-78 -434l-125 -125h-252zM860 135h80l37 37l61 346l-34 35h-80l-37 -37l-62 -346zM766 0l-125 125l78 434l125 125h252
l125 -125l-76 -434l-125 -125h-254zM311 864h80l37 37l61 346l-34 35h-80l-37 -35l-62 -346zM217 729l-125 125l78 434l123 125h254l125 -125l-78 -434l-125 -125h-252z" />
    <glyph glyph-name="guilsinglleft" unicode="&#x2039;" horiz-adv-x="415" 
d="M156 301l-119 412l264 411h203l-273 -419l119 -404h-194z" />
    <glyph glyph-name="guilsinglright" unicode="&#x203a;" horiz-adv-x="415" 
d="M313 1124l119 -409l-264 -414h-203l273 422l-119 401h194z" />
    <glyph glyph-name="fraction" unicode="&#x2044;" horiz-adv-x="876" 
d="M-25 0l846 1413h152l-846 -1413h-152z" />
    <glyph glyph-name="Euro" unicode="&#x20ac;" horiz-adv-x="843" 
d="M49 768l23 139h78l61 342l164 164h370l164 -164l-43 -245h-250l29 159l-41 41h-117l-41 -41l-45 -256h344l-24 -139h-344l-21 -113h344l-24 -137h-344l-47 -268l41 -41h116l41 41l29 160h250l-45 -246l-162 -164h-371l-164 164l62 354h-78l25 137h77l19 113h-76z" />
    <glyph glyph-name="servicemark" unicode="&#x2120;" horiz-adv-x="1116" 
d="M545 827l104 586h185l-17 -463l148 463h184l-105 -586h-112l86 488l-164 -488h-131l10 486l-86 -486h-102zM236 827l-86 84l14 88h121l-9 -51l21 -20h63l23 20l14 96l-10 11l-129 35l-65 65l28 174l84 84h180l84 -84l-14 -84h-121l8 45l-22 23h-64l-20 -23l-14 -92
l10 -10l129 -35l67 -66l-32 -176l-84 -84h-176z" />
    <glyph glyph-name="trademark" unicode="&#x2122;" horiz-adv-x="1011" 
d="M184 1313l19 100h319l-18 -100h-101l-86 -486h-118l86 486h-101zM446 827l105 586h182l-16 -463l147 463h180l-104 -586h-109l87 488l-164 -488h-129l10 486l-86 -486h-103z" />
    <glyph glyph-name="minus" unicode="&#x2212;" horiz-adv-x="532" 
d="M18 602l37 217h504l-39 -217h-502z" />
    <glyph glyph-name="fi" unicode="&#xfb01;" horiz-adv-x="987" 
d="M750 1176l41 229h237l-41 -229h-237zM653 0l-94 94l166 942h238l-154 -856l6 -4h55l-32 -176h-185zM70 846l34 190h101l43 236l143 141h309l-32 -190h-168l-29 -29l-29 -158h174l-32 -190h-174l-150 -846h-237l149 846h-102z" />
    <glyph glyph-name="fl" unicode="&#xfb02;" horiz-adv-x="989" 
d="M653 0l-94 94l234 1319h235l-217 -1233l4 -4h57l-32 -176h-187zM70 846l34 190h101l43 236l143 141h309l-32 -190h-168l-29 -29l-29 -158h174l-32 -190h-174l-150 -846h-237l149 846h-102z" />
    <glyph glyph-name="commaaccent" horiz-adv-x="688" 
d="M141 -346l52 283h153l-39 -216l-67 -67h-99z" />
    <glyph glyph-name="published" horiz-adv-x="1275" 
d="M657 995l-55 -305h103l22 23l45 260l-22 22h-93zM348 274l152 867h370l99 -99l-72 -397l-98 -100h-221l-48 -271h-182zM330 170h510l106 104l152 865l-107 106h-510l-106 -106l-152 -865zM223 0l-211 213l174 987l213 213h699l213 -213l-174 -987l-213 -213h-701z" />
    <glyph glyph-name="G.alt" horiz-adv-x="860" 
d="M176 0l-164 164l191 1085l164 164h376l164 -164l-47 -264h-250l31 178l-41 41h-123l-41 -41l-162 -913l43 -41h107l61 59l50 287h-107l35 207h358l-135 -762h-162l-12 109l-109 -109h-227z" />
    <glyph glyph-name="Gbreve.alt" horiz-adv-x="860" 
d="M430 1513l-86 89l23 124h155l-14 -73l24 -25h109l25 25l14 73h156l-23 -124l-86 -89h-297zM176 0l-164 164l191 1085l164 164h376l164 -164l-47 -264h-250l31 178l-41 41h-123l-41 -41l-162 -913l43 -41h107l61 59l50 287h-107l35 207h358l-135 -762h-162l-12 109
l-109 -109h-227z" />
    <glyph glyph-name="Gcircumflex.alt" horiz-adv-x="860" 
d="M176 0l-164 164l191 1085l164 164h376l164 -164l-47 -264h-250l31 178l-41 41h-123l-41 -41l-162 -913l43 -41h107l61 59l50 287h-107l35 207h358l-135 -762h-162l-12 109l-109 -109h-227zM358 1505l21 115l131 131h176l131 -131l-20 -115h-74l-127 129h-6l-129 -129
h-103z" />
    <glyph glyph-name="Gcommaaccent.alt" horiz-adv-x="860" 
d="M176 0l-164 164l191 1085l164 164h376l164 -164l-47 -264h-250l31 178l-41 41h-123l-41 -41l-162 -913l43 -41h107l61 59l50 287h-107l35 207h358l-135 -762h-162l-12 109l-109 -109h-227zM201 -346l51 283h154l-39 -216l-68 -67h-98z" />
    <glyph glyph-name="I.alt" horiz-adv-x="471" 
d="M6 0l250 1413h250l-250 -1413h-250z" />
    <glyph glyph-name="Iacute.alt" horiz-adv-x="471" 
d="M6 0l250 1413h250l-250 -1413h-250zM305 1497l25 131l137 137h123l-25 -131l-137 -137h-123z" />
    <glyph glyph-name="Igrave.alt" horiz-adv-x="471" 
d="M401 1497l-139 137l23 131h94l139 -137l-22 -131h-95zM6 0l250 1413h250l-250 -1413h-250z" />
    <glyph glyph-name="Icircumflex.alt" horiz-adv-x="471" 
d="M6 0l250 1413h250l-250 -1413h-250zM186 1505l21 115l131 131h176l131 -131l-20 -115h-74l-127 129h-6l-129 -129h-103z" />
    <glyph glyph-name="Idieresis.alt" horiz-adv-x="471" 
d="M6 0l250 1413h250l-250 -1413h-250zM457 1526l35 194h172l-35 -194h-172zM174 1526l35 194h172l-35 -194h-172z" />
    <glyph glyph-name="Idotaccent.alt" horiz-adv-x="471" 
d="M346 1513l-53 54l20 121l54 53h127l53 -53l-23 -121l-53 -54h-125zM6 0l250 1413h250l-250 -1413h-250z" />
    <glyph glyph-name="Imacron.alt" horiz-adv-x="471" 
d="M205 1548l24 150h406l-25 -150h-405zM6 0l250 1413h250l-250 -1413h-250z" />
    <glyph glyph-name="Iogonek.alt" horiz-adv-x="471" 
d="M-72 -346l-69 70l28 157l119 119l250 1413h250l-250 -1413h-82l-139 -139l-17 -88l13 -13h121l-19 -106h-205z" />
    <glyph glyph-name="J.alt" horiz-adv-x="780" 
d="M125 0l-162 164l68 387h250l-54 -295l41 -39h94l39 39l205 1157h250l-221 -1249l-164 -164h-346z" />
    <glyph glyph-name="Jcircumflex.alt" horiz-adv-x="780" 
d="M125 0l-162 164l68 387h250l-54 -295l41 -39h94l39 39l205 1157h250l-221 -1249l-164 -164h-346zM526 1505l21 115l131 131h176l131 -131l-20 -115h-74l-127 129h-6l-129 -129h-103z" />
    <glyph glyph-name="Q.alt" horiz-adv-x="880" 
d="M317 209h132l40 41l162 913l-43 41h-131l-41 -41l-162 -913zM176 0l-164 164l191 1085l164 164h385l163 -164l-190 -1085l-70 -70l142 -143l-140 -141l-190 190h-291z" />
    <glyph glyph-name="at.alt" horiz-adv-x="1589" 
d="M676 184h45l110 111l99 557l-47 49h-92l-41 -43l-113 -633zM518 0l-145 145l141 793l145 147h240l113 -112l49 112h162l-160 -890l10 -11h88l53 54l146 831l-150 150h-651l-151 -150l-187 -1069h-237l200 1149l265 264h901l264 -264l-170 -965l-184 -184h-328l-111 111
l-110 -111h-193z" />
    <glyph glyph-name="ampersand.alt" horiz-adv-x="901" 
d="M494 201l41 43l26 153l-196 209l-46 -45l-57 -319l41 -41h191zM164 0l-164 164l74 409l164 164l-115 117l70 395l163 164h361l164 -164l-39 -225h-252l26 147l-41 41h-108l-41 -41l-47 -270l227 -244l35 195h248l-121 -688l-164 -164h-440z" />
    <glyph glyph-name="zero.tabular" 
d="M291 193h127l41 43l166 944l-41 41h-127l-41 -41l-166 -944zM170 0l-164 164l193 1085l163 164h343l163 -164l-190 -1085l-164 -164h-344z" />
    <glyph glyph-name="one.tabular" 
d="M20 0l35 195h191l180 1024h-188l32 194h422l-215 -1218h185l-35 -195h-607z" />
    <glyph glyph-name="two.tabular" 
d="M-2 0l111 625l145 145h254l41 41l65 369l-41 41h-106l-47 -41l-35 -191h-231l45 260l163 164h332l164 -164l-96 -551l-144 -141h-251l-45 -45l-56 -311h404l-35 -201h-637z" />
    <glyph glyph-name="three.tabular" 
d="M156 0l-164 164l47 264h231l-34 -201l40 -41h142l41 41l61 346l-47 48h-260l35 198h272l53 55l54 312l-41 41h-140l-43 -41l-34 -201h-232l47 264l164 164h359l163 -164l-69 -391l-156 -156l109 -106l-76 -432l-164 -164h-358z" />
    <glyph glyph-name="four.tabular" 
d="M2 381l31 178l280 854h209l-256 -835h221l148 835h231l-147 -835h74l-35 -197h-74l-68 -381h-231l68 381h-451z" />
    <glyph glyph-name="five.tabular" 
d="M170 0l-162 164l47 268h232l-35 -196l41 -43h121l41 40l86 476l-35 34h-96l-109 -108h-211l137 778h652l-37 -209h-418l-66 -368l105 102h199l129 -129l-115 -645l-164 -164h-342z" />
    <glyph glyph-name="six.tabular" 
d="M399 682l-82 -82l-63 -364l41 -43h131l41 43l74 409l-37 37h-105zM172 0l-162 164l191 1085l164 164h350l164 -164l-45 -243h-232l31 172l-43 41h-129l-41 -41l-72 -408l105 104h204l131 -129l-100 -581l-164 -164h-352z" />
    <glyph glyph-name="seven.tabular" 
d="M166 0l92 524l354 680h-436l37 209h682l-31 -182l-377 -719l-90 -512h-231z" />
    <glyph glyph-name="eight.tabular" 
d="M399 815h123l53 55l56 316l-41 41h-137l-41 -41l-58 -324zM283 186h137l41 41l61 348l-45 48h-121l-53 -56l-61 -340zM164 0l-164 164l72 407l155 156l-108 109l71 413l164 164h359l164 -164l-72 -391l-156 -156l109 -108l-76 -430l-162 -164h-356z" />
    <glyph glyph-name="nine.tabular" 
d="M375 750h112l72 71l64 359l-41 41h-131l-43 -41l-70 -394zM160 0l-164 164l45 256h233l-32 -184l41 -43h133l41 43l73 419l-98 -98h-213l-131 131l100 561l164 164h350l164 -164l-190 -1085l-164 -164h-352z" />
    <glyph glyph-name="plus.tabular" 
d="M115 612l35 193h206l43 246h201l-43 -246h207l-33 -193h-209l-43 -247h-200l43 247h-207z" />
    <glyph glyph-name="minus.tabular" 
d="M162 602l37 217h518l-39 -217h-516z" />
    <glyph glyph-name="multiply.tabular" 
d="M254 385l-141 141l182 183l-182 182l141 139l180 -182l184 182l140 -139l-183 -182l183 -183l-140 -141l-184 182z" />
    <glyph glyph-name="divide.tabular" 
d="M375 905l35 191h194l-35 -191h-194zM125 604l35 205h594l-37 -205h-592zM272 315l33 191h195l-35 -191h-193z" />
    <glyph glyph-name="equal.tabular" 
d="M184 778l37 207h531l-37 -207h-531zM123 416l35 209h530l-37 -209h-528z" />
    <glyph glyph-name="greater.tabular" 
d="M223 1114l551 -285l-43 -243l-649 -287l41 238l438 182l-375 178z" />
    <glyph glyph-name="less.tabular" 
d="M659 301l-548 285l41 243l651 287l-43 -239l-438 -181l376 -178z" />
    <glyph glyph-name="numbersign.tabular" 
d="M422 1028l-53 -293h145l53 293h-145zM129 1028l29 168h114l39 217h178l-38 -217h145l39 217h178l-39 -217h117l-29 -168h-117l-53 -293h117l-29 -168h-116l-39 -217h-179l39 217h-145l-39 -217h-178l39 217h-115l29 168h114l54 293h-115z" />
    <glyph glyph-name="dollar.tabular" 
d="M172 41l-162 162l41 235h234l-27 -164l39 -41h125l41 43l49 273l-39 39l-231 61l-127 127l75 432l164 164h76l35 195h203l-35 -195h57l164 -164l-41 -233h-231l28 164l-43 41h-114l-41 -41l-47 -262l36 -37l230 -60l131 -131l-80 -444l-164 -164h-78l-32 -195h-205
l35 195h-66z" />
    <glyph glyph-name="cent.tabular" 
d="M207 152l-164 163l139 785l164 164h70l28 159h213l-28 -159h57l164 -164l-45 -264h-234l33 194l-41 41h-121l-41 -41l-112 -645l41 -41h119l40 41l35 195h234l-47 -265l-164 -163h-70l-31 -162h-210l28 162h-57z" />
    <glyph glyph-name="sterling.tabular" 
d="M57 586l35 200h90l82 463l164 164h299l164 -164l-47 -276h-234l37 207l-41 41h-80l-43 -41l-69 -394h264l-35 -200h-266l-51 -297l-88 -88h467l-35 -201h-713l35 205l106 106l47 275h-88z" />
    <glyph glyph-name="yen.tabular" 
d="M39 487l27 131h184l-88 795h239l43 -665l287 665h232l-373 -795h184l-24 -131h-222l-24 -55l-8 -43h237l-24 -133h-238l-45 -256h-231l45 256h-240l25 133h239l8 43l-6 55h-227z" />
    <glyph glyph-name="florin.tabular" 
d="M109 668l36 209h177l67 372l164 164h326l-35 -192h-195l-41 -41l-53 -303h227l-37 -209h-227l-90 -508l-160 -160h-278l33 193h147l37 38l78 437h-176z" />
    <glyph glyph-name="Euro.tabular" 
d="M74 768l20 133h66l61 348l164 164h338l162 -164l-43 -245h-232l31 176l-41 41h-117l-41 -41l-49 -279h328l-23 -133h-329l-21 -113h330l-25 -131h-327l-52 -288l41 -43h117l41 43l33 174h231l-43 -246l-164 -164h-337l-162 164l63 360h-65l24 131h64l18 113h-61z" />
    <glyph glyph-name="section.tabular" 
d="M96 676l101 573l163 164h345l161 -164l-43 -252h-233l31 183l-41 41h-121l-41 -41l-56 -320h332l90 -90l-18 -94h-670zM131 -195l-162 162l45 254h234l-33 -182l39 -41h127l41 43l57 319h-334l-92 89l19 94h671l-102 -574l-162 -164h-348z" />
    <glyph glyph-name="space.tabular" horiz-adv-x="413" 
 />
    <glyph glyph-name="colon.tabular" horiz-adv-x="413" 
d="M88 575l51 283h238l-49 -283h-240zM-12 0l49 283h237l-49 -283h-237z" />
    <glyph glyph-name="semicolon.tabular" horiz-adv-x="413" 
d="M88 575l49 283h240l-49 -283h-240zM-51 -213l20 111h78l16 16l15 86h-90l49 283h237l-69 -404l-94 -92h-162z" />
    <glyph glyph-name="comma.tabular" horiz-adv-x="413" 
d="M-49 -213l18 111h74l18 16l15 86h-88l49 283h239l-71 -404l-92 -92h-162z" />
    <glyph glyph-name="period.tabular" horiz-adv-x="413" 
d="M-14 0l51 283h237l-49 -283h-239z" />
    <glyph glyph-name="parenleft.tabular" horiz-adv-x="501" 
d="M174 -113l-170 170l229 1295l170 172h244l-35 -193h-110l-49 -51l-203 -1151l47 -47h96l-35 -195h-184z" />
    <glyph glyph-name="parenright.tabular" horiz-adv-x="501" 
d="M377 1524l170 -170l-230 -1295l-170 -172h-243l35 193h110l51 51l203 1151l-49 47h-94l33 195h184z" />
    <glyph glyph-name="bracketleft.tabular" horiz-adv-x="501" 
d="M-29 -113l289 1637h385l-35 -193h-151l-221 -1249h153l-35 -195h-385z" />
    <glyph glyph-name="bracketright.tabular" horiz-adv-x="501" 
d="M580 1524l-287 -1637h-385l35 193h151l219 1249h-151l35 195h383z" />
    <glyph glyph-name="braceleft.tabular" horiz-adv-x="501" 
d="M182 -113l-168 170l92 525l-40 39h-76l37 200h82l47 47l86 484l170 172h243l-32 -193h-113l-49 -51l-76 -424l-137 -139l96 -99l-86 -489l49 -47h94l-34 -195h-185z" />
    <glyph glyph-name="braceright.tabular" horiz-adv-x="501" 
d="M369 1524l170 -170l-88 -494l38 -39h76l-35 -200h-81l-48 -48l-92 -514l-170 -172h-243l34 193h111l49 51l80 453l139 141l-98 96l84 461l-49 47h-94l32 195h185z" />
    <glyph glyph-name="zero.numerator" horiz-adv-x="638" 
d="M315 811h101l39 39l67 383l-37 39h-100l-39 -39l-70 -385zM197 670l-113 112l92 518l113 113h313l113 -113l-90 -518l-113 -112h-315z" />
    <glyph glyph-name="one.numerator" horiz-adv-x="491" 
d="M51 670l25 145h123l80 453h-121l24 145h305l-106 -598h119l-27 -145h-422z" />
    <glyph glyph-name="two.numerator" horiz-adv-x="593" 
d="M70 670l55 311l113 102h198l25 23l24 137l-30 31h-72l-31 -31l-12 -76h-182l22 133l113 113h270l113 -113l-43 -253l-113 -101h-196l-27 -26l-18 -103h311l-27 -147h-493z" />
    <glyph glyph-name="three.numerator" horiz-adv-x="604" 
d="M178 670l-112 112l20 117h180l-10 -65l31 -31h98l31 33l22 116l-28 29h-164l20 123h170l35 33l18 112l-30 31h-99l-32 -33l-11 -65h-182l23 118l112 113h297l113 -113l-29 -163l-98 -101l70 -69l-33 -185l-113 -112h-299z" />
    <glyph glyph-name="four.numerator" horiz-adv-x="620" 
d="M66 846l18 102l182 465h164l-147 -428h147l78 428h182l-78 -428h56l-25 -139h-55l-31 -176h-182l31 176h-340z" />
    <glyph glyph-name="five.numerator" horiz-adv-x="626" 
d="M205 670l-113 112l23 131h182l-14 -84l30 -30h88l33 32l31 179l-29 28h-88l-49 -51h-170l74 426h502l-25 -141h-324l-28 -166l55 57h176l94 -108l-47 -273l-112 -112h-289z" />
    <glyph glyph-name="six.numerator" horiz-adv-x="626" 
d="M342 1024l-41 -41l-25 -145l37 -39h99l39 39l26 149l-39 37h-96zM197 670l-113 112l92 518l113 113h307l113 -113l-21 -108h-178l8 55l-37 37h-96l-37 -37l-31 -170l58 58h207l86 -97l-45 -256l-113 -112h-313z" />
    <glyph glyph-name="seven.numerator" horiz-adv-x="507" 
d="M154 670l49 274l200 307h-280l29 162h487l-23 -119l-233 -354l-49 -270h-180z" />
    <glyph glyph-name="eight.numerator" horiz-adv-x="647" 
d="M352 1106h127l33 33l20 114l-30 31h-121l-31 -31l-22 -123zM305 797h119l33 30l24 136l-24 24h-127l-33 -31l-23 -129zM197 670l-113 112l33 179l98 98l-70 69l31 172l113 113h321l113 -113l-31 -165l-98 -99l70 -69l-33 -185l-113 -112h-321z" />
    <glyph glyph-name="nine.numerator" horiz-adv-x="626" 
d="M350 1069h96l39 39l25 137l-37 37h-98l-39 -39l-25 -137zM190 670l-112 112l22 121h179l-11 -69l37 -37h96l37 39l31 178l-55 -56h-207l-86 97l43 245l112 113h314l112 -113l-92 -518l-112 -112h-308z" />
    <glyph glyph-name="zero.denominator" horiz-adv-x="638" 
d="M195 143h100l39 39l67 383l-36 39h-101l-39 -39l-69 -385zM76 2l-113 113l92 518l113 112h313l113 -112l-90 -518l-113 -113h-315z" />
    <glyph glyph-name="one.denominator" horiz-adv-x="491" 
d="M-70 2l25 145h123l80 453h-121l24 145h306l-107 -598h119l-27 -145h-422z" />
    <glyph glyph-name="two.denominator" horiz-adv-x="593" 
d="M-51 2l55 311l113 103h198l25 22l25 137l-31 31h-72l-31 -31l-12 -75h-182l22 133l113 112h270l113 -112l-43 -254l-113 -100h-196l-27 -27l-18 -102h311l-27 -148h-493z" />
    <glyph glyph-name="three.denominator" horiz-adv-x="604" 
d="M57 2l-112 113l20 116h180l-10 -65l31 -31h98l31 33l22 117l-28 28h-164l20 123h170l35 33l19 113l-31 30h-98l-33 -32l-10 -66h-183l23 119l113 112h296l113 -112l-29 -164l-98 -100l70 -70l-33 -184l-113 -113h-299z" />
    <glyph glyph-name="four.denominator" horiz-adv-x="620" 
d="M-55 178l18 103l182 464h164l-147 -428h147l78 428h182l-77 -428h55l-25 -139h-55l-31 -176h-182l31 176h-340z" />
    <glyph glyph-name="five.denominator" horiz-adv-x="626" 
d="M84 2l-113 113l23 131h182l-14 -84l31 -31h88l32 33l31 178l-29 29h-88l-49 -52h-170l74 426h502l-25 -141h-323l-29 -166l55 58h176l94 -109l-47 -272l-112 -113h-289z" />
    <glyph glyph-name="six.denominator" horiz-adv-x="626" 
d="M221 356l-41 -41l-24 -145l37 -39h98l39 39l26 149l-39 37h-96zM76 2l-113 113l92 518l113 112h307l113 -112l-21 -109h-178l8 56l-37 36h-96l-37 -36l-30 -170l57 57h207l86 -96l-45 -256l-113 -113h-313z" />
    <glyph glyph-name="seven.denominator" horiz-adv-x="507" 
d="M33 2l49 274l201 308h-281l29 161h487l-22 -118l-234 -355l-49 -270h-180z" />
    <glyph glyph-name="eight.denominator" horiz-adv-x="647" 
d="M231 438h127l33 33l21 115l-31 30h-121l-31 -30l-22 -123zM184 129h119l33 31l24 135l-24 24h-127l-33 -30l-22 -129zM76 2l-113 113l33 178l98 98l-69 70l30 172l113 112h321l113 -112l-31 -166l-98 -98l70 -70l-33 -184l-113 -113h-321z" />
    <glyph glyph-name="nine.denominator" horiz-adv-x="626" 
d="M229 401h97l39 39l24 138l-37 36h-98l-39 -39l-25 -137zM70 2l-113 113l23 121h178l-11 -70l37 -37h97l36 39l31 178l-55 -55h-207l-86 96l43 246l113 112h313l113 -112l-93 -518l-112 -113h-307z" />
    <glyph glyph-name="B.swash" horiz-adv-x="888" 
d="M457 1212l-70 -387h174l51 49l52 297l-41 41h-166zM276 201h183l43 43l57 329l-41 43h-168zM-6 0l213 1212h-338l35 201h860l164 -164l-68 -383l-162 -161l113 -113l-76 -428l-164 -164h-577z" />
    <glyph glyph-name="D.swash" horiz-adv-x="884" 
d="M279 209h174l41 41l161 913l-41 41h-161zM-6 0l213 1212h-338l35 201h852l164 -164l-193 -1085l-164 -164h-569z" />
    <glyph glyph-name="H.swash" horiz-adv-x="911" 
d="M465 0l98 563h-223l-98 -563h-248l213 1210l-2 2h-336l35 201h469l100 -100l-88 -496h223l107 596h248l-250 -1413h-248z" />
    <glyph glyph-name="K.swash" horiz-adv-x="892" 
d="M520 0l-65 602l-150 -240l-63 -362h-250l215 1210l-2 2h-336l35 201h469l100 -100l-106 -604l358 704h262l-330 -594l115 -819h-252z" />
    <glyph glyph-name="M.swash" horiz-adv-x="1277" 
d="M-96 1413h721l-47 -1161l366 1161h385l-250 -1413h-233l217 1235l-399 -1235h-283l33 1235l-217 -1235h-203l213 1212h-338z" />
    <glyph glyph-name="N.swash" horiz-adv-x="929" 
d="M-96 1413h557l147 -866l158 866h215l-250 -1413h-209l-151 893l-162 -893h-215l213 1212h-338z" />
    <glyph glyph-name="P.swash" horiz-adv-x="864" 
d="M457 1219l-90 -508h180l41 41l76 426l-43 41h-164zM-6 0l213 1212h-338l35 201h858l164 -164l-103 -571l-164 -162h-327l-90 -516h-248z" />
    <glyph glyph-name="R.swash" horiz-adv-x="888" 
d="M457 1219l-78 -441h176l47 47l62 353l-41 41h-166zM-96 1413h860l164 -164l-84 -475l-166 -166l61 -407h74l-35 -201h-248l-81 586h-105l-102 -586h-248l213 1212h-338z" />
    <glyph glyph-name="U.swash" horiz-adv-x="849" 
d="M166 0l-162 164l184 1044l-4 4h-336l37 201h469l101 -100l-187 -1057l41 -39h123l39 39l205 1157h250l-221 -1249l-164 -164h-375z" />
    <glyph glyph-name="V.swash" horiz-adv-x="786" 
d="M113 0l34 1206l-6 6h-331l34 201h455l100 -100l-61 -1092l338 1192h246l-445 -1413h-364z" />
    <glyph glyph-name="W.swash" horiz-adv-x="1247" 
d="M96 0l72 1206l-6 6h-334l35 201h446l103 -100l-95 -1037l308 1137h313l-66 -1137l271 1137h215l-389 -1413h-301l59 1141l-313 -1141h-318z" />
    <glyph glyph-name="X.swash" horiz-adv-x="811" 
d="M455 0l-45 596l-242 -596h-260l325 739l-40 465l-11 8h-334l35 201h447l104 -104l15 -467l231 571h252l-311 -680l84 -733h-250z" />
    <glyph glyph-name="Y.swash" horiz-adv-x="837" 
d="M193 0l75 432l-88 772l-8 8h-336l35 201h438l103 -100l39 -578l288 678h240l-461 -981l-78 -432h-247z" />
    </font>
</defs>
</svg>
