<?xml version="1.0" encoding="utf-8"?>
<!-- Generator: Adobe Illustrator 16.0.0, SVG Export Plug-In . SVG Version: 6.00 Build 0)  -->
<!DOCTYPE svg PUBLIC "-//W3C//DTD SVG 1.1//EN" "http://www.w3.org/Graphics/SVG/1.1/DTD/svg11.dtd">
<svg version="1.1" id="Layer_1" xmlns="http://www.w3.org/2000/svg" xmlns:xlink="http://www.w3.org/1999/xlink" x="0px" y="0px"
	 width="260px" height="82px" viewBox="0 0 260 82" enable-background="new 0 0 260 82" xml:space="preserve">
<g>
	<path fill="#FFFFFF" d="M184.152,32.969c0,5.353,4.339,9.692,9.692,9.692c5.355,0,9.693-4.339,9.693-9.692
		c0-5.356-4.338-9.696-9.693-9.696C188.491,23.273,184.152,27.613,184.152,32.969z"/>
	<path fill="#FFFFFF" d="M94.437,32.969c0,5.353,4.34,9.692,9.692,9.692c5.355,0,9.694-4.339,9.694-9.692
		c0-5.356-4.339-9.696-9.694-9.696C98.777,23.273,94.437,27.613,94.437,32.969z"/>
	<path fill="#FFFFFF" d="M102.209,16.396c1.67-1.741,2.701-4.098,2.701-6.7C104.91,4.34,100.571,0,95.215,0
		c-3,0-5.681,1.365-7.459,3.507L64.434,26.829c-0.465,0.385-0.892,0.814-1.278,1.277l-0.003,0.002l0,0
		c-1.391,1.679-2.229,3.834-2.229,6.187c0,5.352,4.34,9.692,9.691,9.692c2.442,0,4.667-0.908,6.371-2.398l0.006,0.007l0.129-0.131
		c0.23-0.208,0.452-0.429,0.662-0.661l24.202-24.179c0.055-0.052,0.108-0.104,0.16-0.158l0.066-0.066L102.209,16.396z"/>
	<path fill="#FFFFFF" d="M158.975,16.396c1.669-1.741,2.699-4.098,2.699-6.7c0-5.357-4.34-9.697-9.694-9.697
		c-3.001,0-5.681,1.365-7.459,3.507l-23.322,23.322c-0.465,0.385-0.893,0.814-1.277,1.277l-0.003,0.002l0,0
		c-1.393,1.679-2.23,3.834-2.23,6.187c0,5.352,4.341,9.692,9.692,9.692c2.442,0,4.668-0.908,6.37-2.398l0.007,0.007l0.13-0.131
		c0.23-0.208,0.451-0.429,0.661-0.661l24.203-24.179c0.054-0.052,0.106-0.104,0.159-0.158l0.065-0.066L158.975,16.396z"/>
	<path fill="#FFFFFF" d="M192.006,16.396c1.67-1.741,2.701-4.098,2.701-6.7c0-5.357-4.342-9.697-9.696-9.697
		c-2.999,0-5.681,1.365-7.458,3.507L154.23,26.829c-0.465,0.385-0.893,0.814-1.277,1.277l-0.003,0.002l0,0
		c-1.393,1.679-2.23,3.834-2.23,6.187c0,5.352,4.341,9.692,9.693,9.692c2.441,0,4.665-0.908,6.37-2.398l0.005,0.007l0.131-0.131
		c0.23-0.208,0.452-0.429,0.662-0.661l24.201-24.179c0.055-0.052,0.109-0.104,0.162-0.158l0.064-0.066L192.006,16.396z"/>
</g>
<g>
	<g>
		<path fill="#FFFFFF" d="M8.874,64.013l8.328,17.856h-1.927l-2.81-5.876H4.771l-2.78,5.876H0l8.436-17.856H8.874z M8.648,67.807
			l-3.061,6.462h6.106L8.648,67.807z"/>
		<path fill="#FFFFFF" d="M22.48,65.76v-1.747h9.786v1.747h-3.982v16.109h-1.82V65.76H22.48z"/>
		<path fill="#FFFFFF" d="M39.787,64.013h1.786v7.488h9.092v-7.488h1.786v17.856h-1.786v-8.618h-9.092v8.618h-1.786V64.013z"/>
		<path fill="#FFFFFF" d="M61.77,64.013h1.784v16.136h6.871v1.721H61.77V64.013z"/>
		<path fill="#FFFFFF" d="M78.238,64.013h10.234v1.747h-8.45v5.598h8.376v1.748h-8.376v7.018h8.376v1.746h-10.16V64.013z"/>
		<path fill="#FFFFFF" d="M94.756,65.76v-1.747h9.785v1.747h-3.982v16.109h-1.82V65.76H94.756z"/>
		<path fill="#FFFFFF" d="M112.1,64.013h10.234v1.747h-8.45v5.598h8.377v1.748h-8.377v7.018h8.377v1.746H112.1V64.013z"/>
	</g>
	<g>
		<path fill="#FFFFFF" d="M144.11,81.869l2.558-17.856h0.29l7.261,14.653l7.189-14.653h0.286l2.569,17.856h-1.749L160.75,69.1
			l-6.315,12.77h-0.454l-6.39-12.866l-1.755,12.866H144.11z"/>
		<path fill="#FFFFFF" d="M172.49,64.013h1.782v17.856h-1.782V64.013z"/>
		<path fill="#FFFFFF" d="M183.35,81.869V64.013h0.389l11.884,13.688V64.013h1.762v17.856h-0.402l-11.787-13.522v13.522H183.35z"/>
		<path fill="#FFFFFF" d="M206.703,81.869V64.013h3.703c2.67,0,4.607,0.213,5.814,0.642c1.732,0.608,3.086,1.659,4.062,3.156
			c0.975,1.498,1.461,3.285,1.461,5.356c0,1.789-0.385,3.361-1.16,4.723c-0.771,1.359-1.775,2.361-3.008,3.008
			c-1.236,0.647-2.965,0.972-5.191,0.972H206.703z M208.416,80.184h2.062c2.469,0,4.18-0.156,5.135-0.461
			c1.346-0.437,2.4-1.225,3.17-2.359c0.768-1.136,1.152-2.528,1.152-4.167c0-1.723-0.418-3.194-1.25-4.418
			c-0.832-1.219-1.996-2.057-3.484-2.508c-1.115-0.342-2.959-0.511-5.523-0.511h-1.262V80.184z"/>
		<path fill="#FFFFFF" d="M230.189,64.013h10.234v1.747h-8.449v5.598h8.375v1.748h-8.375v7.018h8.375v1.746h-10.16V64.013z"/>
		<path fill="#FFFFFF" d="M248.574,64.013h3.559c1.982,0,3.326,0.079,4.031,0.243c1.061,0.242,1.922,0.761,2.586,1.562
			c0.662,0.798,0.994,1.779,0.994,2.947c0,0.973-0.227,1.826-0.686,2.566c-0.457,0.736-1.111,1.295-1.961,1.669
			c-0.85,0.378-2.023,0.571-3.52,0.579l6.422,8.29h-2.209l-6.422-8.29h-1.008v8.29h-1.787V64.013z M249.469,65.76v6.07l3.074,0.023
			c1.191,0,2.074-0.111,2.646-0.338c0.57-0.228,1.018-0.59,1.336-1.086c0.322-0.5,0.48-1.056,0.48-1.671
			c0-0.597-0.16-1.145-0.486-1.635c-0.324-0.487-0.748-0.838-1.275-1.049s-1.402-0.315-2.629-0.315H249.469z"/>
	</g>
	<circle fill="#FFFFFF" cx="134.029" cy="72.012" r="2.241"/>
</g>
</svg>
