<?xml version="1.0" encoding="utf-8"?>
<!-- Generator: Adobe Illustrator 16.0.0, SVG Export Plug-In . SVG Version: 6.00 Build 0)  -->
<!DOCTYPE svg PUBLIC "-//W3C//DTD SVG 1.1//EN" "http://www.w3.org/Graphics/SVG/1.1/DTD/svg11.dtd">
<svg version="1.1" id="Layer_1" xmlns="http://www.w3.org/2000/svg" xmlns:xlink="http://www.w3.org/1999/xlink" x="0px" y="0px"
	 width="50px" height="50px" viewBox="0 0 50 50" enable-background="new 0 0 50 50" xml:space="preserve">
<g>
	<path fill="#FFFFFF" d="M36.621,14.443l0.646-0.931l0.913,0.609c0.306,0.203,0.719,0.12,0.922-0.188l0.851-1.281
		c0.203-0.308,0.12-0.722-0.187-0.926l-4.339-2.895c-0.305-0.204-0.719-0.121-0.922,0.187l-0.851,1.282
		c-0.203,0.307-0.119,0.721,0.186,0.925l1.166,0.778l-0.674,0.844c-2.128-1.256-4.304-2.099-6.895-2.415V8.532h-5.05v1.901
		c-2.59,0.322-4.743,1.185-6.881,2.463l-0.709-1.004l-0.075,0.039l1.056-0.705c0.306-0.204,0.389-0.618,0.186-0.925l-0.85-1.282
		c-0.204-0.308-0.616-0.391-0.922-0.187l-4.339,2.895c-0.307,0.204-0.39,0.618-0.187,0.926l0.851,1.281
		c0.203,0.308,0.616,0.391,0.922,0.188l1.051-0.701l0.745,1.08c-4.093,3.375-6.629,8.588-6.629,14.301
		c0,10.16,8.129,18.368,18.307,18.368c10.332,0,18.479-8.436,18.479-18.478C43.393,22.946,40.755,17.816,36.621,14.443z
		 M26.175,43.979v-1.877H23.65v1.872c-7.586-0.642-13.586-6.776-14.019-14.407h1.043v-1.774H9.633
		c0.443-7.62,6.439-13.742,14.018-14.384V15.5h2.524v-2.096C33.8,14,39.849,20.14,40.294,27.793h-1.166v1.774h1.167
		C39.861,37.231,33.809,43.383,26.175,43.979z M26.806,29.281v-9.379c0-0.634-0.631-1.267-1.262-1.267h-1.263
		c-0.634,0-1.234,0.633-1.234,1.267v10.279c0.008,0.655,0.119,1.315,0.604,1.755c0,0,5.1,3.844,5.609,4.219
		c0.509,0.377,1.591,0.327,1.966-0.183c0.162-0.222,0.461-0.629,0.749-1.021c0.376-0.513,0.223-1.372-0.286-1.749
		C31.429,33.011,28.296,30.485,26.806,29.281z M21.158,7.266H28.7c0.366,0,0.632-0.265,0.632-0.633V3.466
		c0-0.368-0.266-0.633-0.632-0.633h-7.575c-0.367,0-0.631,0.265-0.631,0.633v3.133C20.494,6.968,20.792,7.266,21.158,7.266z"/>
</g>
</svg>
