<?xml version="1.0" encoding="utf-8"?>
<!-- Generator: Adobe Illustrator 16.0.0, SVG Export Plug-In . SVG Version: 6.00 Build 0)  -->
<!DOCTYPE svg PUBLIC "-//W3C//DTD SVG 1.1//EN" "http://www.w3.org/Graphics/SVG/1.1/DTD/svg11.dtd">
<svg version="1.1" id="Layer_1" xmlns="http://www.w3.org/2000/svg" xmlns:xlink="http://www.w3.org/1999/xlink" x="0px" y="0px"
	 width="260px" height="93px" viewBox="0 0 260 93" enable-background="new 0 0 260 93" xml:space="preserve">
<g id="g10" transform="matrix(1.25,0,0,-1.25,-155.2165,500.6255)">
	<path fill="#FFFFFF" d="M275.906,370.468l-7.171-25.142
		c-1.323-4.611-3.073-6.958-9.348-6.958c-1.58,0-4.097,0.341-5.165,0.684c-0.47,0.17-0.896,0.298-0.896,0.768v3.457
		c0,0.471,0.384,0.811,0.854,0.811h0.086c1.409-0.084,3.925-0.34,5.334-0.34c1.537,0,2.306,0.512,2.817,2.22l0.385,1.324h-0.641
		c-1.579,0-2.903,0.255-3.971,3.968l-5.633,19.21c-0.043,0.127-0.043,0.212-0.043,0.298c0,0.427,0.256,0.683,0.853,0.683h5.677
		c0.428,0,0.726-0.384,0.812-0.811l3.841-16.05c0.129-0.597,0.256-0.811,0.513-0.811h0.042h0.171h0.17l3.971,16.861
		c0.086,0.427,0.427,0.811,0.896,0.811h5.677c0.427,0,0.811-0.341,0.811-0.769C275.949,370.595,275.906,370.553,275.906,370.468
		 M245.337,361.503c0,3.159-1.452,4.738-3.841,4.738c-2.348,0-3.928-1.622-3.928-4.738v-0.17h7.769V361.503L245.337,361.503z
		 M251.184,357.065h-13.616v-0.086c0-2.434,1.024-4.655,4.397-4.655c2.689,0,6.488,0.215,8.195,0.386h0.128
		c0.471,0,0.811-0.214,0.811-0.683v-3.244c0-0.684-0.17-0.982-0.896-1.153c-2.732-0.684-5.038-1.025-8.75-1.025
		c-5.166,0-10.714,2.732-10.714,10.971v2.987c0,6.872,4.011,11.227,10.799,11.227c7.001,0,10.543-4.781,10.543-11.227v-2.476
		C252.08,357.449,251.739,357.065,251.184,357.065 M231.366,377.639l-10.16-14.428l10.202-15.325c0.128-0.171,0.17-0.342,0.17-0.47
		c0-0.256-0.212-0.426-0.597-0.426h-7.342c-0.512,0-0.726,0.255-0.94,0.598l-8.665,14.086v-13.831c0-0.47-0.384-0.852-0.854-0.852
		h-5.592c-0.47,0-0.853,0.382-0.853,0.852v30.052c0,0.47,0.384,0.811,0.853,0.811h5.592c0.47,0,0.854-0.341,0.854-0.811v-13.574
		l9.391,13.873c0.214,0.341,0.47,0.512,0.94,0.512h6.53c0.471,0,0.683-0.214,0.683-0.47
		C231.578,378.065,231.493,377.852,231.366,377.639"/>
	<path fill="#FFFFFF" d="M325.429,361.503c0,3.159-1.452,4.738-3.842,4.738
		c-2.348,0-3.927-1.622-3.927-4.738v-0.17h7.77V361.503L325.429,361.503z M331.276,357.064h-13.617v-0.085
		c0-2.434,1.025-4.655,4.398-4.655c2.688,0,6.486,0.215,8.195,0.386h0.127c0.47,0,0.811-0.214,0.811-0.683v-3.244
		c0-0.684-0.17-0.982-0.897-1.153c-2.731-0.684-5.036-1.025-8.75-1.025c-5.165,0-10.714,2.732-10.714,10.971v2.987
		c0,6.872,4.012,11.227,10.799,11.227c7,0,10.545-4.781,10.545-11.227v-2.476C332.173,357.449,331.832,357.064,331.276,357.064
		 M307.053,346.991h-5.633c-0.385,0-0.684,0.382-0.684,0.852v17.801c0,0.298-0.128,0.341-0.215,0.341
		c-0.127,0-0.212-0.085-0.341-0.298l-3.842-7.044c-0.298-0.511-0.725-0.725-1.281-0.725h-3.415c-0.554,0-0.981,0.214-1.279,0.725
		l-3.842,7.044c-0.128,0.213-0.215,0.298-0.342,0.298c-0.085,0-0.213-0.043-0.213-0.341v-17.801c0-0.47-0.298-0.852-0.682-0.852
		h-5.634c-0.342,0-0.726,0.127-0.726,0.598v29.667c0,0.895,0.639,1.45,1.536,1.45h4.013c0.897,0,1.494-0.427,1.877-1.153
		l6.532-12.165c0.171-0.341,0.298-0.555,0.47-0.555c0.17,0,0.298,0.214,0.47,0.555l6.531,12.165
		c0.384,0.725,0.982,1.153,1.878,1.153h4.012c0.895,0,1.536-0.598,1.536-1.494v-29.623
		C307.779,347.118,307.395,346.991,307.053,346.991"/>
	<path fill="#FFFFFF" d="M161.375,333.605c-16.399,0-29.693,13.295-29.693,29.693
		c0,16.4,13.294,29.694,29.693,29.694c7.613,0,14.555-2.869,19.811-7.58l-37.941-15.715l2.874-6.937l6.444,2.67l1.335-3.222
		l-6.444-2.669h0l2.669-6.445h0l4.005-9.667l6.444,2.67l-4.004,9.667l3.222,1.334l4.004-9.667l6.444,2.67l-4.004,9.666l3.222,1.335
		l4.004-9.666l6.444,2.669l-6.673,16.111l0,0l-6.444-2.669h0l-1.335,3.222l20.861,8.641c3.005-4.642,4.757-10.17,4.757-16.112
		C191.069,346.9,177.774,333.605,161.375,333.605 M161.375,400.5c-20.546,0-37.202-16.656-37.202-37.202
		c0-20.545,16.656-37.202,37.202-37.202c20.546,0,37.202,16.657,37.202,37.202C198.577,383.844,181.921,400.5,161.375,400.5"/>
</g>
</svg>
