<?xml version="1.0" encoding="utf-8"?>
<!-- Generator: Adobe Illustrator 16.0.0, SVG Export Plug-In . SVG Version: 6.00 Build 0)  -->
<!DOCTYPE svg PUBLIC "-//W3C//DTD SVG 1.1//EN" "http://www.w3.org/Graphics/SVG/1.1/DTD/svg11.dtd">
<svg version="1.1" id="Layer_1" xmlns="http://www.w3.org/2000/svg" xmlns:xlink="http://www.w3.org/1999/xlink" x="0px" y="0px"
	 width="574px" height="65px" viewBox="0 0 574 65" enable-background="new 0 0 574 65" xml:space="preserve">
<g>
	<g>
		<path fill="#F8A900" d="M0,2.26h16.875v47.978h2.4V2.26h16.95V0H0V2.26z M60.902,12.955c-5.025,0-10.426,3.314-13.125,6.628V0
			h-2.25v50.238h2.25V21.842c2.55-3.615,7.875-6.854,12.826-6.854c5.625,0,9.375,2.109,9.375,9.716v25.533h2.25V24.705
			C72.227,16.119,68.102,12.955,60.902,12.955z M100.204,12.955c-9.75,0-17.025,8.512-17.025,19.056
			c0,11.071,7.275,19.131,17.775,19.131c6.076,0,10.275-2.26,13.95-6.101l-1.35-1.431c-3.375,3.615-7.5,5.498-12.6,5.498
			c-9.225,0-15-7.457-15.225-16.344h31.276v-0.752C117.004,21.918,111.304,12.955,100.204,12.955z M85.729,30.73
			c0.225-7.155,5.1-15.742,14.4-15.742c9.9,0,14.475,8.737,14.475,15.742H85.729z M179.256,0h-3.225l-26.025,28.998V0h-2.4v50.238
			h2.4V32.085l6-6.553l22.275,24.705h3.225l-24-26.211L179.256,0z M202.359,12.955c-9.75,0-17.025,8.512-17.025,19.056
			c0,11.071,7.275,19.131,17.775,19.131c6.075,0,10.275-2.26,13.95-6.101l-1.35-1.431c-3.375,3.615-7.5,5.498-12.6,5.498
			c-9.225,0-15-7.457-15.226-16.344h31.276v-0.752C219.16,21.918,213.459,12.955,202.359,12.955z M187.884,30.73
			c0.225-7.155,5.1-15.742,14.4-15.742c9.9,0,14.475,8.737,14.475,15.742H187.884z M241.361,47.601l-14.25-33.742h-2.625
			l15.525,36.604l-3.3,7.532c-1.65,3.917-3.3,4.971-5.7,4.971c-0.9,0-2.325-0.226-3.15-0.603l-0.45,2.109
			c0.9,0.301,2.325,0.527,3.6,0.527c3.6,0,6.225-2.26,7.95-6.176l19.2-44.965h-2.625L241.361,47.601z M291.538,49.107
			c-2.7,0-3.899-2.184-3.899-5.272V15.892h7.35v-2.033h-7.35V3.917h-2.25v9.942h-6v2.033h6v27.943c0,4.52,1.95,7.306,6.149,7.306
			c2.701,0,4.201-0.904,5.625-2.26l-1.35-1.732C294.913,48.204,293.338,49.107,291.538,49.107z M319.063,12.955
			c-10.2,0-16.875,8.361-16.875,19.056c0,10.695,6.675,19.131,16.875,19.131c10.276,0,16.876-8.436,16.876-19.131
			C335.939,21.315,329.34,12.955,319.063,12.955z M319.063,49.107c-9.225,0-14.4-8.209-14.4-17.097
			c0-8.812,5.175-17.022,14.4-17.022c9.3,0,14.4,8.21,14.4,17.022C333.464,40.898,328.364,49.107,319.063,49.107z M398.192,0h-3.226
			l-26.025,28.998V0h-2.4v50.238h2.4V32.085l6-6.553l22.275,24.705h3.225l-23.999-26.211L398.192,0z M421.293,12.955
			c-9.75,0-17.025,8.512-17.025,19.056c0,11.071,7.275,19.131,17.775,19.131c6.075,0,10.275-2.26,13.95-6.101l-1.35-1.431
			c-3.375,3.615-7.5,5.498-12.6,5.498c-9.225,0-15-7.457-15.226-16.344h31.276v-0.752C438.094,21.918,432.394,12.955,421.293,12.955
			z M406.818,30.73c0.226-7.155,5.1-15.742,14.4-15.742c9.901,0,14.476,8.737,14.476,15.742H406.818z M460.296,47.601l-14.25-33.742
			h-2.625l15.525,36.604l-3.3,7.532c-1.65,3.917-3.3,4.971-5.7,4.971c-0.9,0-2.325-0.226-3.15-0.603l-0.45,2.109
			c0.9,0.301,2.325,0.527,3.6,0.527c3.6,0,6.225-2.26,7.95-6.176l19.201-44.965h-2.625L460.296,47.601z M506.797,44.965L488.347,0
			h-3.825v50.238h2.4V2.862l19.5,47.375h0.75l19.5-47.375v47.375h2.401V0h-3.826L506.797,44.965z M574,32.011
			c0-10.093-5.7-19.056-16.801-19.056c-9.749,0-17.025,8.512-17.025,19.056c0,11.071,7.276,19.131,17.775,19.131
			c6.075,0,10.275-2.26,13.95-6.101l-1.35-1.431c-3.375,3.615-7.501,5.498-12.601,5.498c-9.225,0-15-7.457-15.226-16.344H574V32.011
			z M542.724,30.73c0.226-7.155,5.102-15.742,14.401-15.742c9.9,0,14.475,8.737,14.475,15.742H542.724z"/>
	</g>
</g>
</svg>
