<?xml version="1.0" encoding="utf-8"?>
<!-- Generator: Adobe Illustrator 16.0.0, SVG Export Plug-In . SVG Version: 6.00 Build 0)  -->
<!DOCTYPE svg PUBLIC "-//W3C//DTD SVG 1.1//EN" "http://www.w3.org/Graphics/SVG/1.1/DTD/svg11.dtd">
<svg version="1.1" id="Layer_1" xmlns="http://www.w3.org/2000/svg" xmlns:xlink="http://www.w3.org/1999/xlink" x="0px" y="0px"
	 width="330px" height="80px" viewBox="0 0 330 80" enable-background="new 0 0 330 80" xml:space="preserve">
<path fill-rule="evenodd" clip-rule="evenodd" fill="#FFFFFF" d="M329.488,63.16c-13.79,23.203-35.63,16.47-42.188,11.199
	c-2.791,1.879-7.687,5.999-14.214,5.522c-13.9-1.012-18.878-20.727-18.878-20.727c0.1,0.079-4.141,1.453-6.432,1.429
	c-0.03,5.781-5.066,19.591-18.656,19.414c-15.249-0.196-18.35-22.744-18.35-22.744s-1.518,2.091-7.288,4.175
	c0.29-4.442,0.078,17.894-18.199,18.222c-14.449,0.26-18.351-22.745-18.351-22.745s-2.506,2.585-7.364,3.481
	c0.309-4.514-0.192,19.34-18.474,19.264c-12.353-0.051-16.574-14.17-16.246-16.131c0.419-2.497-4.175,16.482-16.175,16.188
	c-4.952-0.146-8.643-3.702-10.959-8.447c-3.102,3.521-7.604,8.447-12.655,8.447c-9.066,0-13.062-7.526-12.386-29.021
	c0.058-2.549-0.127-3.553-2.681-3.934c-1.532-0.254-3.103-0.734-4.763-0.987c-0.532,1.762-5.048,33.366-20.572,33.967
	c-5.209,0.201-8.057-4.276-10.396-7.6c-3.585,4.707-8.318,7.749-15.06,7.749C7.781,79.882,0,70.72,0,59.417
	c0-11.302,7.781-20.465,19.202-20.465c2.019,0,2.586,0.288,4.431,0.822C19.839,5.494,28.798,0.137,36.636,0.137
	c7.524,0,20.379,17.332,2.292,61.295c4.016,13.112,12.673,12.371,16.833-14.622c0.846-5.487-1.418-12.892,2.104-13.925
	c6.437-1.889,7.12,3.778,10.138,4.722c3.191,0.998,5.054,0.901,8.119,1.535c5.235,1.015,7.278,3.806,6.639,10.023
	c-0.766,7.865-2.105,19.313,1.98,20.709c2.946,1.014,8.326-5.051,9.269-8.368s1.14-4.453,1.224-6.886
	c0.127-5.201,0.288-9.014,1.182-12.946c0.383-1.523,0.818-2.531,2.554-2.6c1.427-0.036,4.039-0.463,5.188,0.425
	c1.532,1.142,1.34,2.301,1.164,5.352c-1.781,43.494,11.931,21.781,16.02,4.396c-1.456-19.659-0.457-48.75,11.957-49.238
	c6.456-0.254,9.309,4.879,9.623,8.709c0.888,10.82-4.086,28.744-10.627,40.798c-3.739,24.594,16.346,29.456,19.558,9.826
	c-5.254-2.48-10.934-12.516-6.312-17.407c2.593-2.745,13.387,1.199,13.564,9.799c5.295-1.405,6.001-4.371,6.075-3.88
	c-1.456-19.659-0.106-47.358,12.308-47.845c6.455-0.254,9.309,4.879,9.623,8.709c0.888,10.82-4.086,28.744-10.627,40.798
	c-3.738,24.594,16.347,29.456,19.558,9.826c-3.891-0.745-12.104-11.42-7.364-17.407c2.532-3.199,13.286,3.454,14.49,10.084
	c5.087-1.43,5.777-4.302,5.85-3.817c-1.455-19.659-0.105-47.357,12.309-47.845c6.455-0.254,9.309,4.879,9.623,8.71
	c0.888,10.82-4.087,28.744-10.627,40.797c-3.739,24.595,16.346,29.458,19.558,9.826c-5.347-0.884-12.945-12.155-6.829-17.921
	c2.443-2.304,11.779,3.677,13.965,10.499c3.035-0.116,4.926-1.155,5.331-1.26c-4.848-23.079-1.239-50.769,12.115-51
	c7.218-0.125,14.275,3.872,11.177,25.828c-2.956,20.95-13.584,29.741-13.559,29.875c0.618,2.511,6.071,23.513,19.804,12.431
	c-0.711-1.597-1.422-3.229-1.82-5.206c-2.276-11.517,2.194-24.524,14.346-26.626c6.963-1.204,13.521,2.159,14.558,9.743
	c1.706,12.409-9.585,21.396-13.878,23.346c-1.923-1.084,17.432,11.234,28.918-13.452c0.666-1.409,1.47-1.29,2.51-0.563
	C327.25,55.896,331.435,59.829,329.488,63.16z M27.509,56.368c-0.584-1.734-1.784-5.555-2.208-7.21
	c-2.335-2.017-4.003-2.345-7.001-2.345c-6.664,0-10.585,6.115-10.585,12.708c0,6.592,4.273,12.706,10.936,12.706
	c5.774,0,10.169-3.896,11.51-9.412C29.222,60.665,28.292,58.689,27.509,56.368z M36.473,9.211c-4.682,0-6.27,11.084-5.961,20.54
	c0.272,8.36,2.626,15.72,3.847,19.018c0.31,0.413,0.252,0.145,0.529,0.583C43.017,31.675,39.645,9.211,36.473,9.211z M133.967,9.559
	c-6.051-0.689-6.012,24.328-5.26,29.939C131.849,34.509,137.308,10.902,133.967,9.559z M178.155,9.559
	c-6.051-0.689-6.013,24.328-5.261,29.939C176.037,34.509,181.497,10.902,178.155,9.559z M221.993,9.907
	c-6.052-0.688-6.013,24.328-5.261,29.939C219.874,34.857,225.334,11.25,221.993,9.907z M265.129,8.095
	c-9.428,1.879-7.232,33.075-5.801,38.546C270.434,31.504,270.662,7.526,265.129,8.095z M300.463,47.079
	c-0.479-1.989-2.876-3.052-4.53-2.789c-4.733,0.642-9.325,6.492-7.549,15.4c0.396,1.984,1.386,3.809,1.37,3.749
	C300.349,56.386,301.248,50.828,300.463,47.079z M100.826,32.188c-3.777,0-6.838-3.04-6.838-6.789c0-3.75,3.062-6.789,6.838-6.789
	s6.839,3.04,6.839,6.789C107.665,29.148,104.603,32.188,100.826,32.188z"/>
</svg>
