<?xml version="1.0" encoding="utf-8"?>
<!-- Generator: Adobe Illustrator 16.0.0, SVG Export Plug-In . SVG Version: 6.00 Build 0)  -->
<!DOCTYPE svg PUBLIC "-//W3C//DTD SVG 1.1//EN" "http://www.w3.org/Graphics/SVG/1.1/DTD/svg11.dtd">
<svg version="1.1" id="Layer_1" xmlns="http://www.w3.org/2000/svg" xmlns:xlink="http://www.w3.org/1999/xlink" x="0px" y="0px"
	 width="26px" height="26px" viewBox="0 0 26 26" enable-background="new 0 0 26 26" xml:space="preserve">
<path fill-rule="evenodd" clip-rule="evenodd" fill="#FFFFFF" d="M12.999,26C5.832,26,0,20.168,0,13.001C0,5.832,5.832,0,12.999,0
	C20.168,0,26,5.832,26,13.001C26,20.168,20.168,26,12.999,26z M23.964,14.779c-0.38-0.118-3.438-1.031-6.917-0.474
	c1.452,3.991,2.042,7.242,2.156,7.917C21.695,20.538,23.467,17.869,23.964,14.779z M17.336,23.239
	c-0.165-0.974-0.81-4.369-2.368-8.422c-0.024,0.008-0.049,0.017-0.073,0.024c-6.264,2.183-8.512,6.526-8.711,6.935
	c1.882,1.469,4.248,2.343,6.815,2.343C14.537,24.12,16.003,23.807,17.336,23.239z M4.75,20.442c0.252-0.431,3.3-5.476,9.026-7.328
	c0.145-0.046,0.291-0.091,0.438-0.132c-0.279-0.631-0.582-1.264-0.901-1.886c-5.546,1.66-10.926,1.59-11.411,1.581
	c-0.004,0.114-0.006,0.226-0.006,0.339C1.896,15.869,2.976,18.473,4.75,20.442z M2.13,10.743c0.497,0.006,5.071,0.026,10.265-1.353
	c-1.839-3.271-3.823-6.021-4.116-6.422C5.173,4.435,2.85,7.297,2.13,10.743z M10.397,2.221c0.307,0.411,2.323,3.157,4.144,6.502
	c3.948-1.481,5.619-3.727,5.82-4.012C18.4,2.972,15.82,1.914,12.999,1.914C12.104,1.914,11.233,2.02,10.397,2.221z M21.594,5.995
	c-0.234,0.317-2.093,2.701-6.2,4.377c0.26,0.529,0.506,1.068,0.738,1.609c0.081,0.191,0.161,0.382,0.238,0.574
	c3.694-0.466,7.366,0.278,7.732,0.356C24.078,10.292,23.142,7.885,21.594,5.995z"/>
</svg>
