<?xml version="1.0" encoding="utf-8"?>
<!-- Generator: Adobe Illustrator 16.0.0, SVG Export Plug-In . SVG Version: 6.00 Build 0)  -->
<!DOCTYPE svg PUBLIC "-//W3C//DTD SVG 1.1//EN" "http://www.w3.org/Graphics/SVG/1.1/DTD/svg11.dtd">
<svg version="1.1" id="Layer_1" xmlns="http://www.w3.org/2000/svg" xmlns:xlink="http://www.w3.org/1999/xlink" x="0px" y="0px" width="23px" height="23px" viewBox="0 0 23 23" enable-background="new 0 0 23 23" xml:space="preserve">
	<path fill="#FFFFFF" d="M20,0H3C1.343,0,0,1.343,0,3v17c0,1.657,1.343,3,3,3h17c1.657,0,3-1.343,3-3V3C23,1.343,21.657,0,20,0z M11.5,8
	c1.933,0,3.5,1.567,3.5,3.5c0,1.933-1.567,3.5-3.5,3.5C9.567,15,8,13.433,8,11.5C8,9.567,9.567,8,11.5,8z M21,21H2V9h3.5
	C5.179,9.77,5,10.614,5,11.5c0,3.59,2.91,6.5,6.5,6.5s6.5-2.91,6.5-6.5c0-0.886-0.179-1.73-0.5-2.5H21V21z M21,5.5
	C21,6.329,20.328,7,19.5,7h-2C16.672,7,16,6.329,16,5.5v-2C16,2.672,16.672,2,17.5,2h2C20.328,2,21,2.672,21,3.5V5.5z"/>
</svg>
