<?xml version="1.0" encoding="utf-8"?>
<!-- Generator: Adobe Illustrator 16.0.0, SVG Export Plug-In . SVG Version: 6.00 Build 0)  -->
<!DOCTYPE svg PUBLIC "-//W3C//DTD SVG 1.1//EN" "http://www.w3.org/Graphics/SVG/1.1/DTD/svg11.dtd">
<svg version="1.1" id="Layer_1" xmlns="http://www.w3.org/2000/svg" xmlns:xlink="http://www.w3.org/1999/xlink" x="0px" y="0px"
	 width="20.002px" height="25.033px" viewBox="0 0 20.002 25.033" enable-background="new 0 0 20.002 25.033" xml:space="preserve">
<path fill="#FFFFFF" d="M10.166,0.001c4.542-0.059,7.463,1.923,8.974,4.804c0.351,0.668,0.578,1.406,0.754,2.259
	c0.066,0.32,0.023,0.637,0.082,0.991c0.049,0.295,0.028,0.716-0.021,1.001c-0.03,0.356-0.062,0.713-0.091,1.069
	c-0.15,0.774-0.278,1.496-0.5,2.179c-0.452,1.39-1.176,2.468-2.01,3.478c-0.25,0.299-0.582,0.566-0.896,0.802
	c-1.303,0.97-3.607,2.011-5.914,1.298c-0.679-0.209-1.403-0.583-1.808-1.07c-0.125-0.149-0.226-0.356-0.366-0.496
	c-0.167,0.635-0.333,1.269-0.5,1.902c-0.241,0.846-0.375,1.751-0.692,2.547c-0.384,0.959-0.841,1.805-1.367,2.614
	c-0.294,0.453-0.608,0.875-0.928,1.297c-0.117,0.156-0.209,0.41-0.489,0.347c-0.186-0.24-0.142-0.703-0.204-1.06
	c-0.031-0.337-0.062-0.674-0.092-1.011c-0.004-0.168-0.008-0.336-0.01-0.506c0-0.283,0-0.567,0-0.852
	c0.01-0.244,0.021-0.488,0.031-0.734c0.047-0.353,0.095-0.707,0.142-1.059c0.457-1.889,0.913-3.777,1.368-5.666
	c0.207-0.838,0.414-1.677,0.621-2.515c0.017-0.107-0.081-0.219-0.112-0.297c-0.109-0.268-0.174-0.566-0.245-0.862
	c-0.209-0.86-0.131-2.064,0.153-2.774c0.393-0.984,0.981-1.78,2.109-2.051c0.226-0.054,0.559-0.09,0.828-0.04
	c1.209,0.229,1.915,1.301,1.6,2.813c-0.337,1.626-0.927,2.98-1.285,4.557c-0.377,1.669,1.264,2.964,2.979,2.595
	c2.102-0.453,3.076-2.402,3.672-4.338c0.129-0.422,0.174-0.852,0.265-1.318c0.253-1.282,0.204-2.999-0.214-4.041
	c-0.632-1.584-1.822-2.596-3.547-3.12c-0.526-0.159-1.098-0.178-1.715-0.277c-0.274,0-0.549,0-0.823,0
	c-0.204,0.011-0.405,0.02-0.606,0.03C8.88,2.569,8.46,2.616,8.084,2.725c-2.372,0.693-3.863,2.039-4.73,4.19
	C3.085,7.577,2.915,8.353,2.915,9.263C2.92,9.451,2.923,9.64,2.925,9.828c0.123,0.718,0.246,1.291,0.562,1.802
	c0.179,0.291,0.59,0.622,0.663,0.96c0.036,0.173-0.034,0.354-0.071,0.485c-0.119,0.412-0.223,1.303-0.602,1.438
	c-0.326,0.115-0.874-0.229-1.071-0.347C1.23,13.45,0.587,12.28,0.203,10.788c-0.096-0.37-0.085-0.745-0.154-1.159
	C-0.036,9.115-0.003,8.438,0.09,7.955C0.181,7.486,0.26,7.04,0.396,6.618C1.207,4.122,2.87,2.483,5.004,1.269
	c0.934-0.53,2.055-0.821,3.264-1.08c0.436-0.053,0.87-0.106,1.305-0.159C9.771,0.021,9.968,0.011,10.166,0.001z"/>
</svg>
