<?xml version="1.0" encoding="utf-8"?>
<!-- Generator: Adobe Illustrator 16.0.0, SVG Export Plug-In . SVG Version: 6.00 Build 0)  -->
<!DOCTYPE svg PUBLIC "-//W3C//DTD SVG 1.1//EN" "http://www.w3.org/Graphics/SVG/1.1/DTD/svg11.dtd">
<svg version="1.1" id="Layer_1" xmlns="http://www.w3.org/2000/svg" xmlns:xlink="http://www.w3.org/1999/xlink" x="0px" y="0px"
	 width="26px" height="20.996px" viewBox="0 0 26 20.996" enable-background="new 0 0 26 20.996" xml:space="preserve">
<path fill="#FFFFFF" d="M26,2.485c-0.956,0.422-1.984,0.707-3.062,0.835c1.101-0.656,1.946-1.695,2.344-2.933
	c-1.029,0.608-2.172,1.049-3.387,1.287C20.921,0.644,19.535,0,18.001,0c-2.946,0-5.334,2.373-5.334,5.301
	c0,0.415,0.046,0.82,0.137,1.208C8.371,6.288,4.441,4.177,1.81,0.97C1.351,1.753,1.087,2.664,1.087,3.635
	c0,1.839,0.942,3.461,2.373,4.411C2.586,8.019,1.763,7.781,1.045,7.384c0,0.022,0,0.044,0,0.067c0,2.568,1.838,4.71,4.278,5.198
	c-0.448,0.121-0.919,0.186-1.405,0.186c-0.343,0-0.678-0.033-1.003-0.095c0.678,2.106,2.649,3.638,4.983,3.681
	c-1.826,1.421-4.125,2.269-6.625,2.269c-0.43,0-0.856-0.025-1.272-0.074c2.36,1.504,5.164,2.381,8.176,2.381
	c9.811,0,15.177-8.077,15.177-15.082c0-0.229-0.005-0.458-0.015-0.685C24.381,4.482,25.285,3.549,26,2.485z"/>
</svg>
