<?xml version="1.0" encoding="utf-8"?>
<!-- Generator: Adobe Illustrator 16.0.0, SVG Export Plug-In . SVG Version: 6.00 Build 0)  -->
<!DOCTYPE svg PUBLIC "-//W3C//DTD SVG 1.1//EN" "http://www.w3.org/Graphics/SVG/1.1/DTD/svg11.dtd">
<svg version="1.1" id="Layer_1" xmlns="http://www.w3.org/2000/svg" xmlns:xlink="http://www.w3.org/1999/xlink" x="0px" y="0px"
	 width="260px" height="92px" viewBox="0 0 260 92" enable-background="new 0 0 260 92" xml:space="preserve">
<path fill="#FFFFFF" d="M45.74,43.826c-2.353,0.779-4.937,1.156-7.301,0.445c-1.77-0.532-4.132-1.891-5.338-5.339
	c-1.433-4.095,0.23-8.391,4.046-10.445c3.921-2.116,8.549-1.121,11.25,2.418c0.414,0.542,0.791,1.102,1.148,1.669
	c-1.96,1.808-4.486,2.953-5.511,3.371c-0.244-0.383-0.5-0.758-0.774-1.12c-0.928-1.215-2.603-1.247-3.678-0.185
	c-0.458,0.453-0.595,1.117-0.509,1.741c0.099,0.715,0.545,1.406,1.239,1.668c0.218,0.083,0.46,0.125,0.739,0.141
	c1.061,0.062,2.163-0.272,3.17-0.664c0.728-0.271,4.154-1.637,6.67-4.108c4.584-4.251,6.685-10.603,5.64-17.351
	C55.578,9.916,49.757,5.663,43.556,6.59c-7.69,1.149-14.448,8.917-18.208,15.804c-0.598,1.097-1.17,2.198-1.73,3.3
	c-1.544-2.248-3.344-4.431-4.356-5.62c0.139-0.259,0.273-0.519,0.415-0.777c2.186-4.004,10.299-17.212,22.925-19.099
	c9.702-1.455,18.822,5.225,20.316,14.881c1.51,9.75-2.018,18.944-9.435,24.607C49.803,42.442,45.781,43.812,45.74,43.826
	L45.74,43.826z M78.383,59.549c0.664-2.125,1.102-4.147,1.457-5.786c0.032-0.147,2.696-14.945-2.068-18.187
	c-1.389-0.945-3.16-0.923-4.625,0.056c-4.177,2.792-6.646,11.061-5.505,18.432c0.325,2.098,0.996,4.2,1.997,6.117
	c3.931-7.593,3.427-17.087,3.421-17.192c-0.024-0.424,0.299-0.788,0.723-0.813c0.424-0.022,0.789,0.299,0.813,0.723
	c0.027,0.461,0.678,10.576-3.942,18.654c0.003,0.005-0.102,0.192-0.099,0.197c-1.44,2.715-3.478,4.716-6.637,5.423
	c-1.938,0.433-2.977-0.062-3.59-0.472c-3.19-2.133-4.406-9.132-4.863-11.766c-0.244-1.405-0.452-2.849-0.672-4.378
	c-0.408-2.838-0.843-5.842-1.565-8.805c-2.355,1.578-4.634,2.606-5.924,3.126c0.447,2.164,0.775,4.394,1.092,6.6
	c0.217,1.507,0.441,3.064,0.701,4.563c1,5.755,2.771,12.778,7.64,16.034c2.475,1.655,5.366,2.127,8.594,1.405
	c4.204-0.941,7.135-3.234,9.227-6.039C76.73,64.153,77.98,60.745,78.383,59.549z M18.48,21.538
	c-0.001,0.001-0.002,0.003-0.003,0.005C13.585,15.891,7.957,10.828,2.553,9.94l2.803,5.494L0,18.955
	c4.367,0.533,10.138,3.175,14.348,7.713c0.008,0.008,0.016,0.016,0.023,0.024c0.092,0.099,0.185,0.196,0.275,0.297
	c0.186,0.206,0.413,0.469,0.673,0.789c0.025,0.031,0.052,0.06,0.078,0.091c-0.001,0.001-0.001,0.002-0.002,0.004
	c1.271,1.582,3.229,4.449,4.636,8.512c3.64,9.899,3.477,21.912,2.229,29.923l-0.153,1.004c-0.58,3.835-2.345,15.507-6.074,17.875
	c-0.384,0.243-0.855,0.435-1.714,0.18c-1.289-0.384-2.647-5.959-2.394-11.92c0.413-9.758,1.679-18.793,3.872-27.621
	c0.69-2.778,1.642-5.761,2.809-8.851c-1.16-3.375-2.741-5.907-3.921-7.492c-2.253,5.171-4.026,10.22-5.16,14.785
	c-2.298,9.254-3.625,18.709-4.056,28.906c-0.161,3.776-0.128,16.262,7.007,18.386c0.873,0.26,1.74,0.389,2.589,0.389
	c1.563,0,3.064-0.438,4.432-1.306c5.463-3.468,7.554-12.799,9-22.366l0.149-0.975c1.939-12.439,1.171-27.502-4.987-38.688
	C22.21,26.12,19.877,23.205,18.48,21.538z M105.923,7.106c-0.864-1.105-2.016-1.769-3.334-1.919
	c-4.188-0.479-6.559,3.566-7.483,5.55c-3.103,6.651-5.284,14.988-6.163,21.787c-0.844,6.536-1.276,14.986,0.615,21.617
	c1.314-2.004,3.147-5.667,5.126-12.244c0.05-2.613,0.271-5.473,0.668-8.546c0.795-6.146,2.747-13.216,5.572-19.273
	c0.157-0.34,0.307-0.645,0.448-0.919c0.129,2.027-0.003,5.426-0.34,7.984c-0.644,4.87-2.151,11.812-3.751,17.274
	c-0.087,0.296-0.178,0.612-0.268,0.921c-3.114,11.494-6.042,15.908-7.637,17.566c-2.195,2.459-4.931,3.856-8.462,3.618
	c-0.396-0.027-0.767-0.087-1.12-0.167c-0.358,1.062-1.173,3.263-2.575,5.975c1.011,0.331,2.09,0.561,3.259,0.64
	c5.641,0.354,9.832-1.712,13.015-4.988c2.057-2.246,3.516-4.641,4.136-5.74c0,0-0.002-0.001-0.002-0.003
	c2.61-4.769,4.189-10.243,5.413-14.484c0.152-0.524,0.298-1.032,0.442-1.523c1.683-5.749,3.273-13.08,3.956-18.244
	C107.877,18.659,108.61,10.545,105.923,7.106z M120.656,49.583c1.385-0.246,2.846-0.687,4.378-1.313
	c0.679-0.295,3.832-1.725,6.526-3.973c5.872-5.083,8.831-12.608,10.633-18.329c0.797-2.524,1.89-7.369,2.409-12.043
	c0.747-6.708,0.117-10.326-2.104-12.098c-0.755-0.602-2.818-1.82-5.686-0.143c-8.644,5.06-11.674,30.002-11.705,30.253
	c-0.2,1.698-0.426,4.388-0.382,7.503c1.943-1.302,4.971-4.002,7.122-9.054c1.076-6.846,3.67-17.152,6.596-21.436
	c0.014,3.781-1.006,10.605-2.414,15.075c-1.383,4.39-2.923,7.919-4.705,10.709c0-0.008,0.002-0.017,0.002-0.026
	c-2.324,3.677-4.96,5.615-6.549,6.529v0c-0.004,0.002-0.007,0.003-0.009,0.005c-0.435,0.25-0.793,0.425-1.041,0.536
	c-0.073,0.035-0.142,0.078-0.216,0.111c-0.8,0.368-1.705,0.723-2.632,0.997C120.923,44.083,120.952,46.618,120.656,49.583z
	 M119.509,44.417c0.056-2.137-0.098-4.152-0.479-6.137c-1.229-6.387-3.622-9.4-7.107-8.946c-3.475,0.449-5.287,4.638-5.032,8.43
	c0.316,4.676,1.809,8.291,4.337,10.586c1.296-7.412-0.553-11.914-0.575-11.962c-0.166-0.391,0.016-0.842,0.407-1.009
	c0.393-0.165,0.843,0.017,1.01,0.406c0.096,0.225,2.223,5.401,0.476,13.86c-0.456,2.552-1.314,4.866-3.008,6.519
	c-1.631,1.593-4.582,2.359-7.531,1.962c-1.178-0.161-2.249-0.505-3.12-0.978c-0.636,1.115-1.926,3.203-3.742,5.298
	c1.689,1.051,3.723,1.774,5.987,2.083c4.923,0.667,9.867-0.762,12.919-3.74c2.645-2.582,3.986-5.845,4.692-9.221
	C119.303,48.514,119.463,45.75,119.509,44.417z M196.813,40.36c-0.001,0-0.002,0-0.003,0c0.125-1.827,0.093-3.563-0.084-5.116
	c-1.038-9.178-5.62-12.438-9.283-13.557c-2.998-0.913-6.363-0.203-8.575,1.812c-2.049,1.866-2.888,4.573-2.3,7.427
	c1.259,6.109,6.259,10.819,11.547,13.455c0.754-2.865,0.83-5.381,0.761-6.977c-3.123-2.064-5.386-4.908-5.978-7.783
	c-0.162-0.785,0.087-1.131,0.322-1.345c0.373-0.34,0.945-0.526,1.536-0.526c0.268,0,0.541,0.038,0.8,0.117
	c0.95,0.291,3.779,1.156,4.667,7.458c0,0.001,0.001,0.002,0.001,0.004c0.041,0.221,0.961,5.467-1.307,11.63l-0.001,0.002
	c-0.89,2.579-2.175,5.001-3.896,6.839c-2.178,2.325-4.682,3.386-7.679,3.249c-3.211-0.149-5.405-1.396-6.903-3.925
	c-1.413-2.388-1.951-5.47-2.046-8.397c-2.622,2.006-4.95,2.922-6.187,3.305c0.387,2.972,1.208,5.911,2.672,8.385
	c2.598,4.388,6.804,6.839,12.165,7.088c4.852,0.228,9.247-1.604,12.696-5.289c2.95-3.15,4.888-7.25,5.991-11.393
	C196.489,43.906,196.736,41.516,196.813,40.36z M208.324,42.83c5.988-5.932,7.135-11.703,6.17-15.189
	c-0.611-2.207-2.116-3.776-4.029-4.197c-1.298-0.285-2.608,0.081-3.689,1.036c-2.265,1.999-3.793,7.268-4.505,13.216
	c4.459-2.762,5.7-8.67,5.715-8.737c0.082-0.416,0.483-0.684,0.904-0.603c0.416,0.083,0.687,0.488,0.604,0.904
	c-0.064,0.321-1.558,7.498-7.42,10.299c0,0.002,0,0.004,0,0.006c-1.038,0.547-2.307,0.836-3.72,0.864
	c-0.075,1.168-0.312,3.518-1.045,6.436c1.462,0.061,2.865-0.058,4.189-0.335C202.952,46.152,205.779,45.17,208.324,42.83z
	 M255.051,46.375c-8.193,14.679-13.038,15.354-14.456,15.154c-4.355-0.628-8.9-10.836-11.311-25.403
	c-0.484-2.92-1.383-8.357-5.531-8.573c-4.306-0.229-6.75,4.622-11.957,23.567c-0.812,2.955-1.522,4.835-2.068,6.02
	c-0.447-1.453-0.941-3.742-1.253-7.109c-0.161-1.748-0.218-3.474-0.203-5.147c-2.478,1.922-4.983,2.782-6.397,3.142
	c0.037,0.885,0.089,1.758,0.166,2.599c0.876,9.49,3.186,14.271,7.059,14.613c0.146,0.013,0.292,0.019,0.435,0.019
	c4.464,0,6.797-6.252,8.494-12.424c2.223-8.089,3.794-12.829,4.891-15.595c2.193,13.228,6.88,29.264,16.755,30.688
	c6.557,0.947,13.106-4.55,20.327-17.159v-5.492L255.051,46.375z M155.804,47.188c0.534-3.477,0.559-7.131,0.559-7.17h0.007
	c-0.034-1.826-0.212-3.811-0.628-5.463c-0.032-0.125-0.069-0.285-0.113-0.471c-0.678-2.879-2.488-10.525-8.06-9.302
	c-1.808,0.396-3.251,1.582-4.066,3.338c-1.875,4.037-0.048,10.058,1.073,12.186c0.913,1.731,2.121,3.152,3.569,4.247
	c1.053-7.291-1.36-13.128-1.388-13.194c-0.166-0.391,0.018-0.843,0.408-1.009c0.392-0.165,0.842,0.017,1.008,0.407
	c0.139,0.328,3.367,8.105,0.804,17.301c-0.002,0.008-0.005,0.017-0.007,0.025c-0.005,0.02-0.01,0.039-0.015,0.059
	c-0.002,0.009-0.008,0.015-0.012,0.023c-0.686,2.373-1.736,4.2-3.222,5.652c-1.466,1.432-3.833,2.072-6.333,1.716
	c-2.397-0.343-4.511-1.567-5.387-3.12c-0.966-1.716-1.692-3.887-2.169-6.361c-2.35,1.808-4.802,3.006-5.842,3.478
	c0.552,2.109,1.319,4.171,2.382,6.056c1.881,3.338,5.659,5.71,10.104,6.344c4.544,0.648,8.829-0.624,11.763-3.491
	c3.418-3.339,4.891-7.526,5.564-11.252C155.803,47.188,155.804,47.188,155.804,47.188z M168.651,42.521
	c1.549-1.415,3.015-3.126,4.343-5.124c1.3-1.954,1.922-5.414,1.389-7.715c-0.4-1.728-1.361-2.602-2.096-3.031
	c-0.977-0.569-2.121-0.699-3.219-0.363c-2.171,0.666-3.662,2.978-5.231,6.245l-0.103,0.214c-0.512,1.044-1.017,2.854-1.364,5.074
	c4.307-2.272,5.895-6.763,5.913-6.817c0.138-0.402,0.575-0.617,0.977-0.479c0.402,0.137,0.617,0.575,0.479,0.977
	c-0.1,0.293-2.482,7.033-9.476,8.757c-0.309,0.1-0.616,0.188-0.92,0.242c-0.466,0.084-0.953,0.154-1.453,0.198
	c-0.03,1.204-0.139,3.843-0.532,6.494c1.012-0.032,2.056-0.137,3.137-0.333c0.377-0.069,0.754-0.16,1.13-0.264
	C162.84,46.23,165.646,45.16,168.651,42.521z"/>
</svg>
