<?xml version="1.0" encoding="utf-8"?>
<!-- Generator: Adobe Illustrator 16.0.0, SVG Export Plug-In . SVG Version: 6.00 Build 0)  -->
<!DOCTYPE svg PUBLIC "-//W3C//DTD SVG 1.1//EN" "http://www.w3.org/Graphics/SVG/1.1/DTD/svg11.dtd">
<svg version="1.1" id="Layer_1" xmlns="http://www.w3.org/2000/svg" xmlns:xlink="http://www.w3.org/1999/xlink" x="0px" y="0px"
	 width="150px" height="160px" viewBox="0 0 150 160" enable-background="new 0 0 150 160" xml:space="preserve">
<g>
	<g>
		<path fill="#FFFFFF" d="M75.02,160c-0.015,0-0.015,0-0.022,0c-0.008,0-0.008,0-0.008,0H75.02z"/>
		<path fill="#FFFFFF" d="M24.121,108.969c15.43,25.489,41.108,51.055,50.876,51.031c9.884,0.023,36.054-26.138,51.409-51.913
			c6.708-11.26,13.369-27.532,17.886-43.102C42.679,69.084,26.572,98.056,24.121,108.969z"/>
		<polygon fill="#FFFFFF" points="92.901,37.815 96.666,37.815 96.691,29.449 96.628,29.449 		"/>
		<path fill="#FFFFFF" d="M147.621,21.671C138.379,8.233,97.797-0.615,75.005,0.033h-0.016c-22.785-0.648-63.371,8.2-72.605,21.638
			c-5.24,7.619-1.245,30.388,6.173,52.381C30.718,54.516,131.42,58.247,145.961,58.895
			C150.209,42.359,151.646,27.535,147.621,21.671z M34.985,35.938c-1.426,6.699-6.699,10.86-13.554,10.86H10.434l4.747-22.218
			h10.472C34.573,24.581,36.396,29.351,34.985,35.938z M45.335,47.379c-6.733,0-10.021-2.675-8.882-8.034l3.159-14.765h8.825
			l-3.072,14.402c-0.375,1.756,0.318,2.426,1.245,2.426c0.931,0,1.903-0.67,2.277-2.426l3.068-14.402h8.833l-3.147,14.765
			C56.498,44.704,52.073,47.379,45.335,47.379z M69.546,47.379c-7.804,0-10.418-4.741-8.917-11.78C61.894,28.68,67.03,24,74.565,24
			c5.626,0,9.89,2.276,8.534,8.795h-8.095c0.416-2.518-0.406-3.015-1.487-3.015c-2.281,0-3.003,2.336-3.757,5.909
			c-0.73,3.385-1.082,5.902,1.147,5.902c1.135,0,2.054-0.671,2.677-3.007h8.278C80.559,44.704,75.081,47.379,69.546,47.379z
			 M96.911,46.799l-0.103-3.573h-6.396l-1.653,3.573h-8.463l11.87-22.218h11.459l2.429,22.218H96.911z M118.19,46.799h-8.833
			l3.464-16.249h-5.492l1.268-5.969h19.834l-1.274,5.969h-5.497L118.19,46.799z M134.188,46.799h-8.837l4.739-22.218h8.833
			L134.188,46.799z"/>
		<path fill="#FFFFFF" d="M23.61,29.63h-0.863L20.16,41.749h0.866c1.422,0,2.364-0.521,3.11-1.417
			c0.786-0.92,1.308-2.487,1.77-4.643c0.461-2.155,0.605-3.723,0.219-4.642C25.755,30.15,25.04,29.63,23.61,29.63z"/>
	</g>
</g>
</svg>
