<?xml version="1.0" encoding="utf-8"?>
<!-- Generator: Adobe Illustrator 16.0.0, SVG Export Plug-In . SVG Version: 6.00 Build 0)  -->
<!DOCTYPE svg PUBLIC "-//W3C//DTD SVG 1.1//EN" "http://www.w3.org/Graphics/SVG/1.1/DTD/svg11.dtd">
<svg version="1.1" id="Layer_1" xmlns="http://www.w3.org/2000/svg" xmlns:xlink="http://www.w3.org/1999/xlink" x="0px" y="0px"
	 width="260px" height="69px" viewBox="0 0 260 69" enable-background="new 0 0 260 69" xml:space="preserve">
<g>
	<path fill="#FFFFFF" d="M25.2,54.078c3.898,0,7.59-0.885,10.886-2.467c-0.38-2.254-1.431-4.419-3.172-6.159
		c-4.457-4.454-11.683-4.454-16.139,0c-1.656,1.654-2.693,3.691-3.118,5.825C17.115,53.062,21.038,54.078,25.2,54.078z"/>
	<path fill="#FFFFFF" d="M7.729,34.869c-2.388,0-4.602,0.735-6.434,1.989c2.488,7.463,8.374,13.369,15.826,15.89
		c1.271-1.839,2.02-4.067,2.02-6.471C19.14,39.977,14.031,34.869,7.729,34.869z"/>
	<path fill="#FFFFFF" d="M1.228,21.122c1.895,1.399,4.229,2.236,6.766,2.236c6.303,0,11.413-5.107,11.413-11.407
		c0-2.596-0.878-4.982-2.34-6.898C9.574,7.605,3.672,13.583,1.228,21.122z"/>
	<polygon fill="#FFFFFF" points="63.869,11.219 58.032,54.415 67.348,54.415 73.747,11.107 	"/>
	<path fill="#FFFFFF" d="M76.44,54.19"/>
	<path fill-rule="evenodd" clip-rule="evenodd" fill="#FFFFFF" d="M92.042,0L71.277,37.922c0,0-1.571,2.244-0.224,4.6
		s5.556,11.893,5.556,11.893h10.944L79.92,43.251c0,0-0.841-1.01-0.112-2.076c0.73-1.065,20.934-37.865,20.934-37.865L92.042,0z"/>
	<path fill="#FFFFFF" d="M243.296,44.709c0,0,19.138-3.029,16.444-14.81c-2.693-11.78-18.297-3.029-18.297-3.029
		s-10.214-8.134-17.51,5.104c0,0,0.393-6.451-1.908-7.125l-8.138,1.795c0,0,1.347,13.576-1.628,21.934c0,0-5.612,2.412-5.837-3.871
		l2.975-19.353l-9.653,0.056l-2.021,16.156c0,0-2.133,5.385-6.397,5.385c0,0-2.526,0.337-2.189-2.973
		c0.336-3.31,2.413-18.456,2.413-18.456l-9.429-0.28l-2.918,22.271c0,0-8.644,3.814-11.618-2.581l1.179-12.622l7.857-0.281
		l1.01-6.731l-7.24-0.112l0.955-8.583l-4.21-0.056c0,0-5.051,10.378-11.336,10.153c-5.078-0.18-5.577-0.033-5.581,0.031
		c-0.424-0.427-6.593-6.36-14.175,3.111l-0.972-0.037l1.123-8.899l-8.644,1.122l-3.592,24.981c0,0-1.329,2.188-4.696,2.02
		c-3.367-0.168-3.985-0.225-3.929-2.132c0.057-1.907,2.583-20.532,2.583-20.532s-13.47-5.385-22.674,1.739
		c-9.204,7.124-9.765,22.663-2.188,26.814c7.576,4.152,12.627-4.937,12.627-4.937h0.729c0,0,0.449,7.461,10.383,4.488l6.118,0.112
		l-2.246,14.249L129.926,69l1.908-13.913c0,0,21.982,4.75,21.234-22.775h6.716l-2.133,14.249c0,0-0.954,7.798,7.071,8.751
		c0,0,13.863,0.225,16.5-1.234c0,0,8.587,5.049,15.265-4.6h0.843c0,0-0.449,5.441,5.331,5.666c5.781,0.225,18.128-0.28,18.128-0.28
		s-1.739-22.495,14.93-21.822c0,0-7.746,18.457,6.734,22.159c0,0,9.204,1.851,15.827-5.217l-1.516-4.937
		C256.766,45.046,245.934,53.966,243.296,44.709z M106.466,42.578c0,0-0.954,4.151-5.107,4.488
		c-4.153,0.337-4.041-3.871-4.041-3.871c0.898-14.081,10.607-10.827,10.607-10.827L106.466,42.578z M142.554,42.803
		c-1.403,6.788-9.316,4.712-9.316,4.712l1.515-9.93c0,0,2.694-6.002,6.005-4.825C144.069,33.939,143.958,36.015,142.554,42.803z
		 M252.444,32.312c0,6.452-9.204,7.573-9.204,7.573C242.454,33.098,252.444,25.861,252.444,32.312z"/>
	<path fill="#FFFFFF" d="M48.912,37.428c-1.908-1.433-4.272-2.293-6.843-2.293c-6.302,0-11.412,5.108-11.412,11.407
		c0,2.382,0.732,4.592,1.981,6.42C40.201,50.63,46.242,44.834,48.912,37.428z"/>
	<path fill="#FFFFFF" d="M50.399,28.89c0-3.857-0.87-7.508-2.42-10.775c-2.46,0.287-4.846,1.367-6.734,3.253
		c-4.457,4.454-4.457,11.677,0,16.131c1.756,1.756,3.945,2.809,6.224,3.18C49.337,37.162,50.399,33.151,50.399,28.89z"/>
	<path fill="#FFFFFF" d="M33.435,5.085c-1.569,1.955-2.512,4.431-2.512,7.13c0,6.3,5.11,11.407,11.413,11.407
		c2.594,0,4.978-0.875,6.895-2.332C46.83,13.706,40.934,7.679,33.435,5.085z"/>
	<path fill="#FFFFFF" d="M25.2,3.702c-4.063,0-7.898,0.968-11.296,2.675c0.3,2.436,1.375,4.793,3.245,6.665
		c4.457,4.454,11.683,4.454,16.139,0c1.866-1.866,2.939-4.217,3.243-6.646C33.124,4.677,29.276,3.702,25.2,3.702z"/>
	<path fill="#FFFFFF" d="M2.567,17.809C0.925,21.154,0,24.914,0,28.89c0,4.102,0.987,7.973,2.728,11.395
		c2.23-0.391,4.367-1.439,6.089-3.161c4.457-4.454,4.458-11.676,0.001-16.131C7.055,19.23,4.855,18.176,2.567,17.809z"/>
</g>
</svg>
