<?xml version="1.0" encoding="utf-8"?>
<!-- Generator: Adobe Illustrator 16.0.0, SVG Export Plug-In . SVG Version: 6.00 Build 0)  -->
<!DOCTYPE svg PUBLIC "-//W3C//DTD SVG 1.1//EN" "http://www.w3.org/Graphics/SVG/1.1/DTD/svg11.dtd">
<svg version="1.1" id="Layer_1" xmlns="http://www.w3.org/2000/svg" xmlns:xlink="http://www.w3.org/1999/xlink" x="0px" y="0px"
	 width="145px" height="160px" viewBox="0 0 145 160" enable-background="new 0 0 145 160" xml:space="preserve">
<g>
	<g>
		<g>
			<polygon opacity="0.9" fill="#FFFFFF" points="48.085,76.281 48.085,48.03 72.563,62.157 			"/>
			<polygon opacity="0.9" fill="#FFFFFF" points="97.041,48.03 97.041,76.281 72.563,62.157 			"/>
			<polygon opacity="0.8" fill="#FFFFFF" points="72.563,33.906 48.085,48.028 72.563,62.157 97.041,48.03 			"/>
			<polygon fill="#FFFFFF" points="72.563,62.157 48.085,76.281 72.563,90.409 97.041,76.285 			"/>
		</g>
		<g>
			<polygon opacity="0.22" fill="#FFFFFF" points="72.564,16.952 111.732,39.555 126.419,31.079 72.564,0 18.709,31.079 
				33.398,39.555 			"/>
			<polygon opacity="0.13" fill="#FFFFFF" points="111.732,39.555 111.732,39.555 111.732,84.758 111.732,84.758 126.419,93.235 
				126.419,31.079 			"/>
			<polygon opacity="0.09" fill="#FFFFFF" points="111.732,84.758 72.564,107.361 33.397,84.758 33.397,84.758 18.709,93.235 
				72.564,124.313 126.419,93.235 			"/>
			<polygon opacity="0.13" fill="#FFFFFF" points="33.397,39.555 33.397,39.555 18.709,31.079 18.709,93.235 33.397,84.758 			"/>
		</g>
		<g>
			<polygon opacity="0.5" fill="#FFFFFF" points="72.564,33.904 97.045,48.03 111.732,39.553 72.564,16.952 33.397,39.553 
				48.085,48.03 			"/>
			<polygon opacity="0.3" fill="#FFFFFF" points="97.045,48.03 97.045,48.03 97.045,76.282 97.045,76.282 111.732,84.758 
				111.732,39.553 			"/>
			<polygon opacity="0.2" fill="#FFFFFF" points="97.045,76.282 97.045,76.282 72.564,90.409 48.085,76.282 48.085,76.282 
				33.397,84.758 72.564,107.361 111.732,84.758 			"/>
			<polygon opacity="0.3" fill="#FFFFFF" points="48.085,48.03 48.085,48.03 33.397,39.553 33.397,84.758 48.085,76.282 			"/>
		</g>
	</g>
	<g>
		<g>
			<path fill="#FFFFFF" d="M7.075,144.643c-0.027-0.752-0.415-1.528-1.736-1.528c-1.141,0-1.685,0.726-1.685,1.425
				c0.026,0.905,1.062,1.398,2.41,1.785c2.281,0.622,4.742,1.295,4.769,4.352c0.051,2.928-2.41,4.793-5.39,4.793
				c-2.204,0-5.183-1.14-5.442-4.584h3.395c0.129,1.526,1.451,1.837,2.099,1.837c1.062,0,1.97-0.697,1.943-1.655
				c0-1.219-1.062-1.555-3.679-2.462c-1.917-0.596-3.473-1.658-3.499-3.704c0-2.796,2.358-4.532,5.105-4.532
				c1.917,0,4.769,0.854,5.053,4.274H7.075z"/>
			<path fill="#FFFFFF" d="M25.834,155.027h-3.187v-1.891c-0.596,1.113-1.866,2.356-4.432,2.332
				c-4.665-0.025-5.546-3.575-5.546-6.062v-8.599h3.396v7.743c0,2.1,0.7,3.757,3.109,3.731c2.437,0,3.266-1.607,3.266-3.627v-7.848
				h3.395V155.027z"/>
			<path fill="#FFFFFF" d="M28.554,140.809h3.188c0,0.622,0,1.217-0.026,1.891c0.622-1.114,1.892-2.357,4.431-2.331
				c4.639,0.026,5.52,3.574,5.52,6.087v8.572h-3.395v-7.718c0-2.124-0.7-3.756-3.084-3.756c-2.41,0.027-3.239,1.632-3.239,3.626
				v7.848h-3.395V140.809z"/>
			<path fill="#FFFFFF" d="M44.333,140.809h3.188c0,0.622,0,1.217-0.026,1.891c0.622-1.114,1.892-2.357,4.431-2.331
				c4.639,0.026,5.52,3.574,5.52,6.087v8.572h-3.394v-7.718c0-2.124-0.7-3.756-3.084-3.756c-2.41,0.027-3.239,1.632-3.239,3.626
				v7.848h-3.396V140.809z"/>
			<path fill="#FFFFFF" d="M63.093,154.484l-5.363-13.676h3.627l3.472,9.454l3.42-9.454h3.628L64.39,160h-3.628L63.093,154.484z"/>
			<path fill="#FFFFFF" d="M87.088,149.848c-0.803,3.16-3.627,5.621-7.307,5.621c-4.509,0-7.618-3.497-7.618-7.563
				c0-4.195,3.238-7.537,7.488-7.537c3.575,0,6.608,2.255,7.437,5.725h-3.473c-0.596-1.503-1.97-2.564-3.834-2.564
				c-1.244-0.026-2.204,0.414-3.033,1.217c-0.725,0.777-1.167,1.918-1.167,3.16c0,2.564,1.789,4.378,4.199,4.378
				c2.124,0,3.316-1.27,3.834-2.436H87.088z"/>
			<path fill="#FFFFFF" d="M88.227,147.879c0-3.625,2.669-7.484,7.618-7.484c4.951,0,7.619,3.859,7.619,7.511
				c0,3.679-2.668,7.538-7.619,7.538c-4.949,0-7.618-3.859-7.618-7.538V147.879z M91.622,147.932c0,2.487,1.892,4.324,4.223,4.324
				c2.332,0,4.198-1.837,4.198-4.351c0-2.512-1.866-4.352-4.198-4.352c-2.331,0-4.223,1.84-4.223,4.352V147.932z"/>
			<path fill="#FFFFFF" d="M105.431,140.809h3.189v1.788c0.311-0.649,1.685-2.229,4.146-2.229c1.166,0,2.461,0.338,3.499,1.45
				c0.311,0.338,0.673,0.934,0.854,1.296c0.261-0.44,0.571-0.906,1.038-1.348c0.879-0.829,2.125-1.398,3.628-1.398
				c1.191,0,2.694,0.312,3.782,1.424c1.295,1.349,1.556,2.514,1.556,5.439v7.796h-3.396v-7.666c0-0.906-0.076-1.892-0.569-2.643
				c-0.364-0.697-1.036-1.165-2.229-1.165s-2.022,0.519-2.463,1.297c-0.44,0.775-0.491,1.527-0.491,2.381v7.796h-3.395v-7.796
				c0-0.828-0.079-1.631-0.44-2.356c-0.415-0.75-1.115-1.294-2.334-1.321c-1.243,0-2.02,0.597-2.435,1.321
				c-0.414,0.751-0.545,1.632-0.545,2.46v7.692h-3.396V140.809z"/>
			<path fill="#FFFFFF" d="M129.763,135.863h3.396v4.997v1.71c1.398-1.736,3.446-2.202,4.74-2.202c3.369,0,7.102,2.462,7.102,7.485
				c0,4.817-3.37,7.615-7.257,7.615c-2.228,0-3.964-1.089-4.715-2.487v2.046h-3.266V135.863z M141.604,147.879
				c0-2.33-1.788-4.351-4.275-4.351c-2.641,0-4.301,2.072-4.301,4.377c0,2.383,1.66,4.403,4.224,4.403
				c2.771,0,4.353-2.201,4.353-4.403V147.879z"/>
		</g>
	</g>
</g>
</svg>
