<?xml version="1.0" encoding="utf-8"?>
<!-- Generator: Adobe Illustrator 16.0.0, SVG Export Plug-In . SVG Version: 6.00 Build 0)  -->
<!DOCTYPE svg PUBLIC "-//W3C//DTD SVG 1.1//EN" "http://www.w3.org/Graphics/SVG/1.1/DTD/svg11.dtd">
<svg version="1.1" id="Layer_1" xmlns="http://www.w3.org/2000/svg" xmlns:xlink="http://www.w3.org/1999/xlink" x="0px" y="0px"
	 width="150px" height="150px" viewBox="0 0 150 150" enable-background="new 0 0 150 150" xml:space="preserve">
<g>
	
		<line fill="none" stroke="#54BAD7" stroke-width="8" stroke-linecap="round" stroke-miterlimit="10" x1="11.76" y1="52.76" x2="74.47" y2="52.76"/>
	<path fill="none" stroke="#54BAD7" stroke-width="8" stroke-linecap="round" stroke-miterlimit="10" d="M89.76,37.71
		c0-8.32-6.74-15.06-15.06-15.06c-8.32,0-15.06,6.74-15.06,15.06c0,8.31,6.74,15.06,15.06,15.06
		C83.02,52.76,89.76,46.02,89.76,37.71z"/>
	
		<line fill="none" stroke="#54BAD7" stroke-width="8" stroke-linecap="round" stroke-miterlimit="10" x1="11.76" y1="75" x2="122.95" y2="75"/>
	<path fill="none" stroke="#54BAD7" stroke-width="8" stroke-linecap="round" stroke-miterlimit="10" d="M138.24,59.94
		c0-8.31-6.74-15.06-15.06-15.06c-8.32,0-15.06,6.74-15.06,15.06c0,8.32,6.74,15.06,15.06,15.06
		C131.49,75,138.24,68.26,138.24,59.94z"/>
	
		<line fill="none" stroke="#54BAD7" stroke-width="8" stroke-linecap="round" stroke-miterlimit="10" x1="11.76" y1="97.24" x2="64.18" y2="97.24"/>
	
		<circle fill="none" stroke="#54BAD7" stroke-width="8" stroke-linecap="round" stroke-miterlimit="10" cx="64.18" cy="112.29" r="15.06"/>
</g>
</svg>
