<?xml version="1.0" encoding="utf-8"?>
<!-- Generator: Adobe Illustrator 16.0.0, SVG Export Plug-In . SVG Version: 6.00 Build 0)  -->
<!DOCTYPE svg PUBLIC "-//W3C//DTD SVG 1.1//EN" "http://www.w3.org/Graphics/SVG/1.1/DTD/svg11.dtd">
<svg version="1.1" id="Layer_1" xmlns="http://www.w3.org/2000/svg" xmlns:xlink="http://www.w3.org/1999/xlink" x="0px" y="0px"
	 width="150px" height="150px" viewBox="0 0 150 150" enable-background="new 0 0 150 150" xml:space="preserve">
<g>
	<g>
		
			<line fill="none" stroke="#54BAD7" stroke-width="12" stroke-linecap="round" stroke-miterlimit="10" x1="130" y1="63.4" x2="130" y2="63.4"/>
		
			<line fill="none" stroke="#54BAD7" stroke-width="12" stroke-linecap="round" stroke-miterlimit="10" x1="110" y1="63.4" x2="110" y2="63.4"/>
		
			<line fill="none" stroke="#54BAD7" stroke-width="12" stroke-linecap="round" stroke-miterlimit="10" x1="90" y1="63.4" x2="90" y2="63.4"/>
		
			<line fill="none" stroke="#54BAD7" stroke-width="12" stroke-linecap="round" stroke-miterlimit="10" x1="70" y1="63.4" x2="70" y2="63.4"/>
		
			<line fill="none" stroke="#54BAD7" stroke-width="12" stroke-linecap="round" stroke-miterlimit="10" x1="50" y1="63.4" x2="50" y2="63.4"/>
		
			<line fill="none" stroke="#54BAD7" stroke-width="12" stroke-linecap="round" stroke-miterlimit="10" x1="30" y1="63.4" x2="30" y2="63.4"/>
	</g>
	<g>
		
			<line fill="none" stroke="#54BAD7" stroke-width="12" stroke-linecap="round" stroke-miterlimit="10" x1="100" y1="86.6" x2="100" y2="86.6"/>
		
			<line fill="none" stroke="#54BAD7" stroke-width="12" stroke-linecap="round" stroke-miterlimit="10" x1="80" y1="86.6" x2="80" y2="86.6"/>
		
			<line fill="none" stroke="#54BAD7" stroke-width="12" stroke-linecap="round" stroke-miterlimit="10" x1="60" y1="86.6" x2="60" y2="86.6"/>
		
			<line fill="none" stroke="#54BAD7" stroke-width="12" stroke-linecap="round" stroke-miterlimit="10" x1="40" y1="86.6" x2="40" y2="86.6"/>
		
			<line fill="none" stroke="#54BAD7" stroke-width="12" stroke-linecap="round" stroke-miterlimit="10" x1="20" y1="86.6" x2="20" y2="86.6"/>
	</g>
	<g>
		
			<line fill="none" stroke="#54BAD7" stroke-width="12" stroke-linecap="round" stroke-miterlimit="10" x1="100" y1="40.2" x2="100" y2="40.2"/>
		
			<line fill="none" stroke="#54BAD7" stroke-width="12" stroke-linecap="round" stroke-miterlimit="10" x1="80" y1="40.2" x2="80" y2="40.2"/>
		
			<line fill="none" stroke="#54BAD7" stroke-width="12" stroke-linecap="round" stroke-miterlimit="10" x1="60" y1="40.2" x2="60" y2="40.2"/>
		
			<line fill="none" stroke="#54BAD7" stroke-width="12" stroke-linecap="round" stroke-miterlimit="10" x1="40" y1="40.2" x2="40" y2="40.2"/>
		
			<line fill="none" stroke="#54BAD7" stroke-width="12" stroke-linecap="round" stroke-miterlimit="10" x1="20" y1="40.2" x2="20" y2="40.2"/>
	</g>
	
		<line fill="none" stroke="#54BAD7" stroke-width="12" stroke-linecap="round" stroke-miterlimit="10" x1="80" y1="133" x2="80" y2="133"/>
	
		<line fill="none" stroke="#54BAD7" stroke-width="12" stroke-linecap="round" stroke-miterlimit="10" x1="60" y1="133" x2="60" y2="133"/>
	<g>
		
			<line fill="none" stroke="#54BAD7" stroke-width="12" stroke-linecap="round" stroke-miterlimit="10" x1="110" y1="109.8" x2="110" y2="109.8"/>
		
			<line fill="none" stroke="#54BAD7" stroke-width="12" stroke-linecap="round" stroke-miterlimit="10" x1="90" y1="109.8" x2="90" y2="109.8"/>
		
			<line fill="none" stroke="#54BAD7" stroke-width="12" stroke-linecap="round" stroke-miterlimit="10" x1="70" y1="109.8" x2="70" y2="109.8"/>
		
			<line fill="none" stroke="#54BAD7" stroke-width="12" stroke-linecap="round" stroke-miterlimit="10" x1="50" y1="109.8" x2="50" y2="109.8"/>
		<path fill="none" stroke="#54BAD7" stroke-width="12" stroke-linecap="round" stroke-miterlimit="10" d="M30,109.8"/>
	</g>
	<g>
		
			<line fill="none" stroke="#54BAD7" stroke-width="12" stroke-linecap="round" stroke-miterlimit="10" x1="90" y1="17" x2="90" y2="17"/>
		
			<line fill="none" stroke="#54BAD7" stroke-width="12" stroke-linecap="round" stroke-miterlimit="10" x1="70" y1="17" x2="70" y2="17"/>
		
			<line fill="none" stroke="#54BAD7" stroke-width="12" stroke-linecap="round" stroke-miterlimit="10" x1="50" y1="17" x2="50" y2="17"/>
	</g>
	
		<line fill="none" stroke="#54BAD7" stroke-width="12" stroke-linecap="round" stroke-miterlimit="10" x1="40" y1="133" x2="40" y2="133"/>
</g>
</svg>
