<?xml version="1.0" encoding="utf-8"?>
<!-- Generator: Adobe Illustrator 16.0.0, SVG Export Plug-In . SVG Version: 6.00 Build 0)  -->
<!DOCTYPE svg PUBLIC "-//W3C//DTD SVG 1.1//EN" "http://www.w3.org/Graphics/SVG/1.1/DTD/svg11.dtd">
<svg version="1.1" id="Layer_1" xmlns="http://www.w3.org/2000/svg" xmlns:xlink="http://www.w3.org/1999/xlink" x="0px" y="0px"
	 width="150px" height="150px" viewBox="0 0 150 150" enable-background="new 0 0 150 150" xml:space="preserve">
<g>
	<path fill="none" stroke="#54BAD7" stroke-width="8" stroke-linecap="round" stroke-miterlimit="10" d="M101.19,110.21
		c0-0.18,0.01-0.36,0.01-0.55c0-14.47-11.73-26.2-26.2-26.2c-14.47,0-26.2,11.73-26.2,26.2c0,0.18,0.01,0.36,0.01,0.55"/>
	<path fill="none" stroke="#54BAD7" stroke-width="8" stroke-linecap="round" stroke-miterlimit="10" d="M123.02,110.21
		c0-0.18,0.01-0.36,0.01-0.55c0-26.53-21.51-48.04-48.04-48.04c-26.53,0-48.04,21.51-48.04,48.04c0,0.18,0.01,0.36,0.01,0.55"/>
	<path fill="none" stroke="#54BAD7" stroke-width="8" stroke-linecap="round" stroke-miterlimit="10" d="M144.86,110.21
		c0-0.18,0.01-0.36,0.01-0.55c0-38.59-31.28-69.87-69.87-69.87c-38.59,0-69.87,31.28-69.87,69.87c0,0.18,0.01,0.36,0.01,0.55"/>
</g>
</svg>
