<?xml version="1.0" encoding="utf-8"?>
<!-- Generator: Adobe Illustrator 16.0.0, SVG Export Plug-In . SVG Version: 6.00 Build 0)  -->
<!DOCTYPE svg PUBLIC "-//W3C//DTD SVG 1.1//EN" "http://www.w3.org/Graphics/SVG/1.1/DTD/svg11.dtd">
<svg version="1.1" id="Layer_1" xmlns="http://www.w3.org/2000/svg" xmlns:xlink="http://www.w3.org/1999/xlink" x="0px" y="0px"
	 width="150px" height="150px" viewBox="0 0 150 150" enable-background="new 0 0 150 150" xml:space="preserve">
<g>
	
		<path fill-rule="evenodd" clip-rule="evenodd" fill="none" stroke="#54BAD7" stroke-width="8" stroke-linecap="round" stroke-linejoin="round" stroke-miterlimit="10" d="
		M104.99,38.08c-4.63-4.64-4.63-12.15,0-16.79l8.39-8.39l8.39,8.39c4.64,4.64,4.64,12.15,0,16.79
		C117.15,42.71,109.63,42.71,104.99,38.08z"/>
	
		<path fill-rule="evenodd" clip-rule="evenodd" fill="none" stroke="#54BAD7" stroke-width="8" stroke-linecap="round" stroke-linejoin="round" stroke-miterlimit="10" d="
		M66.74,70.97c-4.63-4.64-4.63-12.15,0-16.79l8.39-8.39l8.39,8.39c4.64,4.64,4.64,12.15,0,16.79C78.89,75.6,71.37,75.6,66.74,70.97z
		"/>
	
		<path fill-rule="evenodd" clip-rule="evenodd" fill="none" stroke="#54BAD7" stroke-width="8" stroke-linecap="round" stroke-linejoin="round" stroke-miterlimit="10" d="
		M28.48,38.08c-4.63-4.64-4.63-12.15,0-16.79l8.39-8.39l8.39,8.39c4.64,4.64,4.64,12.15,0,16.79
		C40.63,42.71,33.12,42.71,28.48,38.08z"/>
	
		<path fill-rule="evenodd" clip-rule="evenodd" fill="none" stroke="#54BAD7" stroke-width="8" stroke-linecap="round" stroke-linejoin="round" stroke-miterlimit="10" d="
		M104.99,100.74c-4.63-4.64-4.63-12.15,0-16.79l8.39-8.39l8.39,8.39c4.64,4.64,4.64,12.15,0,16.79
		C117.15,105.37,109.63,105.37,104.99,100.74z"/>
	
		<path fill-rule="evenodd" clip-rule="evenodd" fill="none" stroke="#54BAD7" stroke-width="8" stroke-linecap="round" stroke-linejoin="round" stroke-miterlimit="10" d="
		M66.74,133.63c-4.63-4.64-4.63-12.15,0-16.79l8.39-8.39l8.39,8.39c4.64,4.64,4.64,12.15,0,16.79
		C78.89,138.26,71.37,138.26,66.74,133.63z"/>
	
		<path fill-rule="evenodd" clip-rule="evenodd" fill="none" stroke="#54BAD7" stroke-width="8" stroke-linecap="round" stroke-linejoin="round" stroke-miterlimit="10" d="
		M28.48,100.74c-4.63-4.64-4.63-12.15,0-16.79l8.39-8.39l8.39,8.39c4.64,4.64,4.64,12.15,0,16.79
		C40.63,105.37,33.12,105.37,28.48,100.74z"/>
</g>
</svg>
