<?xml version="1.0" encoding="utf-8"?>
<!-- Generator: Adobe Illustrator 16.0.0, SVG Export Plug-In . SVG Version: 6.00 Build 0)  -->
<!DOCTYPE svg PUBLIC "-//W3C//DTD SVG 1.1//EN" "http://www.w3.org/Graphics/SVG/1.1/DTD/svg11.dtd">
<svg version="1.1" id="Layer_1" xmlns="http://www.w3.org/2000/svg" xmlns:xlink="http://www.w3.org/1999/xlink" x="0px" y="0px"
	 width="260px" height="63px" viewBox="0 0 260 63" enable-background="new 0 0 260 63" xml:space="preserve">
<path fill="#FFFFFF" d="M121.32,40.348c-0.194-0.592-0.859-1.04-1.478-0.995l-3.358,0.159c-0.621,0.012-1.129,0.533-1.129,1.153
	v20.514c0,0.621,0.508,1.13,1.129,1.13h10.901c0.623,0,0.972-0.485,0.779-1.075L121.32,40.348z"/>
<g>
	<path fill="#FFFFFF" d="M164.14,0.453c0-0.249-0.204-0.453-0.453-0.453h-7.44c-0.249,0-0.453,0.204-0.453,0.453v61.404
		c0,0.249,0.204,0.453,0.453,0.453h7.44c0.249,0,0.453-0.204,0.453-0.453V0.453z"/>
</g>
<path fill="#FFFFFF" d="M119.215,30.589c5.877,0,8.07-4.801,8.07-12.346c0-7.542-2.192-9.735-8.07-9.735h-3.86v22.081H119.215z"/>
<g>
	<path fill="#FFFFFF" d="M259.606,59.303c0,2.01-1.631,3.603-3.582,3.603c-1.934,0-3.583-1.593-3.583-3.603
		c0-2.009,1.666-3.583,3.583-3.583C257.996,55.719,259.606,57.312,259.606,59.303z M252.866,59.303c0,1.783,1.432,3.184,3.158,3.184
		c1.743,0,3.157-1.419,3.157-3.184c0-1.697-1.377-3.156-3.157-3.156C254.298,56.146,252.866,57.568,252.866,59.303z M254.717,57.352
		h1.363c0.285,0,1.308,0,1.308,0.965c0,0.115,0,0.72-0.718,0.931c0.397,0.095,0.529,0.264,0.586,0.736
		c0.06,0.475,0.095,0.835,0.229,1.215h-0.551c-0.075-0.248-0.112-0.398-0.188-1.007c-0.058-0.586-0.209-0.739-0.834-0.739h-0.663
		v1.746h-0.531V57.352z M255.248,59h0.832c0.27,0,0.759,0,0.759-0.589c0-0.607-0.474-0.607-0.759-0.607h-0.832V59z"/>
</g>
<path fill="#FFFFFF" d="M53.029,61.283c-0.478,0-0.941-0.383-1.031-0.852l-7.237-38.354c-0.088-0.471-0.297-0.854-0.463-0.854
	s-0.369,0.383-0.452,0.856l-6.754,38.35c-0.083,0.471-0.542,0.854-1.02,0.854h-6.56c-0.479,0-0.943-0.383-1.032-0.852L18.059,5.512
	c-0.09-0.47,0.144-1.097,0.519-1.395l1.946-1.541c0.375-0.297,1.065-0.617,1.535-0.709l3.509-0.691
	c0.468-0.093,0.917,0.219,0.996,0.689l6.118,37.08c0.079,0.471,0.278,0.858,0.445,0.858c0.168,0,0.374-0.386,0.455-0.856
	l6.501-36.923c0.083-0.472,0.543-0.858,1.021-0.858h6.393c0.478,0,0.939,0.386,1.025,0.856l6.742,36.924
	c0.085,0.471,0.294,0.856,0.46,0.856c0.168,0,0.366-0.387,0.436-0.86l5.538-36.917c0.07-0.474,0.521-0.86,0.999-0.86h7.468
	c0.477,0,0.801,0.386,0.718,0.858L60.609,60.429c-0.081,0.471-0.541,0.854-1.019,0.854H53.029z"/>
<path fill="#FFFFFF" d="M76.34,61.283c-0.526,0-0.956-0.429-0.956-0.955V2.121c0-0.524,0.43-0.956,0.956-0.956h25.451
	c0.526,0,0.957,0.431,0.957,0.956V8.76c0,0.526-0.431,0.957-0.957,0.957H86.233c-0.526,0-0.957,0.429-0.957,0.956v14.446
	c0,0.525,0.43,0.955,0.957,0.955h11.525c0.526,0,0.957,0.432,0.957,0.956v6.639c0,0.524-0.431,0.956-0.957,0.956H86.233
	c-0.526,0-0.957,0.429-0.957,0.957v16.202c0,0.525,0.43,0.955,0.957,0.955h16.732c0.526,0,0.957,0.432,0.957,0.956v6.637
	c0,0.526-0.431,0.955-0.957,0.955H76.34z"/>
<path fill="#FFFFFF" d="M12.196,28.027"/>
<path fill="#F55119" d="M0,38.536"/>
<path fill="#FFFFFF" d="M25.007,1.271C10.801,3.752,0,16.125,0,31.026c-0.001,15.322,11.409,27.972,26.2,29.95l9.562,0.462"/>
<path fill="#FFFFFF" d="M234.312,0.491c-0.991,0.006-1.239,0.792-1.292,1.298v5.554l-0.012-0.031c0,0,0.004,0.023,0.012,0.051v0.731
	c-0.079,0.369-0.303,0.767-0.888,0.94h-16.319l0,0h-0.008h-0.163c-0.289,0.021-0.854,0.186-0.854,1.131
	c0,0.095-0.006,0.165-0.014,0.225v13.641c0.008,0.058,0.014,0.128,0.014,0.223c0,0.765,0.37,1.015,0.665,1.096h12.451
	c0.366,0.086,0.776,0.326,0.902,0.93v6.961L228.8,33.22c0,0,0.002,0.013,0.006,0.035v0.648c-0.086,0.425-0.4,0.885-1.356,0.885
	c-0.186,0-0.298,0.014-0.366,0.035h-11.631c-0.295,0.081-0.665,0.331-0.665,1.096c0,0.096-0.006,0.166-0.014,0.225v15.923
	c0.008,0.058,0.014,0.128,0.014,0.221c0,0.94,0.555,1.107,0.849,1.132h18.609v7.022c0.181,1.118,1.282,1.091,1.719,1.034
	C249.738,58.255,260,45.912,260,31.157C260.002,15.815,248.908,3.072,234.312,0.491z"/>
<path fill="#FFFFFF" d="M203.926,34.072c-0.002-0.042-0.012-0.025-0.029,0.027v-6.313c-1.29-0.296-2.256-1.448-2.254-2.833
	c-0.002-1.384,0.964-2.535,2.254-2.834v-0.124l0.029,0.051c0,0,0.271-0.012,0.508,0.062c0.818,0.26,0.103-0.811-0.136-1.261
	c-0.297-0.555-0.347-1.494-0.372-1.791c-0.002-0.04-0.012-0.022-0.029,0.029V0h-16.434c-0.171,0.006-1.308,0.066-0.277,0.569
	c0.023,0.013,0.029,0.019,0.05,0.03c6.702,2.22,10.237,8.126,10.237,18.084V43.77c0,9.753-3.386,15.622-9.82,17.947
	c-0.025,0.016-0.037,0.03-0.066,0.047c-0.613,0.361-0.272,0.496,0.021,0.545h16.29V42.85c-1.29-0.297-2.256-1.447-2.256-2.831
	c0-1.384,0.966-2.534,2.256-2.831v-0.181l0.029,0.051c0,0,0.271-0.01,0.508,0.064c0.818,0.258,0.103-0.811-0.136-1.261
	C204.001,35.307,203.951,34.369,203.926,34.072z"/>
<path fill="#FFFFFF" d="M186.596,34.646v-6.812c-0.101,0.01-0.201,0.031-0.306,0.031c-1.605-0.002-2.911-1.302-2.911-2.912
	c0-1.611,1.306-2.915,2.911-2.915c0.103,0,0.205,0.023,0.306,0.031v-0.023c0.09,0,0.28,0.009,0.454,0.062
	c0.817,0.26,0.103-0.811-0.136-1.261c-0.182-0.34-0.271-0.823-0.318-1.219v-2.261c0-6.666-2.018-8.858-7.807-8.858h-2.917
	c-0.501,0.049-0.749,0.27-0.856,0.501v43.999c0.051,0.629,0.373,0.863,0.646,0.937h3.127c5.789,0,7.807-2.193,7.807-8.859v-2.185
	c-0.099,0.01-0.199,0.028-0.301,0.028c-1.609,0-2.915-1.297-2.915-2.911c0-1.611,1.306-2.913,2.911-2.913
	c0.105,0,0.205,0.021,0.306,0.031v-0.078c0.09,0,0.28,0.01,0.454,0.064c0.817,0.258,0.103-0.811-0.136-1.261
	C186.732,35.522,186.644,35.039,186.596,34.646z"/>
<path fill="#FFFFFF" d="M127.896,0.002c-0.224,0.01-1.256,0.081-0.256,0.567c0.011,0.006,0.014,0.011,0.024,0.017
	c6.947,2.069,10.5,7.491,10.5,17.658c0,10.175-3.75,14.821-7.662,17.431l9.922,26.634h4.494V0L127.896,0.002z"/>
</svg>
