<?xml version="1.0" encoding="utf-8"?>
<!-- Generator: Adobe Illustrator 16.0.0, SVG Export Plug-In . SVG Version: 6.00 Build 0)  -->
<!DOCTYPE svg PUBLIC "-//W3C//DTD SVG 1.1//EN" "http://www.w3.org/Graphics/SVG/1.1/DTD/svg11.dtd">
<svg version="1.1" id="Layer_1" xmlns="http://www.w3.org/2000/svg" xmlns:xlink="http://www.w3.org/1999/xlink" x="0px" y="0px"
	 width="200px" height="200px" viewBox="-0.5 0.5 200 200" enable-background="new -0.5 0.5 200 200" xml:space="preserve">
<path fill="#FFFFFF" d="M76.191,185.782c0,0-2.691,1.479-2.691-0.282c0-1.773,0-4.172,0-6.742c-29,0-52.77-23.068-53.971-51.896
	c0.215-1.108,1.015-2.36,2.088-2.36h1.648c1.253,0,2.234,1.631,2.234,3c0-1.926,0-2.625,0-2.871c0,26.573,21,48.115,48,48.115
	c0-2.279,0-4.427,0-6.119c0-1.843,2.659-0.938,2.659-0.938l10.04,10.063L76.191,185.782z"/>
<path fill="#FFFFFF" d="M176.364,75.5c-1.656,0-2.864-1.343-2.864-3c0,1.351,0,3,0,3c0-26.51-22-48-48-48c0,2.666,0,5.149,0,6.938
	c0,1.812-2.562,0.363-2.562,0.363L112.568,24.5l10.654-10.551c0,0,2.276-1.336,2.276,0.363c0,1.804,0,4.394,0,7.188
	c29,0,52.615,22.893,53.871,51.602C179.092,74.471,177.814,75.5,176.364,75.5z"/>
<path fill="#FFFFFF" d="M150.5,45.5h-100c-2.761,0-5,2.239-5,5v100c0,2.762,2.239,5,5,5h100c2.762,0,5-2.238,5-5v-100
	C155.5,47.739,153.262,45.5,150.5,45.5z M145.5,145.5h-90v-90h90V145.5z"/>
</svg>
