<?xml version="1.0" encoding="utf-8"?>
<!-- Generator: Adobe Illustrator 16.0.0, SVG Export Plug-In . SVG Version: 6.00 Build 0)  -->
<!DOCTYPE svg PUBLIC "-//W3C//DTD SVG 1.1//EN" "http://www.w3.org/Graphics/SVG/1.1/DTD/svg11.dtd">
<svg version="1.1" id="Layer_1" xmlns="http://www.w3.org/2000/svg" xmlns:xlink="http://www.w3.org/1999/xlink" x="0px" y="0px"
	 width="200px" height="200px" viewBox="0 0 200 200" enable-background="new 0 0 200 200" xml:space="preserve">
<path fill="#FFFFFF" d="M58.882,53.358c0.911-0.913,2.527-1.669,5.204-0.401c0,0,12.289,5.354,20.861,13.941
	c8.11,8.124,12.529,19.507,12.529,19.507c0.922,1.793,1.077,4.114-1.096,5.213c-1.97,0.996-3.833-0.424-4.38-1.61
	c-1.458-3.259-5.697-11.912-12.225-18.451c-8.489-8.504-20.602-13.681-20.602-13.681C57.58,56.93,57.97,54.271,58.882,53.358z"/>
<path fill="#FFFFFF" d="M38.22,97.404c0-1.291,0.608-2.971,3.396-3.97c0,0,12.47-4.919,24.594-4.919
	c11.469,0,22.628,4.919,22.628,4.919c1.918,0.615,3.666,2.146,2.905,4.462c-0.689,2.1-3.01,2.416-4.233,1.964
	c-3.331-1.271-12.438-4.388-21.669-4.388c-12.006,0-24.225,4.919-24.225,4.919C39.82,100.854,38.22,98.696,38.22,97.404z"/>
<path fill="#FFFFFF" d="M57.654,141.42c-0.944,1.6-3.598,1.208-4.51,0.295c-0.911-0.913-1.666-2.531-0.4-5.213
	c0,0,5.345-12.311,13.918-20.898c8.109-8.123,19.473-12.551,19.473-12.551c1.79-0.923,4.106-1.078,5.204,1.098
	c0.994,1.974-0.424,3.841-1.607,4.388c-3.254,1.461-11.893,5.708-18.42,12.246C62.822,129.287,57.654,141.42,57.654,141.42z"/>
<path fill="#FFFFFF" d="M95.354,163.074c-1.289,0-2.965-0.61-3.963-3.402c0,0-4.91-12.49-4.91-24.636
	c0-11.489,4.91-22.668,4.91-22.668c0.614-1.921,2.143-3.672,4.454-2.91c2.097,0.69,2.411,3.015,1.961,4.241
	c-1.27,3.337-4.381,12.459-4.381,21.705c0,12.027,4.91,24.268,4.91,24.268C98.795,161.471,96.643,163.074,95.354,163.074z"/>
<path fill="#FFFFFF" d="M100.566,87.902c1.27-3.338,4.381-12.459,4.381-21.706c0-12.027-4.91-24.267-4.91-24.267
	c-0.461-1.799,1.691-3.402,2.98-3.402s2.965,0.609,3.963,3.402c0,0,4.91,12.49,4.91,24.636c0,11.488-4.91,22.667-4.91,22.667
	c-0.613,1.922-2.143,3.673-4.455,2.91C100.431,91.453,100.115,89.128,100.566,87.902z"/>
<path fill="#FFFFFF" d="M141.312,147.037c-0.912,0.913-2.528,1.67-5.205,0.402c0,0-12.289-5.354-20.861-13.941
	c-8.109-8.125-12.528-19.508-12.528-19.508c-0.922-1.793-1.077-4.113,1.097-5.213c1.969-0.996,3.832,0.424,4.379,1.609
	c1.457,3.26,5.697,11.913,12.225,18.452c8.49,8.504,20.602,13.681,20.602,13.681C142.613,143.466,142.223,146.125,141.312,147.037z"
	/>
<path fill="#FFFFFF" d="M162.775,103.123c0,1.291-0.608,2.972-3.396,3.971c0,0-12.469,4.92-24.593,4.92
	c-11.47,0-22.628-4.92-22.628-4.92c-1.918-0.615-3.666-2.146-2.906-4.462c0.689-2.1,3.01-2.415,4.234-1.964
	c3.33,1.271,12.438,4.389,21.668,4.389c12.007,0,24.225-4.919,24.225-4.919C161.175,99.676,162.775,101.832,162.775,103.123z"/>
<path fill="#FFFFFF" d="M147.562,64.166c0,0-5.347,12.311-13.918,20.897c-8.109,8.124-19.474,12.551-19.474,12.551
	c-1.79,0.923-4.106,1.079-5.204-1.097c-0.994-1.974,0.424-3.84,1.607-4.388c3.253-1.461,11.892-5.707,18.419-12.246
	c8.489-8.504,13.657-20.637,13.657-20.637c0.943-1.599,3.599-1.208,4.51-0.295C148.07,59.864,148.828,61.484,147.562,64.166z"/>
<path fill="#FFFFFF" d="M100.5,25c-41.422,0-75,33.579-75,75c0,41.422,33.578,75,75,75s75-33.578,75-75
	C175.5,58.579,141.922,25,100.5,25z M100.5,165.115c-35.962,0-65.114-29.153-65.114-65.115c0-35.961,29.152-65.114,65.114-65.114
	S165.615,64.039,165.615,100C165.615,135.962,136.462,165.115,100.5,165.115z"/>
</svg>
