<?xml version="1.0" encoding="utf-8"?>
<!-- Generator: Adobe Illustrator 16.0.0, SVG Export Plug-In . SVG Version: 6.00 Build 0)  -->
<!DOCTYPE svg PUBLIC "-//W3C//DTD SVG 1.1//EN" "http://www.w3.org/Graphics/SVG/1.1/DTD/svg11.dtd">
<svg version="1.1" id="Layer_1" xmlns="http://www.w3.org/2000/svg" xmlns:xlink="http://www.w3.org/1999/xlink" x="0px" y="0px"
	 width="200px" height="200px" viewBox="0 0 200 200" enable-background="new 0 0 200 200" xml:space="preserve">
<path fill="#FFFFFF" d="M175,131h-33V64c0-2.762-2.238-5-5-5H70V26c0-2.762-2.239-5-5-5s-5,2.238-5,5v33H27c-2.762,0-5,2.238-5,5
	s2.238,5,5,5h33v67c0,0.346,0.035,0.684,0.102,1.008C60.568,139.286,62.583,141,65,141h67v33c0,2.762,2.238,5,5,5s5-2.238,5-5v-33
	h33c2.762,0,5-2.238,5-5S177.762,131,175,131z M132,131H70V69h62V131z"/>
</svg>
