<?xml version="1.0" encoding="utf-8"?>
<!-- Generator: Adobe Illustrator 16.0.0, SVG Export Plug-In . SVG Version: 6.00 Build 0)  -->
<!DOCTYPE svg PUBLIC "-//W3C//DTD SVG 1.1//EN" "http://www.w3.org/Graphics/SVG/1.1/DTD/svg11.dtd">
<svg version="1.1" id="Layer_1" xmlns="http://www.w3.org/2000/svg" xmlns:xlink="http://www.w3.org/1999/xlink" x="0px" y="0px"
	 width="260px" height="72px" viewBox="0 0 260 72" enable-background="new 0 0 260 72" xml:space="preserve">
<g>
	<g>
		<path fill="#FFFFFF" d="M259.766,19.425c-3.103-2.83-6.302,5.298-16.204,2.732c0.06-1.443,3.131-19.944,2.263-20.76
			c-0.507,0.129-7.661,6.041-8.018,6.715c1.575,0.125,1.212-0.372,1.575,0.125c-0.246,3.625-1.252,9.782-1.888,13.485
			c-1.703,0.396-12.416,0.634-8.939,4.413c3.16,1.41,4.11-3.871,8.682-3.616c-0.729,5.866-6.33,28.981,5.268,28.806
			c2.229-0.034,7.335-0.911,12.542-8.389c2.033-2.923,4.892-9.564,3.414-10.896c-1.211-1.167-2.956-0.553-3.571,0.583
			c-1.1,2.038-0.405,8.401-1.829,11.133c-1.486,2.814-3.9,4.85-7.518,5.895c-7.289,1.896-3.194-20.228-2.088-26.591
			C249.178,24.11,261.878,23.35,259.766,19.425z M227.235,48.286c-0.841-0.542-1.015-1.084-1.102-1.918
			c-0.368-3.469,0.712-8.154,1.085-12.042c0.153-1.585,0.354-3.289,0.201-4.809c-0.387-3.802-3.742-5.654-7.618-5.779
			c-3.706-0.12-6.233,1.224-8.653,3.388c0.198-1.264,0.173-1.489,0.61-2.412c4.02-2.567,8.008-8.399,10.284-12.755
			c0.971-1.861,2.057-4.473,1.988-6.766c-0.071-2.445-2.558-3.995-5.101-3.971c-3.214,0.03-5.422,1.81-6.943,3.256
			c-6.938,6.598-10.062,44.893-10.204,47.219c3.384-0.14,4.457-0.486,6.354-1.764c0.109-4.382,0.804-8.812,1.321-12.616
			c0.313-2.29,0.474-4.6,0.91-6.415c0.034-0.143,0.142-0.454,0.233-0.688c0.845-2.104,2.333-3.865,4.648-4.726
			c5.775-2.142,4.366,4.806,3.677,8.669c-1.158,6.493-2.126,14.052,3.754,16.125c3.645,1.284,7.426-0.947,10.394-5.36
			C230.766,46.749,229.061,49.227,227.235,48.286z M216.927,6.044c0.708-1.059,2.767-4.025,4.662-3.124
			c1.271,0.605,0.812,3.218,0.38,4.914c-1.339,5.263-5.736,12.432-9.859,14.665C213.235,17.676,214.247,10.046,216.927,6.044z
			 M223.227,53.739c-3.468,2.76-2.038,4.985-8.607,8.493c-18.024,9.621-38.585,8.907-68.694-10.263
			c1.271-9.368,2.086-19.083,3.697-28.128c10.142-2.604,15.7-11.413,16.364-13.494c1.322-4.134,0.896-8.453-2.857-9.763
			c-5.765-2.014-16.423,0.221-20.705,22.261c-6.73-0.35-9.553-3.787-10.078-4.294c-2.632-2.534-0.247-9.148-3.427-8.39
			c-2.597,0.624-0.379,12.011,13.497,13.873c-1.36,8.065-2.874,17.911-3.88,26.426c-12.038-0.649-17.421,13.735-10.051,18.274
			c6.972,4.295,15.962-4.496,17.235-14.188c0.87,0.306,2.204,0.98,2.328,1.047c36.47,19.893,56.206,14.961,75.479,2.836
			C227.949,55.648,226.396,51.215,223.227,53.739z M162.519,1.617c4.102,0.478-1.06,18.001-12.849,21.084
			C149.773,20.251,154.955,0.735,162.519,1.617z M130.333,67.975c-6.866-1.704,0.556-16.687,8.088-15.21
			C138.422,52.811,137.004,69.63,130.333,67.975z M199.696,49.814C199.797,49.795,199.691,49.743,199.696,49.814L199.696,49.814z
			 M163.878,49.497c-4.47-0.989,2.415-23.521,2.172-25.356c-0.509-0.517-5.355,1.806-6.945,2.564
			c-1.164,6.837-7.225,24.725,3.17,24.141c4.204-0.233,5.528-1.329,8.093-6.362C167.841,47.366,166.355,50.085,163.878,49.497z
			 M164.835,19.832c-1.788-2.425-4.823-0.212-4.188,2.117C161.392,24.682,166.781,23.594,164.835,19.832z M128.086,48.328
			c-6.695,0.733,3.484-19.999,1.931-24.195c-3.993-1.717-10.813,1.132-13.571,1.462c0.555-3.015-2.755-6.376-5.766-4.931
			c-2.209,2.091,0.074,6.102,3.856,5.841c-4.739,20.879-24.15,35.294-17.429,7.011c3.768,0.562,11.532-0.46,11.81-3.77
			c0.201-2.417-1.48-5.733-4.129-6.744c-15.505-5.927-19.778,14.728-16.114,21.2c6.1,10.774,15.612,6.254,21.455-2.696
			c2.92-4.475,4.692-9.219,6.2-14.967c2.905-0.395,4.18-1.421,6.741-1.707c3.008-1.405-15.437,35.544,8.032,22.982
			C129.757,47.853,130.077,48.11,128.086,48.328z M100.262,25.426c0.716-0.838,1.92-2.118,3.441-1.945
			c2.508,0.286,3.806,5.187,2.044,7.338c-0.559,0.681-1.669,1.323-2.769,1.57c-1.814,0.412-3.215,0.333-5.736,0.026
			C97.93,29.988,98.749,27.205,100.262,25.426z M114.56,25.543c-2.356,0.119-5.18-2.271-3.295-4.059
			C114.11,20.672,114.64,23.342,114.56,25.543z M79.311,26.871c3.613-0.361,9.085-1.741,11.651-3.417
			c1.04-0.677,2.577-1.528,2.349-2.963c-2.117-1.441-3.976,0.957-5.56,2.325c-2.12,1.835-5.32,3.232-8.294,2.746
			c0.443-5.897,3.325-22.938,2.028-23.631c-1.354,1.233-6.053,6.973-7.337,8.205c0.401,0.405,1.081-0.044,1.298,0.417
			c-0.997,5.35-1.438,9.59-2.188,14.836c-4.171-0.763-7.812-1.01-11.317-0.948c0.236-2.852,0.612-19.73,4.207-21.25
			c2.596-1.096,3.883,1.043,3.902,3.084c0.016,1.615-0.7,4.852,1.582,3.642c1.509-0.8,0.879-4.183-0.142-5.51
			c-1.281-1.667-3.743-2.902-6.224-2.526c-9.204,1.392-9.467,16.422-9.822,22.674c-2.863,0.962-9.066,2.655-7.695,4.737
			c1.782,1.676,2.749-0.992,3.739-2.083c0.958-1.06,2.742-1.37,3.977-1.55c-0.268,5.405-1.034,20.433-1.151,24.06
			c-0.64,19.838-4.594,17.094-4.634,17.741c0.494,1.021,1.958,0.939,3.197,0.866c2.21-0.135,5.616,0,6.547-8.641
			c0.268-2.489,2.293-31.709,2.54-34.17c3.844-0.277,7.235,0.205,11.198,1.09c-0.549,4.187-0.838,11.39-0.64,16.716
			c0.173,4.672,1.457,8.105,5.979,8.473c5.39,0.435,6.608-3.389,8.028-7.14C74.838,62.148,78.832,31.143,79.311,26.871z
			 M44.436,40.793c0.114-12.295,4.156-38.791,3.994-39.327c-5.358,3.111-14.49,5.051-15.46,5.285
			c-3.579,0.854-11.531,3.921-8.28,6.63c2.753,1.933,5.494-6.848,14.781-7.336c-0.138,1.414-7.213,16.268-8.263,17.979
			c-4.768-2.457-11.868-1.52-14.422,2.515c-0.511,1.819,0.667,3.047,2.485,2.326c2.309-0.916,3.116-4.342,6.335-5.287
			c1.655-0.485,3.471,0.273,5.185,1.419c-16.797,36.84-34.613,27-26.56,13.774c1.958-3.216-0.012-4.226-1.018-3.905
			c-4.117,1.307-3.822,10.929-1.663,13.592c4.007,4.943,14.689,7.19,26.874-15.823c1.125-2.124,3.415-7.003,3.479-7.099
			c0.063-0.094,5.794,4.907,5.725,5.677C36.067,48.496,41.7,54.813,51.747,49.96C51.713,49.497,44.31,54.123,44.436,40.793z
			 M37.617,29.583c-1.602-1.973-3.047-3.582-5.269-4.992c0.52-0.894,5.33-11.347,6.89-15.907
			C39.068,13.312,37.427,27.661,37.617,29.583z M180.635,48.417c5.134,0.29,7.462-2.258,10.757-4.754
			c-0.51,2.61-0.518,3.251-1.115,5.28c-0.518,0.003-1.938,0.095-2.413,0.203c-4.073,0.917-7.977,4.61-8.389,8.646
			c-0.268,2.612,1.236,4.84,3.164,5.77c3.058,1.47,7.466-0.297,9.191-2.188c1.867-2.049,2.797-5.963,3.542-9.187
			c1.651-7.144,4.132-27.072,5.138-29.674c0.11-0.285,0.382-0.676,0.224-1.021c-2.189,0.487-4.299,1.043-6.034,1.912
			c-1.517,4.074-2.764,16.948-3.24,18.331c-0.36,1.049-1.95,2.256-2.979,3.015c-1.302,0.958-2.638,1.675-4.303,1.902
			c-4.324,0.593-4.989-3.071-5.164-6.936c-0.311-6.85,1.974-13.371,6.011-15.653c2.31-1.308,5.296-0.692,7.136,0.223
			c0.222,0.108,0.545,0.514,0.885,0.315c-1.45-2.466-4.984-2.941-9.007-2.404c-3.859,0.516-6.882,2.488-8.744,4.636
			c-2.577,2.972-3.859,8.495-3.181,13.288C172.716,44.379,176.177,48.167,180.635,48.417z M185.861,61.497
			c-1.798,1.716-4.492,0.708-4.765-1.949c-0.487-4.758,3.829-9.25,8.186-9.295c0.033-0.001,0.564-0.004,0.597-0.005
			C190.061,51.142,187.599,59.837,185.861,61.497z M219.746,63.035c-2.798,1.514-4.957,3.692-7.278,4.732
			c-11.418,5.112-19.054,3.622-22.521,3.433c-0.055-0.072-0.075,0.192-0.14,0.228c4.296,0.795,9.068,0.754,14.167-0.083
			c4.801-0.788,10.559-2.748,16.013-5.842c0.93-0.527,3.025-2.049,2.286-3.018C221.759,61.814,220.45,62.656,219.746,63.035z
			 M216.112,58.24c0.824-0.475,2.586-1.959,1.876-2.786c-0.491-0.574-1.614,0.233-2.221,0.602c-2.412,1.475-4.328,3.336-6.231,4.54
			c-3.475,2.195-7.168,2.796-10.367,3.212c-3.406,0.442-5.174,0.208-5.205,0.271c0.014,0.051,0.062,0.112,0.007,0.144
			C197.838,64.735,205.262,64.491,216.112,58.24z"/>
	</g>
</g>
</svg>
