<?xml version="1.0" encoding="utf-8"?>
<!-- Generator: Adobe Illustrator 16.0.0, SVG Export Plug-In . SVG Version: 6.00 Build 0)  -->
<!DOCTYPE svg PUBLIC "-//W3C//DTD SVG 1.1//EN" "http://www.w3.org/Graphics/SVG/1.1/DTD/svg11.dtd">
<svg version="1.1" id="Layer_1" xmlns="http://www.w3.org/2000/svg" xmlns:xlink="http://www.w3.org/1999/xlink" x="0px" y="0px"
	 width="1561px" height="1560px" viewBox="0 0 1561 1560" enable-background="new 0 0 1561 1560" xml:space="preserve">
<path fill="#FDA054" d="M1311.549,248.691c-59.002-33.986-126.18-51.983-194.268-52.046l-0.576,0l-0.289-0.499
	c-34.113-58.927-83.299-108.093-142.238-142.181l-3.219-1.862l4.111-0.004c68.146,0,135.537,18.112,194.889,52.378
	c59.441,34.317,108.875,83.713,142.955,142.848l1.857,3.222L1311.549,248.691z"/>
<path fill="#FD725A" d="M779.417,106.159c-59.006-33.976-126.184-51.961-194.272-52.013l-3.719-0.003l3.219-1.863
	C643.745,18.078,711.281,0,779.952,0c68.636,0,136.146,18.062,195.228,52.232l3.219,1.862l-3.719,0.004
	c-68.09,0.069-135.266,18.071-194.266,52.061l-0.499,0.287L779.417,106.159z"/>
<path fill="#FC5930" d="M921.639,248.403c-34.168-59.159-83.35-108.347-142.223-142.244l-1.505-0.866l1.505-0.867
	c59.301-34.165,126.821-52.259,195.26-52.328h0.27l0.232,0.134c59.242,34.264,108.68,83.682,142.969,142.911l0.869,1.502l-2.1-0.001
	c-67.795,0-134.84,18.019-193.887,52.11l-0.867,0.5L921.639,248.403z"/>
<path fill="#FC33D2" d="M246.956,247.455c34.084-59.171,83.533-108.595,143.002-142.93c59.351-34.267,126.744-52.379,194.891-52.379
	l4.016,0.003l-3.219,1.863c-58.933,34.103-108.107,83.28-142.207,142.217l-0.289,0.499l-0.576,0
	c-68.088,0.08-135.26,18.093-194.252,52.092l-3.222,1.857L246.956,247.455z"/>
<path fill="#FC225F" d="M636.865,248.804c-59.032-34.069-126.059-52.078-193.832-52.078l-2.194,0.002l0.869-1.503
	C475.983,135.987,525.41,86.558,584.645,52.28l0.233-0.134h0.269c68.436,0.051,135.958,18.129,195.269,52.279l1.504,0.866
	l-1.504,0.867c-58.856,33.908-108.019,83.099-142.171,142.254l-0.5,0.866L636.865,248.804z"/>
<path fill="#FC2D41" d="M779.085,390.85c-33.902-58.783-83.061-107.89-142.163-142.012l-0.872-0.503l0.467-0.929
	c34.327-59.454,83.741-108.897,142.899-142.979l0.499-0.287l0.499,0.287c59.178,34.073,108.611,83.513,142.957,142.978l0.5,0.866
	l-0.865,0.5c-59.119,34.137-108.285,83.268-142.188,142.08l-0.867,1.502L779.085,390.85z"/>
<path fill="#FEDB52" d="M1505.988,585.647c-34.104-58.932-83.279-108.106-142.215-142.207l-0.498-0.289l-0.002-0.576
	c-0.08-68.089-18.092-135.261-52.092-194.253l-1.857-3.223l3.223,1.856c59.172,34.086,108.596,83.535,142.93,143.002
	c34.318,59.442,52.43,126.937,52.377,195.188l-0.002,3.719L1505.988,585.647z"/>
<path fill="#FD9831" d="M1363.771,443.471c-58.758-33.998-125.939-51.967-194.281-51.967h-1l-0.029-1
	c-0.012-68.333-18.008-135.528-52.045-194.32l-0.871-1.502l1.736,0.001c68.467,0.064,135.988,18.146,195.266,52.29l0.232,0.134
	l0.135,0.233c34.174,59.294,52.279,126.815,52.359,195.264l0.002,1.736L1363.771,443.471z"/>
<path fill="#FC662A" d="M973.783,442.53c0.031-67.86-17.988-134.968-52.111-194.069l-0.453-0.787l0.707-0.584l0.104-0.067
	c59.352-34.266,126.744-52.377,194.889-52.377l0.941,0l0.287,0.499c34.213,59.096,52.303,126.63,52.314,195.3v1h-1
	c-68.268,0.005-135.412,17.969-194.176,51.952l-1.502,0.868V442.53z"/>
<path fill="#FC473C" d="M831.234,584.96c-0.123-68.044-18.154-135.167-52.149-194.11l-0.288-0.5l0.288-0.5
	c34.077-59.118,83.499-108.502,142.92-142.813l0.877-0.505l0.496,0.881c34.324,59.452,52.436,126.906,52.404,195.117v0.577
	l-0.498,0.289c-58.902,34.06-108.068,83.184-142.186,142.063l-1.857,3.208L831.234,584.96z"/>
<path fill="#C851CE" d="M52.098,585.322c-0.069-68.284,18.042-135.812,52.377-195.281c34.319-59.441,83.715-108.874,142.848-142.954
	l3.222-1.857l-1.856,3.223c-33.986,59.001-51.982,126.177-52.045,194.267l0,0.576l-0.499,0.289
	c-58.928,34.114-108.093,83.299-142.181,142.239l-1.862,3.219L52.098,585.322z"/>
<path fill="#D121B8" d="M194.355,442.717c0.064-68.243,18.213-135.764,52.485-195.263l0.134-0.233l0.233-0.134
	c59.293-34.173,126.77-52.279,195.135-52.36l1.736-0.002l-0.87,1.503c-34.167,59.053-52.227,126.234-52.227,194.282v1l-1,0.029
	c-68.204,0.01-135.332,18.007-194.126,52.044l-1.502,0.87L194.355,442.717z"/>
<path fill="#D71E68" d="M584.634,443.425c-58.771-33.967-125.899-51.921-194.125-51.921h-1.527v-1
	c0-68.397,18.153-135.925,52.496-195.282l0.289-0.499l1.034-0.001c68.282,0,135.734,18.1,195.064,52.341l0.866,0.5l-0.5,0.866
	c-34.129,59.123-52.144,126.251-52.096,194.129l0.001,1.734L584.634,443.425z"/>
<path fill="#DE2D54" d="M726.852,585.472c-34.132-58.87-83.31-107.983-142.218-142.029l-0.499-0.289l0-0.577
	c-0.048-68.234,18.059-135.713,52.364-195.141l0.508-0.88l0.872,0.522c59.45,34.323,108.862,83.684,142.939,142.771l0.289,0.5
	l-0.289,0.5c-33.979,58.951-51.996,126.078-52.101,194.123l-0.006,3.707L726.852,585.472z"/>
<path fill="#E24751" d="M778.999,776.923c-0.53-67.318-18.562-133.521-52.147-191.45l-0.135-0.233l0-0.27
	c0.106-68.397,18.216-135.868,52.369-195.119l0.866-1.502l0.867,1.502c34.168,59.243,52.293,126.709,52.416,195.105l0.002,0.27
	l-0.137,0.233c-33.568,57.937-51.586,124.143-52.102,191.463H778.999z"/>
<path fill="#9354BF" d="M52.279,975.355C18.078,916.254,0,848.718,0,780.048C0,711.409,18.062,643.9,52.232,584.822l1.862-3.219
	l0.004,3.719c0.068,68.089,18.07,135.264,52.061,194.264l0.287,0.499l-0.287,0.499c-33.976,59.008-51.962,126.186-52.014,194.272
	l-0.003,3.719L52.279,975.355z"/>
<path fill="#8529A8" d="M104.425,780.582c-34.165-59.301-52.259-126.82-52.327-195.259l0-0.269l0.135-0.232
	c34.263-59.243,83.68-108.681,142.91-142.968l1.502-0.87l-0.001,1.736c-0.063,67.922,17.956,135.093,52.11,194.251l0.5,0.866
	l-0.851,0.525c-59.159,34.169-108.346,83.348-142.243,142.22l-0.866,1.505L104.425,780.582z"/>
<path fill="#971EA0" d="M247.042,638.006l-0.016-0.028c-34.335-59.47-52.447-126.988-52.383-195.262l0-0.576l0.499-0.289
	c59.096-34.212,126.629-52.302,195.3-52.313h1v1c0.005,68.269,17.97,135.415,51.953,194.177l0.868,1.501l-1.912-0.001
	c-67.794,0-134.841,18.02-193.891,52.11l-0.837,0.483L247.042,638.006z"/>
<path fill="#A7206E" d="M636.707,638.109c-59.012-33.929-126.158-51.879-194.178-51.91h-0.577l-0.289-0.5
	c-34.159-59.067-52.216-126.565-52.221-195.196v-1h1c68.643,0,136.116,18.047,195.192,52.19l0.499,0.289l0,0.577
	c0.048,68.052,18.008,135.2,51.938,194.185l1.849,3.213L636.707,638.109z"/>
<path fill="#B53162" d="M777.643,777.919c-34.122-58.072-82.857-106.418-140.937-139.81l-0.234-0.134l-0.134-0.234
	c-34.104-59.287-52.157-126.773-52.205-195.163l-0.001-1.734l1.501,0.868c59.211,34.221,108.642,83.586,142.948,142.758l0.135,0.233
	l0,0.27c-0.105,66.992,17.413,133.366,50.659,191.946L777.643,777.919z"/>
<path fill="#C14A60" d="M779.114,780.431c-0.371-0.643-0.747-1.281-1.123-1.919l-0.349-0.593
	c-33.425-58.896-51.032-125.612-50.926-192.949l0.006-3.707l1.859,3.207C762.341,642.7,780.467,709.244,781,776.906l-0.006,0.767
	c-0.008,0.751-0.014,1.503-0.014,2.257v3.728L779.114,780.431z"/>
<path fill="#A6DB5F" d="M1505.9,974.681c-0.066-68.091-18.068-135.267-52.059-194.265l-0.289-0.499l0.289-0.499
	c33.975-59.006,51.961-126.185,52.012-194.273l0.004-3.719l1.861,3.219C1541.922,643.747,1560,711.284,1560,779.953
	c0,68.638-18.062,136.146-52.234,195.228l-1.861,3.219L1505.9,974.681z"/>
<path fill="#B3C633" d="M1453.84,780.417c-33.906-58.854-83.096-108.017-142.254-142.172l-0.865-0.5l0.475-0.88
	c34.15-59.172,52.158-126.356,52.078-194.289l-0.002-1.736l1.502,0.869c59.238,34.275,108.668,83.702,142.945,142.936l0.135,0.233
	v0.269c-0.051,68.436-18.129,135.958-52.281,195.27l-0.865,1.505L1453.84,780.417z"/>
<path fill="#BE992A" d="M1311.441,638.23c-59.041-34.082-126.121-52.097-193.988-52.097l-2.004,0.001l0.867-1.502
	c33.801-58.479,51.666-125.606,51.666-194.124v-1l1.508-0.006c68.652,0,136.16,18.062,195.225,52.235l0.498,0.289v0.576
	c0.082,68.194-18.039,135.714-52.404,195.261l-0.5,0.866L1311.441,638.23z"/>
<path fill="#C77629" d="M921.891,636.708c33.76-58.718,51.621-125.864,51.654-194.179v-0.577l0.498-0.289
	c59.068-34.158,126.479-52.215,194.939-52.22h1v1c0,68.934-17.959,136.407-51.934,195.19l-0.289,0.499l-0.576,0
	c-67.887,0.048-134.947,18.009-193.928,51.94l-3.213,1.849L921.891,636.708z"/>
<path fill="#D05D3D" d="M780.611,776.941c33.24-58.594,50.744-124.98,50.623-191.981l-0.002-0.27l0.137-0.233
	c34.289-59.177,83.707-108.554,142.912-142.792l1.502-0.868v1.734c-0.031,68.391-18.068,135.881-52.158,195.175l-0.135,0.234
	l-0.234,0.134c-58.076,33.41-106.803,81.775-140.912,139.867L780.611,776.941z"/>
<path fill="#C65E54" d="M779.018,779.931c0-0.787-0.007-1.572-0.013-2.357L779,776.922c0.517-67.681,18.625-134.229,52.37-192.465
	l1.859-3.208l0.006,3.707c0.123,67.349-17.473,134.077-50.883,192.972l-0.402,0.682c-0.355,0.605-0.713,1.211-1.064,1.821
	l-1.867,3.233V779.931z"/>
<path fill="#5A73B8" d="M247.453,1313.043c-59.17-34.082-108.594-83.531-142.929-143.001
	c-34.318-59.441-52.431-126.937-52.379-195.188l0.003-3.719l1.863,3.219c34.102,58.932,83.279,108.106,142.216,142.209l0.499,0.288
	l0,0.576c0.081,68.09,18.094,135.261,52.092,194.251l1.857,3.222L247.453,1313.043z"/>
<path fill="#443498" d="M195.225,1118.292c-59.238-34.275-108.668-83.703-142.947-142.938l-0.134-0.232v-0.27
	c0.052-68.435,18.13-135.957,52.28-195.269l0.867-1.505l0.867,1.505c33.907,58.855,83.098,108.018,142.254,142.171l0.866,0.5
	l-0.475,0.881c-34.149,59.17-52.157,126.354-52.077,194.29l0.002,1.736L195.225,1118.292z"/>
<path fill="#522793" d="M247.43,923.495L247.43,923.495c-59.479-34.339-108.923-83.754-143.006-142.914l-0.287-0.499l0.287-0.499
	c34.074-59.178,83.515-108.61,142.978-142.954l0.866-0.5l0.5,0.866c34.139,59.119,83.27,108.286,142.082,142.186l1.502,0.866
	l-1.502,0.866c-58.784,33.904-107.892,83.063-142.014,142.164l-0.518,0.897L247.43,923.495z"/>
<path fill="#6C2293" d="M389.851,780.913c-59.116-34.075-108.5-83.495-142.815-142.917l-0.497-0.861l0.858-0.502
	c59.414-34.305,126.806-52.417,194.954-52.417l0.755,0l0.289,0.499c34.063,58.902,83.188,108.068,142.064,142.183l3.208,1.858
	l-3.707,0.007c-68.045,0.123-135.167,18.156-194.11,52.149l-0.5,0.288L389.851,780.913z"/>
<path fill="#832976" d="M776.873,779.349c-58.365-33.094-124.487-50.586-191.217-50.586l-0.966,0.001l-0.233-0.135
	c-59.178-34.29-108.555-83.708-142.793-142.913l-0.868-1.501l1.734,0.001c68.394,0.032,135.884,18.069,195.175,52.16l0.234,0.134
	l0.134,0.234c33.397,58.053,81.739,106.766,139.8,140.874L776.873,779.349z"/>
<path fill="#963A70" d="M779.449,780.815c-0.676-0.39-1.354-0.773-2.033-1.157l-0.544-0.309
	c-58.374-34.291-106.964-83.256-140.533-141.609l-1.849-3.213l3.214,1.848c58.38,33.565,107.366,82.159,141.664,140.53l0.356,0.628
	c0.361,0.639,0.723,1.278,1.09,1.917l1.857,3.224L779.449,780.815z"/>
<path fill="#62C591" d="M1311.311,1311.549c33.984-59.002,51.982-126.179,52.045-194.267v-0.576l0.498-0.288
	c58.93-34.114,108.094-83.3,142.182-142.239l1.861-3.219l0.004,3.719c0.068,68.282-18.043,135.81-52.379,195.28
	c-34.316,59.441-83.713,108.874-142.846,142.955l-3.223,1.857L1311.311,1311.549z"/>
<path fill="#53B546" d="M1363.355,1117.282c0.064-67.923-17.955-135.094-52.111-194.252l-0.5-0.866l0.852-0.524
	c59.16-34.169,108.348-83.349,142.246-142.222l0.867-1.504l0.865,1.504c34.166,59.3,52.26,126.819,52.326,195.26v0.269l-0.135,0.233
	c-34.262,59.242-83.68,108.68-142.91,142.969l-1.502,0.87L1363.355,1117.282z"/>
<path fill="#6DAE33" d="M1311.23,923.006c-34.139-59.119-83.27-108.286-142.08-142.187l-1.504-0.866l1.502-0.866
	c58.783-33.901,107.891-83.061,142.014-142.164l0.619-0.987l0.828,0.591c59.465,34.344,108.891,83.749,142.963,142.892l0.289,0.499
	l-0.289,0.499c-34.07,59.176-83.51,108.609-142.977,142.955l-0.865,0.5L1311.23,923.006z"/>
<path fill="#839430" d="M1169.148,780.819c-58.949-33.979-126.076-51.997-194.123-52.103l-3.707-0.006l3.207-1.859
	c58.869-34.129,107.982-83.308,142.029-142.218l0.289-0.499l0.848,0c68.139,0,135.523,18.107,194.869,52.364l0.936,0.54
	l-0.609,0.891c-34.291,59.401-83.652,108.814-142.738,142.891l-0.5,0.288L1169.148,780.819z"/>
<path fill="#967F33" d="M782.109,777.627c58.061-34.122,106.395-82.851,139.781-140.918l0.135-0.234l0.234-0.134
	c59.283-34.106,126.77-52.159,195.162-52.207l1.734-0.001l-0.867,1.502c-34.225,59.213-83.59,108.644-142.76,142.948l-0.232,0.135
	l-0.873-0.001c-66.771,0-132.928,17.512-191.314,50.643L782.109,777.627z"/>
<path fill="#A66E49" d="M779.184,779.451c0.334-0.58,0.663-1.161,0.992-1.743l0.436-0.768
	c34.293-58.404,83.271-107.018,141.646-140.599l3.215-1.849l-1.848,3.214c-33.559,58.367-82.145,107.348-140.502,141.646
	l-0.443,0.25c-0.709,0.402-1.42,0.804-2.129,1.214l-3.229,1.865L779.184,779.451z"/>
<path fill="#6091D9" d="M584.929,1507.902c-68.148-0.002-135.54-18.113-194.889-52.378c-59.44-34.317-108.874-83.714-142.956-142.85
	l-1.857-3.222l3.223,1.856c59.002,33.986,126.179,51.984,194.269,52.048l0.576,0.001l0.289,0.498
	c34.114,58.926,83.299,108.091,142.238,142.181l3.219,1.861L584.929,1507.902z"/>
<path fill="#2F53AA" d="M442.717,1365.323c-68.462-0.063-135.983-18.146-195.264-52.295l-0.233-0.134l-0.134-0.233
	c-34.173-59.292-52.279-126.812-52.36-195.26l-0.002-1.736l1.503,0.87c58.761,33.998,125.943,51.969,194.282,51.969h1l0.029,1
	c0.011,68.333,18.008,135.527,52.045,194.318l0.87,1.503L442.717,1365.323z"/>
<path fill="#333697" d="M390.509,1170.504c-68.653,0-136.162-18.063-195.228-52.238l-0.499-0.288l0-0.576
	c-0.079-68.208,18.041-135.73,52.401-195.266l0.5-0.866l0.866,0.5c59.042,34.083,126.119,52.098,193.98,52.097l2.004-0.001
	l-0.868,1.501c-33.812,58.5-51.683,125.627-51.683,194.124v1l-1,0.014H390.509z"/>
<path fill="#463397" d="M442.307,975.866c-68.142-0.001-135.527-18.108-194.869-52.364l-0.88-0.508l0.522-0.872
	c34.322-59.45,83.683-108.863,142.771-142.941l0.5-0.288l0.5,0.288c58.95,33.98,126.077,51.997,194.122,52.104l3.707,0.006
	l-3.207,1.859c-58.869,34.129-107.982,83.307-142.03,142.217l-0.289,0.5H442.307z"/>
<path fill="#64309C" d="M584.969,833.285c-68.396-0.107-135.867-18.217-195.118-52.371l-1.502-0.866l1.502-0.866
	c59.243-34.168,126.709-52.293,195.105-52.417l0.27,0l0.233,0.135c57.958,33.582,124.19,51.599,191.538,52.102l0,2
	c-67.346,0.519-133.575,18.551-191.526,52.149l-0.233,0.135H584.969z"/>
<path fill="#7D3886" d="M776.982,781.002c-67.696-0.506-134.271-18.615-192.526-52.371l-3.208-1.858l4.407-0.007
	c67.076,0,133.54,17.582,192.204,50.845l0.578,0.34c0.663,0.391,1.325,0.781,1.993,1.166l3.232,1.866h-3.733
	c-0.825,0-1.646,0.008-2.47,0.016l-0.469,0.004H776.982z"/>
<path fill="#33D0CD" d="M975.16,1507.854C975.156,1507.854,975.164,1507.854,975.16,1507.854l-4.025-0.003l3.219-1.862
	c58.934-34.104,108.107-83.281,142.207-142.216l0.289-0.498l0.576-0.001c68.086-0.079,135.258-18.092,194.252-52.092l3.223-1.857
	l-1.857,3.223c-34.084,59.171-83.533,108.595-143.002,142.93C1110.695,1489.741,1043.299,1507.854,975.16,1507.854z"/>
<path fill="#24AD86" d="M1116.773,1363.771c34.154-59.032,52.209-126.214,52.209-194.28v-1l1-0.028
	c68.213-0.012,135.344-18.009,194.137-52.046l1.504-0.87l-0.002,1.736c-0.062,68.257-18.207,135.777-52.473,195.263l-0.133,0.233
	l-0.234,0.134c-59.297,34.175-126.777,52.28-195.143,52.359l-1.736,0.002L1116.773,1363.771z"/>
<path fill="#2FA853" d="M1168.557,1169.463c-0.006-68.27-17.971-135.415-51.953-194.178l-0.869-1.502l1.912,0.001
	c67.799-0.001,134.846-18.021,193.893-52.111l0.783-0.452l0.586,0.701l0.033,0.047l0.043,0.076
	c34.322,59.447,52.436,126.965,52.371,195.239l-0.002,0.576l-0.498,0.288c-59.096,34.213-126.631,52.303-195.299,52.314h-1V1169.463
	z"/>
<path fill="#4CA746" d="M1117.645,975.784c-0.004,0,0.002,0-0.002,0h-0.75l-0.287-0.499
	c-34.064-58.902-83.189-108.069-142.066-142.186l-3.207-1.858l3.707-0.007c68.047-0.122,135.168-18.154,194.109-52.147l0.5-0.288
	l0.5,0.288c59.115,34.075,108.5,83.495,142.814,142.919l0.512,0.884l-0.895,0.492
	C1253.191,957.67,1185.793,975.784,1117.645,975.784z"/>
<path fill="#679744" d="M974.539,833.101C916.58,799.518,850.348,781.501,783,781v-2c67.348-0.518,133.576-18.551,191.525-52.148
	l0.234-0.135l0.27,0c68.396,0.106,135.867,18.216,195.119,52.37l1.502,0.866l-1.502,0.866
	c-59.244,34.168-126.711,52.293-195.105,52.416l-0.27,0.001L974.539,833.101z"/>
<path fill="#7F894A" d="M782.262,780.993c-0.73-0.006-1.461-0.013-2.193-0.013h-3.746l3.248-1.867
	c0.668-0.384,1.33-0.774,1.992-1.164l0.547-0.322c58.701-33.309,125.197-50.911,192.314-50.911l4.312,0.006l-3.207,1.859
	C917.281,762.353,850.711,780.479,783.016,781h-0.008L782.262,780.993z"/>
<path fill="#31B9E3" d="M780.049,1560.001c-68.637,0-136.146-18.062-195.229-52.233l-3.22-1.861l3.719-0.004
	c68.088-0.068,135.264-18.07,194.265-52.06l0.5-0.288l0.498,0.288c59.004,33.975,126.182,51.96,194.275,52.012l3.719,0.003
	l-3.219,1.862C916.252,1541.923,848.717,1560.001,780.049,1560.001z"/>
<path fill="#1E7BCC" d="M584.821,1507.769c-59.243-34.265-108.68-83.683-142.968-142.91l-0.87-1.503l2.097,0.002
	c67.774,0,134.803-18.01,193.838-52.08l0.091-0.055l0.859-0.476l0.491,0.851c34.169,59.159,83.349,108.347,142.222,142.246
	l1.506,0.866l-1.506,0.866c-59.302,34.164-126.821,52.259-195.259,52.327h-0.269L584.821,1507.769z"/>
<path fill="#1B57AA" d="M442.141,1365.356l-0.289-0.498c-34.213-59.099-52.303-126.633-52.314-195.301v-1h1
	c68.268-0.005,135.414-17.97,194.178-51.952l1.501-0.869l-0.001,1.734c-0.031,67.86,17.988,134.968,52.11,194.069l0.483,0.837
	l-0.787,0.569c-59.406,34.299-126.796,52.411-194.934,52.411C443.085,1365.357,442.141,1365.356,442.141,1365.356z"/>
<path fill="#28479E" d="M389.982,1169.49c0-68.849,17.964-136.321,51.952-195.124l0.289-0.5h0.577
	c67.897-0.048,134.961-18.008,193.943-51.939l3.213-1.849l-1.848,3.214c-33.771,58.74-51.639,125.886-51.67,194.178l0,0.577
	l-0.499,0.288c-59.067,34.159-126.482,52.217-194.957,52.222h-1V1169.49z"/>
<path fill="#41459F" d="M441.71,974.366c34.223-59.213,83.588-108.643,142.759-142.947l0.233-0.135h0.873
	c66.771-0.001,132.926-17.513,191.313-50.643l1,1.732c-58.06,34.12-106.395,82.85-139.782,140.918l-0.134,0.234l-0.234,0.135
	c-59.287,34.104-126.773,52.157-195.163,52.205l-1.734,0.001L441.71,974.366z"/>
<path fill="#5E44A4" d="M581.262,833.278l3.207-1.859c58.248-33.771,124.818-51.897,192.513-52.419l0.651,0.005
	c0.765,0.006,1.53,0.013,2.297,0.013h3.734l-3.234,1.866c-0.688,0.396-1.37,0.799-2.052,1.201l-0.488,0.287
	c-58.702,33.309-125.2,50.911-192.309,50.911C585.577,833.284,581.262,833.278,581.262,833.278z"/>
<path fill="#1BA6C1" d="M974.854,1507.855c-68.439-0.053-135.963-18.131-195.271-52.28l-1.504-0.866l1.504-0.866
	c58.857-33.909,108.019-83.1,142.171-142.255l0.5-0.866l0.881,0.475c59.035,34.071,126.061,52.079,193.832,52.077l2.193-0.002
	l-0.869,1.503c-34.273,59.236-83.701,108.667-142.936,142.946l-0.232,0.135H974.854z"/>
<path fill="#197CB7" d="M779.583,1455.575c-59.176-34.072-108.609-83.513-142.955-142.978l-0.5-0.866l0.866-0.5
	c59.118-34.138,108.286-83.269,142.188-142.08l0.866-1.503l0.867,1.502c33.9,58.782,83.061,107.89,142.162,142.014l0.9,0.52
	l-0.494,0.911c-34.324,59.452-83.74,108.896-142.902,142.98l-0.498,0.288L779.583,1455.575z"/>
<path fill="#1A65A4" d="M636.616,1312.578c-34.319-59.442-52.431-126.896-52.4-195.106l0-0.577l0.499-0.288
	c58.903-34.064,108.069-83.189,142.183-142.064l1.858-3.208l0.007,3.707c0.123,68.049,18.156,135.171,52.15,194.109l0.287,0.5
	l-0.287,0.499c-34.076,59.116-83.497,108.501-142.919,142.815l-0.852,0.492L636.616,1312.578z"/>
<path fill="#275B9F" d="M584.217,1117.471c0.03-68.389,18.066-135.879,52.158-195.175l0.134-0.234l0.234-0.135
	c58.077-33.409,106.804-81.774,140.914-139.867l1.732,1c-33.24,58.593-50.746,124.979-50.624,191.98l0,0.27l-0.135,0.233
	c-34.289,59.178-83.708,108.555-142.913,142.793l-1.501,0.869L584.217,1117.471z"/>
<path fill="#3E5BA4" d="M636.375,922.295c33.558-58.368,82.143-107.349,140.501-141.646l0.623-0.353
	c0.651-0.368,1.302-0.737,1.95-1.112l3.229-1.866l-1.861,3.231c-0.383,0.665-0.76,1.331-1.137,1.998l-0.29,0.513
	c-34.293,58.404-83.272,107.019-141.649,140.601l-3.213,1.848L636.375,922.295z"/>
<path fill="#1B958D" d="M1117.186,1365.278c-68.273,0-135.719-18.099-195.049-52.34l-0.867-0.5l0.5-0.866
	c34.129-59.123,52.143-126.252,52.096-194.128l-0.002-1.734l1.502,0.867c58.775,33.971,125.902,51.927,194.125,51.927h1.492v1
	c-0.002,68.414-18.148,135.939-52.479,195.275l-0.287,0.498L1117.186,1365.278z"/>
<path fill="#299A65" d="M1169.49,1170.505c-68.572,0-136.045-18.048-195.125-52.193l-0.5-0.289v-0.576
	c-0.049-68.057-18.008-135.206-51.939-194.188l-1.85-3.214l3.215,1.848c59.014,33.931,126.16,51.882,194.178,51.914h0.578
	l0.287,0.499c34.158,59.068,52.217,126.567,52.223,195.2v1H1169.49z"/>
<path fill="#48A05C" d="M1117.471,975.783c-68.393-0.031-135.883-18.067-195.176-52.158l-0.234-0.135l-0.135-0.233
	c-33.396-58.055-81.738-106.769-139.799-140.875l1-1.732c58.363,33.095,124.484,50.587,191.217,50.587l0.965-0.001l0.232,0.135
	c59.178,34.289,108.555,83.707,142.795,142.912l0.869,1.502L1117.471,975.783z"/>
<path fill="#65995C" d="M974.342,833.237c-67.08-0.002-133.543-17.584-192.201-50.847l-0.648-0.381
	c-0.639-0.377-1.279-0.753-1.923-1.125l-3.226-1.862l3.726-0.004c0.697,0,1.395-0.006,2.09-0.012l0.844-0.006
	c67.707,0.504,134.281,18.613,192.539,52.371l3.207,1.858L974.342,833.237z"/>
<path fill="#1B7E92" d="M922.139,1312.929l0.498-0.867l-0.523,0.854c-59.441-34.318-108.855-83.68-142.931-142.767l-0.288-0.5
	l0.288-0.499c33.98-58.951,51.996-126.077,52.101-194.12l0.006-3.707l1.859,3.207c34.133,58.871,83.311,107.984,142.217,142.028
	l0.5,0.289v0.576c0.047,68.231-18.059,135.71-52.363,195.139l-0.498,0.863L922.139,1312.929z"/>
<path fill="#2E8877" d="M974.365,1118.29c-59.209-34.221-108.639-83.585-142.947-142.757l-0.135-0.233v-0.271
	c0.105-66.989-17.412-133.363-50.658-191.945l1.732-1c34.121,58.071,82.855,106.416,140.934,139.808l0.234,0.135l0.135,0.233
	c34.104,59.285,52.156,126.771,52.205,195.163v1.734L974.365,1118.29z"/>
<path fill="#4E9670" d="M922.293,923.627c-58.377-33.565-107.363-82.159-141.66-140.528l-0.318-0.562
	c-0.375-0.662-0.75-1.325-1.13-1.984l-1.866-3.23l3.232,1.864c0.725,0.419,1.455,0.831,2.184,1.243l0.391,0.222
	c58.377,34.292,106.967,83.257,140.533,141.61l1.848,3.214L922.293,923.627z"/>
<path fill="#217091" d="M779.181,1170.148c-34.168-59.24-52.293-126.707-52.417-195.104l0-0.27l0.135-0.233
	c33.57-57.937,51.586-124.144,52.1-191.462h2c0.533,67.321,18.564,133.523,52.148,191.45l0.135,0.233v0.271
	c-0.105,68.392-18.213,135.861-52.367,195.114l-0.867,1.503L779.181,1170.148z"/>
<path fill="#2F6B95" d="M726.765,975.045c-0.123-67.349,17.473-134.077,50.884-192.972l0.406-0.691
	c0.354-0.603,0.709-1.205,1.06-1.812l1.865-3.227v3.727c0,0.786,0.008,1.57,0.014,2.356L781,783.08
	c-0.518,67.681-18.625,134.229-52.37,192.464l-1.858,3.208L726.765,975.045z"/>
<path fill="#338281" d="M831.416,975.533c-33.756-58.229-51.882-124.772-52.417-192.438l0.005-0.625
	c0.008-0.8,0.015-1.599,0.015-2.399v-3.725l1.866,3.224c0.33,0.569,1.473,2.516,1.473,2.516
	c33.424,58.895,51.031,125.61,50.924,192.948l-0.006,3.707L831.416,975.533z"/>
</svg>
