<?xml version="1.0" encoding="utf-8"?>
<!-- Generator: Adobe Illustrator 16.0.0, SVG Export Plug-In . SVG Version: 6.00 Build 0)  -->
<!DOCTYPE svg PUBLIC "-//W3C//DTD SVG 1.1//EN" "http://www.w3.org/Graphics/SVG/1.1/DTD/svg11.dtd">
<svg version="1.1" id="Layer_1" xmlns="http://www.w3.org/2000/svg" xmlns:xlink="http://www.w3.org/1999/xlink" x="0px" y="0px"
	 width="676px" height="74px" viewBox="0 0 676 74" enable-background="new 0 0 676 74" xml:space="preserve">
<g>
	<g>
		<path fill="#08A0C0" d="M19.603,4.584L0,57.976h4.543L9.93,43.087h23.414l5.313,14.889H43.2L23.744,4.584H19.603z M11.322,39.164
			l10.26-28.309h0.22l10.113,28.309H11.322z M64.819,0c-3.591,0-6.388,1.088-8.391,3.264c-2.003,2.176-3.005,5.256-3.005,9.241
			v5.794h-6.559v3.594h6.559v36.083h4.397V21.893h8.977v-3.594H57.82v-5.794c0-2.738,0.641-4.865,1.924-6.381
			c1.282-1.515,3.12-2.272,5.515-2.272c0.83,0,1.551,0.043,2.162,0.128c0.61,0.086,1.209,0.201,1.795,0.348l0.586-3.631
			c-0.879-0.219-1.735-0.39-2.565-0.512C66.406,0.062,65.601,0,64.819,0z M88.105,54.804c-0.501,0.061-1.021,0.092-1.558,0.092
			c-1.563,0-2.815-0.544-3.756-1.632c-0.94-1.087-1.411-2.927-1.411-5.519V21.893h8.721v-3.594h-8.721V8.141h-4.434v10.158h-6.852
			v3.594h6.852v25.852c0,3.814,0.775,6.601,2.327,8.361s3.719,2.64,6.504,2.64c0.855,0,1.716-0.091,2.583-0.274
			c0.867-0.184,1.594-0.422,2.181-0.715l-0.66-3.264C89.197,54.638,88.605,54.743,88.105,54.804z M113.333,17.564
			c-4.788,0-8.8,1.859-12.037,5.575c-3.237,3.716-4.855,8.434-4.855,14.155v2.016c0,5.697,1.6,10.36,4.8,13.989
			c3.2,3.631,7.365,5.446,12.495,5.446c3.151,0,5.856-0.483,8.116-1.448c2.259-0.966,4.085-2.183,5.478-3.649l-1.869-3.006
			c-1.344,1.345-3.029,2.414-5.057,3.208c-2.028,0.795-4.25,1.192-6.669,1.192c-4.03,0-7.188-1.491-9.472-4.475
			c-2.284-2.981-3.426-6.733-3.426-11.257V38.1h27.591v-3.41c0-5.231-1.313-9.394-3.939-12.486
			C121.864,19.111,118.145,17.564,113.333,17.564z M124.032,34.36h-22.718l-0.11-0.22c0.366-3.716,1.636-6.784,3.811-9.205
			s4.947-3.63,8.318-3.63c3.444,0,6.088,1.142,7.933,3.429c1.844,2.286,2.767,5.188,2.767,8.708V34.36z M153.198,17.564
			c-2.663,0-4.959,0.686-6.889,2.054c-1.93,1.37-3.469,3.276-4.617,5.721v-0.441l-0.549-6.6h-3.848v39.677h4.397V30.583
			c0.757-2.713,2.021-4.846,3.792-6.398c1.771-1.553,4.036-2.329,6.797-2.329l3.115,0.22l0.55-4.107
			c-0.318-0.097-0.721-0.188-1.209-0.275C154.249,17.607,153.735,17.564,153.198,17.564z M163.458,57.976h4.36V0.771h-4.36V57.976z
			 M180.497,57.976h4.36V18.299h-4.36V57.976z M180.497,6.931h4.36V0.771h-4.36V6.931z M223.074,24.533
			c-1.343-2.225-3.054-3.943-5.129-5.152c-2.077-1.21-4.52-1.816-7.329-1.816c-4.788,0-8.52,1.902-11.194,5.703
			c-2.675,3.802-4.012,8.868-4.012,15.2v0.77c0,5.917,1.337,10.647,4.012,14.192c2.674,3.545,6.381,5.316,11.121,5.316
			c2.711,0,5.099-0.531,7.163-1.595c2.064-1.064,3.769-2.585,5.112-4.565v5.61c0,3.912-0.965,6.871-2.895,8.875
			c-1.93,2.004-4.85,3.006-8.757,3.006c-2.052,0-3.976-0.201-5.771-0.604c-1.795-0.403-3.487-0.997-5.075-1.779l-0.843,3.703
			c1.612,0.808,3.499,1.443,5.662,1.908c2.161,0.463,4.195,0.696,6.101,0.696c5.105,0,9.05-1.37,11.835-4.107
			c2.785-2.738,4.177-6.637,4.177-11.698V18.299h-3.554L223.074,24.533z M222.817,47.855c-1.051,2.2-2.522,3.929-4.415,5.188
			c-1.894,1.259-4.232,1.888-7.017,1.888c-3.86,0-6.755-1.417-8.684-4.254c-1.93-2.835-2.895-6.648-2.895-11.441v-0.77
			c0-5.036,0.977-9.143,2.931-12.321c1.954-3.178,4.861-4.768,8.721-4.768c2.882,0,5.246,0.704,7.09,2.109
			c1.844,1.406,3.267,3.221,4.269,5.446V47.855z M256.125,17.564c-2.931,0-5.49,0.655-7.676,1.962
			c-2.187,1.308-3.952,3.148-5.295,5.519V0.771h-4.397v57.205h4.397V29.667c0.928-2.518,2.388-4.529,4.378-6.032
			c1.991-1.503,4.526-2.256,7.604-2.256c2.98,0,5.319,0.936,7.017,2.807c1.697,1.87,2.546,4.956,2.546,9.258v24.533h4.397V33.516
			c0-5.451-1.118-9.472-3.353-12.063C263.508,18.861,260.302,17.564,256.125,17.564z M294.104,54.804
			c-0.501,0.061-1.021,0.092-1.558,0.092c-1.563,0-2.815-0.544-3.756-1.632c-0.94-1.087-1.411-2.927-1.411-5.519V21.893h8.721
			v-3.594h-8.721V8.141h-4.434v10.158h-6.852v3.594h6.852v25.852c0,3.814,0.775,6.601,2.327,8.361c1.551,1.76,3.719,2.64,6.504,2.64
			c0.854,0,1.716-0.091,2.583-0.274c0.867-0.184,1.594-0.422,2.18-0.715l-0.659-3.264C295.196,54.638,294.604,54.743,294.104,54.804
			z M337.322,0c-3.591,0-6.388,1.088-8.391,3.264c-2.003,2.176-3.005,5.256-3.005,9.241v5.794h-6.559v3.594h6.559v36.083h4.397
			V21.893h8.977v-3.594h-8.977v-5.794c0-2.738,0.642-4.865,1.923-6.381c1.283-1.515,3.121-2.272,5.515-2.272
			c0.83,0,1.55,0.043,2.161,0.128c0.611,0.086,1.21,0.201,1.796,0.348l0.586-3.631c-0.879-0.219-1.735-0.39-2.565-0.512
			C338.91,0.062,338.104,0,337.322,0z M362.092,17.564c-5.277,0-9.515,1.871-12.714,5.611c-3.201,3.74-4.801,8.532-4.801,14.375
			v1.211c0,5.867,1.6,10.665,4.801,14.392c3.199,3.729,7.462,5.592,12.788,5.592c5.276,0,9.508-1.864,12.696-5.592
			c3.188-3.728,4.781-8.525,4.781-14.392V37.55c0-5.842-1.6-10.634-4.8-14.375C371.644,19.435,367.393,17.564,362.092,17.564z
			 M375.283,38.761c0,4.596-1.167,8.458-3.499,11.587c-2.333,3.129-5.54,4.694-9.619,4.694c-4.153,0-7.39-1.564-9.709-4.694
			c-2.322-3.129-3.481-6.992-3.481-11.587V37.55c0-4.521,1.16-8.36,3.481-11.514c2.319-3.154,5.532-4.73,9.636-4.73
			c4.104,0,7.328,1.576,9.673,4.73c2.345,3.154,3.518,6.993,3.518,11.514V38.761z M404.706,17.564c-2.663,0-4.958,0.686-6.889,2.054
			c-1.93,1.37-3.468,3.276-4.617,5.721v-0.441l-0.549-6.6h-3.847v39.677h4.396V30.583c0.757-2.713,2.021-4.846,3.793-6.398
			c1.771-1.553,4.037-2.329,6.797-2.329l3.114,0.22l0.55-4.107c-0.317-0.097-0.721-0.188-1.209-0.275
			C405.756,17.607,405.243,17.564,404.706,17.564z M447.871,4.584l-19.604,53.391h4.544l5.386-14.889h23.414l5.314,14.889h4.543
			L452.011,4.584H447.871z M439.588,39.164l10.26-28.309h0.221l10.113,28.309H439.588z M495.798,17.564
			c-2.957,0-5.509,0.667-7.659,1.999c-2.15,1.333-3.873,3.209-5.167,5.629l-0.403-6.893h-3.884v39.677h4.397v-28.09
			c0.855-2.59,2.241-4.657,4.159-6.197c1.918-1.541,4.44-2.311,7.566-2.311c3.127,0,5.539,0.942,7.236,2.824
			c1.698,1.882,2.548,5.097,2.548,9.644v24.13h4.396V33.81c0-5.574-1.124-9.674-3.372-12.302
			C503.369,18.88,500.096,17.564,495.798,17.564z M546.143,24.165c-1.344-2.102-3.035-3.728-5.074-4.876
			c-2.04-1.149-4.416-1.724-7.127-1.724c-4.788,0-8.52,1.902-11.194,5.703c-2.675,3.802-4.013,8.868-4.013,15.2v0.77
			c0,5.94,1.338,10.677,4.013,14.209c2.675,3.533,6.382,5.299,11.121,5.299c2.809,0,5.252-0.562,7.328-1.687s3.786-2.738,5.13-4.84
			l0.622,5.757h3.591V0.771h-4.396V24.165z M546.143,47.818c-1.051,2.225-2.517,3.966-4.397,5.226
			c-1.881,1.259-4.237,1.888-7.071,1.888c-3.859,0-6.748-1.417-8.666-4.254c-1.918-2.835-2.877-6.648-2.877-11.441v-0.77
			c0-5.061,0.972-9.173,2.914-12.34c1.941-3.165,4.843-4.75,8.702-4.75c2.932,0,5.313,0.71,7.145,2.128
			c1.833,1.418,3.249,3.251,4.251,5.5V47.818z M578.131,17.564c-2.663,0-4.959,0.686-6.889,2.054
			c-1.93,1.37-3.469,3.276-4.617,5.721v-0.441l-0.55-6.6h-3.847v39.677h4.396V30.583c0.758-2.713,2.021-4.846,3.793-6.398
			c1.771-1.553,4.036-2.329,6.796-2.329l3.115,0.22l0.55-4.107c-0.318-0.097-0.721-0.188-1.209-0.275
			C579.182,17.607,578.668,17.564,578.131,17.564z M602.168,17.564c-5.276,0-9.516,1.871-12.715,5.611
			c-3.2,3.74-4.8,8.532-4.8,14.375v1.211c0,5.867,1.6,10.665,4.8,14.392c3.199,3.729,7.462,5.592,12.788,5.592
			c5.276,0,9.508-1.864,12.696-5.592c3.188-3.728,4.781-8.525,4.781-14.392V37.55c0-5.842-1.6-10.634-4.8-14.375
			S607.469,17.564,602.168,17.564z M615.358,38.761c0,4.596-1.166,8.458-3.499,11.587c-2.333,3.129-5.539,4.694-9.618,4.694
			c-4.153,0-7.39-1.564-9.71-4.694c-2.321-3.129-3.481-6.992-3.481-11.587V37.55c0-4.521,1.16-8.36,3.481-11.514
			c2.32-3.154,5.532-4.73,9.637-4.73c4.104,0,7.328,1.576,9.673,4.73c2.346,3.154,3.518,6.993,3.518,11.514V38.761z M629.429,57.976
			h4.36V18.299h-4.36V57.976z M629.429,6.931h4.36V0.771h-4.36V6.931z M671.603,0.771v23.395c-1.343-2.102-3.034-3.728-5.073-4.876
			c-2.041-1.149-4.416-1.724-7.128-1.724c-4.787,0-8.519,1.902-11.193,5.703c-2.675,3.802-4.013,8.868-4.013,15.2v0.77
			c0,5.94,1.338,10.677,4.013,14.209c2.675,3.533,6.382,5.299,11.12,5.299c2.81,0,5.252-0.562,7.329-1.687
			c2.076-1.125,3.786-2.738,5.13-4.84l0.623,5.757H676V0.771H671.603z M671.603,47.818c-1.05,2.225-2.516,3.966-4.396,5.226
			c-1.881,1.259-4.237,1.888-7.071,1.888c-3.859,0-6.749-1.417-8.666-4.254c-1.918-2.835-2.877-6.648-2.877-11.441v-0.77
			c0-5.061,0.972-9.173,2.914-12.34c1.941-3.165,4.843-4.75,8.702-4.75c2.932,0,5.313,0.71,7.145,2.128
			c1.833,1.418,3.249,3.251,4.25,5.5V47.818z"/>
	</g>
</g>
</svg>
