<?xml version="1.0" encoding="utf-8"?>
<!-- Generator: Adobe Illustrator 16.0.0, SVG Export Plug-In . SVG Version: 6.00 Build 0)  -->
<!DOCTYPE svg PUBLIC "-//W3C//DTD SVG 1.1//EN" "http://www.w3.org/Graphics/SVG/1.1/DTD/svg11.dtd">
<svg version="1.1" id="Layer_1" xmlns="http://www.w3.org/2000/svg" xmlns:xlink="http://www.w3.org/1999/xlink" x="0px" y="0px"
	 width="260px" height="66px" viewBox="0 0 260 66" enable-background="new 0 0 260 66" xml:space="preserve">
<path fill="#FFFFFF" d="M44.405,13.526v0.148l0.05,0.075h6.242l0.081-0.075v-0.148L47.456,5.18L44.405,13.526z M52.1,24.128v-0.083
	l0.729-0.075l0.631-0.229l0.545-0.329l0.318-0.391l0.088-0.459l-0.172-0.709l-2.912-6.849v-0.151l-0.162-0.157h-7.242v0.077
	l-0.085,0.161L41.09,22.08l-0.169,0.623l0.169,0.471l0.388,0.39l0.7,0.327l1.038,0.15v0.088h-6.082V24.04L38,23.89l0.645-0.229
	l0.457-0.406l0.401-0.62L48.164,0h0.168l9.444,22.389l0.487,0.716l0.544,0.458l0.726,0.327l0.86,0.155v0.083H52.1z M160.277,24.128
	v-0.083l0.394-0.075l0.543-0.08l0.552-0.148l0.487-0.329l0.313-0.461l0.141-0.714l0.09-2.194v-2.516l0.088-2.594V9.115l-0.088-3.218
	l-0.09-2.836l-0.141-0.702l-0.313-0.477l-0.487-0.3l-0.552-0.158l-0.543-0.086l-0.394-0.075V1.179h15.927l0.165,1.341l0.06,1.56
	l0.103,1.503h-0.162l-0.25-0.788l-0.307-0.793l-0.395-0.694l-0.481-0.558l-0.7-0.23l-1.745-0.161h-4.03l-2.124,0.161H166.2
	l-0.238,0.069l-0.257,0.241v8.489l0.085,0.233l0.091,0.161l0.141,0.071h6.711l0.709-0.071l0.551-0.394l0.4-0.477l0.144-0.711
	l0.17-0.777h0.08v6.594h-0.08l-0.17-0.695l-0.3-1.265l-0.4-0.556l-0.476-0.316l-0.628-0.158h-6.711l-0.141,0.081l-0.176,0.316v9.189
	l0.257,0.242l0.238,0.081h0.137l1.501,0.084l1.576,0.07h3.634l1.101-0.07l0.941-0.084l0.641-0.232l0.474-0.397l0.302-0.549
	l0.333-0.629l0.236-0.7l0.145-0.639h0.159v1.095l-0.159,2.358l-0.076,0.955H160.277L160.277,24.128z M203.641,24.128v-0.083
	l0.391-0.075l0.55-0.08l0.548-0.148l0.485-0.329l0.312-0.461l0.155-0.714l0.082-2.744v-6.216l-1.417-2.665l-0.872-1.733
	l-0.944-1.727l-0.875-1.649l-0.933-1.423l-0.953-1.25l-1.099-0.948l-1.2-0.545l-1.244-0.239V0.945l0.615-0.159l0.723-0.079h0.544
	l1.583,0.162l1.344,0.311l1.014,0.632l0.944,0.855l0.795,1.033l0.784,1.178l0.791,1.407l2.84,5.348l0.781-1.179l0.883-1.416
	l0.95-1.566l0.938-1.498l0.795-1.493l0.7-1.26l0.231-0.555l-0.081-0.465l-0.307-0.319l-0.456-0.3l-1.439-0.331V1.179h6.148V1.25
	l-0.944,0.173l-0.782,0.458l-0.635,0.784l-5.744,9.202l-0.325,0.633l-0.17,0.539l-0.05,0.634v3.066l0.05,2.903l0.17,2.595
	l0.156,0.714l0.309,0.461l0.486,0.32l0.55,0.158l0.944,0.15v0.076h-8.121V24.128z M6.547,1.972l-0.48,0.229l-0.153,0.31L5.841,2.978
	v7.795l0.156,0.388l0.463,0.229l0.875,0.084H8.59l1.191-0.084l1.02-0.306l0.87-0.549l0.788-0.709l0.638-0.946l0.31-1.188
	l0.141-1.326l-0.141-1.339l-0.4-1.176l-0.697-0.873L11.37,2.353l-1.276-0.319L8.59,1.882H7.336L6.547,1.972z M6.698,12.501
	l-0.544,0.145l-0.24,0.319l-0.072,0.391v8.253l0.072,0.707l0.403,0.552l0.625,0.306l1.025,0.161l1.327,0.078l1.344-0.078
	l1.276-0.383l1.182-0.562l0.951-0.781l0.697-1.021l0.479-1.346l0.162-1.475l-0.162-1.42l-0.394-1.177l-0.632-0.938l-0.882-0.707
	l-1.006-0.561l-1.188-0.319l-1.204-0.145L8.59,12.417H7.499L6.698,12.501z M6.46,24.283l-1.572-0.074H3.39l-1.401-0.081H0.244
	v-0.083l0.794-0.239l0.619-0.232l0.553-0.319l0.316-0.543l0.156-0.715l0.082-3.061l0.081-3.217V9.115L2.765,5.897L2.683,3.061
	L2.527,2.353l-0.4-0.471l-0.469-0.3L1.194,1.423L0.632,1.337L0.163,1.25V1.179l1.826-0.081h1.864l1.823-0.074l1.66-0.08h1.345
	l1.176,0.08l1.263,0.155l1.188,0.244l1.097,0.388l0.954,0.542l0.863,0.708l0.625,0.872l0.407,1.094l0.143,1.258L16.255,7.54
	l-0.407,1.101l-0.625,0.946l-0.712,0.777l-0.963,0.72l-0.939,0.549l1.026,0.236l1.11,0.471l1.104,0.626l0.95,0.862l0.776,1.026
	l0.562,1.254l0.163,1.42l-0.163,1.333l-0.387,1.326l-0.639,1.104l-0.951,1.024l-1.257,0.79l-1.588,0.636l-1.876,0.387l-2.208,0.155
	H6.46L6.46,24.283z M244.236,24.283l-2.048-0.313l-1.902-0.558l-0.067-0.078l-0.163-0.079l-0.078-0.15v-4.393h0.078l0.558,1.647
	l0.703,1.329l0.872,0.947l1.098,0.62l1.351,0.406l1.66,0.071l1.177-0.169l1.106-0.39l0.788-0.701l0.631-0.864l0.386-1.249
	l0.166-1.424l-0.166-1.168l-0.386-0.955l-0.712-0.86l-0.863-0.7l-0.95-0.557l-1.098-0.624l-1.117-0.546l-1.175-0.638l-1.088-0.629
	l-0.945-0.707l-0.891-0.863l-0.698-1.103l-0.406-1.175l-0.144-1.498l0.144-1.568l0.558-1.342l0.868-1.173l1.101-0.948l1.433-0.703
	l1.561-0.394l1.742-0.156l2.288,0.239l2.04,0.468l0.322,0.086l0.315,0.158l0.068,0.075v0.155l-0.231,4.163h-0.152l-0.401-1.417
	l-0.466-1.178l-0.716-0.859l-0.954-0.548l-1.17-0.391l-1.507-0.086l-0.856,0.086l-0.867,0.229l-0.794,0.39l-0.703,0.549
	l-0.557,0.787l-0.325,0.944l-0.156,1.177l0.156,1.266l0.413,1.01l0.544,0.945l0.794,0.707l0.944,0.623l1.029,0.564l1.016,0.469
	l1.109,0.471l1.023,0.546l1.007,0.629l0.97,0.706l0.782,0.862l0.55,1.025l0.4,1.179l0.149,1.485l-0.225,1.575l-0.562,1.339
	l-0.857,1.178l-1.119,0.936l-1.332,0.716l-1.508,0.393l-1.563,0.146L244.236,24.283z M138.046,24.832L121.491,3.618V14.62
	l0.078,2.589v2.434l0.076,2.282l0.244,0.71l0.463,0.539l0.716,0.39l0.853,0.24l1.12,0.237v0.076h-7.648V24.04l0.859-0.237
	l0.729-0.24l0.619-0.39l0.312-0.539l0.163-0.71l0.078-2.908l0.085-3.224V9.354l-0.085-1.727V5.812l-0.078-1.564V2.978l-0.163-0.854
	l-0.387-0.629l-0.545-0.397l-0.569-0.312l-0.619-0.156h-0.56V0.469l2.136-0.233l1.262,0.081l1.104,0.39l1.023,0.544l0.931,0.783
	l0.951,1.106l1.109,1.259l10.806,13.594V6.84l-0.17-3.46l-0.145-0.869l-0.478-0.629l-0.848-0.387l-1.214-0.245V1.179h6.792V1.25
	l-0.881,0.245l-0.626,0.232l-0.544,0.397l-0.318,0.542l-0.156,0.713l-0.085,2.279l-0.078,2.592v5.499l0.078,2.824l0.085,2.92
	l0.156,2.822l0.093,2.517H138.046z M85.455,2.034l-0.46,0.167l-0.244,0.31l-0.078,0.55v9.121l0.078,0.397l0.331,0.232l0.538,0.148
	h0.863l1.104-0.071l1.11-0.242l1.02-0.387l0.942-0.626l0.8-0.791l0.622-0.946l0.407-1.09l0.138-1.334l-0.138-1.498l-0.325-1.338
	l-0.625-1.018l-0.782-0.713l-1.038-0.552l-1.176-0.381l-1.27-0.09h-1.094L85.455,2.034z M96.643,24.752l-1.173-0.314l-1.094-0.632
	l-1.045-0.784l-1.019-0.942l-0.932-1.104l-5.441-6.519l-0.231-0.313l-0.252-0.155l-0.16-0.162l-0.15-0.071H84.91l-0.153,0.317v7.852
	l0.153,0.71l0.316,0.548l0.544,0.391l0.712,0.232l0.788,0.239v0.083h-8.03v-0.083l0.719-0.239l0.544-0.232l0.542-0.319l0.328-0.543
	l0.144-0.715l0.068-3.061l0.101-3.217V7.472l-0.101-2.285l-0.068-2.126l-0.144-0.702l-0.328-0.477l-0.466-0.3l-0.55-0.158
	l-0.945-0.161V1.179l1.495-0.081h1.745l1.882-0.074l1.648-0.08h1.36l1.482,0.08l1.417,0.155l1.267,0.316l1.182,0.477l1.023,0.617
	l0.791,0.79l0.631,1.02l0.407,1.343l0.151,1.492l-0.151,1.407l-0.5,1.255l-0.707,1.028l-0.875,0.86l-1.169,0.794l-1.357,0.539
	l-1.401,0.409l-0.072,0.078h-0.079v0.07l0.079,0.082l0.072,0.152l4.182,5.274l0.935,1.258l1.106,1.169l1.114,1.103l1.1,0.949
	l1.098,0.548l1.028,0.229v0.157l-0.551,0.158l-0.712,0.08l-0.632,0.077L96.643,24.752z M39.812,64.822v-0.153l0.944-0.155
	l0.561-0.15l0.468-0.326l0.307-0.468l0.168-0.71l0.075-2.117l0.075-2.523l0.076-2.67v-5.026l-0.076-2.432l-0.075-2.281l-0.075-2.036
	l-0.168-0.717l-0.307-0.461l-0.468-0.319l-0.561-0.159l-0.944-0.164v-0.162h16.01l0.085,1.346l0.062,1.659l0.082,1.485h-0.144
	l-0.169-0.629L55.5,44.951l-0.312-0.645l-0.313-0.532l-0.462-0.397l-0.638-0.239l-1.745-0.08h-3.931l-2.139,0.08l-0.472,0.152
	l-0.085,0.168l-0.078,0.226v8.343l0.163,0.306l0.169,0.072h6.688l0.723-0.072l0.531-0.406l0.326-0.461l0.238-0.708l0.078-0.778
	h0.172v6.597h-0.172l-0.078-0.704l-0.156-0.63l-0.231-0.633l-0.313-0.47l-0.487-0.312l-0.629-0.176h-6.688l-0.15,0.087l-0.104,0.089
	l-0.071,0.152v9.189l0.25,0.239l0.231,0.078h0.147l1.51,0.083l1.563,0.072h2.84l1.501-0.072l1.339-0.083l0.556-0.148l0.469-0.397
	l0.401-0.552l0.472-1.417l0.241-0.616h0.066v1.478l-0.066,1.575l-0.162,1.413H39.812L39.812,64.822z M125.44,64.822v-0.153
	l0.932-0.155l0.55-0.15l0.489-0.326l0.312-0.468l0.151-0.71l0.075-2.743l0.094-2.992v-3.145l-1.433-2.747l-0.872-1.732l-0.936-1.733
	l-0.882-1.558l-0.938-1.507l-1.013-1.168l-1.038-0.939l-1.189-0.642l-1.333-0.224v-0.161l1.026-0.149l0.948-0.083l1.585,0.162
	l1.264,0.293l1.095,0.642l0.944,0.868l0.788,1.005l0.713,1.271l0.782,1.421l2.845,5.257l0.776-1.178l0.875-1.417l0.939-1.494
	l0.95-1.569l0.879-1.495l0.71-1.257l0.222-0.541l-0.15-0.48l-0.231-0.31l-0.55-0.235l-0.636-0.151l-0.715-0.174v-0.146h6.075v0.146
	l-0.859,0.174l-0.801,0.387l-0.628,0.791l-5.761,9.275l-0.319,0.621l-0.234,0.542v3.617l0.096,2.912l0.081,2.598l0.145,0.7
	l0.319,0.481l0.468,0.312l0.563,0.15l0.938,0.16v0.153h-8.112V64.822z M166.821,42.347l-1.575,0.559l-1.342,0.94l-1.197,1.187
	l-0.941,1.483l-0.694,1.729l-0.4,2.054l-0.163,2.192l0.088,1.735l0.241,1.717l0.466,1.643l0.631,1.576l0.773,1.421l1.04,1.25
	l1.102,1.026l1.426,0.782l1.492,0.476l1.732,0.156l1.735-0.156l1.582-0.476l1.332-0.701l1.195-0.943l0.932-1.185l0.731-1.338
	l0.544-1.649l0.312-1.722l0.063-1.878l-0.063-1.822l-0.312-1.798l-0.476-1.733l-0.646-1.569l-0.848-1.416l-1.045-1.265l-1.251-1.021
	l-1.419-0.778l-1.58-0.478l-1.735-0.156L166.821,42.347z M166.976,65.065l-2.052-0.552l-1.811-0.872l-1.635-1.171l-1.442-1.414
	l-1.098-1.644l-0.856-1.826l-0.545-2.038l-0.181-2.197l0.181-2.197l0.545-2.049l0.778-1.879l1.104-1.727l1.417-1.417l1.654-1.178
	l1.889-0.869l2.133-0.625l2.301-0.153l2.121,0.153l1.963,0.542l1.805,0.952l1.673,1.097l1.41,1.497l1.189,1.646l0.859,1.885
	l0.545,2.046l0.174,2.198l-0.174,2.12l-0.457,1.966l-0.869,1.802l-1.023,1.726l-1.423,1.422l-1.663,1.258l-1.876,0.865l-2.133,0.549
	l-2.373,0.232L166.976,65.065z M93.507,65.372l-1.345-4.483l-1.407-4.707l-1.423-4.556l-1.422-4.399l-1.501,4.48l-1.413,4.631
	l-1.345,4.633l-1.344,4.4h-0.08l-0.802-2.347l-0.776-2.44l-0.863-2.521l-0.863-2.587l-1.741-4.87l-0.873-2.201l-0.703-1.967
	L74.9,44.704l-0.55-1.414l-0.319-0.626l-0.488-0.386l-0.469-0.159l-0.941-0.164v-0.162h7.415v0.162l-0.479,0.083l-0.545,0.081
	l-0.479,0.229l-0.3,0.316l-0.171,0.562l0.171,0.7l0.914,2.906l1.125,3.06l2.205,6.292l1.022,2.981l2.758-8.864l2.839-8.888h0.087
	l2.677,8.965l1.495,4.476l1.588,4.311l1.333-3.854l1.423-3.921l1.333-3.842l1.185-3.771l0.076-0.637l-0.076-0.392l-0.313-0.312
	l-0.406-0.242l-0.544-0.073l-0.95-0.164v-0.162h6.154v0.162l-0.707,0.083l-0.563,0.24l-0.462,0.31l-0.473,0.638l-0.4,0.936
	l-0.479,1.258l-0.619,1.65l-0.713,1.884l-0.788,2.202l-0.8,2.279l-1.727,4.876l-1.563,4.861l-0.72,2.202H93.507z M20.821,65.456
	L4.266,44.245v11.064l0.071,2.601v2.447l0.085,2.192l0.159,0.791l0.466,0.548l0.706,0.388l0.945,0.24l1.109,0.155v0.153H0.163
	v-0.153l0.787-0.233l0.707-0.239l0.645-0.31l0.381-0.548l0.162-0.791l0.088-2.909l0.057-3.146V50.05l-0.057-1.804v-1.729
	l-0.088-1.565l-0.081-1.268l-0.156-0.858L2.21,42.198l-0.453-0.406L1.11,41.499l-0.56-0.168H0v-0.232l2.21-0.155l1.261,0.078
	l1.025,0.391l0.944,0.542l0.945,0.792l0.95,1.028l1.101,1.329l10.801,13.526V47.456l-0.087-1.646v-1.727l-0.138-0.858l-0.566-0.638
	l-0.789-0.389l-1.26-0.244v-0.162h6.793v0.162l-0.87,0.244l-0.635,0.235l-0.556,0.391l-0.309,0.552l-0.169,0.707v2.198l-0.065,2.672
	v5.503l0.065,2.745l0.091,2.916l0.079,2.824l0.156,2.514H20.821z M205.052,42.663l-0.471,0.243l-0.143,0.319l-0.095,0.549v9.03
	l0.095,0.471l0.309,0.23l0.554,0.147h0.863l1.088-0.067l1.039-0.233l1.094-0.471l0.951-0.549l0.784-0.777l0.642-0.949l0.394-1.175
	l0.15-1.34l-0.15-1.503l-0.394-1.333l-0.544-1.026l-0.882-0.702l-0.951-0.541l-1.179-0.399l-1.338-0.072h-1.104L205.052,42.663z
	 M216.337,65.456l-1.188-0.39l-1.104-0.63l-1.007-0.793l-0.965-0.934l-1.024-1.096l-5.435-6.522l-0.313-0.237l-0.172-0.242
	l-0.156-0.154l-0.147-0.078h-0.244l-0.068,0.152l-0.074,0.08l-0.095,0.242v7.695l0.169,0.791l0.312,0.548l0.632,0.388l0.707,0.24
	l0.801,0.155v0.153h-8.05v-0.153l0.707-0.155l0.548-0.24l0.56-0.31l0.306-0.555l0.157-0.701l0.077-3.069l0.091-3.301v-5.815
	l-0.091-2.432v-2.281l-0.077-2.036l-0.157-0.717l-0.306-0.471l-0.47-0.31l-0.562-0.159l-0.565-0.081l-0.373-0.083v-0.162
	l1.411-0.062h1.666l1.805-0.072h2.917l1.589,0.072l1.495,0.146l1.407,0.322l1.182,0.465l1.029,0.626l0.785,0.872l0.631,1.023
	l0.407,1.254l0.138,1.569l-0.138,1.342l-0.407,1.173l-0.726,1.032l-0.844,0.849l-1.192,0.715l-1.266,0.533l-1.502,0.488
	l-0.156,0.086h-0.074v0.23l0.074,0.154l4.191,5.274l0.863,1.005l1.889,2.052l0.963,0.865l0.929,0.708l0.954,0.471l0.794,0.161v0.071
	l-0.554,0.239l-1.272,0.158L216.337,65.456z M258.05,66l-1.752-0.152l-1.563-0.393l-1.352-0.634l-1.263-0.857l-1.182-1.023
	l-1.104-1.178l-6.857-7.537l-0.162-0.167h-0.163l-0.069,0.167v3.531l0.069,1.882l0.087,1.727l0.076,1.494l0.162,0.71l0.31,0.468
	l0.479,0.326l0.557,0.15l0.938,0.155v0.153h-8.108v-0.153l0.382-0.075l0.572-0.08l0.535-0.15l0.465-0.326l0.329-0.468l0.152-0.71
	l0.082-2.126V58.22l0.081-2.67v-5.026l-0.081-2.432v-2.281l-0.082-2.036l-0.152-0.717l-0.329-0.471l-0.465-0.31l-0.535-0.159
	l-0.572-0.081l-0.382-0.083v-0.162h8.108v0.162l-0.938,0.164l-0.557,0.159l-0.479,0.31l-0.31,0.471l-0.162,0.717l-0.076,2.036
	l-0.087,2.356l-0.069,2.514v2.356l2.915-2.737l2.845-2.995l2.597-2.905l0.466-0.554l0.334-0.556l0.069-0.384l-0.162-0.472
	l-0.389-0.235l-0.638-0.161l-0.785-0.083v-0.162h6.076v0.162l-0.87,0.244l-0.797,0.548l-0.772,0.631l-0.8,0.784l-7.556,8.243
	l3.386,3.934l0.711,0.794l0.856,0.932l1.11,1.182l1.173,1.267l1.271,1.255l1.337,1.173l1.339,1.023l1.339,0.862l1.267,0.548
	L260,65.613v0.158l-0.618,0.167L258.675,66H258.05L258.05,66z"/>
</svg>
