<?xml version="1.0" encoding="utf-8"?>
<!-- Generator: Adobe Illustrator 16.0.0, SVG Export Plug-In . SVG Version: 6.00 Build 0)  -->
<!DOCTYPE svg PUBLIC "-//W3C//DTD SVG 1.1//EN" "http://www.w3.org/Graphics/SVG/1.1/DTD/svg11.dtd">
<svg version="1.1" id="Layer_1" xmlns="http://www.w3.org/2000/svg" xmlns:xlink="http://www.w3.org/1999/xlink" x="0px" y="0px"
	 width="513px" height="59px" viewBox="0 0 513 59" enable-background="new 0 0 513 59" xml:space="preserve">
<g>
	<g>
		<path d="M24.917,20.891c1.38-1.446,2.702-4.274,2.702-7.045c0-3.432-1.561-6.441-3.903-8.488
			c-2.041-1.806-4.683-2.951-9.426-2.951H0v42.144h16.391c5.403,0,8.646-1.445,10.987-3.792c2.341-2.288,3.843-5.54,3.843-9.092
			C31.221,26.971,28.639,22.758,24.917,20.891z M8.105,9.633h5.704c2.521,0,3.662,0.602,4.503,1.505
			c0.72,0.782,1.201,1.866,1.201,3.01c0,1.144-0.481,2.228-1.201,3.01c-0.841,0.903-1.981,1.505-4.503,1.505H8.105V9.633z
			 M21.615,35.46c-1.021,1.144-2.582,1.866-5.404,1.866H8.105V25.888h8.105c2.822,0,4.383,0.723,5.404,1.867
			c0.96,1.023,1.501,2.348,1.501,3.853C23.116,33.111,22.575,34.437,21.615,35.46z M61.543,17.7
			c-2.282-1.867-5.224-2.951-8.526-2.951c-7.925,0-14.289,6.623-14.289,15.232c0,3.974,1.44,7.586,3.722,10.234
			c2.582,3.01,6.665,4.937,10.988,4.937c2.941,0,5.703-0.903,8.105-2.95v2.348h7.505v-29.2h-7.505V17.7z M61.243,34.316
			c-1.501,2.167-4.083,3.613-7.025,3.613c-4.383,0-7.685-3.372-7.685-7.947c0-4.214,2.941-8.007,7.504-8.007
			c3.002,0,5.584,1.445,7.206,3.612V34.316z M88.562,18.302v-2.95h-7.504v29.2h7.805V26.188c0.96-1.745,3.662-4.214,7.084-4.214
			c1.141,0,2.281,0.121,2.822,0.301l0.901-7.285c-0.841-0.121-1.501-0.241-2.642-0.241C93.486,14.75,90.303,16.134,88.562,18.302z
			 M124.407,14.75c-3.242,0-6.004,1.145-8.226,2.951v-2.349h-7.505v29.2h7.805V25.587c1.081-1.505,3.783-3.612,7.085-3.612
			c1.801,0,3.362,0.602,4.383,1.626c1.081,1.083,1.741,2.588,1.741,5.478v15.473h7.805V29.681c0-4.998-1.08-7.947-3.001-10.235
			C132.092,16.556,128.429,14.75,124.407,14.75z M160.673,14.75c-8.646,0-14.17,7.104-14.17,15.232
			c0,9.151,6.544,15.171,15.25,15.171c4.503,0,9.127-1.866,11.948-5.238l-4.443-4.455c-1.38,1.505-4.022,3.371-7.325,3.371
			c-4.143,0-7.445-2.829-7.865-6.923h20.174c0.121-0.663,0.181-1.444,0.181-2.228C174.422,21.553,168.718,14.75,160.673,14.75z
			 M154.429,26.188c0.359-2.649,3.002-5.117,6.244-5.117c3.182,0,5.523,2.529,5.763,5.117H154.429z M196.938,32.872l-8.525-17.52
			h-8.587l13.028,26.25L184.81,59h8.166l20.053-43.648h-8.226L196.938,32.872z M227.14,23.72c0-1.504,1.802-2.348,3.963-2.348
			c2.102,0,4.083,0.903,5.584,1.987l3.663-5.659c-1.922-1.505-6.065-2.951-9.847-2.951c-5.765,0-11.168,3.493-11.168,9.091
			c0,9.393,14.109,7.827,14.109,12.222c0,1.445-1.62,2.468-3.723,2.468c-2.941,0-6.004-1.083-7.985-2.89l-3.781,5.599
			c3.422,2.529,7.684,3.913,11.707,3.913c6.124,0,11.587-3.432,11.587-9.031C241.249,26.008,227.14,27.513,227.14,23.72z
			 M270.971,44.551h8.104V25.587h12.909v-7.225h-12.909V9.633h17.111V2.408h-25.216V44.551z M315.582,14.75
			c-8.827,0-15.491,6.804-15.491,15.232c0,8.429,6.664,15.171,15.491,15.171c8.825,0,15.489-6.743,15.489-15.171
			C331.071,21.553,324.407,14.75,315.582,14.75z M315.582,37.929c-4.563,0-7.686-3.552-7.686-7.947c0-4.395,3.122-8.007,7.686-8.007
			s7.684,3.612,7.684,8.007C323.266,34.376,320.146,37.929,315.582,37.929z M348.185,18.302v-2.95h-7.504v29.2h7.805V26.188
			c0.96-1.745,3.662-4.214,7.084-4.214c1.142,0,2.282,0.121,2.822,0.301l0.9-7.285c-0.84-0.121-1.501-0.241-2.642-0.241
			C353.107,14.75,349.926,16.134,348.185,18.302z M391.414,0c-2.822,0-5.103,2.167-5.103,4.997c0,2.83,2.28,4.997,5.103,4.997
			c2.821,0,5.104-2.167,5.104-4.997C396.519,2.167,394.235,0,391.414,0z M387.512,44.551h7.805v-29.2h-7.805V44.551z M423.416,2.408
			h-15.79v42.144h8.106V27.393h7.684c5.403,0,8.646-1.325,10.929-3.732c2.101-2.167,3.302-5.418,3.302-8.73
			c0-3.311-1.201-6.562-3.302-8.729C432.003,3.732,428.819,2.408,423.416,2.408z M428.159,18.483
			c-0.96,1.023-2.341,1.686-5.103,1.686h-7.324V9.633h7.324c2.762,0,4.143,0.662,5.103,1.685c0.901,0.963,1.382,2.228,1.382,3.612
			C429.541,16.315,429.061,17.519,428.159,18.483z M465.567,17.7c-2.283-1.867-5.224-2.951-8.526-2.951
			c-7.925,0-14.29,6.623-14.29,15.232c0,3.974,1.44,7.586,3.724,10.234c2.581,3.01,6.663,4.937,10.986,4.937
			c2.943,0,5.704-0.903,8.106-2.95v2.348h7.504v-29.2h-7.504V17.7z M465.266,34.316c-1.5,2.167-4.082,3.613-7.025,3.613
			c-4.381,0-7.684-3.372-7.684-7.947c0-4.214,2.941-8.007,7.504-8.007c3.002,0,5.586,1.445,7.205,3.612V34.316z M505.194,1.806
			v15.653c-2.282-1.806-5.043-2.71-8.227-2.71c-7.925,0-14.29,6.623-14.29,15.232c0,3.974,1.442,7.586,3.724,10.234
			c2.581,3.01,6.663,4.937,10.988,4.937c2.941,0,5.702-0.903,8.104-2.95v2.348H513V1.806H505.194z M505.194,34.316
			c-1.502,2.167-4.084,3.613-7.025,3.613c-4.383,0-7.686-3.372-7.686-7.947c0-4.214,2.943-8.007,7.506-8.007
			c3.002,0,5.584,1.445,7.205,3.612V34.316z"/>
	</g>
</g>
</svg>
