<?xml version="1.0" encoding="utf-8"?>
<!-- Generator: Adobe Illustrator 16.0.0, SVG Export Plug-In . SVG Version: 6.00 Build 0)  -->
<!DOCTYPE svg PUBLIC "-//W3C//DTD SVG 1.1//EN" "http://www.w3.org/Graphics/SVG/1.1/DTD/svg11.dtd">
<svg version="1.1" id="Layer_1" xmlns="http://www.w3.org/2000/svg" xmlns:xlink="http://www.w3.org/1999/xlink" x="0px" y="0px"
	 width="260px" height="56px" viewBox="0 0 260 56" enable-background="new 0 0 260 56" xml:space="preserve">
<g id="Discovery_Channel_Logo_1_">
	<g id="Globe">
		<defs>
			<path id="SVGID_1_" d="M14.657,7.797c8.095,0,14.656,6.562,14.656,14.656c0,8.095-6.561,14.657-14.656,14.657
				C6.562,37.11,0,30.548,0,22.453C0,14.359,6.562,7.797,14.657,7.797L14.657,7.797z"/>
		</defs>
		<use xlink:href="#SVGID_1_"  overflow="visible" fill-rule="evenodd" clip-rule="evenodd" fill="#FFFFFF"/>
		<clipPath id="SVGID_2_">
			<use xlink:href="#SVGID_1_"  overflow="visible"/>
		</clipPath>
	</g>
	<path id="TM" fill="#FFFFFF" d="M250.126,46.999v0.358h-1.014v2.649h-0.411v-2.649h-1.01v-0.358H250.126z M250.49,46.999h0.585
		l0.862,2.543l0.86-2.543h0.577v3.008h-0.389V48.23c0-0.062,0-0.162,0.007-0.304c0.001-0.142,0.001-0.295,0.001-0.454l-0.857,2.535
		h-0.402l-0.867-2.535v0.088c0,0.075,0.001,0.189,0.007,0.336c0.001,0.151,0.004,0.263,0.004,0.333v1.777h-0.388V46.999z"/>
	<path id="Communications" fill="#FFFFFF" d="M32.683,52.271l1.244,1.259l-0.062,0.065c-1.039,1.085-2.205,1.785-4.073,1.785
		c-0.004,0-0.009,0-0.013,0c-2.937-0.007-5.125-2.296-5.132-5.202c0.007-2.878,2.151-5.224,5.203-5.229
		c1.847-0.001,2.985,0.65,3.942,1.567l0.062,0.062l-1.239,1.427l-0.069-0.064c-0.786-0.729-1.607-1.206-2.709-1.208
		c-1.842,0.002-3.174,1.507-3.177,3.418c0.003,1.91,1.337,3.442,3.177,3.442c1.189,0,1.935-0.476,2.78-1.261L32.683,52.271z
		 M49.809,50.15c-0.005,2.849-2.193,5.223-5.285,5.23c-3.093-0.007-5.253-2.353-5.258-5.202c0.005-2.85,2.193-5.224,5.286-5.229
		C47.643,44.954,49.804,47.3,49.809,50.15z M47.797,50.178c-0.001-1.896-1.362-3.443-3.273-3.446
		c-1.914,0.002-3.244,1.521-3.247,3.418c0.002,1.895,1.363,3.442,3.274,3.445C46.464,53.592,47.794,52.074,47.797,50.178z
		 M60.865,49.722l-2.963-4.604h-1.999v10.091h1.899v-6.86l2.956,4.426h0.106h0.049l0.028-0.041l2.957-4.415v6.889h1.927V45.118
		h-1.998L60.865,49.722z M79.3,49.722l-2.962-4.604H74.34v10.091h1.897v-6.86l2.956,4.426h0.108h0.049l0.027-0.041l2.958-4.417
		v6.892h1.926V45.118h-1.997L79.3,49.722z M98.507,50.914c-0.011,1.793-0.898,2.655-2.398,2.665c-1.511-0.007-2.4-0.929-2.411-2.736
		v-5.725h-1.927v5.796c0.005,2.91,1.696,4.446,4.311,4.45c2.626-0.004,4.347-1.541,4.352-4.535v-5.711h-1.927V50.914z
		 M114.864,45.211v6.575l-5.168-6.669h-1.752v10.091h1.898v-6.868l5.323,6.868h1.597V45.118h-1.898V45.211z M124.808,45.118v10.091
		h1.928V45.118h-0.093H124.808z M140.898,52.331c-0.847,0.786-1.593,1.261-2.78,1.264c-1.841-0.003-3.174-1.535-3.176-3.445
		c0.002-1.911,1.333-3.416,3.176-3.418c1.104,0.002,1.925,0.479,2.709,1.208l0.068,0.065l1.241-1.428l-0.064-0.062
		c-0.957-0.917-2.094-1.569-3.94-1.567c-3.052,0.005-5.198,2.352-5.202,5.229c0.004,2.906,2.192,5.195,5.131,5.202
		c0.004,0,0.009,0,0.012,0c1.871,0,3.033-0.7,4.073-1.785l0.063-0.065l-1.246-1.259L140.898,52.331z M158.209,55.078l0.059,0.131
		h-2.044l-1.006-2.39h-4.561l-1.018,2.39h-1.988l4.44-10.16h1.735L158.209,55.078z M152.931,47.456l-1.557,3.635h3.128
		L152.931,47.456z M162.771,46.917h3.14v8.292h1.941v-0.092v-8.2h3.142v-1.799h-8.223V46.917z M178.051,45.118v10.091h1.927V45.118
		h-0.093H178.051z M197.282,50.15c-0.006,2.85-2.191,5.223-5.286,5.23c-3.092-0.007-5.251-2.354-5.258-5.202
		c0.007-2.851,2.194-5.223,5.288-5.229C195.117,44.955,197.276,47.3,197.282,50.15z M195.271,50.178
		c-0.004-1.896-1.361-3.443-3.274-3.446c-1.914,0.002-3.243,1.521-3.245,3.418c0.001,1.894,1.361,3.442,3.274,3.445
		C193.938,53.592,195.267,52.074,195.271,50.178z M210.58,45.211v6.574l-5.168-6.668h-1.751v10.091h1.897v-6.868l5.321,6.868h1.6
		V45.118h-1.899V45.211z M224.079,49.28c-1.904-0.464-2.275-0.766-2.278-1.481c0.003-0.6,0.529-1.09,1.521-1.095
		c0.881,0,1.751,0.343,2.634,1.002l0.076,0.058l1.04-1.467l-0.067-0.054c-1.021-0.82-2.191-1.268-3.653-1.267
		c-2.003,0.003-3.474,1.196-3.477,2.98c-0.005,1.895,1.262,2.562,3.369,3.062c1.845,0.437,2.16,0.773,2.165,1.438
		c-0.001,0.698-0.608,1.16-1.662,1.165c-1.206,0-2.126-0.453-3.066-1.264l-0.07-0.062l-1.168,1.384l0.069,0.062
		c1.202,1.077,2.657,1.609,4.193,1.609c2.108-0.003,3.627-1.139,3.632-3.063C227.341,50.575,226.179,49.781,224.079,49.28z"/>
	<path id="Discovery" fill="#FFFFFF" d="M55.356,18.458c0,10.471-8.039,18.561-19.674,18.561H24.425
		c2.272-1.517,4.168-3.541,5.528-5.923h5.729c7.774,0,12.852-5.235,12.852-12.532c0-7.297-5.078-12.64-12.852-12.64h-7.298v5.443
		c-1.071-1.332-2.321-2.517-3.733-3.489c-0.869-0.599-1.8-1.111-2.772-1.548V0h13.803C47.317,0,55.356,7.985,55.356,18.458z
		 M59.064,37.237h6.403V9.298h-6.403V37.237z M89.216,23.4c-0.827-0.615-1.754-1.136-2.778-1.561
		c-1.024-0.422-2.044-0.792-3.068-1.11c-0.811-0.283-1.594-0.547-2.354-0.795c-0.758-0.245-1.429-0.52-2.01-0.817
		c-0.583-0.301-1.051-0.635-1.401-1.008c-0.354-0.368-0.53-0.801-0.53-1.296v-0.103c0-0.812,0.342-1.483,1.032-2.011
		c0.687-0.528,1.65-0.793,2.883-0.793c1.166,0,2.433,0.238,3.809,0.714c1.375,0.475,2.734,1.12,4.075,1.931l2.539-4.551
		c-1.48-0.987-3.12-1.763-4.921-2.327c-1.797-0.565-3.581-0.848-5.343-0.848c-1.376,0-2.671,0.195-3.889,0.583
		c-1.217,0.389-2.275,0.953-3.175,1.693c-0.9,0.741-1.606,1.629-2.116,2.67c-0.513,1.044-0.768,2.233-0.768,3.572v0.106
		c0,1.342,0.264,2.47,0.794,3.389c0.529,0.915,1.209,1.683,2.037,2.298c0.829,0.62,1.764,1.123,2.804,1.511
		c1.041,0.387,2.073,0.723,3.096,1.005c0.811,0.248,1.596,0.484,2.355,0.714c0.758,0.23,1.427,0.493,2.01,0.794
		c0.583,0.299,1.04,0.644,1.375,1.031c0.334,0.389,0.502,0.849,0.502,1.376v0.104c0,0.919-0.379,1.649-1.138,2.195
		c-0.757,0.549-1.824,0.821-3.2,0.821c-1.446,0-2.955-0.29-4.523-0.874c-1.571-0.581-3.115-1.438-4.631-2.564l-2.857,4.338
		c1.764,1.375,3.677,2.417,5.742,3.122c2.062,0.707,4.099,1.057,6.111,1.057c1.444,0,2.804-0.182,4.075-0.554
		c1.268-0.372,2.37-0.916,3.305-1.641c0.936-0.723,1.668-1.629,2.198-2.725c0.529-1.091,0.793-2.382,0.793-3.863v-0.104
		c0-1.271-0.264-2.348-0.793-3.228C90.726,24.767,90.045,24.018,89.216,23.4z M151.005,17.578c0.74,1.749,1.111,3.628,1.111,5.639
		v0.104c0,1.976-0.38,3.845-1.137,5.607c-0.76,1.764-1.799,3.308-3.123,4.631c-1.321,1.326-2.902,2.372-4.732,3.148
		c-1.836,0.776-3.83,1.167-5.981,1.167c-2.117,0-4.083-0.38-5.898-1.14c-1.818-0.757-3.389-1.791-4.711-3.094
		c-1.324-1.306-2.354-2.841-3.096-4.602c-0.741-1.765-1.111-3.635-1.111-5.609v-0.107c0-2.01,0.378-3.898,1.138-5.662
		c0.758-1.763,1.8-3.307,3.123-4.628c1.322-1.325,2.894-2.375,4.708-3.148c1.817-0.778,3.801-1.165,5.953-1.165
		c2.153,0,4.137,0.379,5.953,1.136c1.816,0.76,3.386,1.799,4.709,3.124C149.232,14.299,150.265,15.834,151.005,17.578z
		 M145.716,23.321c0-1.235-0.213-2.398-0.636-3.491c-0.423-1.094-1.014-2.045-1.772-2.857c-0.76-0.812-1.657-1.456-2.699-1.933
		c-1.04-0.476-2.197-0.713-3.466-0.713c-1.271,0-2.426,0.237-3.463,0.713c-1.042,0.477-1.934,1.111-2.675,1.906
		c-0.739,0.794-1.305,1.728-1.691,2.803c-0.39,1.076-0.583,2.232-0.583,3.468v0.104c0,1.201,0.212,2.346,0.635,3.438
		c0.422,1.096,1.013,2.054,1.773,2.885c0.758,0.829,1.657,1.479,2.699,1.955c1.04,0.477,2.177,0.717,3.411,0.717
		c1.304,0,2.479-0.24,3.519-0.717c1.042-0.476,1.933-1.119,2.673-1.93c0.739-0.811,1.303-1.753,1.693-2.831
		c0.386-1.075,0.583-2.213,0.583-3.41V23.321z M166.771,29.833l-7.514-20.535h-6.878l11.483,28.151h5.766l11.429-28.151h-6.721
		L166.771,29.833z M207.863,18.004c0.563,1.817,0.847,3.731,0.847,5.74c0,0.283-0.008,0.575-0.023,0.875
		c-0.019,0.299-0.047,0.607-0.082,0.925h-20.529c0.354,2.292,1.261,4.049,2.724,5.262c1.465,1.22,3.236,1.83,5.319,1.83
		c1.586,0,2.963-0.283,4.126-0.849c1.166-0.564,2.311-1.391,3.438-2.487l3.761,3.335c-1.344,1.586-2.939,2.856-4.793,3.808
		c-1.851,0.953-4.063,1.431-6.638,1.431c-2.011,0-3.89-0.358-5.637-1.06c-1.743-0.706-3.261-1.694-4.551-2.964
		c-1.285-1.27-2.301-2.794-3.04-4.575c-0.742-1.781-1.112-3.75-1.112-5.901v-0.108c0-2.008,0.335-3.895,1.005-5.66
		c0.669-1.763,1.614-3.307,2.83-4.627c1.219-1.325,2.654-2.364,4.313-3.124c1.657-0.757,3.492-1.136,5.504-1.136
		c2.219,0,4.17,0.407,5.846,1.216c1.674,0.812,3.067,1.906,4.181,3.279C206.464,14.591,207.302,16.188,207.863,18.004z
		 M202.362,20.64c-0.105-1.023-0.336-1.314-0.691-2.213c-0.35-0.898-0.829-1.684-1.426-2.353c-0.601-0.67-1.315-1.191-2.143-1.563
		c-0.827-0.369-1.772-0.554-2.833-0.554c-1.974,0-3.605,0.678-4.894,2.037c-1.285,1.359-2.072,2.459-2.355,4.646H202.362z
		 M109.683,32.301c-4.919,0-8.356-4.018-8.356-9.043c0-4.92,3.384-8.941,8.04-8.941c3.226,0,5.289,1.428,7.246,3.492l3.968-4.284
		c-2.593-2.855-5.872-4.812-11.162-4.812c-8.356,0-14.492,6.664-14.492,14.651c0,7.985,6.135,14.492,14.439,14.492
		c5.446,0,8.674-2.17,11.425-5.237l-3.862-3.807C114.918,30.873,112.698,32.301,109.683,32.301z M219.896,13.916V9.298h-6.399
		v27.938h6.399V26.6c0-1.867,0.175-3.51,0.689-4.864c1.927-5.082,7.301-6.528,10.082-6.94l-2.194-5.338
		C226.238,9.842,222.306,10.919,219.896,13.916z M253.334,9.296l-7.159,20.48l-6.684-20.48h-6.827l10.38,27.743l-0.082,0.191
		c0,0-2.091,5.659-3.982,7.029c-1.458,0.745-4.868,0.688-6.157,0.6v5.23c2.252-0.003,7.553,0.142,9.26-0.939
		c2.142-1.354,2.62-1.938,4.084-4.906C247.761,41.012,260,9.296,260,9.296H253.334z"/>
</g>
</svg>
