<?xml version="1.0" encoding="utf-8"?>
<!-- Generator: Adobe Illustrator 16.0.0, SVG Export Plug-In . SVG Version: 6.00 Build 0)  -->
<!DOCTYPE svg PUBLIC "-//W3C//DTD SVG 1.1//EN" "http://www.w3.org/Graphics/SVG/1.1/DTD/svg11.dtd">
<svg version="1.1" id="Layer_1" xmlns="http://www.w3.org/2000/svg" xmlns:xlink="http://www.w3.org/1999/xlink" x="0px" y="0px"
	 width="260px" height="131px" viewBox="0 0 260 131" enable-background="new 0 0 260 131" xml:space="preserve">
<g>
	<path fill="#FFFFFF" d="M132.268,18.908c-0.574-1.438-1.748-2.262-3.393-2.262c-1.005,0-2.371,0.388-3.203,2.23l-12.265,28.353
		c-0.152,0.379-0.223,0.763-0.223,1.182c0,1.621,1.335,2.941,2.98,2.941c1.388,0,2.384-1.003,2.889-2.014l9.868-23.645l9.825,23.547
		c0.542,1.325,1.655,2.112,2.979,2.112c1.643,0,3.03-1.367,3.03-2.983c0-0.522-0.095-0.931-0.281-1.299L132.268,18.908z"/>
	<g>
		<path fill="#FFFFFF" d="M128.97,0c-20.316,0-36.789,16.47-36.789,36.791c0,20.33,16.473,36.803,36.789,36.803
			c20.326,0,36.795-16.474,36.795-36.803C165.765,16.47,149.296,0,128.97,0z M128.97,67.315c-16.828,0-30.518-13.69-30.518-30.525
			c0-16.825,13.69-30.518,30.518-30.518c16.83,0,30.521,13.692,30.521,30.518C159.491,53.625,145.8,67.315,128.97,67.315z"/>
	</g>
	<g>
		<g>
			<path fill="#FFFFFF" d="M62.282,124.435H45.184V95.8c0-1.769-1.443-3.209-3.209-3.209c-1.741,0-3.16,1.44-3.16,3.209v31.492
				c0,1.771,1.418,3.209,3.16,3.209h20.307c1.654,0,3.003-1.35,3.003-3.008C65.285,125.807,63.936,124.435,62.282,124.435z"/>
			<path fill="#FFFFFF" d="M100.381,124.484H81.425v-9.957h16.438c1.661,0,3.01-1.347,3.01-3.004c0-1.633-1.378-3.011-3.01-3.011
				H81.425V98.86h18.708c1.661,0,3.01-1.349,3.01-3.009c0-1.658-1.35-3.008-3.01-3.008H78.216c-1.742,0-3.16,1.44-3.16,3.209v31.24
				c0,1.771,1.418,3.209,3.16,3.209h22.165c1.661,0,3.011-1.35,3.011-3.008C103.392,125.834,102.042,124.484,100.381,124.484z"/>
			<path fill="#FFFFFF" d="M25.332,124.484H6.369v-9.957h16.444c1.66,0,3.01-1.347,3.01-3.004c0-1.633-1.381-3.011-3.01-3.011H6.369
				V98.86h18.708c1.661,0,3.011-1.349,3.011-3.009c0-1.658-1.35-3.008-3.011-3.008H3.159C1.418,92.843,0,94.283,0,96.052v31.24
				c0,1.771,1.418,3.209,3.159,3.209h22.172c1.661,0,3.01-1.35,3.01-3.008C28.342,125.834,26.992,124.484,25.332,124.484z"/>
			<path fill="#FFFFFF" d="M251.453,115.564c5.457-1.644,8.546-5.564,8.546-11.048c0-3.047-1.092-5.818-3.073-7.799
				c-2.5-2.497-6.362-3.875-10.872-3.875h-13.203c-1.741,0-3.159,1.44-3.159,3.209v31.492c0,1.77,1.418,3.209,3.159,3.209
				c1.772,0,3.209-1.439,3.209-3.209v-10.746h8.347l9.56,12.423c0.958,1.266,2.062,1.532,2.824,1.532
				c1.71,0,3.209-1.477,3.209-3.158c0-1.059-0.549-1.795-0.909-2.196L251.453,115.564z M253.574,104.769
				c0,3.685-3.091,6.063-7.874,6.063h-9.641V98.91h9.689C250.726,98.91,253.574,101.008,253.574,104.769z"/>
			<path fill="#FFFFFF" d="M171.401,94.941c-0.664-1.614-1.931-2.503-3.779-2.503c-1.648,0-2.861,0.827-3.601,2.459l-14.298,31.258
				c-0.253,0.514-0.374,1.032-0.374,1.586c0,1.661,1.349,3.011,3.01,3.011c1.368,0,2.469-0.768,3.001-2.068l3.361-7.503h17.807
				l3.352,7.392c0.594,1.365,1.738,2.18,3.059,2.18c1.717,0,3.11-1.396,3.11-3.109c0-0.439-0.111-0.92-0.36-1.505L171.401,94.941z
				 M173.891,115.164h-12.532l6.263-13.935L173.891,115.164z"/>
			<path fill="#FFFFFF" d="M216.767,92.843h-24.491c-1.654,0-3.054,1.399-3.054,3.057c0,1.661,1.368,3.01,3.054,3.01h9.037v28.634
				c0,1.77,1.443,3.209,3.209,3.209c1.772,0,3.209-1.439,3.209-3.209V98.91h9.036c1.686,0,3.062-1.35,3.062-3.01
				C219.828,94.242,218.425,92.843,216.767,92.843z"/>
			<path fill="#FFFFFF" d="M143.074,92.591c-1.474,0-2.534,1.07-3.069,2.146l-11.143,26.684l-11.085-26.581
				c-0.579-1.409-1.766-2.248-3.172-2.248c-1.738,0-3.209,1.446-3.209,3.16c0,0.55,0.1,0.983,0.301,1.383l13.589,31.355
				c0.61,1.532,1.86,2.413,3.427,2.413h0.198c1.07,0,2.526-0.41,3.415-2.378l13.665-31.567c0.161-0.398,0.242-0.809,0.242-1.256
				C146.233,93.987,144.815,92.591,143.074,92.591z"/>
		</g>
	</g>
</g>
</svg>
