<?xml version="1.0" encoding="utf-8"?>
<!-- Generator: Adobe Illustrator 16.0.0, SVG Export Plug-In . SVG Version: 6.00 Build 0)  -->
<!DOCTYPE svg PUBLIC "-//W3C//DTD SVG 1.1//EN" "http://www.w3.org/Graphics/SVG/1.1/DTD/svg11.dtd">
<svg version="1.1" id="Layer_1" xmlns="http://www.w3.org/2000/svg" xmlns:xlink="http://www.w3.org/1999/xlink" x="0px" y="0px"
	 width="70px" height="70px" viewBox="0 0 70 70" enable-background="new 0 0 70 70" xml:space="preserve">
<path fill="none" d="M32.394,41.15c-2.019,4.922-7.646,7.271-12.566,5.25c-4.92-2.019-7.273-7.66-5.255-12.583
	c0.012-0.031,0.029-0.121,0.043-0.121h-0.002c2.731-6.357,8.674-10.79,15.257-11.667l-2.688,6.58
	C32.071,30.645,34.405,36.244,32.394,41.15L32.394,41.15z"/>
<path fill="none" d="M32.394,41.157c-2.014,4.91-7.61,7.261-12.519,5.276l7.306-17.824C32.071,30.645,34.405,36.251,32.394,41.157
	L32.394,41.157z"/>
<path fill="none" d="M55.427,41.15c-2.018,4.922-7.643,7.271-12.563,5.25c-4.923-2.019-7.275-7.66-5.257-12.583
	c0.014-0.031,0.03-0.121,0.043-0.121c2.73-6.357,8.674-10.79,15.254-11.667l-2.686,6.58C55.106,30.645,57.44,36.244,55.427,41.15
	L55.427,41.15z"/>
<path fill="none" d="M55.427,41.157c-2.011,4.91-7.607,7.261-12.519,5.276l7.31-17.824C55.106,30.645,57.44,36.251,55.427,41.157
	L55.427,41.157z"/>
<path fill="#00c2d9" d="M59.747,10.245c-13.668-13.673-35.828-13.673-49.494,0c-13.668,13.673-13.668,35.837,0,49.51
	c13.666,13.673,35.826,13.673,49.494,0S73.415,23.918,59.747,10.245z M58.331,58.342c-6.232,6.235-14.518,9.669-23.332,9.669
	s-17.1-3.434-23.33-9.669C5.436,52.106,2.002,43.816,2.002,35c0-8.817,3.434-17.106,9.667-23.343
	c6.23-6.232,14.516-9.666,23.33-9.666s17.102,3.434,23.332,9.666c6.233,6.236,9.667,14.525,9.667,23.343
	C67.998,43.816,64.564,52.106,58.331,58.342z"/>
<path fill="#00c2d9" d="M32.393,41.151c-2.018,4.921-7.645,7.268-12.565,5.248c-4.92-2.019-7.275-7.659-5.255-12.582
	c0.012-0.033,0.029-0.123,0.043-0.123h-0.002c2.731-6.355,8.674-10.789,15.256-11.664l-2.687,6.58
	C32.073,30.645,34.406,36.243,32.393,41.151L32.393,41.151z M55.427,41.151c-2.018,4.921-7.645,7.268-12.564,5.248
	c-4.92-2.019-7.275-7.659-5.255-12.582c0.012-0.033,0.028-0.123,0.043-0.123h-0.003c2.732-6.355,8.674-10.789,15.257-11.664
	l-2.687,6.58C55.106,30.645,57.44,36.243,55.427,41.151L55.427,41.151z"/>
<path fill="#00d2eb" d="M32.393,41.159c-2.013,4.908-7.609,7.258-12.518,5.275l7.308-17.824
	C32.073,30.645,34.406,36.253,32.393,41.159L32.393,41.159z M55.427,41.159c-2.01,4.908-7.609,7.258-12.518,5.275l7.309-17.824
	C55.106,30.645,57.44,36.253,55.427,41.159L55.427,41.159z"/>
</svg>
