<?xml version="1.0" encoding="utf-8"?>
<!-- Generator: Adobe Illustrator 16.0.0, SVG Export Plug-In . SVG Version: 6.00 Build 0)  -->
<!DOCTYPE svg PUBLIC "-//W3C//DTD SVG 1.1//EN" "http://www.w3.org/Graphics/SVG/1.1/DTD/svg11.dtd">
<svg version="1.1" id="Layer_1" xmlns="http://www.w3.org/2000/svg" xmlns:xlink="http://www.w3.org/1999/xlink" x="0px" y="0px"
	 width="260px" height="72px" viewBox="0 0 260 72" enable-background="new 0 0 260 72" xml:space="preserve">
<g>
	<g>
		<polygon fill="#FFFFFF" points="255.246,15.337 254.134,15.337 254.134,18.416 253.43,18.416 253.43,15.337 252.322,15.337 
			252.322,14.76 255.246,14.76 		"/>
		<polygon fill="#FFFFFF" points="257.998,17.352 258.985,14.76 260,14.76 260,18.416 259.338,18.416 259.338,15.563 
			259.318,15.563 258.24,18.416 257.746,18.416 256.663,15.563 256.642,15.563 256.642,18.416 255.983,18.416 255.983,14.76 
			257.005,14.76 		"/>
	</g>
	<path fill="#FFFFFF" d="M0,0.407h4.732h4.769v17.157c2.947-2.804,6.38-4.182,10.302-4.135c4.664,0,8.37,1.589,11.119,4.766
		c2.75,3.179,4.125,7.479,4.125,12.899v23.485h-4.734h-4.768V33.198c0-3.623-0.667-6.374-2.001-8.256
		c-1.334-1.88-3.289-2.822-5.865-2.822c-2.738,0-4.784,0.96-6.142,2.875c-1.357,1.917-2.036,4.791-2.036,8.624v20.96H4.768H0V0.407z
		"/>
	<path fill="#FFFFFF" d="M58.673,55.911c-5.43,0-10.058-2.062-13.887-6.187c-3.828-4.124-5.741-9.13-5.741-15.019
		c0-5.889,1.913-10.907,5.741-15.055c3.829-4.147,8.47-6.221,13.922-6.221c5.266,0,9.733,1.905,13.4,5.713V14.76h8.734v39.819
		h-4.351h-4.384v-4.347C68.396,53.995,63.917,55.887,58.673,55.911z M60.239,22.085c-3.318,0-6.091,1.21-8.318,3.629
		c-2.228,2.418-3.34,5.415-3.34,8.991c0,3.552,1.112,6.531,3.34,8.938c2.228,2.407,4.988,3.61,8.283,3.61
		c3.318,0,6.098-1.203,8.336-3.61c2.238-2.407,3.359-5.399,3.359-8.973c0-3.576-1.114-6.566-3.341-8.973
		C66.33,23.291,63.557,22.085,60.239,22.085z"/>
	<path fill="#FFFFFF" d="M85.743,14.76h4.352h4.384v4.207c3.711-3.714,8.12-5.561,13.225-5.538c5.429,0,10.045,2.074,13.852,6.221
		c3.805,4.149,5.707,9.167,5.707,15.055c0,5.889-1.902,10.895-5.707,15.019c-3.807,4.125-8.434,6.187-13.888,6.187
		c-4.71-0.023-8.852-1.6-12.424-4.732v20.504h-4.733h-4.768V14.76z M106.173,47.253c3.27,0,6.016-1.203,8.23-3.61
		c2.216-2.407,3.324-5.386,3.324-8.938c0-3.575-1.103-6.572-3.305-8.991c-2.206-2.419-4.944-3.629-8.213-3.629
		c-3.273,0-6.01,1.205-8.215,3.611c-2.205,2.407-3.308,5.397-3.308,8.973c0,3.574,1.103,6.566,3.308,8.973
		S102.924,47.253,106.173,47.253z"/>
	<path fill="#FFFFFF" d="M131.016,14.76h4.352h4.385v4.207c3.712-3.714,8.12-5.561,13.226-5.538c5.429,0,10.047,2.074,13.852,6.221
		c3.806,4.149,5.709,9.167,5.709,15.055c0,5.889-1.903,10.895-5.709,15.019c-3.805,4.125-8.434,6.187-13.887,6.187
		c-4.711-0.023-8.852-1.6-12.424-4.731v20.503h-4.735h-4.768V14.76z M151.446,47.253c3.271,0,6.016-1.203,8.23-3.61
		c2.216-2.407,3.325-5.386,3.325-8.938c0-3.575-1.104-6.572-3.307-8.991c-2.205-2.419-4.942-3.629-8.214-3.629
		c-3.272,0-6.01,1.205-8.214,3.611c-2.205,2.407-3.307,5.399-3.307,8.973c0,3.574,1.102,6.566,3.307,8.973
		C145.472,46.05,148.196,47.253,151.446,47.253z"/>
	<path fill="#FFFFFF" d="M176.742,14.76h4.732h4.769v39.819h-4.733h-4.768V14.76z"/>
	<path fill="#FFFFFF" d="M192.745,14.74c0.186-4.277,1.391-7.688,3.619-10.236c2.389-2.733,5.707-4.099,9.954-4.099l1.914,0.033
		v9.29h-0.487c-1.949,0-3.354,0.385-4.211,1.157c-0.859,0.771-1.289,2.021-1.289,3.75v0.105h6.159v8.413h-6.159v31.407h-4.732
		h-4.768V23.152V14.74z"/>
	<path fill="#FFFFFF" d="M230.952,72c-9.549,0-17.317-7.825-17.317-17.441h8.952c0,4.646,3.753,8.425,8.365,8.425
		c4.613,0,8.366-3.779,8.366-8.425V26.053h8.952v28.506C248.271,64.175,240.502,72,230.952,72z"/>
	<path fill="#FFFFFF" d="M230.952,51.566c-9.549,0-17.317-7.824-17.317-17.442V14.768h8.952v19.356c0,4.647,3.753,8.427,8.365,8.427
		c4.613,0,8.366-3.78,8.366-8.427V14.748h8.952v19.375C248.271,43.742,240.502,51.566,230.952,51.566z"/>
	<ellipse fill="#FFFFFF" cx="181.493" cy="5.78" rx="5.739" ry="5.78"/>
</g>
</svg>
