<?xml version="1.0" encoding="utf-8"?>
<!-- Generator: Adobe Illustrator 16.0.0, SVG Export Plug-In . SVG Version: 6.00 Build 0)  -->
<!DOCTYPE svg PUBLIC "-//W3C//DTD SVG 1.1//EN" "http://www.w3.org/Graphics/SVG/1.1/DTD/svg11.dtd">
<svg version="1.1" id="Layer_1" xmlns="http://www.w3.org/2000/svg" xmlns:xlink="http://www.w3.org/1999/xlink" x="0px" y="0px"
	 width="260px" height="71px" viewBox="0 0 260 71" enable-background="new 0 0 260 71" xml:space="preserve">
<g>
	<path fill="#FFFFFF" d="M67.275,3.097C67.214,1.714,66.926,0.584,64.946,0C60.943,0.08,38.692,5.748,29.16,7.238
		c-3.262,0.511-6.23,0.93-9.021,1.527c-1.467,0.478-1.917,1.206-2.052,1.979c-0.339,4.333,8.511,7.975,6.393,2.362
		c3.374-0.792,12.625-2.334,15.617-2.814c-0.873,5.536-0.641,37.335-7.747,45.544c-0.891,1.028-1.96,2.156-3.105,3.003
		c-2.974,2.21-7.916,3.906-11.441,3.725c-3.975-0.199-10.511-2.856-14.145-7.705c-0.682-0.907-0.929-2.203-1.996-3.026
		c-0.418-0.33-1.208-0.087-1.483,0.516c-1.721,6.654,9.347,13.848,15.002,14.764c4.099,0.661,6.443,0.555,10.374-0.686
		c4.215-1.33,8.704-4.219,11.683-8.306c8.776-12.048,8.06-44.72,8.199-49.203C49.195,8.15,63.255,4.563,67.275,3.097"/>
	<path fill="#FFFFFF" d="M133.388,24.412c-9.124,0.052-15.588,10.85-22.124,14.542c0.448-7.464,3.148-16.48,3.807-24.085
		c-0.016-0.865-0.237-1.444-0.447-1.793c-1.203-1.334-2.549-1.537-4.025-0.583c-0.386,0.373-1.131,1.237-1.357,2.582
		c-0.26,1.541-0.328,1.55-0.328,1.55l-0.012-0.003c-2.176,11.171-6.447,19.529-12.21,25.127c-2.041,1.984-4.757,3.763-7.486,4.64
		c-2.017,0.466-2.736-0.642-2.98-1.325c-0.654-5.508,1.005-3.506,3.838-4.919c1.766-1.081,1.476-2.53,1.195-3.229
		c-0.973-1.396-2.456-2.467-4.393-2.696c-7.702-0.903-10.589,11.117-16.781,13.27c0.448-4.364,0.148-8.438-0.165-12.625
		c-1.846-1.035-2.94-0.646-3.856,0.492c-0.779-0.67-2.943-1.848-6.66-2.381c-0.686-0.1-2.687,0.009-3.346,0.155
		c-3.177,0.706-6.077,4.017-8.281,7.53c-3.088,5.277-2.612,8.746-2.612,8.746c0.399,2.367,1.118,3.74,3.323,4.639
		c6.52,2.648,9.986-4.551,14.705-5.563c1.264,12.613,12.71,3.823,16.456-0.863c0.749,1.039,1.208,2.273,1.973,3.299
		c0.452,0.424,1.357,1.069,2.868,1.397c9.34,1.219,13.317-5.292,19.266-8.967c-0.012,5.673-4.06,11.864-3.445,17.275
		c2.27,3.645,6.522,1.689,7.949-1.589c1.649-4.049,3.249-8.034,5.714-11.369c2.359-3.189,6.064-6,10.089-7.037
		c3.678,5.027-0.514,15.513,6.993,17.882c0.354-0.656,1.101-0.757,1.772-0.958c1.001-2.308-0.417-5.031-0.821-7.821
		c-0.966-6.625-0.479-13.243-6.826-15.295c2.213-2.265,5.53-5.579,9.28-5.352c1.815,0.111,4.152,2.765,5.43,0.022
		C141.379,25.818,136.127,24.4,133.388,24.412 M60.187,44.159c-1.699,1.505-3.636,3.168-5.697,4.197
		c-4.5,1.188-3.012-2.295-3.012-2.295l-0.007,0.008c1.383-3.774,2.813-7.378,5.719-8.586c0.135-0.056,1.097-0.639,3.589-0.31
		c0,0,2.903,0.31,3.298,1.644C63.162,40.568,62.027,42.529,60.187,44.159"/>
	<g>
		<path fill="#FFFFFF" d="M174.993,70.605h-2.159l-0.57-1.417h-3.035l-0.581,1.417h-2.159l3.092-6.99h2.33L174.993,70.605z
			 M171.78,67.972l-1.024-2.552l-1.034,2.552H171.78z"/>
		<path fill="#FFFFFF" d="M185.69,65.315h-2.562v5.29h-2.104v-5.29h-2.562v-1.7h7.227V65.315z"/>
		<path fill="#FFFFFF" d="M194.304,70.605h-2.103v-2.729h-3.172v2.729h-2.108v-6.99h2.108v2.567h3.172v-2.567h2.103V70.605z"/>
		<path fill="#FFFFFF" d="M202.827,70.605h-2.265l-0.549-1.241c-0.202-0.454-0.384-0.785-0.545-0.996s-0.319-0.344-0.472-0.404
			c-0.153-0.059-0.352-0.088-0.593-0.088h-0.237v2.729h-2.108v-6.99h3.587c0.577,0,1.052,0.117,1.422,0.353
			c0.37,0.236,0.636,0.522,0.799,0.858c0.163,0.336,0.245,0.655,0.245,0.958c0,0.353-0.068,0.651-0.204,0.895
			c-0.137,0.244-0.28,0.422-0.432,0.532c-0.151,0.111-0.321,0.217-0.51,0.318c0.226,0.131,0.411,0.287,0.558,0.466
			c0.146,0.18,0.346,0.544,0.598,1.092L202.827,70.605z M199.962,65.824c0-0.323-0.105-0.548-0.316-0.676
			c-0.213-0.128-0.557-0.191-1.034-0.191h-0.444v1.684h0.454c0.514,0,0.866-0.056,1.057-0.169
			C199.867,66.36,199.962,66.144,199.962,65.824z"/>
		<path fill="#FFFFFF" d="M205.904,70.605h-2.108v-6.99h2.108V70.605z"/>
		<path fill="#FFFFFF" d="M212.98,70.605h-5.312v-6.99h2.108v5.315h3.203V70.605z"/>
		<path fill="#FFFFFF" d="M219.517,70.605h-5.312v-6.99h2.108v5.315h3.203V70.605z"/>
		<path fill="#FFFFFF" d="M222.861,70.605h-2.109v-6.99h2.109V70.605z"/>
		<path fill="#FFFFFF" d="M229.513,68.573c0,0.437-0.112,0.815-0.335,1.135c-0.225,0.319-0.536,0.564-0.936,0.733
			c-0.4,0.17-0.859,0.255-1.378,0.255c-0.144,0-0.321-0.009-0.531-0.028c-0.21-0.018-0.489-0.069-0.838-0.153
			c-0.348-0.084-0.709-0.208-1.087-0.374v-1.714c0.354,0.219,0.701,0.4,1.043,0.544c0.34,0.145,0.706,0.218,1.097,0.218
			c0.359,0,0.592-0.06,0.697-0.18c0.106-0.119,0.16-0.231,0.16-0.335c0-0.188-0.092-0.347-0.272-0.477
			c-0.182-0.129-0.446-0.263-0.792-0.401c-0.384-0.162-0.72-0.337-1.01-0.527c-0.288-0.189-0.524-0.428-0.707-0.713
			c-0.185-0.286-0.275-0.624-0.275-1.014c0-0.377,0.092-0.717,0.276-1.021c0.186-0.304,0.468-0.547,0.848-0.729
			c0.38-0.183,0.845-0.272,1.392-0.272c0.392,0,0.751,0.037,1.083,0.113c0.33,0.076,0.604,0.161,0.819,0.255
			c0.215,0.094,0.362,0.168,0.443,0.222v1.64c-0.285-0.205-0.604-0.389-0.955-0.55c-0.352-0.161-0.728-0.241-1.128-0.241
			c-0.263,0-0.452,0.05-0.569,0.151c-0.118,0.1-0.177,0.225-0.177,0.373c0,0.138,0.059,0.258,0.177,0.358
			c0.117,0.101,0.328,0.224,0.631,0.369c0.537,0.251,0.968,0.479,1.29,0.681c0.323,0.201,0.576,0.435,0.759,0.699
			C229.421,67.851,229.513,68.179,229.513,68.573z"/>
		<path fill="#FFFFFF" d="M237.648,65.315h-2.562v5.29h-2.104v-5.29h-2.562v-1.7h7.228V65.315z"/>
		<path fill="#FFFFFF" d="M248.204,70.08c-0.289,0.152-0.585,0.272-0.888,0.364c-0.303,0.091-0.607,0.156-0.915,0.194
			c-0.308,0.04-0.627,0.059-0.955,0.059c-0.609,0-1.154-0.084-1.638-0.252c-0.482-0.167-0.9-0.417-1.256-0.744
			c-0.354-0.327-0.62-0.711-0.796-1.15c-0.177-0.438-0.266-0.92-0.266-1.445c0-0.602,0.104-1.128,0.312-1.582
			c0.209-0.452,0.5-0.827,0.876-1.127c0.374-0.299,0.802-0.52,1.28-0.663c0.479-0.143,0.985-0.214,1.517-0.214
			c0.793,0,1.692,0.177,2.698,0.529v1.855c-0.348-0.215-0.689-0.394-1.027-0.537s-0.735-0.215-1.192-0.215
			c-0.407,0-0.787,0.081-1.141,0.242c-0.353,0.161-0.637,0.392-0.852,0.691c-0.215,0.299-0.322,0.649-0.322,1.049
			c0,0.354,0.094,0.677,0.282,0.971c0.188,0.294,0.449,0.528,0.783,0.701c0.336,0.173,0.713,0.26,1.133,0.26
			c0.34,0,0.661-0.041,0.964-0.124c0.302-0.082,0.558-0.174,0.764-0.275c0.207-0.101,0.42-0.22,0.638-0.358V70.08z"/>
		<path fill="#FFFFFF" d="M256.954,67.105c0,0.652-0.15,1.252-0.451,1.801c-0.301,0.547-0.749,0.983-1.344,1.305
			c-0.596,0.323-1.32,0.485-2.174,0.485c-0.864,0-1.596-0.168-2.194-0.505c-0.599-0.336-1.043-0.778-1.334-1.326
			c-0.291-0.548-0.437-1.134-0.437-1.76c0-0.628,0.146-1.216,0.434-1.763c0.29-0.546,0.734-0.987,1.335-1.321
			c0.6-0.335,1.332-0.502,2.196-0.502c0.645,0,1.221,0.096,1.728,0.287c0.505,0.192,0.922,0.452,1.248,0.78
			c0.326,0.328,0.572,0.709,0.741,1.145C256.87,66.166,256.954,66.624,256.954,67.105z M254.806,67.105
			c0-0.262-0.038-0.502-0.116-0.719c-0.077-0.217-0.193-0.405-0.351-0.565c-0.156-0.159-0.347-0.284-0.572-0.374
			c-0.226-0.088-0.486-0.133-0.781-0.133c-0.564,0-1.01,0.165-1.332,0.494c-0.322,0.33-0.483,0.762-0.483,1.296
			s0.162,0.967,0.486,1.299c0.324,0.331,0.767,0.496,1.329,0.496c0.386,0,0.716-0.076,0.988-0.229
			c0.272-0.153,0.479-0.364,0.62-0.636C254.735,67.765,254.806,67.455,254.806,67.105z"/>
		<path fill="#FFFFFF" d="M259.784,69.612c0,0.302-0.104,0.558-0.31,0.769c-0.207,0.21-0.462,0.315-0.765,0.315
			c-0.299,0-0.557-0.106-0.771-0.318c-0.215-0.211-0.322-0.468-0.322-0.766c0-0.304,0.107-0.56,0.322-0.77
			c0.215-0.209,0.473-0.315,0.771-0.315c0.188,0,0.367,0.049,0.537,0.147c0.17,0.097,0.302,0.229,0.396,0.394
			C259.737,69.232,259.784,69.414,259.784,69.612z"/>
	</g>
	<path fill="#FFFFFF" d="M143.386,58.319c-4.054,0-5.774-2.869-5.774-5.699v-9.868h-2.104v-3.786h2.104v-5.89h4.972v5.89h3.518
		v3.786h-3.518v9.562c0,1.147,0.535,1.798,1.721,1.798h1.797v4.207H143.386z"/>
	<path fill="#FFFFFF" d="M160.979,58.319V46.157c0-2.639-1.683-3.519-3.25-3.519c-1.569,0-3.213,0.918-3.213,3.519v12.163h-4.972
		V31.087h4.972v9.142c1.338-1.377,3.021-2.066,4.781-2.066c4.36,0,6.655,3.06,6.655,7.268v12.889H160.979z"/>
	<path fill="#FFFFFF" d="M181.059,43.824c-0.765-0.765-1.415-1.186-2.638-1.186c-1.531,0-3.213,1.148-3.213,3.672v12.009h-4.972
		V38.393h4.857v1.913c0.956-1.148,2.869-2.143,5.011-2.143c1.95,0,3.327,0.498,4.704,1.875L181.059,43.824z"/>
	<path fill="#FFFFFF" d="M189.282,49.906c0,2.562,1.569,4.437,4.36,4.437c2.182,0,3.252-0.612,4.515-1.875l3.021,2.945
		c-2.027,2.027-3.978,3.136-7.573,3.136c-4.704,0-9.217-2.142-9.217-10.212c0-6.502,3.519-10.174,8.683-10.174
		c5.545,0,8.682,4.054,8.682,9.523v2.219H189.282z M196.396,44.359c-0.534-1.186-1.644-2.066-3.326-2.066
		c-1.684,0-2.793,0.88-3.328,2.066c-0.306,0.727-0.421,1.262-0.459,2.142h7.573C196.816,45.621,196.702,45.086,196.396,44.359z"/>
	<path fill="#FFFFFF" d="M215.48,58.319v-1.722c-1.339,1.339-2.601,1.913-4.896,1.913c-2.256,0-3.901-0.574-5.087-1.76
		c-1.071-1.109-1.645-2.715-1.645-4.475c0-3.174,2.181-5.774,6.809-5.774h4.704v-0.995c0-2.18-1.071-3.136-3.711-3.136
		c-1.912,0-2.792,0.459-3.824,1.645l-3.175-3.098c1.951-2.142,3.864-2.754,7.19-2.754c5.585,0,8.491,2.372,8.491,7.038v13.118
		H215.48z M215.366,49.906h-3.94c-1.797,0-2.792,0.841-2.792,2.255c0,1.377,0.919,2.296,2.869,2.296
		c1.377,0,2.256-0.115,3.137-0.957c0.535-0.498,0.727-1.301,0.727-2.524V49.906z"/>
	<path fill="#FFFFFF" d="M235.637,58.319v-1.874c-1.377,1.529-2.83,2.103-4.935,2.103c-1.95,0-3.785-0.688-4.896-1.798
		c-1.988-1.988-2.026-5.431-2.026-8.414c0-2.982,0.038-6.388,2.026-8.375c1.11-1.11,2.907-1.798,4.857-1.798
		c2.028,0,3.558,0.536,4.857,1.99v-9.065h4.973v27.232H235.637z M232.118,42.638c-2.983,0-3.366,2.449-3.366,5.699
		c0,3.251,0.383,5.737,3.366,5.737s3.403-2.486,3.403-5.737C235.521,45.086,235.102,42.638,232.118,42.638z"/>
	<path fill="#FFFFFF" d="M251.547,58.549c-3.137,0-5.966-0.344-8.49-2.869l3.25-3.251c1.646,1.645,3.787,1.875,5.316,1.875
		c1.722,0,3.52-0.574,3.52-2.066c0-0.994-0.536-1.683-2.104-1.835l-3.137-0.305c-3.596-0.345-5.813-1.913-5.813-5.584
		c0-4.13,3.634-6.35,7.688-6.35c3.099,0,5.699,0.536,7.611,2.334l-3.06,3.097c-1.147-1.033-2.907-1.339-4.628-1.339
		c-1.989,0-2.831,0.918-2.831,1.913c0,0.727,0.307,1.567,2.065,1.721l3.137,0.306c3.94,0.382,5.929,2.486,5.929,5.851
		C260,56.446,256.251,58.549,251.547,58.549z"/>
</g>
</svg>
