<?xml version="1.0" encoding="utf-8"?>
<!-- Generator: Adobe Illustrator 16.0.0, SVG Export Plug-In . SVG Version: 6.00 Build 0)  -->
<!DOCTYPE svg PUBLIC "-//W3C//DTD SVG 1.1//EN" "http://www.w3.org/Graphics/SVG/1.1/DTD/svg11.dtd">
<svg version="1.1" id="Layer_1" xmlns="http://www.w3.org/2000/svg" xmlns:xlink="http://www.w3.org/1999/xlink" x="0px" y="0px"
	 width="138.757px" height="139.125px" viewBox="0 0 138.757 139.125" enable-background="new 0 0 138.757 139.125"
	 xml:space="preserve">
<path fill-rule="evenodd" clip-rule="evenodd" fill="#B0B1AC" d="M138.65,65.713c0.069,1.274,0.107,2.557,0.107,3.849
	c0,1.646-0.062,3.277-0.173,4.894c-2.467,0.2-5.115,0.399-7.954,0.596c-0.084,0.953-0.188,1.899-0.315,2.838
	c2.727,0.827,5.266,1.612,7.628,2.359c-0.447,2.91-1.074,5.759-1.868,8.538c-2.455-0.319-5.087-0.677-7.906-1.076
	c-0.28,0.914-0.582,1.818-0.902,2.713c2.494,1.377,4.813,2.674,6.968,3.897c-1.04,2.739-2.246,5.396-3.607,7.957
	c-2.336-0.824-4.837-1.724-7.511-2.703c-0.463,0.833-0.945,1.654-1.445,2.462c2.154,1.867,4.155,3.621,6.009,5.266
	c-1.581,2.455-3.314,4.8-5.182,7.029c-2.113-1.292-4.372-2.693-6.783-4.207c-0.625,0.716-1.264,1.419-1.92,2.106
	c1.719,2.275,3.312,4.407,4.785,6.402c-2.048,2.067-4.225,4.007-6.518,5.804c-1.799-1.706-3.718-3.547-5.764-5.531
	c-0.758,0.571-1.53,1.126-2.315,1.662c1.21,2.584,2.327,5.002,3.354,7.262c-2.424,1.592-4.952,3.038-7.573,4.321
	c-1.407-2.044-2.903-4.246-4.494-6.615c-0.86,0.4-1.73,0.783-2.612,1.145c0.649,2.781,1.241,5.38,1.777,7.805
	c-2.691,1.046-5.464,1.927-8.306,2.635c-0.952-2.292-1.959-4.757-3.023-7.406c-0.923,0.21-1.854,0.403-2.792,0.571
	c0.058,2.854,0.098,5.517,0.12,7.999c-2.837,0.457-5.732,0.738-8.674,0.838c-0.456-2.441-0.93-5.063-1.422-7.875
	c-0.32,0.005-0.639,0.012-0.96,0.012c-0.631,0-1.258-0.012-1.885-0.031c-0.535,2.805-1.048,5.421-1.541,7.855
	c-2.938-0.144-5.829-0.47-8.66-0.969c0.06-2.483,0.139-5.148,0.24-8.002c-0.936-0.183-1.863-0.388-2.783-0.613
	c-1.104,2.633-2.149,5.084-3.135,7.362c-2.831-0.75-5.589-1.675-8.266-2.763c0.573-2.416,1.203-5.004,1.893-7.775
	c-0.875-0.375-1.742-0.768-2.596-1.182c-1.625,2.343-3.153,4.521-4.59,6.543c-2.601-1.323-5.109-2.803-7.509-4.432
	c1.061-2.244,2.214-4.647,3.464-7.214c-0.776-0.548-1.539-1.115-2.289-1.698c-2.075,1.954-4.021,3.765-5.845,5.443
	c-2.265-1.832-4.414-3.801-6.431-5.9c1.502-1.973,3.127-4.082,4.881-6.331c-0.646-0.696-1.275-1.408-1.889-2.134
	c-2.436,1.478-4.716,2.845-6.848,4.106c-1.834-2.255-3.529-4.629-5.074-7.108c1.878-1.616,3.904-3.338,6.085-5.172
	c-0.488-0.816-0.958-1.645-1.409-2.485c-2.689,0.939-5.204,1.801-7.552,2.59c-1.323-2.581-2.489-5.255-3.487-8.01
	c2.173-1.189,4.513-2.452,7.027-3.792c-0.307-0.9-0.592-1.81-0.858-2.728c-2.824,0.356-5.46,0.675-7.919,0.957
	c-0.752-2.79-1.335-5.649-1.738-8.566c2.372-0.71,4.921-1.457,7.658-2.242c-0.112-0.941-0.206-1.889-0.275-2.843
	c-2.835-0.239-5.48-0.478-7.943-0.716C0.038,72.136,0,70.854,0,69.562c0-1.646,0.061-3.277,0.173-4.894
	c2.467-0.2,5.115-0.398,7.955-0.596c0.083-0.952,0.188-1.898,0.314-2.838c-2.726-0.827-5.266-1.614-7.628-2.359
	c0.447-2.91,1.074-5.759,1.869-8.538c2.455,0.318,5.087,0.677,7.906,1.076c0.28-0.914,0.582-1.817,0.902-2.713
	c-2.494-1.377-4.813-2.674-6.968-3.896c1.039-2.74,2.245-5.396,3.607-7.957c2.335,0.824,4.836,1.723,7.511,2.703
	c0.463-0.833,0.945-1.654,1.445-2.463c-2.154-1.867-4.155-3.621-6.009-5.266c1.582-2.454,3.314-4.8,5.182-7.029
	c2.112,1.293,4.371,2.693,6.783,4.208c0.624-0.717,1.264-1.42,1.92-2.107c-1.72-2.275-3.312-4.407-4.785-6.402
	c2.048-2.068,4.225-4.006,6.517-5.803c1.799,1.705,3.718,3.546,5.764,5.531c0.758-0.572,1.53-1.125,2.315-1.664
	c-1.211-2.583-2.327-5-3.354-7.26c2.424-1.593,4.952-3.039,7.574-4.323c1.406,2.044,2.903,4.247,4.493,6.616
	c0.86-0.401,1.731-0.782,2.612-1.145c-0.649-2.781-1.24-5.38-1.777-7.805c2.692-1.046,5.464-1.928,8.307-2.635
	c0.952,2.292,1.959,4.757,3.023,7.406c0.923-0.211,1.854-0.403,2.792-0.572c-0.059-2.853-0.098-5.516-0.121-7.998
	C61.16,0.382,64.055,0.099,66.996,0c0.457,2.44,0.93,5.062,1.422,7.875c0.32-0.004,0.639-0.012,0.96-0.012
	c0.631,0,1.259,0.013,1.885,0.032c0.535-2.806,1.048-5.421,1.541-7.855c2.938,0.143,5.829,0.471,8.66,0.97
	c-0.06,2.483-0.139,5.146-0.241,8.001c0.936,0.183,1.863,0.388,2.783,0.613c1.104-2.633,2.148-5.084,3.135-7.363
	c2.83,0.75,5.589,1.675,8.265,2.763c-0.573,2.415-1.203,5.004-1.893,7.774c0.875,0.375,1.741,0.769,2.595,1.184
	c1.625-2.344,3.154-4.522,4.59-6.544c2.601,1.322,5.109,2.803,7.509,4.432c-1.061,2.245-2.214,4.647-3.464,7.213
	c0.776,0.549,1.539,1.115,2.289,1.699c2.075-1.954,4.021-3.766,5.845-5.443c2.265,1.831,4.414,3.801,6.432,5.899
	c-1.502,1.973-3.127,4.082-4.881,6.331c0.646,0.697,1.275,1.408,1.888,2.134c2.436-1.479,4.716-2.846,6.849-4.107
	c1.834,2.256,3.529,4.631,5.073,7.108c-1.878,1.617-3.904,3.339-6.084,5.172c0.488,0.817,0.958,1.644,1.409,2.484
	c2.689-0.938,5.204-1.8,7.552-2.588c1.322,2.58,2.488,5.253,3.486,8.009c-2.173,1.19-4.513,2.453-7.027,3.792
	c0.307,0.9,0.593,1.81,0.859,2.728c2.824-0.356,5.46-0.675,7.919-0.956c0.752,2.79,1.335,5.648,1.739,8.565
	c-2.372,0.711-4.922,1.458-7.658,2.243c0.112,0.942,0.205,1.889,0.275,2.844C133.542,65.237,136.187,65.477,138.65,65.713z
	 M115.186,96.348c13.555-25.441,4.012-22.562-15.373-22.74c-22.094,0.878-22.094,0.878-11.942,19.782
	C97.854,110.876,100.282,120.361,115.186,96.348z M69.162,122.756c28.738-0.942,21.481-7.796,11.942-24.728
	c-11.805-18.757-11.805-18.757-23.046-0.484C47.955,114.96,40.982,121.813,69.162,122.756z M76.573,69.848
	c0-3.943-3.186-7.138-7.115-7.138s-7.114,3.195-7.114,7.138c0,3.942,3.185,7.138,7.114,7.138S76.573,73.79,76.573,69.848z
	 M23.354,95.971c15.183,24.499,17.469,14.767,27.315-1.987c10.29-19.637,10.29-19.637-11.104-20.267
	C19.48,73.647,10.079,71.015,23.354,95.971z M23.572,42.777C10.017,68.218,19.56,65.339,38.945,65.516
	c22.094-0.877,22.094-0.877,11.941-19.782C40.904,28.248,38.475,18.763,23.572,42.777z M69.595,16.369
	c-28.737,0.943-21.48,7.794-11.941,24.727C69.458,59.854,69.458,59.854,80.7,41.581C90.802,24.163,97.775,17.312,69.595,16.369z
	 M115.402,43.153c-15.183-24.498-17.469-14.766-27.314,1.988c-10.29,19.637-10.29,19.637,11.104,20.267
	C119.277,65.479,128.678,68.11,115.402,43.153z"/>
</svg>
