<?xml version="1.0" encoding="utf-8"?>
<!-- Generator: Adobe Illustrator 16.0.0, SVG Export Plug-In . SVG Version: 6.00 Build 0)  -->
<!DOCTYPE svg PUBLIC "-//W3C//DTD SVG 1.1//EN" "http://www.w3.org/Graphics/SVG/1.1/DTD/svg11.dtd">
<svg version="1.1" id="Layer_1" xmlns="http://www.w3.org/2000/svg" xmlns:xlink="http://www.w3.org/1999/xlink" x="0px" y="0px"
	 width="145.84px" height="146.23px" viewBox="0 0 145.84 146.23" enable-background="new 0 0 145.84 146.23" xml:space="preserve">
<path fill="#F5F5F1" d="M72.242,43.824c6.139,0,11.834,1.908,16.522,5.164c0.906,1.018-0.02,2.537-1.146,1.536
	c-3.906-2.823-8.927-4.701-15.375-4.701c-6.685,0-11.834,2.017-15.8,5.014c-0.901,1.019-2.389-0.221-1.129-1.561
	C60.076,45.844,65.923,43.824,72.242,43.824z M41.448,33.643c-8.69,6.9-12.206,15.056-13.206,17.18c-1,2.125-2.5,1.75-2,0
	s4.309-11.25,14.016-18.79c8.353-6.487,17.646-8.584,20.984-9.21c2-0.375,2.372,1.533,0.622,1.783
	C59.116,24.999,49.749,27.051,41.448,33.643z"/>
</svg>
