<?xml version="1.0" encoding="utf-8"?>
<!-- Generator: Adobe Illustrator 16.0.0, SVG Export Plug-In . SVG Version: 6.00 Build 0)  -->
<!DOCTYPE svg PUBLIC "-//W3C//DTD SVG 1.1//EN" "http://www.w3.org/Graphics/SVG/1.1/DTD/svg11.dtd">
<svg version="1.1" id="Layer_1" xmlns="http://www.w3.org/2000/svg" xmlns:xlink="http://www.w3.org/1999/xlink" x="0px" y="0px"
	 width="118.01px" height="117.971px" viewBox="0 0 118.01 117.971" enable-background="new 0 0 118.01 117.971"
	 xml:space="preserve">
<path fill="#B0B1AC" d="M116.454,74.278l1.556-8.027l-10.214-7.13c0.008-2.404-0.161-4.78-0.499-7.115l9.109-8.49l-2.669-7.73
	l-12.428-1.072c-1.184-2.059-2.512-4.029-3.979-5.895l3.646-11.922l-6.177-5.36l-11.284,5.276c-2.039-1.185-4.179-2.23-6.412-3.12
	L74.304,1.556L66.271,0l-7.132,10.211c-2.404-0.009-4.78,0.164-7.114,0.501l-8.495-9.108l-7.733,2.667l-1.072,12.42
	c-2.059,1.184-4.027,2.517-5.893,3.983l-11.929-3.647l-5.363,6.176l5.277,11.277c-1.186,2.039-2.23,4.181-3.121,6.413L1.556,43.692
	L0,51.721l10.214,7.131c-0.009,2.403,0.162,4.779,0.5,7.113l-9.11,8.491l2.668,7.73l12.423,1.071
	c1.183,2.059,2.515,4.029,3.983,5.896l-3.646,11.922l6.177,5.359l11.282-5.275c2.04,1.185,4.18,2.229,6.414,3.118l2.802,12.138
	l8.031,1.556l7.134-10.211c2.402,0.009,4.779-0.161,7.115-0.499l8.494,9.106l7.732-2.667l1.071-12.42
	c2.06-1.184,4.03-2.514,5.897-3.981l11.926,3.646l5.363-6.175l-5.279-11.279c1.185-2.039,2.23-4.179,3.121-6.411L116.454,74.278z
	 M73.72,35.937c1.961-2.093,5.248-2.2,7.342-0.237c2.092,1.961,2.199,5.245,0.238,7.339c-1.961,2.093-5.249,2.198-7.342,0.237
	C71.865,41.316,71.758,38.031,73.72,35.937z M43.326,25.526c3.778-4.03,10.108-4.236,14.14-0.46
	c4.032,3.777,4.238,10.105,0.461,14.135c-3.778,4.03-10.109,4.236-14.14,0.46C39.754,35.885,39.548,29.556,43.326,25.526z
	 M27.999,49.752c1.961-2.092,5.249-2.2,7.342-0.239c2.094,1.961,2.2,5.248,0.239,7.34c-1.961,2.093-5.249,2.199-7.342,0.238
	C26.145,55.131,26.038,51.845,27.999,49.752z M47.232,86.416c-3.777,4.031-10.108,4.236-14.139,0.461
	c-4.032-3.776-4.238-10.104-0.46-14.135s10.108-4.236,14.139-0.461C50.803,76.058,51.009,82.387,47.232,86.416z M55.096,63.401
	c-2.093-1.96-2.2-5.245-0.239-7.339c1.961-2.093,5.25-2.2,7.342-0.238c2.093,1.961,2.2,5.246,0.239,7.339
	C60.476,65.255,57.189,65.361,55.096,63.401z M63.087,89.733c-2.093-1.96-2.199-5.246-0.238-7.339s5.248-2.2,7.342-0.238
	c2.093,1.961,2.199,5.246,0.238,7.34C68.468,91.587,65.181,91.694,63.087,89.733z M93.665,72.677
	c-3.776,4.029-10.104,4.235-14.134,0.46c-4.03-3.774-4.236-10.101-0.461-14.129c3.776-4.03,10.104-4.235,14.135-0.459
	C97.235,62.322,97.441,68.649,93.665,72.677z"/>
</svg>
