<?xml version="1.0" encoding="utf-8"?>
<!-- Generator: Adobe Illustrator 16.0.0, SVG Export Plug-In . SVG Version: 6.00 Build 0)  -->
<!DOCTYPE svg PUBLIC "-//W3C//DTD SVG 1.1//EN" "http://www.w3.org/Graphics/SVG/1.1/DTD/svg11.dtd">
<svg version="1.1" id="Layer_1" xmlns="http://www.w3.org/2000/svg" xmlns:xlink="http://www.w3.org/1999/xlink" x="0px" y="0px"
	 width="249.968px" height="257.014px" viewBox="0 0 249.968 257.014" enable-background="new 0 0 249.968 257.014"
	 xml:space="preserve">
<path fill="#B0B1AC" d="M248.382,92.653c-4.201-14.431-25.008-20.209-29.668-27.623c-4.658-7.415-2.805-28.502-14.668-37.758
	c-12.746-9.944-30.748,2.593-43.08-3.724C148.634,17.233,140.912,0,124.734,0c-15.062,0-22.526,16.334-34.859,20.729
	c-12.333,4.394-28.205-5.267-40.421,3.521c-12.219,8.788-9.287,29.74-16.138,37.155C26.465,68.818,7.348,73.587,2.584,87.847
	c-4.766,14.257-0.943,29.308,8.669,39.561c-9.81,10.062-13.929,25.037-9.445,39.384c4.484,14.349,24.181,17.976,30.21,27.037
	c6.029,9.062,3.361,28.439,15.404,37.463c12.043,9.025,29.382,0.74,40.345,4.312c10.962,3.568,19.386,21.11,34.444,21.405
	c15.054,0.294,24.57-15.926,35.257-20.044c10.689-4.12,28.095,5.816,40.482-2.728c12.385-8.546,11.107-28.597,16.862-36.835
	s26.202-11.673,31.246-25.835c5.044-14.161,1.517-29.281-7.892-39.722C248.173,121.976,252.587,107.084,248.382,92.653z
	 M123.444,234.306c-57.319,0-103.786-46.677-103.786-104.254C19.658,72.476,66.125,25.8,123.444,25.8
	c57.319,0,103.785,46.677,103.785,104.253S180.763,234.306,123.444,234.306z"/>
<g>
	<ellipse fill="#B0B1AC" cx="123.439" cy="131.606" rx="79.01" ry="78.967"/>
	<path fill="#B0B1AC" d="M123.428,28.399c-55.902,0-101.219,45.512-101.219,101.653c0,56.143,45.317,101.654,101.219,101.654
		c55.901,0,101.219-45.512,101.219-101.654C224.647,73.911,179.33,28.399,123.428,28.399z M123.436,212.638
		c-44.78,0-81.082-36.278-81.082-81.028c0-44.751,36.301-81.029,81.082-81.029c44.78,0,81.081,36.278,81.081,81.029
		C204.517,176.36,168.216,212.638,123.436,212.638z"/>
</g>
</svg>
