<?xml version="1.0" encoding="utf-8"?>
<!-- Generator: Adobe Illustrator 16.0.0, SVG Export Plug-In . SVG Version: 6.00 Build 0)  -->
<!DOCTYPE svg PUBLIC "-//W3C//DTD SVG 1.1//EN" "http://www.w3.org/Graphics/SVG/1.1/DTD/svg11.dtd">
<svg version="1.1" id="Layer_1" xmlns="http://www.w3.org/2000/svg" xmlns:xlink="http://www.w3.org/1999/xlink" x="0px" y="0px"
	 width="145.84px" height="146.23px" viewBox="0 0 145.84 146.23" enable-background="new 0 0 145.84 146.23" xml:space="preserve">
<path fill="#B0B1AC" d="M133.745,74.764c0.014-0.548,0.022-1.098,0.022-1.649c0-1.454-0.054-2.894-0.154-4.321
	c4.542-1.534,8.515-2.954,11.923-4.262c-0.453-3.866-1.203-7.642-2.234-11.299c-3.648,0.097-7.861,0.306-12.646,0.629
	c-0.634-1.901-1.358-3.761-2.169-5.573c3.743-2.995,6.988-5.686,9.743-8.08c-1.74-3.445-3.745-6.733-5.987-9.841
	c-3.396,1.34-7.281,2.977-11.666,4.916c-1.24-1.56-2.556-3.056-3.941-4.486c2.494-4.094,4.623-7.732,6.394-10.925
	c-2.796-2.632-5.798-5.048-8.981-7.216c-2.732,2.419-5.824,5.286-9.28,8.607c-1.692-1.042-3.44-2.005-5.238-2.881
	c0.943-4.7,1.699-8.85,2.271-12.456c-3.504-1.508-7.146-2.75-10.907-3.699c-1.74,3.209-3.666,6.96-5.778,11.266
	c-1.938-0.395-3.908-0.696-5.908-0.902c-0.722-4.735-1.431-8.89-2.125-12.472C75.702,0.042,74.316,0,72.92,0
	c-2.485,0-4.941,0.125-7.362,0.367c-0.538,3.61-1.063,7.794-1.575,12.56c-1.987,0.292-3.943,0.682-5.863,1.161
	c-2.3-4.207-4.388-7.871-6.268-11.001c-3.71,1.115-7.297,2.513-10.734,4.176c0.729,3.576,1.667,7.688,2.816,12.345
	c-1.756,0.953-3.46,1.991-5.106,3.105c-3.599-3.167-6.813-5.894-9.649-8.19c-3.083,2.305-5.975,4.852-8.655,7.605
	c1.909,3.111,4.195,6.653,6.866,10.632c-1.32,1.488-2.569,3.042-3.74,4.655c-4.466-1.745-8.421-3.209-11.873-4.398
	c-2.103,3.198-3.964,6.569-5.551,10.092c2.857,2.271,6.218,4.817,10.09,7.646c-0.729,1.847-1.372,3.736-1.921,5.665
	c-4.792-0.111-9.008-0.136-12.657-0.071C0.87,60.042,0.283,63.846,0,67.733c3.462,1.157,7.492,2.4,12.097,3.733
	c-0.014,0.548-0.022,1.098-0.022,1.648c0,1.453,0.054,2.894,0.154,4.322c-4.543,1.532-8.514,2.953-11.922,4.261
	c0.452,3.866,1.202,7.642,2.233,11.3c3.649-0.097,7.862-0.306,12.646-0.629c0.634,1.901,1.358,3.761,2.169,5.573
	c-3.743,2.995-6.988,5.686-9.743,8.081c1.74,3.445,3.745,6.734,5.987,9.84c3.396-1.338,7.282-2.976,11.667-4.916
	c1.24,1.56,2.555,3.056,3.94,4.486c-2.494,4.094-4.623,7.733-6.393,10.926c2.796,2.632,5.798,5.046,8.982,7.216
	c2.732-2.42,5.824-5.287,9.28-8.607c1.693,1.042,3.44,2.004,5.238,2.879c-0.943,4.701-1.699,8.851-2.27,12.456
	c3.503,1.508,7.146,2.75,10.907,3.7c1.74-3.209,3.666-6.961,5.778-11.266c1.938,0.394,3.909,0.696,5.909,0.901
	c0.721,4.735,1.43,8.891,2.125,12.472c1.376,0.077,2.761,0.12,4.157,0.12c2.485,0,4.941-0.126,7.362-0.367
	c0.538-3.611,1.063-7.794,1.575-12.56c1.986-0.293,3.943-0.682,5.863-1.162c2.3,4.209,4.388,7.873,6.268,11.001
	c3.71-1.114,7.299-2.513,10.734-4.175c-0.729-3.576-1.667-7.688-2.816-12.345c1.756-0.954,3.46-1.991,5.105-3.107
	c3.6,3.167,6.814,5.895,9.65,8.191c3.082-2.306,5.975-4.853,8.654-7.604c-1.909-3.111-4.195-6.653-6.865-10.634
	c1.319-1.487,2.568-3.042,3.739-4.654c4.466,1.746,8.421,3.21,11.873,4.398c2.103-3.198,3.964-6.569,5.551-10.093
	c-2.856-2.271-6.218-4.818-10.09-7.646c0.729-1.846,1.372-3.735,1.921-5.663c4.792,0.11,9.008,0.135,12.657,0.071
	c0.866-3.695,1.454-7.5,1.737-11.388C142.377,77.34,138.349,76.096,133.745,74.764z M72.242,94.824c-12.15,0-22-9.85-22-22
	s9.85-22,22-22c12.15,0,22,9.85,22,22S84.392,94.824,72.242,94.824z"/>
</svg>
