<?xml version="1.0" encoding="utf-8"?>
<!-- Generator: Adobe Illustrator 16.0.0, SVG Export Plug-In . SVG Version: 6.00 Build 0)  -->
<!DOCTYPE svg PUBLIC "-//W3C//DTD SVG 1.1//EN" "http://www.w3.org/Graphics/SVG/1.1/DTD/svg11.dtd">
<svg version="1.1" id="Layer_1" xmlns="http://www.w3.org/2000/svg" xmlns:xlink="http://www.w3.org/1999/xlink" x="0px" y="0px"
	 width="290px" height="99px" viewBox="0 0 290 99" enable-background="new 0 0 290 99" xml:space="preserve">
<g opacity="0.5">
	<g>
		<path fill="#414141" d="M134.385,65.982h-7.065v-6.314h-1.647v14.124h1.647v-6.354h7.065v6.354h1.647V59.668h-1.647V65.982z
			 M139.307,73.792h8.97v-1.453h-7.322v-4.901h6.331v-1.453h-6.331V61.12h7.322v-1.452h-8.97V73.792z M144.1,45.053l-3.471-16.716
			h-4.914l-3.504,16.716l-3.374-16.716h-5.208l5.535,23.31h5.731l3.178-13.854l3.209,13.854h5.731l5.534-23.31h-5.044L144.1,45.053z
			 M112.771,61.12h4.584v12.672h1.647V61.12h4.584v-1.452H112.77L112.771,61.12L112.771,61.12z M33.277,48.513l7.694,7.776v0.591
			h1.997v-0.591l7.694-7.776l-1.412-1.426l-6.282,6.349V30.649h-1.997v22.787l-6.282-6.349L33.277,48.513z M121.34,43.521v-7.06
			c0-5.594-3.603-8.458-9.105-8.458c-5.568,0-9.171,2.864-9.171,8.458v7.06c0,5.594,3.603,8.458,9.105,8.458
			C117.738,51.979,121.34,49.116,121.34,43.521z M116.264,43.521c0,2.63-1.605,3.962-4.094,3.962c-2.424,0-4.029-1.332-4.029-3.962
			v-7.06c0-2.63,1.605-3.962,4.094-3.962c2.423,0,4.028,1.332,4.028,3.962L116.264,43.521L116.264,43.521z M48.957,36.109v2.237
			c5.314,2.622,8.985,8.12,8.985,14.5c0,8.915-7.151,16.143-15.973,16.143c-8.822,0-15.973-7.228-15.973-16.143
			c0-6.38,3.67-11.878,8.984-14.499v-2.238C28.528,38.865,24,45.321,24,52.846c0,10.029,8.045,18.159,17.969,18.159
			c9.924,0,17.969-8.13,17.969-18.159C59.938,45.32,55.41,38.864,48.957,36.109z M98.974,43.188v-6.394
			c0-5.594-3.603-8.458-9.105-8.458h-9.17v23.309h9.105C95.371,51.646,98.974,48.783,98.974,43.188z M85.774,32.833h4.094
			c2.424,0,4.029,1.332,4.029,3.962v6.394c0,2.63-1.605,3.962-4.094,3.962h-4.028L85.774,32.833L85.774,32.833z M85.442,59.466
			c-3.354,0-5.398,1.796-5.398,5.063v4.4c0,3.247,2.044,5.063,5.359,5.063c3.354,0,5.398-1.816,5.398-5.063v-4.4
			C90.801,61.262,88.757,59.466,85.442,59.466z M89.154,68.93c0,2.301-1.389,3.611-3.751,3.611c-2.322,0-3.711-1.312-3.711-3.611
			v-4.4c0-2.299,1.389-3.61,3.751-3.61c2.322,0,3.711,1.312,3.711,3.61V68.93z M102.59,70.727l-7.165-11.059h-1.548v14.124h1.647
			V62.715l7.165,11.077h1.548V59.668h-1.647V70.727z M233.729,51.646h5.502l-7.5-23.31h-6.223l-7.5,23.31h5.012l1.474-4.93h7.763
			L233.729,51.646z M225.836,42.223l2.521-8.391l2.521,8.391H225.836z M249.16,64.046c0-3.026-1.747-4.378-4.446-4.378h-5.517
			v14.124h1.646v-5.347h4.029l2.479,5.347h1.905l-2.698-5.608C248.188,67.658,249.16,66.326,249.16,64.046z M244.675,66.992h-3.831
			V61.12h3.831c1.687,0,2.798,0.868,2.798,2.926C247.473,66.125,246.381,66.992,244.675,66.992z M230.762,59.466
			c-3.354,0-5.398,1.796-5.398,5.063v4.4c0,3.247,2.045,5.063,5.359,5.063c3.354,0,5.397-1.816,5.397-5.063v-4.4
			C236.12,61.262,234.076,59.466,230.762,59.466z M234.475,68.93c0,2.301-1.391,3.611-3.752,3.611c-2.322,0-3.711-1.312-3.711-3.611
			v-4.4c0-2.299,1.389-3.61,3.75-3.61c2.322,0,3.713,1.312,3.713,3.61V68.93L234.475,68.93z M212.661,61.12h4.585v12.672h1.646
			V61.12h4.584v-1.452h-10.815V61.12L212.661,61.12z M207.303,66.165l-2.619-0.505c-1.33-0.262-2.164-1.01-2.164-2.32
			c0-1.594,1.092-2.421,3.235-2.421s3.294,0.948,3.294,2.806v0.182h1.629v-0.182c0-2.847-1.787-4.259-4.923-4.259
			s-4.923,1.372-4.923,3.976c0,2.119,1.29,3.33,3.454,3.754l2.64,0.504c1.329,0.263,2.163,0.988,2.163,2.301
			c0,1.715-1.19,2.542-3.354,2.542c-2.144,0-3.373-0.948-3.373-2.806v-0.182h-1.646v0.182c0,2.826,1.885,4.259,5.021,4.259
			c3.156,0,5.041-1.372,5.041-4.097C210.775,67.779,209.525,66.589,207.303,66.165z M161.158,59.668l-5.141,14.124h1.627
			l1.311-3.632h6.252l1.311,3.632h1.767l-5.12-14.124H161.158z M159.393,68.707l2.68-7.264l2.68,7.264H159.393z M261.009,61.12
			v-1.452h-8.971v14.124h8.971v-1.453h-7.323v-4.901h6.332v-1.453h-6.332V61.12H261.009z M260.289,43.188v-6.394
			c0-5.594-3.604-8.458-9.105-8.458h-9.17v23.309h9.104C256.686,51.646,260.289,48.783,260.289,43.188z M255.212,43.188
			c0,2.63-1.604,3.962-4.094,3.962h-4.028V32.833h4.094c2.424,0,4.028,1.332,4.028,3.962V43.188z M215.557,43.521v-7.06
			c0-5.594-3.604-8.458-9.105-8.458c-5.568,0-9.172,2.864-9.172,8.458v7.06c0,5.594,3.604,8.458,9.105,8.458
			C211.952,51.979,215.557,49.116,215.557,43.521z M202.355,43.521v-7.06c0-2.63,1.604-3.962,4.095-3.962
			c2.424,0,4.028,1.332,4.028,3.962v7.06c0,2.63-1.604,3.962-4.095,3.962C203.961,47.484,202.355,46.152,202.355,43.521z
			 M175.389,59.668h-5.22v14.124h1.647v-5.347h3.572c2.698,0,4.444-1.354,4.444-4.399C179.834,61.02,178.088,59.668,175.389,59.668z
			 M175.35,66.992h-3.533V61.12h3.533c1.688,0,2.799,0.868,2.799,2.926C178.146,66.125,177.057,66.992,175.35,66.992z
			 M173.441,28.337h-5.076v13.819l-8.45-13.819h-4.749v23.31h5.076V37.828l8.449,13.818h4.75V28.337z M187.535,59.668h-5.221v14.124
			h1.647v-5.347h3.572c2.698,0,4.444-1.354,4.444-4.399C191.98,61.02,190.234,59.668,187.535,59.668z M187.495,66.992h-3.532V61.12
			h3.532c1.688,0,2.799,0.868,2.799,2.926C190.294,66.125,189.202,66.992,187.495,66.992z M183.266,28.337h-5.078v23.31h15.983
			V47.15h-10.905V28.337z"/>
	</g>
</g>
<g>
	<g>
		<path fill="#FFFFFF" d="M134.385,64.982h-7.065v-6.314h-1.647v14.124h1.647v-6.354h7.065v6.354h1.647V58.668h-1.647V64.982z
			 M139.307,72.792h8.97v-1.453h-7.322v-4.901h6.331v-1.453h-6.331V60.12h7.322v-1.452h-8.97V72.792z M144.1,44.053l-3.471-16.716
			h-4.914l-3.504,16.716l-3.374-16.716h-5.208l5.535,23.31h5.731l3.178-13.854l3.209,13.854h5.731l5.534-23.31h-5.044L144.1,44.053z
			 M112.771,60.12h4.584v12.672h1.647V60.12h4.584v-1.452H112.77L112.771,60.12L112.771,60.12z M33.277,47.513l7.694,7.776v0.591
			h1.997v-0.591l7.694-7.776l-1.412-1.426l-6.282,6.349V29.649h-1.997v22.787l-6.282-6.349L33.277,47.513z M121.34,42.521v-7.06
			c0-5.594-3.603-8.458-9.105-8.458c-5.568,0-9.171,2.864-9.171,8.458v7.06c0,5.594,3.603,8.458,9.105,8.458
			C117.738,50.979,121.34,48.116,121.34,42.521z M116.264,42.521c0,2.63-1.605,3.962-4.094,3.962c-2.424,0-4.029-1.332-4.029-3.962
			v-7.06c0-2.63,1.605-3.962,4.094-3.962c2.423,0,4.028,1.332,4.028,3.962L116.264,42.521L116.264,42.521z M48.957,35.109v2.237
			c5.314,2.622,8.985,8.12,8.985,14.5c0,8.915-7.151,16.143-15.973,16.143c-8.822,0-15.973-7.228-15.973-16.143
			c0-6.38,3.67-11.878,8.984-14.499v-2.238C28.528,37.865,24,44.321,24,51.846c0,10.029,8.045,18.159,17.969,18.159
			c9.924,0,17.969-8.13,17.969-18.159C59.938,44.32,55.41,37.864,48.957,35.109z M98.974,42.188v-6.394
			c0-5.594-3.603-8.458-9.105-8.458h-9.17v23.309h9.105C95.371,50.646,98.974,47.783,98.974,42.188z M85.774,31.833h4.094
			c2.424,0,4.029,1.332,4.029,3.962v6.394c0,2.63-1.605,3.962-4.094,3.962h-4.028L85.774,31.833L85.774,31.833z M85.442,58.466
			c-3.354,0-5.398,1.796-5.398,5.063v4.4c0,3.247,2.044,5.063,5.359,5.063c3.354,0,5.398-1.816,5.398-5.063v-4.4
			C90.801,60.262,88.757,58.466,85.442,58.466z M89.154,67.93c0,2.301-1.389,3.611-3.751,3.611c-2.322,0-3.711-1.312-3.711-3.611
			v-4.4c0-2.299,1.389-3.61,3.751-3.61c2.322,0,3.711,1.312,3.711,3.61V67.93z M102.59,69.727l-7.165-11.059h-1.548v14.124h1.647
			V61.715l7.165,11.077h1.548V58.668h-1.647V69.727z M233.729,50.646h5.502l-7.5-23.31h-6.223l-7.5,23.31h5.012l1.474-4.93h7.763
			L233.729,50.646z M225.836,41.223l2.521-8.391l2.521,8.391H225.836z M249.16,63.046c0-3.026-1.747-4.378-4.446-4.378h-5.517
			v14.124h1.646v-5.347h4.029l2.479,5.347h1.905l-2.698-5.608C248.188,66.658,249.16,65.326,249.16,63.046z M244.675,65.992h-3.831
			V60.12h3.831c1.687,0,2.798,0.868,2.798,2.926C247.473,65.125,246.381,65.992,244.675,65.992z M230.762,58.466
			c-3.354,0-5.398,1.796-5.398,5.063v4.4c0,3.247,2.045,5.063,5.359,5.063c3.354,0,5.397-1.816,5.397-5.063v-4.4
			C236.12,60.262,234.076,58.466,230.762,58.466z M234.475,67.93c0,2.301-1.391,3.611-3.752,3.611c-2.322,0-3.711-1.312-3.711-3.611
			v-4.4c0-2.299,1.389-3.61,3.75-3.61c2.322,0,3.713,1.312,3.713,3.61V67.93L234.475,67.93z M212.661,60.12h4.585v12.672h1.646
			V60.12h4.584v-1.452h-10.815V60.12L212.661,60.12z M207.303,65.165l-2.619-0.505c-1.33-0.262-2.164-1.01-2.164-2.32
			c0-1.594,1.092-2.421,3.235-2.421s3.294,0.948,3.294,2.806v0.182h1.629v-0.182c0-2.847-1.787-4.259-4.923-4.259
			s-4.923,1.372-4.923,3.976c0,2.119,1.29,3.33,3.454,3.754l2.64,0.504c1.329,0.263,2.163,0.988,2.163,2.301
			c0,1.715-1.19,2.542-3.354,2.542c-2.144,0-3.373-0.948-3.373-2.806v-0.182h-1.646v0.182c0,2.826,1.885,4.259,5.021,4.259
			c3.156,0,5.041-1.372,5.041-4.097C210.775,66.779,209.525,65.589,207.303,65.165z M161.158,58.668l-5.141,14.124h1.627
			l1.311-3.632h6.252l1.311,3.632h1.767l-5.12-14.124H161.158z M159.393,67.707l2.68-7.264l2.68,7.264H159.393z M261.009,60.12
			v-1.452h-8.971v14.124h8.971v-1.453h-7.323v-4.901h6.332v-1.453h-6.332V60.12H261.009z M260.289,42.188v-6.394
			c0-5.594-3.604-8.458-9.105-8.458h-9.17v23.309h9.104C256.686,50.646,260.289,47.783,260.289,42.188z M255.212,42.188
			c0,2.63-1.604,3.962-4.094,3.962h-4.028V31.833h4.094c2.424,0,4.028,1.332,4.028,3.962V42.188z M215.557,42.521v-7.06
			c0-5.594-3.604-8.458-9.105-8.458c-5.568,0-9.172,2.864-9.172,8.458v7.06c0,5.594,3.604,8.458,9.105,8.458
			C211.952,50.979,215.557,48.116,215.557,42.521z M202.355,42.521v-7.06c0-2.63,1.604-3.962,4.095-3.962
			c2.424,0,4.028,1.332,4.028,3.962v7.06c0,2.63-1.604,3.962-4.095,3.962C203.961,46.484,202.355,45.152,202.355,42.521z
			 M175.389,58.668h-5.22v14.124h1.647v-5.347h3.572c2.698,0,4.444-1.354,4.444-4.399C179.834,60.02,178.088,58.668,175.389,58.668z
			 M175.35,65.992h-3.533V60.12h3.533c1.688,0,2.799,0.868,2.799,2.926C178.146,65.125,177.057,65.992,175.35,65.992z
			 M173.441,27.337h-5.076v13.819l-8.45-13.819h-4.749v23.31h5.076V36.828l8.449,13.818h4.75V27.337z M187.535,58.668h-5.221v14.124
			h1.647v-5.347h3.572c2.698,0,4.444-1.354,4.444-4.399C191.98,60.02,190.234,58.668,187.535,58.668z M187.495,65.992h-3.532V60.12
			h3.532c1.688,0,2.799,0.868,2.799,2.926C190.294,65.125,189.202,65.992,187.495,65.992z M183.266,27.337h-5.078v23.31h15.983
			V46.15h-10.905V27.337z"/>
	</g>
</g>
</svg>
