<?xml version="1.0" encoding="utf-8"?>
<!-- Generator: Adobe Illustrator 16.0.0, SVG Export Plug-In . SVG Version: 6.00 Build 0)  -->
<!DOCTYPE svg PUBLIC "-//W3C//DTD SVG 1.1//EN" "http://www.w3.org/Graphics/SVG/1.1/DTD/svg11.dtd">
<svg version="1.1" id="Layer_1" xmlns="http://www.w3.org/2000/svg" xmlns:xlink="http://www.w3.org/1999/xlink" x="0px" y="0px"
	 width="234.796px" height="178.711px" viewBox="0 0 234.796 178.711" enable-background="new 0 0 234.796 178.711"
	 xml:space="preserve">
<g>
	<g>
		<g>
			<path fill-rule="evenodd" clip-rule="evenodd" fill="#FFFFFF" d="M114.333,51.31l5.191,1.121l-2.592-3.479L114.333,51.31z
				 M116.933,44.096l6.886,9.263l3.349,0.723l-10.235-13.787l-10.346,9.342l3.409,0.736L116.933,44.096z M90.659,96.449v-3.942
				l-7.131-9.283l7.131-6.486v-3.943l-10.717,9.726L90.659,96.449z M142.501,83.278v3.835l6.705,8.988l-6.705,6.358v3.837
				l10.039-9.541L142.501,83.278z M119.525,128.134l-5.191-0.915l2.599,3.378L119.525,128.134z M142.501,74.737v3.751l14.186,19.081
				l-14.186,13.518v3.75l17.42-16.634L142.501,74.737z M90.659,105.226v-3.854L75.445,81.639l15.213-13.767v-3.854L71.912,80.946
				L90.659,105.226z M95.088,118.913l43.199,7.721V62.25l-43.199-9.198V118.913z M121.25,61.723l14,3.027v9l-14-3V61.723z
				 M121.25,73.75l14,3v10l-14-3.027V73.75z M98.25,56.75l20,4.324V82.75l0.72,0.48L98.25,78.75V56.75z M98.25,81.75l37,8v33l-37-6
				V81.75z M116.933,135.452l-6.937-8.997l-3.409-0.601l10.346,13.398l10.235-9.772l-3.349-0.591L116.933,135.452z"/>
		</g>
	</g>
</g>
</svg>
