<?xml version="1.0" encoding="utf-8"?>
<!-- Generator: Adobe Illustrator 16.0.0, SVG Export Plug-In . SVG Version: 6.00 Build 0)  -->
<!DOCTYPE svg PUBLIC "-//W3C//DTD SVG 1.1//EN" "http://www.w3.org/Graphics/SVG/1.1/DTD/svg11.dtd">
<svg version="1.1" id="Layer_1" xmlns="http://www.w3.org/2000/svg" xmlns:xlink="http://www.w3.org/1999/xlink" x="0px" y="0px"
	 width="234.796px" height="161.934px" viewBox="0 0 234.796 161.934" enable-background="new 0 0 234.796 161.934"
	 xml:space="preserve">
<g>
	<g>
		<path fill-rule="evenodd" clip-rule="evenodd" fill="#FFFFFF" d="M147.989,91.546l4.899-5.149l-18.277-22.676l4.524,9.41
			l10.464,12.953l-2.816,2.953L147.989,91.546z M85.098,90.087l-9.329-11.001l32.885-32.547l4.403-8.141L72.179,78.745l11.644,13.7
			L85.098,90.087z M156.973,86.783l-7.481,7.89l1.175,2.442l9.488-10.031L124.43,42.545l4.489,9.336L156.973,86.783z
			 M102.988,57.012L80.328,79.518l6.396,7.564l1.3-2.402l-4.064-4.818l14.458-14.4L102.988,57.012z M126.131,114.52l-3.421-0.249
			l-5.162,5.411l-5.2-6.165l-3.49-0.253l8.69,10.277L126.131,114.52z M81.241,107.299l71.644,5.408l-34.904-72.99L81.241,107.299z
			 M86.167,104.166l9.256-16.825l10.294,18.401L86.167,104.166z M109.318,106.033L97.128,84.242l8.541-15.524l20.719,38.691
			L109.318,106.033z M148.167,109.166l-18.224-1.47l-22.551-42.113l10.38-18.867l0.395,0.45L148.167,109.166z M117.548,128.358
			l-13.069-15.413l-3.447-0.251l16.516,19.434l16.135-17.058l-3.306-0.241L117.548,128.358z"/>
	</g>
</g>
</svg>
