<?xml version="1.0" encoding="utf-8"?>
<!-- Generator: Adobe Illustrator 16.0.0, SVG Export Plug-In . SVG Version: 6.00 Build 0)  -->
<!DOCTYPE svg PUBLIC "-//W3C//DTD SVG 1.1//EN" "http://www.w3.org/Graphics/SVG/1.1/DTD/svg11.dtd">
<svg version="1.1" id="Layer_1" xmlns="http://www.w3.org/2000/svg" xmlns:xlink="http://www.w3.org/1999/xlink" x="0px" y="0px"
	 width="234.796px" height="171.902px" viewBox="0 0 234.796 171.902" enable-background="new 0 0 234.796 171.902"
	 xml:space="preserve">
<g>
	<g>
		<g>
			<path fill-rule="evenodd" clip-rule="evenodd" fill="#FFFDFD" d="M117.88,40.327l3.88,4.962l5.038,2.638l-8.918-11.421
				l-10.23,10.042l5.801-1.865L117.88,40.327z M82.396,71.335l-9.384,9.21l7.484,9.245l-2.449-6.915l-1.523-1.885l1.912-1.88
				L82.396,71.335z M151.479,101.477l9.509-9.764l-9.799-12.549l2.292,6.693l4.255,5.442l-4.13,4.233L151.479,101.477z
				 M117.017,49.793l-23.588,7.662L83.51,82.87l9.919,27.925l23.588,13.631l23.092-8.286l9.423-24.917l-9.423-27.301L117.017,49.793
				z M94.855,62.803l18.256,22.502l-25.443-3.337L94.855,62.803z M87.685,85.653l25.771,3.083l-18.243,17.828L87.685,85.653z
				 M116,121.131l-19.374-11.993L116,90.215V121.131z M116,83.866L96.629,59.54L116,53.083V83.866z M119,53.988l18.373,11.374
				L119,83.318V53.988z M119,120.988V92.564l17.616,21.713L119,120.988z M138.585,112.23l-18.031-22.645l25.584,3.061
				L138.585,112.23z M120.089,86.22l18.69-18.256l7.646,21.71L120.089,86.22z M117.88,132.156l-3.776-4.672l-4.94-2.277l8.717,10.77
				l9.214-9.461l-5.204,1.53L117.88,132.156z"/>
		</g>
	</g>
</g>
</svg>
