<?xml version="1.0" encoding="utf-8"?>
<!-- Generator: Adobe Illustrator 16.0.0, SVG Export Plug-In . SVG Version: 6.00 Build 0)  -->
<!DOCTYPE svg PUBLIC "-//W3C//DTD SVG 1.1//EN" "http://www.w3.org/Graphics/SVG/1.1/DTD/svg11.dtd">
<svg version="1.1" id="Layer_1" xmlns="http://www.w3.org/2000/svg" xmlns:xlink="http://www.w3.org/1999/xlink" x="0px" y="0px"
	 width="234.796px" height="149.898px" viewBox="0 0 234.796 149.898" enable-background="new 0 0 234.796 149.898"
	 xml:space="preserve">
<g>
	<g>
		<g>
			<path fill-rule="evenodd" clip-rule="evenodd" fill="#FFFFFF" d="M84.43,87.497v-3.904l-8.068-9.209l8.068-8.759V61.72
				L72.836,74.285L84.43,87.497z M117.795,121.681l-2.349-2.681l-9.232-6.678l11.581,13.198l10.689-12.121l-8.503,5.806
				L117.795,121.681z M150.08,72.574v3.865l0.002,0.002l-0.002,0.002v3.865l3.341-3.773L150.08,72.574z M84.43,78.606v-3.995
				l-0.002-0.003l0.002-0.002v-3.995l-3.582,3.897L84.43,78.606z M117.795,29.399l2.733,3.247l10.608,8.788l-13.342-15.875
				l-10.804,11.709l8.612-5.49L117.795,29.399z M138.291,89.482l0.009-27.692l-20.494-14.722L96.871,60.313l-0.01,28.275
				l20.925,14.443L138.291,89.482z M99.408,87.375l0.05-24.812l18.387-11.616l18.004,12.956l-0.047,24.363l-18.056,11.854
				L99.408,87.375z M88.884,55.29L88.87,94.148l28.912,19.693l28.11-18.623l0.012-37.761l-28.095-20.219L88.884,55.29z
				 M142.531,59.34l-0.065,33.917l-24.737,16.629L92.43,92.154l0.069-34.781l25.364-16.176L142.531,59.34z M150.08,63.972v3.776
				l7.494,8.902l-7.494,8.483v3.778l10.732-12.17L150.08,63.972z M117.795,62.768c-6.222-0.214-11.295,5.363-11.295,12.457
				c0,7.093,5.073,12.955,11.295,13.087c6.184,0.133,11.169-5.445,11.169-12.461C128.964,68.837,123.979,62.98,117.795,62.768z
				 M117.795,85.474c-4.836-0.111-8.774-4.668-8.774-10.179c0-5.511,3.938-9.849,8.774-9.689c4.813,0.159,8.697,4.715,8.697,10.177
				C126.493,81.246,122.609,85.586,117.795,85.474z"/>
		</g>
	</g>
</g>
</svg>
