<?xml version="1.0" encoding="utf-8"?>
<!-- Generator: Adobe Illustrator 16.0.0, SVG Export Plug-In . SVG Version: 6.00 Build 0)  -->
<!DOCTYPE svg PUBLIC "-//W3C//DTD SVG 1.1//EN" "http://www.w3.org/Graphics/SVG/1.1/DTD/svg11.dtd">
<svg version="1.1" id="Layer_1" xmlns="http://www.w3.org/2000/svg" xmlns:xlink="http://www.w3.org/1999/xlink" x="0px" y="0px"
	 width="290px" height="99px" viewBox="0 0 290 99" enable-background="new 0 0 290 99" xml:space="preserve">
<g opacity="0.5">
	<g>
		<path fill="#414141" d="M80.558,59.184c-3.36,0-5.408,1.779-5.408,5.021v4.358c0,3.222,2.048,5.021,5.368,5.021
			c3.36,0,5.408-1.801,5.408-5.021v-4.358C85.925,60.963,83.877,59.184,80.558,59.184z M84.275,68.562c0,2.28-1.392,3.58-3.758,3.58
			c-2.326,0-3.718-1.3-3.718-3.58v-4.359c0-2.279,1.392-3.58,3.758-3.58c2.326,0,3.718,1.301,3.718,3.58V68.562z M97.734,70.344
			l-7.177-10.961h-1.551v14h1.65V62.404l7.177,10.979h1.551v-14h-1.65V70.344z M224.837,46.548h7.774l1.478,4.886h5.513
			l-7.514-23.104h-6.232l-7.515,23.104h5.021L224.837,46.548z M228.708,33.776l2.526,8.317h-5.053L228.708,33.776z M107.934,60.824
			h4.592v12.559h1.65V60.824h4.592v-1.441h-10.835L107.934,60.824L107.934,60.824z M49,36.033v2.218c5.323,2.598,9,8.048,9,14.371
			c0,8.836-7.164,16-16,16s-16-7.164-16-16c0-6.323,3.677-11.772,9-14.371v-2.218c-6.464,2.731-11,9.13-11,16.588
			c0,9.941,8.059,18,18,18s18-8.059,18-18C60,45.163,55.464,38.764,49,36.033z M99.102,43.05v-6.337
			c0-5.544-3.609-8.383-9.121-8.383h-9.187v23.104h9.121C95.493,51.434,99.102,48.595,99.102,43.05z M85.88,32.786h4.101
			c2.428,0,4.035,1.32,4.035,3.927v6.337c0,2.607-1.607,3.928-4.101,3.928H85.88V32.786z M33.293,48.328L41,56.035v0.586h2v-0.586
			l7.707-7.708l-1.414-1.414L43,53.207V30.621h-2v22.586l-6.293-6.293L33.293,48.328z M121.507,36.383
			c0-5.544-3.609-8.383-9.121-8.383c-5.577,0-9.186,2.838-9.186,8.383v6.997c0,5.545,3.609,8.384,9.121,8.384
			c5.578,0,9.187-2.839,9.187-8.384L121.507,36.383L121.507,36.383z M116.422,43.38c0,2.607-1.607,3.928-4.101,3.928
			c-2.428,0-4.036-1.32-4.036-3.928v-6.997c0-2.607,1.608-3.927,4.101-3.927c2.428,0,4.036,1.32,4.036,3.927V43.38z M160.477,37.736
			l8.465,13.698h4.758V28.33h-5.086v13.697l-8.465-13.697h-4.758v23.104h5.086V37.736z M194.463,46.978h-10.926V28.33h-5.085v23.104
			h16.011V46.978z M166.463,59.383h-1.65v14h8.986v-1.439h-7.336V59.383L166.463,59.383z M260.693,43.05v-6.337
			c0-5.544-3.608-8.383-9.12-8.383h-9.187v23.104h9.119C257.085,51.434,260.693,48.595,260.693,43.05z M247.473,32.786h4.102
			c2.428,0,4.035,1.32,4.035,3.927v6.337c0,2.607-1.607,3.928-4.103,3.928h-4.034V32.786z M236.105,59.184
			c-3.358,0-5.406,1.779-5.406,5.021v4.358c0,3.222,2.048,5.021,5.367,5.021c3.359,0,5.408-1.801,5.408-5.021v-4.358
			C241.475,60.963,239.427,59.184,236.105,59.184z M239.824,68.562c0,2.28-1.393,3.58-3.758,3.58c-2.326,0-3.719-1.3-3.719-3.58
			v-4.359c0-2.279,1.393-3.58,3.758-3.58c2.326,0,3.719,1.301,3.719,3.58V68.562z M217.975,60.824h4.594v12.559h1.649V60.824h4.593
			v-1.441h-10.836V60.824z M129.584,65.643h-7.078v-6.26h-1.65v14h1.65v-6.299h7.078v6.299h1.65v-14h-1.65V65.643z M266.404,60.824
			v-1.441h-8.985v14h8.985v-1.439h-7.336v-4.858h6.343v-1.44h-6.343v-4.818h7.336V60.824z M254.536,63.723c0-3-1.75-4.34-4.453-4.34
			h-5.526v14h1.649v-5.299h4.036l2.484,5.299h1.908l-2.703-5.559C253.562,67.303,254.536,65.984,254.536,63.723z M250.043,66.643
			h-3.837v-5.817h3.837c1.689,0,2.803,0.858,2.803,2.897C252.846,65.783,251.753,66.643,250.043,66.643z M212.607,65.824l-2.625-0.5
			c-1.332-0.26-2.168-1-2.168-2.301c0-1.58,1.095-2.4,3.242-2.4c2.146,0,3.299,0.941,3.299,2.781v0.18h1.631v-0.18
			c0-2.82-1.789-4.221-4.93-4.221c-3.143,0-4.932,1.358-4.932,3.938c0,2.101,1.292,3.301,3.459,3.721l2.645,0.5
			c1.332,0.261,2.168,0.98,2.168,2.279c0,1.701-1.193,2.521-3.36,2.521c-2.146,0-3.38-0.939-3.38-2.779v-0.18h-1.649v0.18
			c0,2.801,1.89,4.221,5.029,4.221c3.161,0,5.05-1.361,5.05-4.061C216.086,67.424,214.834,66.244,212.607,65.824z M147.718,28.33
			l-3.412,16.568l-3.478-16.568h-4.922l-3.51,16.568l-3.379-16.568H123.8l5.545,23.104h5.741l3.184-13.729l3.215,13.729h5.742
			l5.545-23.104H147.718L147.718,28.33z M134.514,73.383h8.986v-1.439h-7.336v-4.858h6.342v-1.44h-6.342v-4.818h7.336v-1.441h-8.986
			V73.383z M157.874,59.383h-5.229v14h1.65v-5.299h3.578c2.704,0,4.454-1.34,4.454-4.361
			C162.328,60.723,160.578,59.383,157.874,59.383z M157.835,66.643h-3.539v-5.817h3.539c1.688,0,2.804,0.858,2.804,2.897
			C160.639,65.783,159.544,66.643,157.835,66.643z M179.843,59.383l-5.149,14h1.632l1.312-3.6h6.264l1.312,3.6h1.771l-5.131-14
			H179.843z M178.073,68.344l2.685-7.199l2.684,7.199H178.073z M191.893,66.363l-4.057-6.98h-1.969l5.189,8.641v5.359h1.629v-5.359
			l5.17-8.641h-1.869L191.893,66.363z M215.884,43.38v-6.997c0-5.544-3.608-8.383-9.12-8.383c-5.578,0-9.188,2.838-9.188,8.383
			v6.997c0,5.545,3.609,8.384,9.121,8.384C212.273,51.764,215.884,48.925,215.884,43.38z M202.662,43.38v-6.997
			c0-2.607,1.607-3.927,4.102-3.927c2.428,0,4.034,1.32,4.034,3.927v6.997c0,2.607-1.606,3.928-4.101,3.928
			C204.27,47.308,202.662,45.987,202.662,43.38z"/>
	</g>
</g>
<g>
	<g>
		<path fill="#FFFFFF" d="M80.558,58.184c-3.36,0-5.408,1.779-5.408,5.021v4.358c0,3.222,2.048,5.021,5.368,5.021
			c3.36,0,5.408-1.801,5.408-5.021v-4.358C85.925,59.963,83.877,58.184,80.558,58.184z M84.275,67.562c0,2.28-1.392,3.58-3.758,3.58
			c-2.326,0-3.718-1.3-3.718-3.58v-4.359c0-2.279,1.392-3.58,3.758-3.58c2.326,0,3.718,1.301,3.718,3.58V67.562z M97.734,69.344
			l-7.177-10.961h-1.551v14h1.65V61.404l7.177,10.979h1.551v-14h-1.65V69.344z M224.837,45.548h7.774l1.478,4.886h5.513
			l-7.514-23.104h-6.232l-7.515,23.104h5.021L224.837,45.548z M228.708,32.776l2.526,8.317h-5.053L228.708,32.776z M107.934,59.824
			h4.592v12.559h1.65V59.824h4.592v-1.441h-10.835L107.934,59.824L107.934,59.824z M49,35.033v2.218c5.323,2.598,9,8.048,9,14.371
			c0,8.836-7.164,16-16,16s-16-7.164-16-16c0-6.323,3.677-11.772,9-14.371v-2.218c-6.464,2.731-11,9.13-11,16.588
			c0,9.941,8.059,18,18,18s18-8.059,18-18C60,44.163,55.464,37.764,49,35.033z M99.102,42.05v-6.337
			c0-5.544-3.609-8.383-9.121-8.383h-9.187v23.104h9.121C95.493,50.434,99.102,47.595,99.102,42.05z M85.88,31.786h4.101
			c2.428,0,4.035,1.32,4.035,3.927v6.337c0,2.607-1.607,3.928-4.101,3.928H85.88V31.786z M33.293,47.328L41,55.035v0.586h2v-0.586
			l7.707-7.708l-1.414-1.414L43,52.207V29.621h-2v22.586l-6.293-6.293L33.293,47.328z M121.507,35.383
			c0-5.544-3.609-8.383-9.121-8.383c-5.577,0-9.186,2.838-9.186,8.383v6.997c0,5.545,3.609,8.384,9.121,8.384
			c5.578,0,9.187-2.839,9.187-8.384L121.507,35.383L121.507,35.383z M116.422,42.38c0,2.607-1.607,3.928-4.101,3.928
			c-2.428,0-4.036-1.32-4.036-3.928v-6.997c0-2.607,1.608-3.927,4.101-3.927c2.428,0,4.036,1.32,4.036,3.927V42.38z M160.477,36.736
			l8.465,13.698h4.758V27.33h-5.086v13.697l-8.465-13.697h-4.758v23.104h5.086V36.736z M194.463,45.978h-10.926V27.33h-5.085v23.104
			h16.011V45.978z M166.463,58.383h-1.65v14h8.986v-1.439h-7.336V58.383L166.463,58.383z M260.693,42.05v-6.337
			c0-5.544-3.608-8.383-9.12-8.383h-9.187v23.104h9.119C257.085,50.434,260.693,47.595,260.693,42.05z M247.473,31.786h4.102
			c2.428,0,4.035,1.32,4.035,3.927v6.337c0,2.607-1.607,3.928-4.103,3.928h-4.034V31.786z M236.105,58.184
			c-3.358,0-5.406,1.779-5.406,5.021v4.358c0,3.222,2.048,5.021,5.367,5.021c3.359,0,5.408-1.801,5.408-5.021v-4.358
			C241.475,59.963,239.427,58.184,236.105,58.184z M239.824,67.562c0,2.28-1.393,3.58-3.758,3.58c-2.326,0-3.719-1.3-3.719-3.58
			v-4.359c0-2.279,1.393-3.58,3.758-3.58c2.326,0,3.719,1.301,3.719,3.58V67.562z M217.975,59.824h4.594v12.559h1.649V59.824h4.593
			v-1.441h-10.836V59.824z M129.584,64.643h-7.078v-6.26h-1.65v14h1.65v-6.299h7.078v6.299h1.65v-14h-1.65V64.643z M266.404,59.824
			v-1.441h-8.985v14h8.985v-1.439h-7.336v-4.858h6.343v-1.44h-6.343v-4.818h7.336V59.824z M254.536,62.723c0-3-1.75-4.34-4.453-4.34
			h-5.526v14h1.649v-5.299h4.036l2.484,5.299h1.908l-2.703-5.559C253.562,66.303,254.536,64.984,254.536,62.723z M250.043,65.643
			h-3.837v-5.817h3.837c1.689,0,2.803,0.858,2.803,2.897C252.846,64.783,251.753,65.643,250.043,65.643z M212.607,64.824l-2.625-0.5
			c-1.332-0.26-2.168-1-2.168-2.301c0-1.58,1.095-2.4,3.242-2.4c2.146,0,3.299,0.941,3.299,2.781v0.18h1.631v-0.18
			c0-2.82-1.789-4.221-4.93-4.221c-3.143,0-4.932,1.358-4.932,3.938c0,2.101,1.292,3.301,3.459,3.721l2.645,0.5
			c1.332,0.261,2.168,0.98,2.168,2.279c0,1.701-1.193,2.521-3.36,2.521c-2.146,0-3.38-0.939-3.38-2.779v-0.18h-1.649v0.18
			c0,2.801,1.89,4.221,5.029,4.221c3.161,0,5.05-1.361,5.05-4.061C216.086,66.424,214.834,65.244,212.607,64.824z M147.718,27.33
			l-3.412,16.568l-3.478-16.568h-4.922l-3.51,16.568l-3.379-16.568H123.8l5.545,23.104h5.741l3.184-13.729l3.215,13.729h5.742
			l5.545-23.104H147.718L147.718,27.33z M134.514,72.383h8.986v-1.439h-7.336v-4.858h6.342v-1.44h-6.342v-4.818h7.336v-1.441h-8.986
			V72.383z M157.874,58.383h-5.229v14h1.65v-5.299h3.578c2.704,0,4.454-1.34,4.454-4.361
			C162.328,59.723,160.578,58.383,157.874,58.383z M157.835,65.643h-3.539v-5.817h3.539c1.688,0,2.804,0.858,2.804,2.897
			C160.639,64.783,159.544,65.643,157.835,65.643z M179.843,58.383l-5.149,14h1.632l1.312-3.6h6.264l1.312,3.6h1.771l-5.131-14
			H179.843z M178.073,67.344l2.685-7.199l2.684,7.199H178.073z M191.893,65.363l-4.057-6.98h-1.969l5.189,8.641v5.359h1.629v-5.359
			l5.17-8.641h-1.869L191.893,65.363z M215.884,42.38v-6.997c0-5.544-3.608-8.383-9.12-8.383c-5.578,0-9.188,2.838-9.188,8.383
			v6.997c0,5.545,3.609,8.384,9.121,8.384C212.273,50.764,215.884,47.925,215.884,42.38z M202.662,42.38v-6.997
			c0-2.607,1.607-3.927,4.102-3.927c2.428,0,4.034,1.32,4.034,3.927v6.997c0,2.607-1.606,3.928-4.101,3.928
			C204.27,46.308,202.662,44.987,202.662,42.38z"/>
	</g>
</g>
</svg>
