<?xml version="1.0" encoding="utf-8"?>
<!-- Generator: Adobe Illustrator 16.0.0, SVG Export Plug-In . SVG Version: 6.00 Build 0)  -->
<!DOCTYPE svg PUBLIC "-//W3C//DTD SVG 1.1//EN" "http://www.w3.org/Graphics/SVG/1.1/DTD/svg11.dtd">
<svg version="1.1" id="Layer_1" xmlns="http://www.w3.org/2000/svg" xmlns:xlink="http://www.w3.org/1999/xlink" x="0px" y="0px"
	 width="2685px" height="258px" viewBox="0 0 2685 258" enable-background="new 0 0 2685 258" xml:space="preserve">
<polygon fill-rule="evenodd" clip-rule="evenodd" fill="#373737" points="1049,51 949,51 949,171 1052,171 1052,174 946,174 946,48 
	1052,48 1052,171 1049,171 "/>
<path fill-rule="evenodd" clip-rule="evenodd" fill="#373737" d="M669,0v24h383V0H669z M1049,21H672V3h377V21z"/>
<circle fill-rule="evenodd" clip-rule="evenodd" fill="#373737" cx="1039.011" cy="12" r="5"/>
<circle fill-rule="evenodd" clip-rule="evenodd" fill="#373737" cx="1023.99" cy="12" r="5"/>
<circle fill-rule="evenodd" clip-rule="evenodd" fill="#373737" cx="1009.011" cy="12" r="5"/>
<circle fill-rule="evenodd" clip-rule="evenodd" fill="#373737" cx="993.011" cy="12" r="5"/>
<rect x="922" y="11" fill-rule="evenodd" clip-rule="evenodd" fill="#373737" width="40" height="3"/>
<rect x="856" y="11" fill-rule="evenodd" clip-rule="evenodd" fill="#373737" width="50" height="3"/>
<rect x="795" y="11" fill-rule="evenodd" clip-rule="evenodd" fill="#373737" width="43" height="3"/>
<rect x="741" y="11" fill-rule="evenodd" clip-rule="evenodd" fill="#373737" width="37" height="3"/>
<rect x="683" y="11" fill-rule="evenodd" clip-rule="evenodd" fill="#373737" width="41" height="3"/>
<path fill-rule="evenodd" clip-rule="evenodd" fill="#373737" d="M559,48v126h257V48H559z M810.512,51L688,109.339L565.489,51
	H810.512z M562,52.662L684.511,111L562,169.339V52.662z M565.489,171L688,112.662L810.512,171H565.489z M813,168.862L691.489,111
	L813,53.138V168.862z"/>
<polygon fill-rule="evenodd" clip-rule="evenodd" fill="#373737" points="816,257 813,257 813,190 562,190 562,257 559,257 559,187 
	816,187 "/>
<rect x="577" y="207" fill-rule="evenodd" clip-rule="evenodd" fill="#373737" width="224" height="3"/>
<rect x="577" y="219" fill-rule="evenodd" clip-rule="evenodd" fill="#373737" width="224" height="3"/>
<rect x="577" y="231" fill-rule="evenodd" clip-rule="evenodd" fill="#373737" width="224" height="3"/>
<rect x="577" y="243" fill-rule="evenodd" clip-rule="evenodd" fill="#373737" width="224" height="3"/>
<path fill-rule="evenodd" clip-rule="evenodd" fill="#373737" d="M830,48v126h109V48H830z M936,171H833V51h103V171z"/>
<path fill-rule="evenodd" clip-rule="evenodd" fill="#373737" d="M841,60v13h88V60H841z M926,70h-82v-7h82V70z"/>
<rect x="841" y="87" fill-rule="evenodd" clip-rule="evenodd" fill="#373737" width="88" height="3"/>
<rect x="841" y="96" fill-rule="evenodd" clip-rule="evenodd" fill="#373737" width="88" height="3"/>
<rect x="841" y="105" fill-rule="evenodd" clip-rule="evenodd" fill="#373737" width="88" height="3"/>
<rect x="841" y="114" fill-rule="evenodd" clip-rule="evenodd" fill="#373737" width="88" height="3"/>
<rect x="841" y="131" fill-rule="evenodd" clip-rule="evenodd" fill="#373737" width="87" height="3"/>
<rect x="841" y="140" fill-rule="evenodd" clip-rule="evenodd" fill="#373737" width="87" height="3"/>
<rect x="841" y="149" fill-rule="evenodd" clip-rule="evenodd" fill="#373737" width="87" height="3"/>
<rect x="841" y="158" fill-rule="evenodd" clip-rule="evenodd" fill="#373737" width="87" height="3"/>
<rect x="956" y="131" fill-rule="evenodd" clip-rule="evenodd" fill="#373737" width="86" height="3"/>
<rect x="956" y="114" fill-rule="evenodd" clip-rule="evenodd" fill="#373737" width="86" height="3"/>
<rect x="956" y="105" fill-rule="evenodd" clip-rule="evenodd" fill="#373737" width="86" height="3"/>
<rect x="956" y="96" fill-rule="evenodd" clip-rule="evenodd" fill="#373737" width="86" height="3"/>
<path fill-rule="evenodd" clip-rule="evenodd" fill="#373737" d="M956,60v13h86V60H956z M1039,70h-80v-7h80V70z"/>
<rect x="956" y="87" fill-rule="evenodd" clip-rule="evenodd" fill="#373737" width="86" height="3"/>
<rect x="956" y="140" fill-rule="evenodd" clip-rule="evenodd" fill="#373737" width="86" height="3"/>
<polygon fill-rule="evenodd" clip-rule="evenodd" fill="#373737" points="1052,190 834,190 834,257 831,257 831,187 1052,187 "/>
<rect x="845" y="207" fill-rule="evenodd" clip-rule="evenodd" fill="#373737" width="193" height="3"/>
<rect x="845" y="219" fill-rule="evenodd" clip-rule="evenodd" fill="#373737" width="193" height="3"/>
<rect x="845" y="231" fill-rule="evenodd" clip-rule="evenodd" fill="#373737" width="193" height="3"/>
<rect x="845" y="243" fill-rule="evenodd" clip-rule="evenodd" fill="#373737" width="193" height="3"/>
<rect x="558" fill-rule="evenodd" clip-rule="evenodd" fill="#F5F5F1" width="92" height="24"/>
<polygon fill-rule="evenodd" clip-rule="evenodd" fill="#373737" points="512,51 412,51 412,171 515,171 515,174 409,174 409,48 
	515,48 515,171 512,171 "/>
<path fill-rule="evenodd" clip-rule="evenodd" fill="#373737" d="M132,0v24h383V0H132z M512,21H135V3h377V21z"/>
<circle fill-rule="evenodd" clip-rule="evenodd" fill="#373737" cx="502.011" cy="12" r="5"/>
<circle fill-rule="evenodd" clip-rule="evenodd" fill="#373737" cx="486.99" cy="12" r="5"/>
<circle fill-rule="evenodd" clip-rule="evenodd" fill="#373737" cx="472.011" cy="12" r="5"/>
<circle fill-rule="evenodd" clip-rule="evenodd" fill="#373737" cx="456.011" cy="12" r="5"/>
<rect x="385" y="11" fill-rule="evenodd" clip-rule="evenodd" fill="#373737" width="40" height="3"/>
<rect x="319" y="11" fill-rule="evenodd" clip-rule="evenodd" fill="#373737" width="50" height="3"/>
<rect x="258" y="11" fill-rule="evenodd" clip-rule="evenodd" fill="#373737" width="43" height="3"/>
<rect x="204" y="11" fill-rule="evenodd" clip-rule="evenodd" fill="#373737" width="37" height="3"/>
<rect x="146" y="11" fill-rule="evenodd" clip-rule="evenodd" fill="#373737" width="41" height="3"/>
<path fill-rule="evenodd" clip-rule="evenodd" fill="#373737" d="M22,48v126h257V48H22z M273.512,51L151,109.339L28.489,51H273.512z
	 M25,52.662L147.511,111L25,169.339V52.662z M28.489,171L151,112.662L273.512,171H28.489z M276,168.862L154.489,111L276,53.138
	V168.862z"/>
<polygon fill-rule="evenodd" clip-rule="evenodd" fill="#373737" points="279,257 276,257 276,190 25,190 25,257 22,257 22,187 
	279,187 "/>
<rect x="40" y="207" fill-rule="evenodd" clip-rule="evenodd" fill="#373737" width="224" height="3"/>
<rect x="40" y="219" fill-rule="evenodd" clip-rule="evenodd" fill="#373737" width="224" height="3"/>
<rect x="40" y="231" fill-rule="evenodd" clip-rule="evenodd" fill="#373737" width="224" height="3"/>
<rect x="40" y="243" fill-rule="evenodd" clip-rule="evenodd" fill="#373737" width="224" height="3"/>
<path fill-rule="evenodd" clip-rule="evenodd" fill="#373737" d="M293,48v126h109V48H293z M399,171H296V51h103V171z"/>
<path fill-rule="evenodd" clip-rule="evenodd" fill="#373737" d="M304,60v13h88V60H304z M389,70h-82v-7h82V70z"/>
<rect x="304" y="87" fill-rule="evenodd" clip-rule="evenodd" fill="#373737" width="88" height="3"/>
<rect x="304" y="96" fill-rule="evenodd" clip-rule="evenodd" fill="#373737" width="88" height="3"/>
<rect x="304" y="105" fill-rule="evenodd" clip-rule="evenodd" fill="#373737" width="88" height="3"/>
<rect x="304" y="114" fill-rule="evenodd" clip-rule="evenodd" fill="#373737" width="88" height="3"/>
<rect x="304" y="131" fill-rule="evenodd" clip-rule="evenodd" fill="#373737" width="87" height="3"/>
<rect x="304" y="140" fill-rule="evenodd" clip-rule="evenodd" fill="#373737" width="87" height="3"/>
<rect x="304" y="149" fill-rule="evenodd" clip-rule="evenodd" fill="#373737" width="87" height="3"/>
<rect x="304" y="158" fill-rule="evenodd" clip-rule="evenodd" fill="#373737" width="87" height="3"/>
<rect x="419" y="131" fill-rule="evenodd" clip-rule="evenodd" fill="#373737" width="86" height="3"/>
<rect x="419" y="114" fill-rule="evenodd" clip-rule="evenodd" fill="#373737" width="86" height="3"/>
<rect x="419" y="105" fill-rule="evenodd" clip-rule="evenodd" fill="#373737" width="86" height="3"/>
<rect x="419" y="96" fill-rule="evenodd" clip-rule="evenodd" fill="#373737" width="86" height="3"/>
<path fill-rule="evenodd" clip-rule="evenodd" fill="#373737" d="M419,60v13h86V60H419z M502,70h-80v-7h80V70z"/>
<rect x="419" y="87" fill-rule="evenodd" clip-rule="evenodd" fill="#373737" width="86" height="3"/>
<rect x="419" y="140" fill-rule="evenodd" clip-rule="evenodd" fill="#373737" width="86" height="3"/>
<polygon fill-rule="evenodd" clip-rule="evenodd" fill="#373737" points="515,190 297,190 297,257 294,257 294,187 515,187 "/>
<rect x="308" y="207" fill-rule="evenodd" clip-rule="evenodd" fill="#373737" width="193" height="3"/>
<rect x="308" y="219" fill-rule="evenodd" clip-rule="evenodd" fill="#373737" width="193" height="3"/>
<rect x="308" y="231" fill-rule="evenodd" clip-rule="evenodd" fill="#373737" width="193" height="3"/>
<rect x="308" y="243" fill-rule="evenodd" clip-rule="evenodd" fill="#373737" width="193" height="3"/>
<rect x="21" fill-rule="evenodd" clip-rule="evenodd" fill="#373737" width="92" height="24"/>
<rect x="1049" y="190" fill-rule="evenodd" clip-rule="evenodd" fill="#373737" width="3" height="67"/>
<polygon fill-rule="evenodd" clip-rule="evenodd" fill="#F5F5F1" points="1586,51 1486,51 1486,171 1589,171 1589,174 1483,174 
	1483,48 1589,48 1589,171 1586,171 "/>
<path fill-rule="evenodd" clip-rule="evenodd" fill="#F5F5F1" d="M1206,0v24h383V0H1206z M1586,21h-377V3h377V21z"/>
<circle fill-rule="evenodd" clip-rule="evenodd" fill="#F5F5F1" cx="1576.011" cy="12" r="5"/>
<circle fill-rule="evenodd" clip-rule="evenodd" fill="#F5F5F1" cx="1560.99" cy="12" r="5"/>
<circle fill-rule="evenodd" clip-rule="evenodd" fill="#F5F5F1" cx="1546.011" cy="12" r="5"/>
<circle fill-rule="evenodd" clip-rule="evenodd" fill="#F5F5F1" cx="1530.011" cy="12" r="5"/>
<rect x="1459" y="11" fill-rule="evenodd" clip-rule="evenodd" fill="#F5F5F1" width="40" height="3"/>
<rect x="1393" y="11" fill-rule="evenodd" clip-rule="evenodd" fill="#F5F5F1" width="50" height="3"/>
<rect x="1332" y="11" fill-rule="evenodd" clip-rule="evenodd" fill="#F5F5F1" width="43" height="3"/>
<rect x="1278" y="11" fill-rule="evenodd" clip-rule="evenodd" fill="#F5F5F1" width="37" height="3"/>
<rect x="1220" y="11" fill-rule="evenodd" clip-rule="evenodd" fill="#F5F5F1" width="41" height="3"/>
<path fill-rule="evenodd" clip-rule="evenodd" fill="#F5F5F1" d="M1096,48v126h257V48H1096z M1347.512,51L1225,109.339L1102.488,51
	H1347.512z M1099,52.662L1221.512,111L1099,169.339V52.662z M1102.488,171L1225,112.662L1347.512,171H1102.488z M1350,168.862
	L1228.488,111L1350,53.138V168.862z"/>
<polygon fill-rule="evenodd" clip-rule="evenodd" fill="#F5F5F1" points="1353,257 1350,257 1350,190 1099,190 1099,257 1096,257 
	1096,187 1353,187 "/>
<rect x="1114" y="207" fill-rule="evenodd" clip-rule="evenodd" fill="#F5F5F1" width="224" height="3"/>
<rect x="1114" y="219" fill-rule="evenodd" clip-rule="evenodd" fill="#F5F5F1" width="224" height="3"/>
<rect x="1114" y="231" fill-rule="evenodd" clip-rule="evenodd" fill="#F5F5F1" width="224" height="3"/>
<rect x="1114" y="243" fill-rule="evenodd" clip-rule="evenodd" fill="#F5F5F1" width="224" height="3"/>
<path fill-rule="evenodd" clip-rule="evenodd" fill="#F5F5F1" d="M1367,48v126h109V48H1367z M1473,171h-103V51h103V171z"/>
<path fill-rule="evenodd" clip-rule="evenodd" fill="#F5F5F1" d="M1378,60v13h88V60H1378z M1463,70h-82v-7h82V70z"/>
<rect x="1378" y="87" fill-rule="evenodd" clip-rule="evenodd" fill="#F5F5F1" width="88" height="3"/>
<rect x="1378" y="96" fill-rule="evenodd" clip-rule="evenodd" fill="#F5F5F1" width="88" height="3"/>
<rect x="1378" y="105" fill-rule="evenodd" clip-rule="evenodd" fill="#F5F5F1" width="88" height="3"/>
<rect x="1378" y="114" fill-rule="evenodd" clip-rule="evenodd" fill="#F5F5F1" width="88" height="3"/>
<rect x="1378" y="131" fill-rule="evenodd" clip-rule="evenodd" fill="#F5F5F1" width="87" height="3"/>
<rect x="1378" y="140" fill-rule="evenodd" clip-rule="evenodd" fill="#F5F5F1" width="87" height="3"/>
<rect x="1378" y="149" fill-rule="evenodd" clip-rule="evenodd" fill="#F5F5F1" width="87" height="3"/>
<rect x="1378" y="158" fill-rule="evenodd" clip-rule="evenodd" fill="#F5F5F1" width="87" height="3"/>
<rect x="1493" y="131" fill-rule="evenodd" clip-rule="evenodd" fill="#F5F5F1" width="86" height="3"/>
<rect x="1493" y="114" fill-rule="evenodd" clip-rule="evenodd" fill="#F5F5F1" width="86" height="3"/>
<rect x="1493" y="105" fill-rule="evenodd" clip-rule="evenodd" fill="#F5F5F1" width="86" height="3"/>
<rect x="1493" y="96" fill-rule="evenodd" clip-rule="evenodd" fill="#F5F5F1" width="86" height="3"/>
<path fill-rule="evenodd" clip-rule="evenodd" fill="#F5F5F1" d="M1493,60v13h86V60H1493z M1576,70h-80v-7h80V70z"/>
<rect x="1493" y="87" fill-rule="evenodd" clip-rule="evenodd" fill="#F5F5F1" width="86" height="3"/>
<rect x="1493" y="140" fill-rule="evenodd" clip-rule="evenodd" fill="#F5F5F1" width="86" height="3"/>
<polygon fill-rule="evenodd" clip-rule="evenodd" fill="#F5F5F1" points="1589,190 1371,190 1371,257 1368,257 1368,187 1589,187 
	"/>
<rect x="1382" y="207" fill-rule="evenodd" clip-rule="evenodd" fill="#F5F5F1" width="193" height="3"/>
<rect x="1382" y="219" fill-rule="evenodd" clip-rule="evenodd" fill="#F5F5F1" width="193" height="3"/>
<rect x="1382" y="231" fill-rule="evenodd" clip-rule="evenodd" fill="#F5F5F1" width="193" height="3"/>
<rect x="1382" y="243" fill-rule="evenodd" clip-rule="evenodd" fill="#F5F5F1" width="193" height="3"/>
<rect x="1095" fill-rule="evenodd" clip-rule="evenodd" fill="#373737" width="92" height="24"/>
<rect x="1586" y="190" fill-rule="evenodd" clip-rule="evenodd" fill="#F5F5F1" width="3" height="67"/>
<path fill-rule="evenodd" clip-rule="evenodd" fill="#F5F5F1" d="M2020,48v126h106V48H2020z M2116,143h-86v-3h86V143z M2116,152h-86
	v-3h86V152z M2116,134h-86v-3h86V134z M2116,117h-86v-3h86V117z M2116,108h-86v-3h86V108z M2116,99h-86v-3h86V99z M2116,90h-86v-3
	h86V90z M2116,73h-86V60h86V73z"/>
<path fill-rule="evenodd" clip-rule="evenodd" fill="#373737" d="M2557,48v126h106V48H2557z M2653,143h-86v-3h86V143z M2653,152h-86
	v-3h86V152z M2653,134h-86v-3h86V134z M2653,117h-86v-3h86V117z M2653,108h-86v-3h86V108z M2653,99h-86v-3h86V99z M2653,90h-86v-3
	h86V90z M2653,73h-86V60h86V73z"/>
<path fill-rule="evenodd" clip-rule="evenodd" fill="#F5F5F1" d="M1743,0v24h383V0H1743z M1798,14h-41v-3h41V14z M1852,14h-37v-3h37
	V14z M1912,14h-43v-3h43V14z M1980,14h-50v-3h50V14z M2036,14h-40v-3h40V14z M2067,17.2c-2.762,0-5-2.239-5-5c0-2.762,2.238-5,5-5
	s5,2.238,5,5C2072,14.961,2069.762,17.2,2067,17.2z M2083,17.2c-2.762,0-5-2.239-5-5c0-2.762,2.238-5,5-5s5,2.238,5,5
	C2088,14.961,2085.762,17.2,2083,17.2z M2098,17.167c-2.762,0-5-2.239-5-5c0-2.762,2.238-5,5-5s5,2.238,5,5
	C2103,14.928,2100.762,17.167,2098,17.167z M2113,17.167c-2.762,0-5-2.239-5-5c0-2.762,2.238-5,5-5s5,2.238,5,5
	C2118,14.928,2115.762,17.167,2113,17.167z"/>
<rect x="1632" fill-rule="evenodd" clip-rule="evenodd" fill="#F5F5F1" width="92" height="24"/>
<rect x="1633" y="48" fill-rule="evenodd" clip-rule="evenodd" fill="#F5F5F1" width="257" height="126"/>
<path fill-rule="evenodd" clip-rule="evenodd" fill="#F5F5F1" d="M1633,187c0,0,0,66.116,0,70h257v-70H1633z M1875,246h-224v-3h224
	V246z M1875,234h-224v-3h224V234z M1875,222h-224v-3h224V222z M1875,210h-224v-3h224V210z"/>
<path fill-rule="evenodd" clip-rule="evenodd" fill="#F5F5F1" d="M1904,48v126h109V48H1904z M2002,152h-87v-3h87V152z M2002,143h-87
	v-3h87V143z M2002,134h-87v-3h87V134z M2003,117h-88v-3h88V117z M2003,108h-88v-3h88V108z M2003,99h-88v-3h88V99z M2003,90h-88v-3
	h88V90z M2003,73h-88V60h88V73z"/>
<path fill-rule="evenodd" clip-rule="evenodd" fill="#F5F5F1" d="M1905,187v70h221v-70H1905z M2112,246h-193v-3h193V246z M2112,234
	h-193v-3h193V234z M2112,222h-193v-3h193V222z M2112,210h-193v-3h193V210z"/>
<path fill-rule="evenodd" clip-rule="evenodd" fill="#373737" d="M2170,187c0,0,0,66.116,0,70h257v-70H2170z M2412,246h-224v-3h224
	V246z M2412,234h-224v-3h224V234z M2412,222h-224v-3h224V222z M2412,210h-224v-3h224V210z"/>
<path fill-rule="evenodd" clip-rule="evenodd" fill="#373737" d="M2442,187v70h221v-70H2442z M2649,246h-193v-3h193V246z M2649,234
	h-193v-3h193V234z M2649,222h-193v-3h193V222z M2649,210h-193v-3h193V210z"/>
<path fill-rule="evenodd" clip-rule="evenodd" fill="#373737" d="M2526,0v24h27h1h109V0H2526z M2573,14h-40v-3h40V14z M2604,17.2
	c-2.762,0-5-2.239-5-5c0-2.762,2.238-5,5-5s5,2.238,5,5C2609,14.961,2606.762,17.2,2604,17.2z M2620,17.2c-2.762,0-5-2.239-5-5
	c0-2.762,2.238-5,5-5s5,2.238,5,5C2625,14.961,2622.762,17.2,2620,17.2z M2635,17.167c-2.762,0-5-2.239-5-5c0-2.762,2.238-5,5-5
	s5,2.238,5,5C2640,14.928,2637.762,17.167,2635,17.167z M2650,17.167c-2.762,0-5-2.239-5-5c0-2.762,2.238-5,5-5s5,2.238,5,5
	C2655,14.928,2652.762,17.167,2650,17.167z"/>
<path fill-rule="evenodd" clip-rule="evenodd" fill="#373737" d="M2457,81v-8h-5V60h5V48h-16v126h109V81H2457z M2539,161h-87v-3h87
	V161z M2539,152h-87v-3h87V152z M2539,143h-87v-3h87V143z M2539,134h-87v-3h87V134z M2540,117h-88v-3h88V117z M2540,108h-88v-3h88
	V108z M2540,99h-88v-3h88V99z M2540,90h-88v-3h88V90z"/>
<path fill-rule="evenodd" clip-rule="evenodd" fill="#373737" d="M2280,0v24h177V0H2280z M2335,14h-41v-3h41V14z M2389,14h-37v-3h37
	V14z M2449,14h-43v-3h43V14z"/>
<rect x="2169" fill-rule="evenodd" clip-rule="evenodd" fill="#373737" width="92" height="24"/>
<path fill-rule="evenodd" clip-rule="evenodd" fill="#F5F5F1" d="M2523,27v-3V0h-63v24v53h93V27H2523z M2467,11h50v3h-50V11z
	 M2546,68h-79v-3h79V68z M2546,58h-79v-3h79V58z M2546,48h-79v-3h79V48z M2546,38h-79v-3h79V38z"/>
<path fill-rule="evenodd" clip-rule="evenodd" fill="#F5F5F1" d="M2170,48v126h257V48H2170z M2188,120c-4.971,0-9-4.029-9-9
	s4.029-9,9-9s9,4.029,9,9S2192.971,120,2188,120z M2409.01,119.99c-4.97,0-8.999-4.03-8.999-9c0-4.971,4.029-9,8.999-9
	c4.971,0,9,4.029,9,9C2418.01,115.96,2413.98,119.99,2409.01,119.99z"/>
<rect x="512" y="187" fill-rule="evenodd" clip-rule="evenodd" fill="#373737" width="3" height="70"/>
</svg>
