<?xml version="1.0" encoding="utf-8"?>
<!-- Generator: Adobe Illustrator 16.0.0, SVG Export Plug-In . SVG Version: 6.00 Build 0)  -->
<!DOCTYPE svg PUBLIC "-//W3C//DTD SVG 1.1//EN" "http://www.w3.org/Graphics/SVG/1.1/DTD/svg11.dtd">
<svg version="1.1" id="Layer_1" xmlns="http://www.w3.org/2000/svg" xmlns:xlink="http://www.w3.org/1999/xlink" x="0px" y="0px"
	 width="775px" height="177px" viewBox="0 0 775 177" enable-background="new 0 0 775 177" xml:space="preserve">
<path fill-rule="evenodd" clip-rule="evenodd" fill="#373737" d="M84,108v69h65v-69H84z M146,174H87v-63h59V174z"/>
<path fill-rule="evenodd" clip-rule="evenodd" fill="#373737" d="M91,116v15h51v-15H91z M139,128H94v-9h45V128z"/>
<rect x="91" y="137" fill-rule="evenodd" clip-rule="evenodd" fill="#373737" width="51" height="3"/>
<rect x="91" y="146" fill-rule="evenodd" clip-rule="evenodd" fill="#373737" width="51" height="3"/>
<rect x="91" y="155" fill-rule="evenodd" clip-rule="evenodd" fill="#373737" width="51" height="3"/>
<rect x="91" y="164" fill-rule="evenodd" clip-rule="evenodd" fill="#373737" width="51" height="3"/>
<path fill-rule="evenodd" clip-rule="evenodd" fill="#373737" d="M9,41v59h140V41H9z M141.961,44L79.374,69.035L16.078,44H141.961z
	 M12,45.613l63.318,25.044L12,95.984V45.613z M17.539,97l61.842-24.736L141.922,97H17.539z M146,95.387L83.436,70.641L146,45.616
	V95.387z"/>
<polygon fill-rule="evenodd" clip-rule="evenodd" points="12,44 12,44 12,44 "/>
<path fill-rule="evenodd" clip-rule="evenodd" fill="#373737" d="M9,18v17h140V18H9z M146,32H12V21h134V32z"/>
<rect x="115" y="25" fill-rule="evenodd" clip-rule="evenodd" fill="#373737" width="28" height="3"/>
<rect x="83" y="25" fill-rule="evenodd" clip-rule="evenodd" fill="#373737" width="24" height="3"/>
<rect x="46" y="25" fill-rule="evenodd" clip-rule="evenodd" fill="#373737" width="29" height="3"/>
<rect x="15" y="25" fill-rule="evenodd" clip-rule="evenodd" fill="#373737" width="23" height="3"/>
<circle fill-rule="evenodd" clip-rule="evenodd" fill="#373737" cx="145.489" cy="5.49" r="3.5"/>
<circle fill-rule="evenodd" clip-rule="evenodd" fill="#373737" cx="134.5" cy="5.5" r="3.5"/>
<circle fill-rule="evenodd" clip-rule="evenodd" fill="#373737" cx="123.506" cy="5.49" r="3.5"/>
<circle fill-rule="evenodd" clip-rule="evenodd" fill="#373737" cx="112.494" cy="5.505" r="3.5"/>
<path fill-rule="evenodd" clip-rule="evenodd" fill="#373737" d="M9,108v69h64v-69H9z M70,174H12v-63h58V174z"/>
<path fill-rule="evenodd" clip-rule="evenodd" fill="#373737" d="M16,116v15h50v-15H16z M63,128H19v-9h44V128z"/>
<rect x="16" y="137" fill-rule="evenodd" clip-rule="evenodd" fill="#373737" width="50" height="3"/>
<rect x="16" y="146" fill-rule="evenodd" clip-rule="evenodd" fill="#373737" width="50" height="3"/>
<rect x="16" y="155" fill-rule="evenodd" clip-rule="evenodd" fill="#373737" width="50" height="3"/>
<rect x="16" y="164" fill-rule="evenodd" clip-rule="evenodd" fill="#373737" width="50" height="3"/>
<polygon fill-rule="evenodd" clip-rule="evenodd" points="12,44 12,44 12,44 "/>
<rect x="10" fill-rule="evenodd" clip-rule="evenodd" fill="#373737" width="48" height="12"/>
<path fill-rule="evenodd" clip-rule="evenodd" fill="#373737" d="M239,108v69h65v-69H239z M301,174h-59v-63h59V174z"/>
<path fill-rule="evenodd" clip-rule="evenodd" fill="#373737" d="M246,116v15h51v-15H246z M294,128h-45v-9h45V128z"/>
<rect x="246" y="137" fill-rule="evenodd" clip-rule="evenodd" fill="#373737" width="51" height="3"/>
<rect x="246" y="146" fill-rule="evenodd" clip-rule="evenodd" fill="#373737" width="51" height="3"/>
<rect x="246" y="155" fill-rule="evenodd" clip-rule="evenodd" fill="#373737" width="51" height="3"/>
<rect x="246" y="164" fill-rule="evenodd" clip-rule="evenodd" fill="#373737" width="51" height="3"/>
<path fill-rule="evenodd" clip-rule="evenodd" fill="#373737" d="M164,41v59h140V41H164z M296.961,44l-62.587,25.035L171.078,44
	H296.961z M167,45.613l63.318,25.044L167,95.984V45.613z M172.539,97l61.842-24.736L296.922,97H172.539z M301,95.387l-62.564-24.746
	L301,45.616V95.387z"/>
<polygon fill-rule="evenodd" clip-rule="evenodd" points="167,44 167,44 167,44 "/>
<path fill-rule="evenodd" clip-rule="evenodd" fill="#373737" d="M164,18v17h140V18H164z M301,32H167V21h134V32z"/>
<rect x="270" y="25" fill-rule="evenodd" clip-rule="evenodd" fill="#373737" width="28" height="3"/>
<rect x="238" y="25" fill-rule="evenodd" clip-rule="evenodd" fill="#373737" width="24" height="3"/>
<rect x="201" y="25" fill-rule="evenodd" clip-rule="evenodd" fill="#373737" width="29" height="3"/>
<rect x="170" y="25" fill-rule="evenodd" clip-rule="evenodd" fill="#373737" width="23" height="3"/>
<circle fill-rule="evenodd" clip-rule="evenodd" fill="#373737" cx="300.489" cy="5.49" r="3.5"/>
<circle fill-rule="evenodd" clip-rule="evenodd" fill="#373737" cx="289.5" cy="5.5" r="3.5"/>
<circle fill-rule="evenodd" clip-rule="evenodd" fill="#373737" cx="278.506" cy="5.49" r="3.5"/>
<circle fill-rule="evenodd" clip-rule="evenodd" fill="#373737" cx="267.494" cy="5.505" r="3.5"/>
<path fill-rule="evenodd" clip-rule="evenodd" fill="#373737" d="M164,108v69h64v-69H164z M225,174h-58v-63h58V174z"/>
<path fill-rule="evenodd" clip-rule="evenodd" fill="#373737" d="M171,116v15h50v-15H171z M218,128h-44v-9h44V128z"/>
<rect x="171" y="137" fill-rule="evenodd" clip-rule="evenodd" fill="#373737" width="50" height="3"/>
<rect x="171" y="146" fill-rule="evenodd" clip-rule="evenodd" fill="#373737" width="50" height="3"/>
<rect x="171" y="155" fill-rule="evenodd" clip-rule="evenodd" fill="#373737" width="50" height="3"/>
<rect x="171" y="164" fill-rule="evenodd" clip-rule="evenodd" fill="#373737" width="50" height="3"/>
<polygon fill-rule="evenodd" clip-rule="evenodd" points="167,44 167,44 167,44 "/>
<rect x="165" fill-rule="evenodd" clip-rule="evenodd" fill="#F5F5F1" width="48" height="12"/>
<path fill-rule="evenodd" clip-rule="evenodd" fill="#F5F5F1" d="M394,108v69h65v-69H394z M456,174h-59v-63h59V174z"/>
<path fill-rule="evenodd" clip-rule="evenodd" fill="#F5F5F1" d="M401,116v15h51v-15H401z M449,128h-45v-9h45V128z"/>
<rect x="401" y="137" fill-rule="evenodd" clip-rule="evenodd" fill="#F5F5F1" width="51" height="3"/>
<rect x="401" y="146" fill-rule="evenodd" clip-rule="evenodd" fill="#F5F5F1" width="51" height="3"/>
<rect x="401" y="155" fill-rule="evenodd" clip-rule="evenodd" fill="#F5F5F1" width="51" height="3"/>
<rect x="401" y="164" fill-rule="evenodd" clip-rule="evenodd" fill="#F5F5F1" width="51" height="3"/>
<path fill-rule="evenodd" clip-rule="evenodd" fill="#F5F5F1" d="M319,41v59h140V41H319z M451.961,44l-62.587,25.035L326.078,44
	H451.961z M322,45.613l63.318,25.044L322,95.984V45.613z M327.539,97l61.842-24.736L451.922,97H327.539z M456,95.387l-62.564-24.746
	L456,45.616V95.387z"/>
<polygon fill-rule="evenodd" clip-rule="evenodd" points="322,44 322,44 322,44 "/>
<path fill-rule="evenodd" clip-rule="evenodd" fill="#F5F5F1" d="M319,18v17h140V18H319z M456,32H322V21h134V32z"/>
<rect x="425" y="25" fill-rule="evenodd" clip-rule="evenodd" fill="#F5F5F1" width="28" height="3"/>
<rect x="393" y="25" fill-rule="evenodd" clip-rule="evenodd" fill="#F5F5F1" width="24" height="3"/>
<rect x="356" y="25" fill-rule="evenodd" clip-rule="evenodd" fill="#F5F5F1" width="29" height="3"/>
<rect x="325" y="25" fill-rule="evenodd" clip-rule="evenodd" fill="#F5F5F1" width="23" height="3"/>
<circle fill-rule="evenodd" clip-rule="evenodd" fill="#F5F5F1" cx="455.489" cy="5.49" r="3.5"/>
<circle fill-rule="evenodd" clip-rule="evenodd" fill="#F5F5F1" cx="444.5" cy="5.5" r="3.5"/>
<circle fill-rule="evenodd" clip-rule="evenodd" fill="#F5F5F1" cx="433.506" cy="5.49" r="3.5"/>
<circle fill-rule="evenodd" clip-rule="evenodd" fill="#F5F5F1" cx="422.494" cy="5.505" r="3.5"/>
<path fill-rule="evenodd" clip-rule="evenodd" fill="#F5F5F1" d="M319,108v69h64v-69H319z M380,174h-58v-63h58V174z"/>
<path fill-rule="evenodd" clip-rule="evenodd" fill="#F5F5F1" d="M326,116v15h50v-15H326z M373,128h-44v-9h44V128z"/>
<rect x="326" y="137" fill-rule="evenodd" clip-rule="evenodd" fill="#F5F5F1" width="50" height="3"/>
<rect x="326" y="146" fill-rule="evenodd" clip-rule="evenodd" fill="#F5F5F1" width="50" height="3"/>
<rect x="326" y="155" fill-rule="evenodd" clip-rule="evenodd" fill="#F5F5F1" width="50" height="3"/>
<rect x="326" y="164" fill-rule="evenodd" clip-rule="evenodd" fill="#F5F5F1" width="50" height="3"/>
<polygon fill-rule="evenodd" clip-rule="evenodd" points="322,44 322,44 322,44 "/>
<rect x="320" fill-rule="evenodd" clip-rule="evenodd" fill="#373737" width="48" height="12"/>
<path fill-rule="evenodd" clip-rule="evenodd" fill="#F5F5F1" d="M549,108v69h65v-69H549z M607,167h-51v-3h51V167z M607,158h-51v-3
	h51V158z M607,149h-51v-3h51V149z M607,140h-51v-3h51V140z M607,131h-51v-15h51V131z"/>
<rect x="474" y="41" fill-rule="evenodd" clip-rule="evenodd" fill="#F5F5F1" width="140" height="59"/>
<path fill-rule="evenodd" clip-rule="evenodd" fill="#F5F5F1" d="M474,18v17h140V18H474z M503,28h-23v-3h23V28z M540,28h-29v-3h29
	V28z M572,28h-24v-3h24V28z M608,28h-28v-3h28V28z"/>
<circle fill-rule="evenodd" clip-rule="evenodd" fill="#F5F5F1" cx="610.489" cy="5.49" r="3.5"/>
<circle fill-rule="evenodd" clip-rule="evenodd" fill="#F5F5F1" cx="599.5" cy="5.5" r="3.5"/>
<circle fill-rule="evenodd" clip-rule="evenodd" fill="#F5F5F1" cx="588.506" cy="5.49" r="3.5"/>
<circle fill-rule="evenodd" clip-rule="evenodd" fill="#F5F5F1" cx="577.494" cy="5.505" r="3.5"/>
<rect x="475" fill-rule="evenodd" clip-rule="evenodd" fill="#F5F5F1" width="48" height="12"/>
<path fill-rule="evenodd" clip-rule="evenodd" fill="#F5F5F1" d="M474,108v69h64v-69H474z M531,167h-50v-3h50V167z M531,158h-50v-3
	h50V158z M531,149h-50v-3h50V149z M531,140h-50v-3h50V140z M531,131h-50v-15h50V131z"/>
<path fill-rule="evenodd" clip-rule="evenodd" fill="#373737" d="M704,108v69h65v-69H704z M762,167h-51v-3h51V167z M762,158h-51v-3
	h51V158z M762,149h-51v-3h51V149z M762,140h-51v-3h51V140z M762,131h-51v-15h51V131z"/>
<path fill-rule="evenodd" clip-rule="evenodd" fill="#373737" d="M629,18v17h140V18H629z M658,28h-23v-3h23V28z M695,28h-29v-3h29
	V28z M727,28h-24v-3h24V28z M763,28h-28v-3h28V28z"/>
<circle fill-rule="evenodd" clip-rule="evenodd" fill="#373737" cx="765.489" cy="5.49" r="3.5"/>
<circle fill-rule="evenodd" clip-rule="evenodd" fill="#373737" cx="754.5" cy="5.5" r="3.5"/>
<circle fill-rule="evenodd" clip-rule="evenodd" fill="#373737" cx="743.506" cy="5.49" r="3.5"/>
<circle fill-rule="evenodd" clip-rule="evenodd" fill="#373737" cx="732.494" cy="5.505" r="3.5"/>
<rect x="630" fill-rule="evenodd" clip-rule="evenodd" fill="#373737" width="48" height="12"/>
<path fill-rule="evenodd" clip-rule="evenodd" fill="#373737" d="M629,108v69h64v-69H629z M686,167h-50v-3h50V167z M686,158h-50v-3
	h50V158z M686,149h-50v-3h50V149z M686,140h-50v-3h50V140z M686,131h-50v-15h50V131z"/>
<rect x="721" y="41" fill-rule="evenodd" clip-rule="evenodd" fill="#F5F5F1" width="48" height="59"/>
<rect x="629" y="41" fill-rule="evenodd" clip-rule="evenodd" fill="#F5F5F1" width="87" height="59"/>
</svg>
