<?xml version="1.0" encoding="utf-8"?>
<!-- Generator: Adobe Illustrator 16.0.0, SVG Export Plug-In . SVG Version: 6.00 Build 0)  -->
<!DOCTYPE svg PUBLIC "-//W3C//DTD SVG 1.1//EN" "http://www.w3.org/Graphics/SVG/1.1/DTD/svg11.dtd">
<svg version="1.1" id="Layer_1" xmlns="http://www.w3.org/2000/svg" xmlns:xlink="http://www.w3.org/1999/xlink" x="0px" y="0px"
	 width="395px" height="122px" viewBox="0 0 395 122" enable-background="new 0 0 395 122" xml:space="preserve">
<polygon fill-rule="evenodd" clip-rule="evenodd" fill="#373737" points="10,42 10,42 10,42 "/>
<path fill-rule="evenodd" clip-rule="evenodd" fill="#373737" d="M7,39v35h65V39H7z M66.507,42L39.758,54.717L13.447,42H66.507z
	 M10,43.666l26.282,12.703L10,68.864V43.666z M12.493,71l27.253-12.956L66.553,71H12.493z M69,68.851l-25.778-12.46L69,44.136
	V68.851z"/>
<path fill-rule="evenodd" clip-rule="evenodd" fill="#373737" d="M7,80v42h65V80H7z M69,119H10V83h59V119z"/>
<rect x="16" y="89" fill-rule="evenodd" clip-rule="evenodd" fill="#373737" width="47" height="3"/>
<rect x="16" y="99" fill-rule="evenodd" clip-rule="evenodd" fill="#373737" width="47" height="3"/>
<rect x="16" y="109" fill-rule="evenodd" clip-rule="evenodd" fill="#373737" width="47" height="3"/>
<path fill-rule="evenodd" clip-rule="evenodd" fill="#373737" d="M8,18v15h64V18H8z M69,30H11v-9h58V30z"/>
<rect x="14" y="24" fill-rule="evenodd" clip-rule="evenodd" fill="#373737" width="27" height="3"/>
<rect x="63" y="24" fill-rule="evenodd" clip-rule="evenodd" fill="#373737" width="3" height="3"/>
<polygon fill-rule="evenodd" clip-rule="evenodd" fill="#373737" points="10,42 10,42 10,42 "/>
<rect x="16" fill-rule="evenodd" clip-rule="evenodd" fill="#373737" width="47" height="12"/>
<path fill-rule="evenodd" clip-rule="evenodd" fill="#373737" d="M86,39v35h65V39H86z M145.507,42l-26.749,12.717L92.447,42H145.507
	z M89,43.666l26.282,12.703L89,68.864V43.666z M91.493,71l27.253-12.956L145.553,71H91.493z M148,68.851l-25.778-12.46L148,44.136
	V68.851z"/>
<path fill-rule="evenodd" clip-rule="evenodd" fill="#373737" d="M86,80v42h65V80H86z M148,119H89V83h59V119z"/>
<rect x="95" y="89" fill-rule="evenodd" clip-rule="evenodd" fill="#373737" width="47" height="3"/>
<rect x="95" y="99" fill-rule="evenodd" clip-rule="evenodd" fill="#373737" width="47" height="3"/>
<rect x="95" y="109" fill-rule="evenodd" clip-rule="evenodd" fill="#373737" width="47" height="3"/>
<path fill-rule="evenodd" clip-rule="evenodd" fill="#373737" d="M87,18v15h64V18H87z M148,30H90v-9h58V30z"/>
<rect x="93" y="24" fill-rule="evenodd" clip-rule="evenodd" fill="#373737" width="27" height="3"/>
<rect x="142" y="24" fill-rule="evenodd" clip-rule="evenodd" fill="#373737" width="3" height="3"/>
<rect x="95" fill-rule="evenodd" clip-rule="evenodd" fill="#F5F5F1" width="47" height="12"/>
<path fill-rule="evenodd" clip-rule="evenodd" fill="#F5F5F1" d="M165,39v35h65V39H165z M224.507,42l-26.749,12.717L171.447,42
	H224.507z M168,43.666l26.282,12.703L168,68.864V43.666z M170.493,71l27.253-12.956L224.553,71H170.493z M227,68.851l-25.778-12.46
	L227,44.136V68.851z"/>
<path fill-rule="evenodd" clip-rule="evenodd" fill="#F5F5F1" d="M165,80v42h65V80H165z M227,119h-59V83h59V119z"/>
<rect x="174" y="89" fill-rule="evenodd" clip-rule="evenodd" fill="#F5F5F1" width="47" height="3"/>
<rect x="174" y="99" fill-rule="evenodd" clip-rule="evenodd" fill="#F5F5F1" width="47" height="3"/>
<rect x="174" y="109" fill-rule="evenodd" clip-rule="evenodd" fill="#F5F5F1" width="47" height="3"/>
<path fill-rule="evenodd" clip-rule="evenodd" fill="#F5F5F1" d="M166,18v15h64V18H166z M227,30h-58v-9h58V30z"/>
<rect x="172" y="24" fill-rule="evenodd" clip-rule="evenodd" fill="#F5F5F1" width="27" height="3"/>
<rect x="221" y="24" fill-rule="evenodd" clip-rule="evenodd" fill="#F5F5F1" width="3" height="3"/>
<rect x="174" fill-rule="evenodd" clip-rule="evenodd" fill="#373737" width="47" height="12"/>
<rect x="253" fill-rule="evenodd" clip-rule="evenodd" fill="#F5F5F1" width="47" height="12"/>
<path fill-rule="evenodd" clip-rule="evenodd" fill="#F5F5F1" d="M245,18v15h64V18H245z M278,27h-27v-3h27V27z M303,27h-3v-3h3V27z"
	/>
<rect x="244" y="39" fill-rule="evenodd" clip-rule="evenodd" fill="#F5F5F1" width="65" height="35"/>
<path fill-rule="evenodd" clip-rule="evenodd" fill="#F5F5F1" d="M244,80v42h65V80H244z M300,112h-47v-3h47V112z M300,102h-47v-3h47
	V102z M300,92h-47v-3h47V92z"/>
<rect x="332" fill-rule="evenodd" clip-rule="evenodd" fill="#373737" width="47" height="12"/>
<path fill-rule="evenodd" clip-rule="evenodd" fill="#373737" d="M324,18v15h64V18H324z M357,27h-27v-3h27V27z M382,27h-3v-3h3V27z"
	/>
<path fill-rule="evenodd" clip-rule="evenodd" fill="#373737" d="M323,80v42h65V80H323z M379,112h-47v-3h47V112z M379,102h-47v-3h47
	V102z M379,92h-47v-3h47V92z"/>
<rect x="323" y="39" fill-rule="evenodd" clip-rule="evenodd" fill="#F5F5F1" width="38" height="35"/>
<rect x="366" y="39" fill-rule="evenodd" clip-rule="evenodd" fill="#F5F5F1" width="22" height="35"/>
</svg>
