<?xml version="1.0" encoding="utf-8"?>
<!-- Generator: Adobe Illustrator 16.0.0, SVG Export Plug-In . SVG Version: 6.00 Build 0)  -->
<!DOCTYPE svg PUBLIC "-//W3C//DTD SVG 1.1//EN" "http://www.w3.org/Graphics/SVG/1.1/DTD/svg11.dtd">
<svg version="1.1" id="Layer_2" xmlns="http://www.w3.org/2000/svg" xmlns:xlink="http://www.w3.org/1999/xlink" x="0px" y="0px"
	 width="388px" height="388px" viewBox="0 0 388 388" enable-background="new 0 0 388 388" xml:space="preserve">
<g>
	<path fill="#F5F5F1" d="M169.758,43.873L194,19.631l24.439,24.44c3.375,0.559,6.713,1.225,10.01,2.003L194,11.625l-34.146,34.147
		C163.116,45.032,166.419,44.398,169.758,43.873z"/>
	<path fill="#F5F5F1" d="M376.39,194.016l-35.448-35.45c0.777,3.296,1.443,6.635,2.004,10.011l25.438,25.44l-25.639,25.638
		c-0.595,3.419-1.309,6.797-2.128,10.133L376.39,194.016z"/>
	<path fill="#F5F5F1" d="M219.637,342.764L194,368.398l-25.438-25.438c-3.376-0.56-6.715-1.226-10.011-2.004L194,376.406
		l35.771-35.771C226.436,341.454,223.057,342.168,219.637,342.764z"/>
	<path fill="#F5F5F1" d="M44.057,218.459l-24.443-24.442l24.244-24.244c0.525-3.338,1.159-6.641,1.899-9.903L11.61,194.017
		l34.45,34.45C45.282,225.172,44.616,221.834,44.057,218.459z"/>
</g>
<path fill="#F5F5F1" d="M193.501,329.016c-74.836,0-135.5-60.666-135.5-135.5c0-74.836,60.665-135.5,135.5-135.5
	c74.834,0,135.498,60.665,135.498,135.5C328.999,268.35,268.335,329.016,193.501,329.016L193.501,329.016z M193.501,63.452
	c-71.833,0-130.063,58.231-130.063,130.063c0,71.831,58.231,130.062,130.063,130.062c71.83,0,130.062-58.231,130.062-130.062
	C323.562,121.683,265.331,63.452,193.501,63.452L193.501,63.452z"/>
<path fill="#F5F5F1" d="M193.501,318.241c-68.885,0-124.728-55.841-124.728-124.726S124.616,68.788,193.501,68.788
	c68.883,0,124.726,55.843,124.726,124.728C318.227,262.4,262.384,318.241,193.501,318.241L193.501,318.241z M193.501,71.716
	c-67.27,0-121.801,54.532-121.801,121.8s54.532,121.798,121.801,121.798c67.269,0,121.8-54.53,121.8-121.798
	S260.77,71.716,193.501,71.716L193.501,71.716z"/>
<path fill="#F5F5F1" d="M190.962,300.245c6.274,0,12.175-5.063,17.38-9.531c4.129-3.543,7.692-6.603,11.618-7.614
	c1.308-0.338,2.799-0.502,4.558-0.502c2.533,0,5.323,0.336,8.276,0.691c3.21,0.388,6.528,0.786,9.757,0.786
	c4.752,0,8.227-0.871,10.936-2.743c5.39-3.727,7.173-11.012,8.896-18.057c1.174-4.795,2.283-9.323,4.583-12.659
	c2.565-3.722,7.099-6.177,11.896-8.775c6.105-3.312,12.422-6.729,14.488-12.552c2.271-6.389-0.875-14.217-3.647-21.122
	c-1.808-4.498-3.366-8.382-3.366-11.763c0-3.622,1.912-7.652,4.125-12.32c3.116-6.572,6.646-14.021,4.814-20.328
	c-1.762-6.064-7.803-9.839-13.646-13.491c-4.443-2.777-8.646-5.401-11.277-9.109c-2.761-3.889-3.651-8.984-4.601-14.376
	c-1.166-6.656-2.373-13.536-7.211-17.318c-2.437-1.905-5.501-2.792-9.646-2.792c-2.892,0-6.013,0.423-9.027,0.831
	c-3.053,0.413-6.209,0.842-9.196,0.842c-3.292,0-6.03-0.527-8.376-1.608c-4.334-2-8.093-5.712-11.729-9.301
	c-5.53-5.462-10.754-10.621-17.746-10.621c-6.471,0-11.463,4.441-16.748,9.145c-3.592,3.196-7.306,6.5-11.621,8.381
	c-2.406,1.048-5.175,1.557-8.465,1.557c-2.806,0-5.702-0.362-8.5-0.711c-2.694-0.338-5.481-0.686-8.059-0.686
	c-3.86,0-6.63,0.755-8.984,2.451c-4.961,3.576-6.451,10.491-7.891,17.177c-1.164,5.409-2.263,10.516-5.231,14.128
	c-2.64,3.214-6.71,5.559-11.018,8.041c-6.212,3.578-12.634,7.276-14.696,13.467c-2.158,6.465,1.349,14.727,4.164,21.365
	c1.874,4.416,3.493,8.231,3.493,11.454c0,3.299-1.732,7.164-3.739,11.641c-2.928,6.53-6.571,14.658-4.561,21.101
	c1.892,6.065,8.827,10.219,14.945,13.884c4.726,2.828,8.807,5.271,10.697,8.646c1.472,2.627,2.236,6.32,3.122,10.599
	c1.492,7.2,3.35,16.167,9.033,20.438c2.855,2.146,6.723,3.145,12.167,3.145c2.636,0,5.339-0.223,7.954-0.438
	c2.511-0.207,4.883-0.402,7.126-0.402c2.527,0,4.506,0.252,6.225,0.789c4.011,1.254,7.645,4.633,11.492,8.211
	c5.247,4.881,10.673,9.927,17.003,10.05H190.962 M190.962,304.245c-0.103,0-0.208-0.002-0.313-0.004
	c-12.944-0.255-21.609-15.942-29.61-18.442c-1.436-0.449-3.14-0.605-5.032-0.605c-4.375,0-9.743,0.841-15.081,0.841
	c-5.204,0-10.376-0.8-14.57-3.947c-10.353-7.772-9.743-26.026-13.243-32.276s-22.116-10.934-25.969-23.293
	c-3.855-12.361,8.119-27.183,8.119-33.933s-11.55-21.802-7.453-34.084c4.096-12.285,20.67-15.781,26.419-22.783
	c5.75-7,3.37-24.439,13.873-32.01c3.448-2.486,7.324-3.208,11.324-3.208c5.562,0,11.36,1.399,16.56,1.399
	c2.45,0,4.769-0.312,6.866-1.226c9.75-4.25,17.02-17.858,29.967-17.858c13.908,0,21.399,15.79,31.149,20.29
	c1.992,0.919,4.259,1.24,6.699,1.238c5.579,0,12.06-1.671,18.224-1.671c4.334,0,8.512,0.826,12.109,3.64
	c10.199,7.974,7.109,24.782,12.611,32.531c5.5,7.749,21.892,11.365,25.504,23.798c3.613,12.434-8.781,26.516-8.781,33.766
	s11.12,22.021,6.784,34.224c-4.336,12.2-21.861,15.01-26.86,22.258c-5.001,7.25-3.85,24.373-14.496,31.734
	c-3.873,2.679-8.508,3.455-13.21,3.455c-6.489,0-13.106-1.479-18.032-1.479c-1.317,0-2.518,0.106-3.559,0.375
	C213.271,288.956,203.747,304.245,190.962,304.245L190.962,304.245L190.962,304.245z"/>
<path fill="#F5F5F1" d="M119.308,146.617c-0.661,0-0.181-1.197,2.245-3.623c0.956-0.954,1.731-2.182,2.379-3.598l1.604,1.144
	c-0.672,1.266-1.499,2.438-2.537,3.475C121.272,145.743,119.875,146.617,119.308,146.617L119.308,146.617L119.308,146.617z
	 M127.495,135.138l-1.934-0.483c2.294-8.682,2.757-20.123,8.439-23.639c2.166-1.342,4.423-1.798,6.786-1.798
	c2.524,0,5.167,0.521,7.945,1.043c2.777,0.521,5.69,1.043,8.75,1.043c2.546,0,5.191-0.36,7.95-1.38
	c0.418-0.187,0.779-0.264,1.072-0.264c1.151,0,1.282,1.217-0.065,1.992c-2.644,1.218-5.331,1.64-7.999,1.64
	c-2.999,0-5.974-0.532-8.831-1.066c-2.855-0.532-5.593-1.066-8.121-1.066c-2.375,0-4.564,0.471-6.489,1.858
	C128.779,117.289,129.496,126.943,127.495,135.138L127.495,135.138L127.495,135.138z M221.21,113.068
	c-0.571,0-1.408-0.112-2.545-0.376c-12.204-2.841-15.997-17.864-25.655-18.228c-0.201-0.011-0.402-0.016-0.6-0.016
	c-8.057,0-13.661,9.672-21.191,14.519c-2.066-0.826-0.996-0.168-1.029-1.727c7.501-4.956,15.39-15.008,22.486-15.008
	c0.259,0,0.516,0.013,0.773,0.042c10.193,1.092,12.773,14.411,25.48,18.438C221.953,111.667,223.24,113.068,221.21,113.068
	L221.21,113.068L221.21,113.068z"/>
<g>
	<path fill="#F5F5F1" d="M387.985,194.017l-51.955-51.955c1.464,4.052,2.755,8.185,3.874,12.389l39.564,39.566l-39.938,39.937
		c-1.184,4.28-2.547,8.483-4.087,12.603L387.985,194.017z"/>
	<path fill="#F5F5F1" d="M155.8,46.746l38.2-38.2l38.564,38.565c4.203,1.119,8.338,2.411,12.39,3.874L194,0.03l-50.41,50.411
		C147.587,49.047,151.657,47.807,155.8,46.746z"/>
	<path fill="#F5F5F1" d="M47.097,232.585L8.529,194.017l38.203-38.203c1.061-4.141,2.3-8.21,3.694-12.207l-50.409,50.41
		l50.954,50.954C49.507,240.92,48.216,236.788,47.097,232.585z"/>
	<path fill="#F5F5F1" d="M233.938,339.55L194,379.486l-39.567-39.566c-4.203-1.119-8.335-2.41-12.386-3.873L194,388l52.537-52.537
		C242.419,337.003,238.216,338.367,233.938,339.55z"/>
</g>
</svg>
