<?xml version="1.0" encoding="utf-8"?>
<!-- Generator: Adobe Illustrator 16.0.0, SVG Export Plug-In . SVG Version: 6.00 Build 0)  -->
<!DOCTYPE svg PUBLIC "-//W3C//DTD SVG 1.1//EN" "http://www.w3.org/Graphics/SVG/1.1/DTD/svg11.dtd">
<svg version="1.1" id="Layer_1" xmlns="http://www.w3.org/2000/svg" xmlns:xlink="http://www.w3.org/1999/xlink" x="0px" y="0px"
	 width="388px" height="388px" viewBox="0 0 388 388" enable-background="new 0 0 388 388" xml:space="preserve">
<g>
	<polygon fill="#F5F5F1" points="156.602,49 164.606,49 164.611,49 194,19.612 219,44.613 219,44.614 223.387,49 231.391,49 
		193.999,11.611 180,25.605 180,25.601 	"/>
	<polygon fill="#F5F5F1" points="94,268.387 90.006,264.393 19.613,193.997 94,119.608 94,111.604 90.003,115.601 11.607,193.999 
		63.611,246.002 94,276.391 	"/>
	<polygon fill="#F5F5F1" points="226.382,336 219,343.382 219,343.389 194,368.387 161.613,336 153.61,336 194.001,376.391 
		234.391,336 234.387,336 	"/>
	<polygon fill="#F5F5F1" points="295,112.61 295,120.613 368.385,193.997 295,267.382 295,275.387 299.001,271.386 376.389,193.999 
			"/>
</g>
<path fill="none" d="M125.652,323.699c-10.933,0-19.824-8.904-19.824-19.854V81.041c0-10.95,8.892-19.855,19.824-19.855h137.133
	c10.933,0,19.829,8.905,19.829,19.855v222.805c0,10.949-8.896,19.854-19.829,19.854H125.652"/>
<path fill="none" d="M125.652,66.186h137.133c8.188,0,14.829,6.648,14.829,14.854v222.804c0,8.206-6.642,14.854-14.829,14.854
	H125.652c-8.185,0-14.824-6.648-14.824-14.854V81.041C110.828,72.834,117.468,66.186,125.652,66.186L125.652,66.186z"/>
<path fill="none" d="M128.764,311.011c-6.49,0-9.777-3.282-9.777-9.764V83.763c0-6.48,3.287-9.763,9.777-9.763H260.21
	c6.488,0,9.776,3.283,9.776,9.763v217.484c0,6.479-3.288,9.765-9.776,9.765L128.764,311.011"/>
<path fill="none" d="M128.764,311.011c-6.49,0-9.777-3.282-9.777-9.764V83.763c0-6.48,3.287-9.763,9.777-9.763H260.21
	c6.488,0,9.776,3.283,9.776,9.763v217.484c0,6.479-3.288,9.765-9.776,9.765L128.764,311.011"/>
<path fill="#F7F7F4" d="M262.785,61.186H125.652c-10.933,0-19.824,8.905-19.824,19.855v222.805c0,10.949,8.892,19.854,19.824,19.854
	h137.133c10.933,0,19.829-8.904,19.829-19.854V81.041C282.614,70.091,273.718,61.186,262.785,61.186z M277.614,303.846
	c0,8.205-6.642,14.854-14.829,14.854H125.652c-8.185,0-14.824-6.648-14.824-14.854V81.041c0-8.206,6.64-14.854,14.824-14.854
	h137.133c8.188,0,14.829,6.648,14.829,14.854V303.846z"/>
<path fill="#F7F7F4" d="M260.21,71.998H128.764c-7.607,0-11.779,4.164-11.779,11.765v217.484c0,7.603,4.172,11.765,11.779,11.765
	H260.21c7.61,0,11.778-4.162,11.778-11.765V83.763C271.988,76.161,267.82,71.998,260.21,71.998z M269.986,301.247
	c0,6.479-3.288,9.765-9.776,9.765H128.764c-6.49,0-9.777-3.283-9.777-9.765V83.763c0-6.48,3.287-9.763,9.777-9.763H260.21
	c6.488,0,9.776,3.283,9.776,9.763V301.247z"/>
<path fill="#F7F7F4" d="M136.999,155.002l-1.579-1.014l79.161-81.978l2.42,0.988L136.999,155.002L136.999,155.002z M158.412,113.99
	l-1.398-1.398l40.577-40.582l1.397,1.402L158.412,113.99L158.412,113.99z M159.706,152.707l-1.411-1.416l23.996-23.997l1.416,1.411
	L159.706,152.707L159.706,152.707z"/>
<path fill="#F7F7F4" d="M195.002,300c-4.422,0-8.004-3.581-8.004-7.998c0-4.419,3.582-8,8.004-8c4.418,0,7.999,3.581,7.999,8
	C203.001,296.419,199.42,300,195.002,300L195.002,300z M195.002,288.998c-1.657,0-3.003,1.347-3.003,3.004
	c0,1.656,1.346,2.998,3.003,2.998c1.656,0,2.998-1.342,2.998-2.998S196.658,288.998,195.002,288.998L195.002,288.998z"/>
<path fill="#F7F7F4" d="M195.002,304c-0.561,0-1.109-0.053-1.648-0.125l0.225-1.352c0.466,0.063,0.94,0.106,1.424,0.106
	c5.761,0,10.433-4.673,10.433-10.438c0-1.018-0.149-1.996-0.422-2.924l1.487-0.679c0.319,1.083,0.5,2.222,0.5,3.409
	C207,298.629,201.629,304,195.002,304L195.002,304z M195.002,281.759c-1.734,0-3.357,0.44-4.793,1.191l-1.053-1.411
	c1.729-0.971,3.719-1.541,5.846-1.541c0.725,0,1.428,0.074,2.118,0.199l-0.669,1.674
	C195.977,281.807,195.494,281.759,195.002,281.759L195.002,281.759z M189.639,302.719c-1.238-0.621-2.355-1.438-3.305-2.43
	l1.238-0.768c0.781,0.789,1.691,1.443,2.688,1.959L189.639,302.719L189.639,302.719z M184.514,286.173
	c0.357-0.639,0.789-1.229,1.251-1.791l1.566,0.786c-0.44,0.479-0.851,0.987-1.195,1.544L184.514,286.173L184.514,286.173z"/>
<g>
	<polygon fill="#F5F5F1" points="145.007,49 153.521,49 153.525,49 194,8.527 229,43.528 229,43.529 234.471,49 242.986,49 
		193.998,0.015 160,34.011 160,34.007 	"/>
	<polygon fill="#F5F5F1" points="295,286.979 387.984,193.998 295,101.014 295,109.529 379.469,193.998 295,278.468 	"/>
	<polygon fill="#F5F5F1" points="237.468,336 229,344.468 229,344.473 194,379.473 150.527,336 142.015,336 194,387.984 
		245.984,336 245.979,336 	"/>
	<polygon fill="#F5F5F1" points="94,279.473 90.006,275.479 8.527,193.996 94,108.522 94,100.008 0.011,193.999 72.016,266.002 
		94,287.984 	"/>
</g>
<path fill-rule="evenodd" clip-rule="evenodd" fill="#F5F5F1" d="M232.297,166.455l-18.574-9.252l-19.794,13.611l-18.142-13.423
	l-20.228,9.063l-8.805,22.52l48.168,51.076l46.322-50.944L232.297,166.455z M194.855,232.692l-42.291-44.845l6.907-17.666
	l15.692-7.031l18.659,13.806l20.307-13.964l14.223,7.084l7.099,17.971L194.855,232.692z"/>
<g>
	<path fill="#F5F5F1" d="M160.999,182.167c-0.179,0-0.361-0.032-0.538-0.101c-0.773-0.297-1.159-1.165-0.861-1.938l2.724-7.081
		l9.236-4.085c0.756-0.337,1.644,0.007,1.979,0.765c0.335,0.758-0.007,1.644-0.765,1.979l-8.098,3.582l-2.276,5.919
		C162.17,181.802,161.602,182.167,160.999,182.167z"/>
</g>
<g>
	<line fill-rule="evenodd" clip-rule="evenodd" fill="#F5F5F1" x1="186.667" y1="179.5" x2="176.5" y2="171.333"/>
	<path fill="#F5F5F1" d="M186.666,181c-0.33,0-0.661-0.108-0.938-0.331l-10.167-8.167c-0.646-0.519-0.749-1.463-0.23-2.109
		c0.52-0.645,1.463-0.749,2.109-0.23l10.167,8.167c0.646,0.519,0.749,1.463,0.23,2.109C187.54,180.808,187.104,181,186.666,181z"/>
</g>
</svg>
