<?xml version="1.0" encoding="utf-8"?>
<!-- Generator: Adobe Illustrator 16.0.0, SVG Export Plug-In . SVG Version: 6.00 Build 0)  -->
<!DOCTYPE svg PUBLIC "-//W3C//DTD SVG 1.1//EN" "http://www.w3.org/Graphics/SVG/1.1/DTD/svg11.dtd">
<svg version="1.1" xmlns="http://www.w3.org/2000/svg" xmlns:xlink="http://www.w3.org/1999/xlink" x="0px" y="0px" width="388px"
	 height="388px" viewBox="96.5 291.5 388 388" enable-background="new 96.5 291.5 388 388" xml:space="preserve">
<g id="Layer_2">
</g>
<g id="Layer_1">
	<path fill="#F5F5F1" d="M306.5,616.5h-32c-12.683,0-23-10.317-23-23v-214c0-12.683,10.317-23,23-23h32c12.683,0,23,10.317,23,23
		v214C329.5,606.183,319.183,616.5,306.5,616.5z M274.5,362.5c-9.374,0-17,7.626-17,17v214c0,9.374,7.626,17,17,17h32
		c9.374,0,17-7.626,17-17v-214c0-9.374-7.626-17-17-17H274.5z"/>
	<g>
		<path fill="#F5F5F1" d="M304.5,605.5h-28c-7.72,0-14-6.28-14-14v-210c0-7.72,6.28-14,14-14h28c7.72,0,14,6.28,14,14v210
			C318.5,599.22,312.22,605.5,304.5,605.5z M276.5,371.5c-5.514,0-10,4.486-10,10v210c0,5.514,4.486,10,10,10h28
			c5.514,0,10-4.486,10-10v-210c0-5.514-4.486-10-10-10H276.5z"/>
	</g>
	<g>
		<path fill="#F5F5F1" d="M271.5,406.499h-2V383.5c0-4.963,4.037-9,9-9h11v2h-11c-3.859,0-7,3.141-7,7V406.499z"/>
	</g>
	<path fill="#F5F5F1" d="M397.5,616.5h-32c-12.683,0-23-10.317-23-23v-86c0-12.683,10.317-23,23-23h32c12.683,0,23,10.317,23,23v86
		C420.5,606.183,410.183,616.5,397.5,616.5z M365.5,490.5c-9.374,0-17,7.626-17,17v86c0,9.374,7.626,17,17,17h32
		c9.374,0,17-7.626,17-17v-86c0-9.374-7.626-17-17-17H365.5z"/>
	<g>
		<path fill="#F5F5F1" d="M395.5,605.5h-28c-7.72,0-14-6.28-14-14v-82c0-7.72,6.28-14,14-14h28c7.72,0,14,6.28,14,14v82
			C409.5,599.22,403.22,605.5,395.5,605.5z M367.5,499.5c-5.514,0-10,4.486-10,10v82c0,5.514,4.486,10,10,10h28
			c5.514,0,10-4.486,10-10v-82c0-5.514-4.486-10-10-10H367.5z"/>
	</g>
	<g>
		<polygon fill="#F5F5F1" points="155.5,544.486 155.5,535.97 105.027,485.496 177.799,412.723 177.802,412.723 290.5,300.027 
			316.528,326.056 316.528,326.057 325.5,335.028 325.5,335.029 330.971,340.5 330.972,340.5 475.969,485.498 430.5,530.967 
			430.5,539.483 484.484,485.498 316.528,317.542 316.528,317.543 290.498,291.516 256.5,325.511 256.5,325.507 169.284,412.723 
			169.286,412.723 96.511,485.499 		"/>
		<path fill="#F5F5F1" d="M343.46,618.008l-17.96,17.96v0.005l-35,35l-50.724-50.725c-1.676,1.212-3.465,2.274-5.355,3.158
			l56.079,56.078l57.83-57.83C346.593,620.59,344.967,619.365,343.46,618.008z"/>
	</g>
	<path fill="#F5F5F1" d="M220.5,616.5h-32c-12.682,0-23-10.317-23-23v-138c0-12.683,10.318-23,23-23h32c12.683,0,23,10.317,23,23
		v138C243.5,606.183,233.183,616.5,220.5,616.5z M188.5,438.5c-9.374,0-17,7.626-17,17v138c0,9.374,7.626,17,17,17h32
		c9.374,0,17-7.626,17-17v-138c0-9.374-7.626-17-17-17H188.5z"/>
	<g>
		<path fill="#F5F5F1" d="M218.5,605.5h-28c-7.72,0-14-6.28-14-14v-134c0-7.72,6.28-14,14-14h28c7.72,0,14,6.28,14,14v134
			C232.5,599.22,226.22,605.5,218.5,605.5z M190.5,447.5c-5.514,0-10,4.486-10,10v134c0,5.514,4.486,10,10,10h28
			c5.514,0,10-4.486,10-10v-134c0-5.514-4.486-10-10-10H190.5z"/>
	</g>
	<g>
		<path fill="#F5F5F1" d="M185.5,482.5h-2v-22.999c0-4.963,4.038-9,9-9h11v2h-11c-3.86,0-7,3.141-7,7V482.5z"/>
	</g>
	<g>
		<rect x="206.5" y="450.5" fill="#F5F5F1" width="6" height="2"/>
	</g>
	<g>
		<rect x="292.5" y="374.5" fill="#F5F5F1" width="6" height="2"/>
	</g>
	<g>
		<path fill="#F5F5F1" d="M362.5,535.499h-2V512.5c0-4.963,4.037-9,9-9h11v2h-11c-3.859,0-7,3.141-7,7V535.499z"/>
	</g>
	<g>
		<rect x="383.5" y="503.5" fill="#F5F5F1" width="6" height="2"/>
	</g>
	<g>
		<polygon fill="#F5F5F1" points="155.5,532.892 155.5,524.885 116.113,485.497 188.885,412.723 188.888,412.723 290.5,311.111 
			315.5,336.113 315.5,336.114 319.887,340.5 319.888,340.5 464.885,485.497 430.5,519.882 430.5,527.889 472.889,485.499 
			327.891,340.5 326.898,339.508 316.528,329.138 316.528,329.139 290.499,303.111 276.5,317.105 276.5,317.102 180.879,412.723 
			180.881,412.723 108.107,485.499 		"/>
		<path fill="#F5F5F1" d="M338.272,612.109L315.5,634.882v0.007l-25,24.998l-44.954-44.955c-1.23,1.436-2.58,2.763-4.035,3.97
			l48.99,48.989l51.391-51.392C340.568,615.14,339.349,613.68,338.272,612.109z"/>
	</g>
</g>
</svg>
