<?xml version="1.0" encoding="utf-8"?>
<!-- Generator: Adobe Illustrator 16.0.0, SVG Export Plug-In . SVG Version: 6.00 Build 0)  -->
<!DOCTYPE svg PUBLIC "-//W3C//DTD SVG 1.1//EN" "http://www.w3.org/Graphics/SVG/1.1/DTD/svg11.dtd">
<svg version="1.1" id="Layer_1" xmlns="http://www.w3.org/2000/svg" xmlns:xlink="http://www.w3.org/1999/xlink" x="0px" y="0px"
	 width="1570px" height="451px" viewBox="0 0 1570 451" enable-background="new 0 0 1570 451" xml:space="preserve">
<g>
	<g>
		<path fill="#E0E0E0" d="M42.459,0H0v450.705h146.974v-35.926H42.459V0z M237.118,0l-47.685,47.684v355.338l47.685,47.684h96.676
			l47.685-47.684V47.684L333.794,0H237.118z M339.02,388.651l-26.129,26.128h-54.87l-26.128-26.128V62.054l26.128-26.128h54.87
			l26.129,26.128V388.651z M499.059,0l-78.386,450.705h40.499l20.903-131.945h93.41l21.556,131.945h41.806L560.461,0H499.059z
			 M487.954,280.874l40.5-253.44l41.153,253.44H487.954z M681.301,0v450.705h141.095l47.685-47.684V47.684L822.396,0H681.301z
			 M827.621,388.651l-26.129,26.128H723.76V35.926h77.732l26.129,26.128V388.651z M919.072,32.66h53.563v385.385h-53.563v32.66
			h148.933v-32.66h-52.91V32.66h52.91V0H919.072V32.66z M1275.076,339.009L1155.538,0h-35.273v450.705h37.887V109.736
			l119.538,340.969h35.273V0h-37.887V339.009z M1471.043,222.74v35.925h56.177v129.986l-26.129,26.128h-50.95l-26.129-26.128V62.054
			l26.129-26.128h48.991l26.128,26.128v54.215h42.459V47.684L1520.034,0h-90.797l-47.685,47.684v355.338l47.685,47.684h92.757
			l47.685-47.684V222.74H1471.043z"/>
	</g>
</g>
</svg>
