<?xml version="1.0" encoding="utf-8"?>
<!-- Generator: Adobe Illustrator 16.0.0, SVG Export Plug-In . SVG Version: 6.00 Build 0)  -->
<!DOCTYPE svg PUBLIC "-//W3C//DTD SVG 1.1//EN" "http://www.w3.org/Graphics/SVG/1.1/DTD/svg11.dtd">
<svg version="1.1" id="Layer_1" xmlns="http://www.w3.org/2000/svg" xmlns:xlink="http://www.w3.org/1999/xlink" x="0px" y="0px"
	 width="204px" height="156px" viewBox="0 0 204 156" enable-background="new 0 0 204 156" xml:space="preserve">
<g>
	<g>
		<path fill-rule="evenodd" clip-rule="evenodd" fill="#FFFFFF" d="M45.246,127.044c0-12.103-10.129-21.913-22.623-21.913
			C10.128,105.131,0,114.941,0,127.044s10.128,21.914,22.623,21.914c2.209,0,4.343-0.312,6.361-0.885l0.308,0.103L36.877,156h14.384
			l-12.956-13.17C42.582,138.843,45.246,133.246,45.246,127.044z M22.623,140.61c-7.15,0-12.946-6.016-12.946-13.437
			c0-7.419,5.796-13.435,12.946-13.435c7.149,0,12.946,6.016,12.946,13.435C35.569,134.595,29.772,140.61,22.623,140.61z
			 M69.831,135.392c0,0-0.588,5.219-5.754,5.219c-5.165,0-5.754-4.762-5.754-5.74c0-0.978,0-19.044,0-19.044h-9.154v22.696
			c0,0,0.131,10.696,10.985,10.696c6.734,0,9.677-5.479,9.677-5.479v4.697h9.154v-32.61h-9.154V135.392z M101.87,85.305
			c23.617,0,42.761-19.096,42.761-42.652S125.486,0,101.87,0S59.107,19.096,59.107,42.652S78.253,85.305,101.87,85.305z M102,13.825
			v20.87h21.446L102,71.479V50.609H80.554L102,13.825z M189.093,115.304c-7.585,0-10.2,5.22-10.2,5.22v-4.697h-9.154V156h8.893
			v-11.998c0,0,3.269,4.956,10.461,4.956c7.191,0,14.907-5.936,14.907-16.956C204,120.979,196.678,115.304,189.093,115.304z
			 M186.739,141.393c-2.812,0-8.107-2.74-8.107-9.13c0-6.393,4.642-9.393,8.107-9.393c3.204,0,8.108,3.066,8.108,9.393
			C194.847,138.588,189.55,141.393,186.739,141.393z M166.339,105.913h-9.154v24.783c0,0,0.523,9.914-9.416,9.914
			c-9.938,0-9.415-10.696-9.415-10.696v-24.001H129.2c0,0,0,0.114,0,0.326c0,2.953,0,24.979,0,24.979s-0.588,17.74,18.569,17.74
			s18.57-17.087,18.57-18.783C166.339,128.479,166.339,105.913,166.339,105.913z M97.292,123.131h16.215l-17,18.783v6.522h28.246
			v-7.305h-16.738l17-18.783v-6.522H97.292V123.131z M83.169,148.437h8.892v-32.61h-8.892V148.437z M83.169,112.175h8.892v-6.262
			h-8.892V112.175z"/>
	</g>
</g>
</svg>
