<?xml version="1.0" encoding="utf-8"?>
<!-- Generator: Adobe Illustrator 16.0.0, SVG Export Plug-In . SVG Version: 6.00 Build 0)  -->
<!DOCTYPE svg PUBLIC "-//W3C//DTD SVG 1.1//EN" "http://www.w3.org/Graphics/SVG/1.1/DTD/svg11.dtd">
<svg version="1.1" id="Layer_1" xmlns="http://www.w3.org/2000/svg" xmlns:xlink="http://www.w3.org/1999/xlink" x="0px" y="0px"
	 width="181px" height="200px" viewBox="0 0 181 200" enable-background="new 0 0 181 200" xml:space="preserve">
<g>
	<g>
		<g>
			<polygon opacity="0.8" fill="#FFFFFF" points="60.023,95.351 60.023,60.038 90.58,77.695 			"/>
			<polygon opacity="0.8" fill="#FFFFFF" points="121.134,60.038 121.134,95.351 90.58,77.695 			"/>
			<polygon opacity="0.6" fill="#FFFFFF" points="90.58,42.383 60.023,60.035 90.58,77.695 121.134,60.038 			"/>
			<polygon fill="#FFFFFF" points="90.58,77.695 60.023,95.351 90.58,113.012 121.134,95.356 			"/>
		</g>
		<g>
			<polygon opacity="0.22" fill="#FFFFFF" points="90.581,21.19 139.474,49.444 157.807,38.848 90.581,0 23.355,38.848 
				41.69,49.444 			"/>
			<polygon opacity="0.13" fill="#FFFFFF" points="139.474,49.444 139.474,49.444 139.474,105.947 139.474,105.947 157.807,116.543 
				157.807,38.848 			"/>
			<polygon opacity="0.09" fill="#FFFFFF" points="139.474,105.947 90.581,134.201 41.689,105.947 41.689,105.947 23.355,116.543 
				90.581,155.391 157.807,116.543 			"/>
			<polygon opacity="0.13" fill="#FFFFFF" points="41.689,49.444 41.689,49.444 23.355,38.848 23.355,116.543 41.689,105.947 			"/>
		</g>
		<g>
			<polygon opacity="0.5" fill="#FFFFFF" points="90.581,42.38 121.139,60.038 139.474,49.441 90.581,21.19 41.689,49.441 
				60.023,60.038 			"/>
			<polygon opacity="0.3" fill="#FFFFFF" points="121.139,60.038 121.139,60.038 121.139,95.353 121.139,95.353 139.474,105.947 
				139.474,49.441 			"/>
			<polygon opacity="0.2" fill="#FFFFFF" points="121.139,95.353 121.139,95.353 90.581,113.012 60.023,95.353 60.023,95.353 
				41.689,105.947 90.581,134.201 139.474,105.947 			"/>
			<polygon opacity="0.3" fill="#FFFFFF" points="60.023,60.038 60.023,60.038 41.689,49.441 41.689,105.947 60.023,95.353 			"/>
		</g>
	</g>
	<g>
		<g>
			<path fill="#FFFFFF" d="M8.831,180.803c-0.033-0.939-0.518-1.91-2.167-1.91c-1.423,0-2.103,0.906-2.103,1.779
				c0.032,1.133,1.326,1.748,3.009,2.234c2.846,0.777,5.918,1.617,5.951,5.439c0.065,3.658-3.008,5.988-6.728,5.988
				c-2.75,0-6.47-1.424-6.793-5.73h4.237c0.162,1.91,1.811,2.299,2.62,2.299c1.327,0,2.458-0.873,2.426-2.07
				c0-1.523-1.327-1.943-4.593-3.076c-2.394-0.746-4.335-2.072-4.367-4.631c0-3.496,2.943-5.664,6.373-5.664
				c2.394,0,5.952,1.068,6.308,5.342H8.831z"/>
			<path fill="#FFFFFF" d="M32.249,193.785H28.27v-2.363c-0.744,1.391-2.329,2.945-5.531,2.912
				c-5.823-0.031-6.922-4.469-6.922-7.576v-10.746h4.237v9.68c0,2.621,0.873,4.693,3.882,4.66c3.041,0,4.076-2.006,4.076-4.531
				v-9.809h4.237V193.785z"/>
			<path fill="#FFFFFF" d="M35.643,176.012h3.979c0,0.775,0,1.52-0.032,2.361c0.776-1.393,2.362-2.945,5.531-2.912
				c5.791,0.031,6.89,4.467,6.89,7.607v10.717h-4.237v-9.648c0-2.654-0.874-4.695-3.85-4.695c-3.008,0.033-4.043,2.041-4.043,4.533
				v9.811h-4.237V176.012z"/>
			<path fill="#FFFFFF" d="M55.34,176.012h3.979c0,0.775,0,1.52-0.032,2.361c0.776-1.393,2.361-2.945,5.531-2.912
				c5.79,0.031,6.89,4.467,6.89,7.607v10.717h-4.238v-9.648c0-2.654-0.874-4.695-3.849-4.695c-3.009,0.033-4.043,2.041-4.043,4.533
				v9.811H55.34V176.012z"/>
			<path fill="#FFFFFF" d="M78.759,193.105l-6.696-17.094h4.529l4.334,11.814l4.27-11.814h4.529L80.376,200h-4.529L78.759,193.105z"
				/>
			<path fill="#FFFFFF" d="M108.71,187.309c-1.003,3.951-4.528,7.025-9.121,7.025c-5.628,0-9.51-4.369-9.51-9.453
				c0-5.244,4.043-9.42,9.348-9.42c4.463,0,8.25,2.816,9.284,7.154h-4.333c-0.745-1.879-2.459-3.205-4.788-3.205
				c-1.553-0.033-2.75,0.518-3.785,1.521c-0.905,0.971-1.456,2.396-1.456,3.949c0,3.205,2.232,5.471,5.241,5.471
				c2.652,0,4.14-1.586,4.788-3.043H108.71z"/>
			<path fill="#FFFFFF" d="M110.133,184.85c0-4.533,3.331-9.357,9.509-9.357c6.179,0,9.511,4.824,9.511,9.389
				c0,4.598-3.332,9.422-9.511,9.422c-6.178,0-9.509-4.824-9.509-9.422V184.85z M114.369,184.914c0,3.107,2.361,5.406,5.272,5.406
				c2.912,0,5.241-2.299,5.241-5.439c0-3.139-2.329-5.439-5.241-5.439c-2.911,0-5.272,2.301-5.272,5.439V184.914z"/>
			<path fill="#FFFFFF" d="M131.608,176.012h3.979v2.234c0.39-0.812,2.103-2.785,5.177-2.785c1.454,0,3.072,0.42,4.366,1.812
				c0.389,0.42,0.842,1.164,1.067,1.619c0.324-0.551,0.712-1.133,1.294-1.684c1.101-1.037,2.652-1.748,4.529-1.748
				c1.486,0,3.364,0.389,4.722,1.779c1.617,1.684,1.941,3.141,1.941,6.799v9.746h-4.238v-9.584c0-1.133-0.096-2.363-0.711-3.303
				c-0.453-0.873-1.295-1.457-2.781-1.457c-1.488,0-2.523,0.648-3.074,1.621c-0.549,0.971-0.613,1.908-0.613,2.977v9.746h-4.238
				v-9.746c0-1.037-0.097-2.039-0.55-2.945c-0.519-0.939-1.392-1.619-2.911-1.652c-1.553,0-2.523,0.744-3.041,1.652
				c-0.518,0.939-0.679,2.039-0.679,3.076v9.615h-4.238V176.012z"/>
			<path fill="#FFFFFF" d="M161.98,169.828h4.236v6.246v2.137c1.747-2.168,4.303-2.75,5.921-2.75c4.204,0,8.862,3.076,8.862,9.355
				c0,6.021-4.204,9.518-9.058,9.518c-2.781,0-4.948-1.359-5.887-3.107v2.559h-4.075V169.828z M176.763,184.85
				c0-2.914-2.232-5.439-5.338-5.439c-3.299,0-5.369,2.59-5.369,5.471c0,2.979,2.07,5.504,5.272,5.504
				c3.461,0,5.435-2.752,5.435-5.504V184.85z"/>
		</g>
	</g>
</g>
</svg>
