<?xml version="1.0" encoding="utf-8"?>
<!-- Generator: Adobe Illustrator 16.0.0, SVG Export Plug-In . SVG Version: 6.00 Build 0)  -->
<!DOCTYPE svg PUBLIC "-//W3C//DTD SVG 1.1//EN" "http://www.w3.org/Graphics/SVG/1.1/DTD/svg11.dtd">
<svg version="1.1" id="Layer_1" xmlns="http://www.w3.org/2000/svg" xmlns:xlink="http://www.w3.org/1999/xlink" x="0px" y="0px"
	 width="290px" height="90px" viewBox="0 0 290 90" enable-background="new 0 0 290 90" xml:space="preserve">
<g>
	<g>
		<path fill="#FFFFFF" d="M205.401,36.244c0,5.884,4.839,10.654,10.811,10.654c5.971,0,10.812-4.77,10.812-10.654
			c0-5.889-4.841-10.66-10.812-10.66C210.24,25.584,205.401,30.355,205.401,36.244z"/>
		<path fill="#FFFFFF" d="M105.335,36.244c0,5.884,4.84,10.654,10.81,10.654c5.974,0,10.813-4.77,10.813-10.654
			c0-5.889-4.84-10.66-10.813-10.66C110.175,25.584,105.335,30.355,105.335,36.244z"/>
		<path fill="#FFFFFF" d="M114.002,18.025c1.863-1.915,3.014-4.505,3.014-7.366c0-5.888-4.84-10.659-10.813-10.659
			c-3.346,0-6.337,1.5-8.319,3.855L71.869,29.494c-0.519,0.423-0.994,0.895-1.426,1.404l-0.003,0.003l0,0
			c-1.551,1.845-2.486,4.215-2.486,6.8c0,5.884,4.841,10.655,10.81,10.655c2.724,0,5.205-0.999,7.106-2.637l0.007,0.007l0.145-0.144
			c0.256-0.228,0.503-0.472,0.738-0.727l26.995-26.581c0.061-0.058,0.121-0.115,0.177-0.174l0.073-0.073L114.002,18.025z"/>
		<path fill="#FFFFFF" d="M177.318,18.025c1.861-1.915,3.011-4.505,3.011-7.366C180.329,4.771,175.488,0,169.516,0
			c-3.347,0-6.335,1.5-8.318,3.855l-26.014,25.639c-0.519,0.423-0.996,0.895-1.425,1.404l-0.003,0.003l0,0
			c-1.553,1.845-2.488,4.215-2.488,6.8c0,5.884,4.841,10.655,10.811,10.655c2.726,0,5.206-0.999,7.105-2.637l0.008,0.007
			l0.144-0.144c0.258-0.228,0.505-0.472,0.737-0.727l26.997-26.581c0.061-0.058,0.118-0.115,0.177-0.174l0.074-0.073L177.318,18.025
			z"/>
		<path fill="#FFFFFF" d="M214.16,18.025c1.863-1.915,3.013-4.505,3.013-7.366C217.173,4.771,212.331,0,206.358,0
			c-3.346,0-6.335,1.5-8.318,3.855l-26.014,25.639c-0.52,0.423-0.995,0.895-1.425,1.404l-0.003,0.003l0,0
			c-1.554,1.845-2.488,4.215-2.488,6.8c0,5.884,4.841,10.655,10.812,10.655c2.725,0,5.204-0.999,7.104-2.637l0.007,0.007
			l0.146-0.144c0.256-0.228,0.503-0.472,0.737-0.727l26.995-26.581c0.059-0.058,0.118-0.115,0.178-0.174l0.073-0.073L214.16,18.025z
			"/>
	</g>
	<g>
		<g>
			<path fill="#FFFFFF" d="M9.897,70.371L19.186,90h-2.148l-3.134-6.459h-8.58L2.221,90H0l9.41-19.629H9.897z M9.647,74.541
				l-3.414,7.105h6.81L9.647,74.541z"/>
			<path fill="#FFFFFF" d="M25.074,72.291v-1.92h10.915v1.92h-4.441V90h-2.031V72.291H25.074z"/>
			<path fill="#FFFFFF" d="M44.377,70.371h1.993v8.231h10.141v-8.231h1.991V90h-1.991v-9.473H46.37V90h-1.993V70.371z"/>
			<path fill="#FFFFFF" d="M68.897,70.371h1.989v17.738h7.664V90h-9.653V70.371z"/>
			<path fill="#FFFFFF" d="M87.266,70.371h11.415v1.92h-9.425v6.153h9.343v1.921h-9.343v7.715h9.343V90H87.266V70.371z"/>
			<path fill="#FFFFFF" d="M105.689,72.291v-1.92h10.913v1.92h-4.439V90h-2.032V72.291H105.689z"/>
			<path fill="#FFFFFF" d="M125.034,70.371h11.415v1.92h-9.426v6.153h9.344v1.921h-9.344v7.715h9.344V90h-11.333V70.371z"/>
		</g>
		<g>
			<path fill="#FFFFFF" d="M160.738,90l2.852-19.629h0.324l8.099,16.107l8.02-16.107h0.318L183.218,90h-1.952l-1.968-14.038
				L172.254,90h-0.507l-7.127-14.143L162.662,90H160.738z"/>
			<path fill="#FFFFFF" d="M192.393,70.371h1.989V90h-1.989V70.371z"/>
			<path fill="#FFFFFF" d="M204.506,90V70.371h0.434l13.257,15.047V70.371h1.964V90h-0.448l-13.147-14.866V90H204.506z"/>
			<path fill="#FFFFFF" d="M230.554,90V70.371h4.13c2.979,0,5.141,0.233,6.485,0.705c1.934,0.668,3.442,1.824,4.531,3.47
				c1.087,1.646,1.632,3.61,1.632,5.888c0,1.966-0.433,3.694-1.295,5.191c-0.862,1.495-1.98,2.596-3.356,3.307
				c-1.379,0.711-3.308,1.067-5.79,1.067H230.554z M232.464,88.147h2.302c2.752,0,4.661-0.17,5.727-0.505
				c1.5-0.481,2.678-1.348,3.535-2.595c0.856-1.25,1.285-2.778,1.285-4.582c0-1.894-0.465-3.51-1.393-4.856
				c-0.93-1.339-2.227-2.261-3.889-2.757c-1.243-0.375-3.299-0.561-6.16-0.561h-1.407V88.147z"/>
			<path fill="#FFFFFF" d="M256.751,70.371h11.414v1.92h-9.425v6.153h9.342v1.921h-9.342v7.715h9.342V90h-11.331V70.371z"/>
			<path fill="#FFFFFF" d="M277.257,70.371h3.969c2.211,0,3.71,0.086,4.496,0.266c1.183,0.267,2.145,0.837,2.885,1.717
				c0.739,0.877,1.108,1.956,1.108,3.24c0,1.069-0.253,2.008-0.766,2.821c-0.51,0.811-1.237,1.423-2.186,1.835
				c-0.947,0.416-2.257,0.627-3.926,0.636L290,90h-2.462l-7.164-9.113h-1.125V90h-1.992V70.371z M278.253,72.291v6.674l3.431,0.025
				c1.329,0,2.312-0.123,2.951-0.372c0.637-0.249,1.136-0.647,1.492-1.194c0.356-0.55,0.535-1.161,0.535-1.836
				c0-0.657-0.181-1.258-0.543-1.797c-0.361-0.537-0.835-0.922-1.423-1.154c-0.589-0.232-1.565-0.347-2.932-0.347H278.253z"/>
		</g>
		<ellipse fill="#FFFFFF" cx="149.495" cy="79.165" rx="2.5" ry="2.463"/>
	</g>
</g>
</svg>
