<?xml version="1.0" encoding="utf-8"?>
<!-- Generator: Adobe Illustrator 16.0.0, SVG Export Plug-In . SVG Version: 6.00 Build 0)  -->
<!DOCTYPE svg PUBLIC "-//W3C//DTD SVG 1.1//EN" "http://www.w3.org/Graphics/SVG/1.1/DTD/svg11.dtd">
<svg version="1.1" id="Layer_1" xmlns="http://www.w3.org/2000/svg" xmlns:xlink="http://www.w3.org/1999/xlink" x="0px" y="0px"
	 width="296px" height="81px" viewBox="0 0 296 81" enable-background="new 0 0 296 81" xml:space="preserve">
<g>
	<g>
		<path fill="#FFFFFF" d="M295.733,21.853c-3.532-3.184-7.174,5.96-18.447,3.074c0.067-1.623,3.564-22.438,2.576-23.356
			c-0.577,0.146-8.722,6.797-9.128,7.555c1.793,0.141,1.379-0.419,1.793,0.141c-0.28,4.077-1.425,11.004-2.149,15.17
			c-1.938,0.445-14.136,0.713-10.177,4.964c3.598,1.585,4.679-4.354,9.883-4.068c-0.828,6.599-7.205,32.604,5.996,32.406
			c2.54-0.039,8.352-1.024,14.28-9.438c2.315-3.287,5.569-10.76,3.886-12.257c-1.377-1.312-3.365-0.622-4.064,0.655
			c-1.252,2.292-0.462,9.451-2.084,12.525c-1.69,3.167-4.439,5.455-8.558,6.631c-8.297,2.133-3.638-22.755-2.376-29.915
			C283.679,27.123,298.138,26.268,295.733,21.853z M258.698,54.32c-0.957-0.609-1.155-1.219-1.253-2.157
			c-0.421-3.903,0.811-9.173,1.234-13.547c0.175-1.782,0.403-3.699,0.229-5.409c-0.439-4.276-4.259-6.361-8.672-6.502
			c-4.221-0.135-7.098,1.378-9.853,3.812c0.227-1.422,0.196-1.675,0.695-2.713c4.575-2.887,9.116-9.448,11.708-14.349
			c1.106-2.093,2.342-5.032,2.264-7.61c-0.081-2.752-2.912-4.494-5.807-4.468c-3.658,0.033-6.174,2.035-7.904,3.662
			c-7.898,7.422-11.455,50.504-11.617,53.122c3.852-0.158,5.073-0.547,7.233-1.984c0.124-4.93,0.914-9.913,1.505-14.193
			c0.355-2.577,0.538-5.175,1.035-7.216c0.038-0.162,0.16-0.51,0.267-0.774c0.961-2.367,2.655-4.348,5.29-5.317
			c6.576-2.41,4.971,5.407,4.187,9.753c-1.319,7.305-2.42,15.808,4.274,18.141c4.15,1.444,8.454-1.065,11.833-6.03
			C262.719,52.591,260.776,55.379,258.698,54.32z M246.963,6.799c0.806-1.19,3.148-4.528,5.307-3.514
			c1.447,0.681,0.926,3.62,0.434,5.528c-1.523,5.922-6.531,13.986-11.226,16.499C242.761,19.886,243.91,11.302,246.963,6.799z
			 M254.134,60.456c-3.948,3.105-2.319,5.609-9.799,9.554c-20.52,10.824-43.926,10.021-78.205-11.544
			c1.445-10.539,2.375-21.468,4.209-31.645c11.547-2.929,17.874-12.84,18.63-15.181c1.504-4.651,1.019-9.509-3.253-10.983
			c-6.562-2.266-18.697,0.248-23.572,25.043c-7.662-0.393-10.876-4.261-11.474-4.83c-2.996-2.851-0.282-10.292-3.902-9.439
			c-2.955,0.702-0.431,13.512,15.366,15.606c-1.549,9.073-3.271,20.149-4.417,29.729c-13.704-0.73-19.833,15.452-11.443,20.559
			c7.937,4.833,18.171-5.058,19.622-15.961c0.99,0.344,2.51,1.103,2.65,1.179c41.52,22.379,63.988,16.83,85.933,3.19
			C259.512,62.603,257.744,57.616,254.134,60.456z M185.022,1.819c4.667,0.537-1.208,20.251-14.629,23.72
			C170.512,22.782,176.41,0.826,185.022,1.819z M148.378,76.472c-7.816-1.917,0.633-18.772,9.209-17.113
			C157.587,59.412,155.973,78.333,148.378,76.472z M227.346,56.041C227.461,56.02,227.341,55.96,227.346,56.041L227.346,56.041z
			 M186.569,55.683c-5.089-1.112,2.748-26.46,2.471-28.524c-0.579-0.581-6.096,2.032-7.907,2.885
			c-1.324,7.691-8.225,27.815,3.61,27.158c4.786-0.262,6.292-1.494,9.213-7.158C191.081,53.286,189.389,56.346,186.569,55.683z
			 M187.659,22.31c-2.035-2.729-5.492-0.238-4.77,2.383C183.739,27.767,189.874,26.543,187.659,22.31z M145.821,54.368
			c-7.623,0.824,3.967-22.498,2.197-27.22c-4.544-1.93-12.31,1.274-15.449,1.646c0.632-3.391-3.137-7.173-6.564-5.547
			c-2.516,2.353,0.084,6.865,4.391,6.571c-5.396,23.489-27.495,39.707-19.843,7.888c4.289,0.631,13.128-0.518,13.445-4.241
			c0.228-2.72-1.686-6.45-4.701-7.587c-17.651-6.667-22.517,16.569-18.345,23.85c6.944,12.12,17.773,7.035,24.426-3.034
			c3.324-5.034,5.342-10.371,7.058-16.837c3.308-0.444,4.76-1.599,7.674-1.92c3.425-1.581-17.574,39.986,9.144,25.854
			C147.722,53.833,148.087,54.123,145.821,54.368z M114.144,28.604c0.816-0.943,2.187-2.383,3.917-2.189
			c2.855,0.322,4.333,5.836,2.328,8.256c-0.636,0.766-1.9,1.488-3.152,1.767c-2.065,0.462-3.66,0.374-6.531,0.028
			C111.489,33.736,112.421,30.604,114.144,28.604z M130.422,28.735c-2.683,0.134-5.896-2.555-3.751-4.567
			C129.911,23.255,130.513,26.259,130.422,28.735z M90.292,30.23c4.114-0.407,10.344-1.96,13.265-3.846
			c1.184-0.761,2.933-1.718,2.674-3.333c-2.411-1.621-4.526,1.077-6.33,2.617c-2.413,2.063-6.057,3.636-9.443,3.089
			c0.505-6.635,3.786-25.806,2.31-26.585c-1.542,1.386-6.891,7.844-8.354,9.23c0.457,0.455,1.231-0.049,1.479,0.469
			c-1.135,6.019-1.638,10.789-2.491,16.69c-4.749-0.858-8.894-1.135-12.884-1.065c0.269-3.209,0.697-22.197,4.789-23.905
			c2.955-1.234,4.421,1.173,4.443,3.47c0.018,1.817-0.797,5.458,1.8,4.097c1.718-0.9,1.001-4.705-0.161-6.198
			c-1.459-1.876-4.262-3.266-7.086-2.842C63.825,3.681,63.525,20.592,63.121,27.624c-3.259,1.082-10.321,2.987-8.76,5.329
			c2.029,1.886,3.13-1.116,4.257-2.344c1.091-1.191,3.122-1.542,4.527-1.744c-0.305,6.082-1.176,22.987-1.31,27.067
			c-0.729,22.318-5.23,19.23-5.276,19.959c0.562,1.148,2.23,1.058,3.64,0.974c2.516-0.151,6.394,0,7.453-9.72
			c0.305-2.801,2.611-35.674,2.893-38.441c4.376-0.312,8.236,0.229,12.748,1.226c-0.625,4.709-0.954,12.814-0.729,18.806
			c0.197,5.255,1.658,9.119,6.806,9.532c6.136,0.489,7.524-3.813,9.14-8.033C85.201,69.916,89.747,35.036,90.292,30.23z
			 M50.588,45.892c0.129-13.833,4.731-43.64,4.547-44.243c-6.101,3.5-16.497,5.683-17.602,5.946
			c-4.074,0.959-13.127,4.412-9.426,7.459c3.134,2.175,6.255-7.704,16.827-8.252c-0.157,1.59-8.212,18.301-9.407,20.226
			c-5.428-2.764-13.512-1.709-16.418,2.83c-0.581,2.046,0.759,3.427,2.83,2.616c2.628-1.03,3.546-4.884,7.212-5.948
			c1.885-0.545,3.952,0.309,5.903,1.598C15.932,69.568-4.351,58.498,4.817,43.619c2.23-3.618-0.014-4.753-1.159-4.394
			c-4.688,1.471-4.351,12.295-1.893,15.292c4.562,5.561,16.723,8.089,30.594-17.801c1.28-2.39,3.889-7.879,3.961-7.986
			c0.071-0.105,6.597,5.521,6.518,6.387c-1.777,19.442,4.636,26.549,16.073,21.088C58.874,55.684,50.445,60.888,50.588,45.892z
			 M42.826,33.281c-1.824-2.22-3.469-4.029-5.999-5.617c0.592-1.005,6.067-12.764,7.844-17.895
			C44.478,14.976,42.609,31.119,42.826,33.281z M205.645,54.468c5.846,0.326,8.495-2.54,12.247-5.349
			c-0.58,2.937-0.59,3.659-1.271,5.941c-0.589,0.002-2.206,0.106-2.746,0.229c-4.638,1.031-9.08,5.185-9.55,9.726
			c-0.306,2.94,1.406,5.447,3.602,6.492c3.481,1.654,8.499-0.334,10.464-2.461c2.126-2.306,3.185-6.71,4.033-10.336
			c1.879-8.037,4.703-30.456,5.848-33.383c0.126-0.321,0.435-0.76,0.255-1.148c-2.493,0.548-4.894,1.173-6.87,2.15
			c-1.727,4.583-3.146,19.066-3.688,20.622c-0.411,1.18-2.221,2.538-3.393,3.392c-1.481,1.078-3.004,1.884-4.898,2.14
			c-4.922,0.668-5.681-3.455-5.879-7.802c-0.354-7.706,2.246-15.041,6.843-17.61c2.629-1.471,6.028-0.779,8.122,0.25
			c0.255,0.123,0.623,0.579,1.01,0.354c-1.65-2.774-5.676-3.309-10.255-2.705c-4.394,0.582-7.835,2.799-9.955,5.216
			c-2.935,3.343-4.395,9.557-3.621,14.948C196.631,49.926,200.571,54.188,205.645,54.468z M211.595,69.183
			c-2.046,1.931-5.113,0.796-5.423-2.192c-0.556-5.353,4.359-10.407,9.318-10.457c0.037-0.001,0.643-0.004,0.68-0.006
			C216.377,57.535,213.573,67.316,211.595,69.183z M250.173,70.914c-3.187,1.704-5.645,4.155-8.287,5.325
			c-12.999,5.75-21.691,4.075-25.637,3.863c-0.063-0.081-0.086,0.216-0.16,0.255c4.892,0.896,10.324,0.85,16.128-0.094
			c5.465-0.886,12.02-3.091,18.23-6.573c1.058-0.593,3.444-2.304,2.604-3.394C252.464,69.54,250.973,70.487,250.173,70.914z
			 M246.035,65.519c0.938-0.533,2.943-2.204,2.136-3.134c-0.56-0.645-1.838,0.264-2.527,0.679c-2.747,1.659-4.927,3.753-7.096,5.106
			c-3.956,2.47-8.159,3.146-11.801,3.614c-3.879,0.498-5.891,0.234-5.926,0.305c0.016,0.059,0.07,0.126,0.008,0.162
			C225.231,72.827,233.682,72.551,246.035,65.519z"/>
	</g>
</g>
</svg>
