<?xml version="1.0" encoding="utf-8"?>
<!-- Generator: Adobe Illustrator 16.0.0, SVG Export Plug-In . SVG Version: 6.00 Build 0)  -->
<!DOCTYPE svg PUBLIC "-//W3C//DTD SVG 1.1//EN" "http://www.w3.org/Graphics/SVG/1.1/DTD/svg11.dtd">
<svg version="1.1" id="Layer_1" xmlns="http://www.w3.org/2000/svg" xmlns:xlink="http://www.w3.org/1999/xlink" x="0px" y="0px"
	 width="298px" height="107px" viewBox="0 0 298 107" enable-background="new 0 0 298 107" xml:space="preserve">
<g>
	<path id="Key_Outline" fill="#FFFFFF" d="M153.575,32.876l-14.557,20.75l14.617,22.038c0.183,0.246,0.244,0.491,0.244,0.675
		c0,0.368-0.304,0.613-0.856,0.613h-10.519c-0.733,0-1.04-0.367-1.347-0.86l-12.414-20.256v19.891c0,0.676-0.551,1.226-1.223,1.226
		h-8.012c-0.673,0-1.222-0.55-1.222-1.226V32.508c0-0.675,0.549-1.166,1.222-1.166h8.012c0.672,0,1.223,0.491,1.223,1.166V52.03
		l13.453-19.951c0.307-0.491,0.674-0.736,1.347-0.736h9.356c0.674,0,0.979,0.308,0.979,0.675
		C153.879,32.263,153.756,32.57,153.575,32.876z M181.967,62.465H162.46v0.123c0,3.501,1.467,6.693,6.299,6.693
		c3.853,0,9.295-0.309,11.741-0.554c0.062,0,0.123,0,0.185,0c0.674,0,1.161,0.308,1.161,0.982v4.666
		c0,0.983-0.245,1.413-1.284,1.658c-3.914,0.982-7.218,1.473-12.537,1.473c-7.4,0-15.35-3.929-15.35-15.777v-4.297
		c0-9.883,5.747-16.145,15.472-16.145c10.031,0,15.105,6.875,15.105,16.145v3.561C183.252,61.912,182.763,62.465,181.967,62.465z
		 M173.591,56.082c0-4.543-2.08-6.815-5.504-6.815c-3.364,0-5.627,2.334-5.627,6.815v0.245h11.131V56.082z M217.387,43.189
		l-10.273,36.157c-1.895,6.63-4.403,10.006-13.394,10.006c-2.264,0-5.87-0.49-7.4-0.983c-0.673-0.244-1.284-0.428-1.284-1.104
		v-4.971c0-0.677,0.55-1.167,1.223-1.167c0.061,0,0.061,0,0.123,0c2.019,0.122,5.624,0.49,7.643,0.49
		c2.202,0,3.304-0.736,4.037-3.192l0.551-1.903h-0.918c-2.263,0-4.16-0.367-5.689-5.708l-8.07-27.625
		c-0.062-0.184-0.062-0.306-0.062-0.429c0-0.614,0.367-0.983,1.222-0.983h8.134c0.613,0,1.041,0.552,1.164,1.167l5.503,23.082
		c0.184,0.858,0.366,1.167,0.735,1.167h0.059c0.124,0,0.183,0,0.246,0c0.184,0,0.243,0,0.243,0l5.689-24.248
		c0.123-0.614,0.612-1.167,1.284-1.167h8.134c0.611,0,1.161,0.491,1.161,1.105C217.448,43.006,217.387,43.067,217.387,43.189z"/>
	<path id="Me_Outline" fill="#FFFFFF" d="M262.011,76.952h-8.071c-0.552,0-0.98-0.55-0.98-1.226v-25.6
		c0-0.429-0.183-0.491-0.306-0.491c-0.182,0-0.306,0.123-0.489,0.429l-5.503,10.13c-0.428,0.735-1.04,1.043-1.836,1.043h-4.892
		c-0.793,0-1.407-0.308-1.833-1.043l-5.504-10.13c-0.184-0.306-0.308-0.429-0.491-0.429c-0.122,0-0.305,0.062-0.305,0.491v25.6
		c0,0.676-0.427,1.226-0.978,1.226h-8.073c-0.489,0-1.039-0.183-1.039-0.86V33.428c0-1.288,0.917-2.086,2.201-2.086h5.749
		c1.284,0,2.14,0.614,2.689,1.658l9.358,17.495c0.245,0.491,0.428,0.798,0.672,0.798c0.245,0,0.429-0.307,0.673-0.798L252.41,33
		c0.55-1.043,1.407-1.658,2.691-1.658h5.75c1.282,0,2.201,0.86,2.201,2.149v42.601C263.052,76.769,262.501,76.952,262.011,76.952z
		 M296.716,62.465h-19.509v0.123c0,3.501,1.468,6.693,6.301,6.693c3.852,0,9.293-0.309,11.741-0.554c0.06,0,0.122,0,0.183,0
		c0.673,0,1.162,0.308,1.162,0.982v4.666c0,0.983-0.244,1.413-1.284,1.658c-3.913,0.982-7.216,1.473-12.536,1.473
		c-7.4,0-15.351-3.929-15.351-15.777v-4.297c0-9.883,5.749-16.145,15.472-16.145c10.029,0,15.107,6.875,15.107,16.145v3.561
		C298,61.912,297.51,62.465,296.716,62.465z M288.338,56.082c0-4.543-2.081-6.815-5.505-6.815c-3.364,0-5.626,2.334-5.626,6.815
		v0.245h11.132V56.082z"/>
	<path fill="#FFFFFF" d="M53.299,0C23.862,0,0,23.953,0,53.5C0,83.046,23.862,107,53.299,107c29.436,0,53.299-23.954,53.299-53.5
		C106.598,23.953,82.735,0,53.299,0z M53.299,96.202c-23.495,0-42.542-19.119-42.542-42.702c0-23.583,19.046-42.703,42.542-42.703
		c10.907,0,20.852,4.125,28.382,10.9l-54.357,22.6l4.117,9.976l9.232-3.839l1.912,4.634l-9.232,3.838h-0.001l3.825,9.269h0
		l5.737,13.902l9.232-3.839l-5.736-13.902l4.616-1.919l5.736,13.901l9.233-3.839l-5.736-13.901l4.616-1.92l5.737,13.901l9.232-3.838
		l-9.561-23.169v0l-9.232,3.839H61.05l-1.912-4.634L89.026,30.33c4.306,6.675,6.815,14.626,6.815,23.17
		C95.841,77.083,76.794,96.202,53.299,96.202z"/>
</g>
</svg>
