<?xml version="1.0" encoding="utf-8"?>
<!-- Generator: Adobe Illustrator 16.0.0, SVG Export Plug-In . SVG Version: 6.00 Build 0)  -->
<!DOCTYPE svg PUBLIC "-//W3C//DTD SVG 1.1//EN" "http://www.w3.org/Graphics/SVG/1.1/DTD/svg11.dtd">
<svg version="1.1" id="Layer_1" xmlns="http://www.w3.org/2000/svg" xmlns:xlink="http://www.w3.org/1999/xlink" x="0px" y="0px"
	 width="894px" height="473px" viewBox="0.5 0 894 473" enable-background="new 0.5 0 894 473" xml:space="preserve">
<g id="Layer_3">
	<rect x="0.5" y="69" fill="#EDEDEB" width="894" height="404"/>
	<rect x="0.5" fill="#F7F7F4" width="894" height="69"/>
</g>
<g id="Layer_2">
	<g>
		<path fill="#AE0000" d="M45.5,27.5c0,0.825-0.9,1.5-2,1.5h-16c-1.1,0-2-0.675-2-1.5s0.9-1.5,2-1.5h16
			C44.6,26,45.5,26.675,45.5,27.5z"/>
	</g>
	<g>
		<path fill="#AE0000" d="M45.5,34.5c0,0.825-0.9,1.5-2,1.5h-16c-1.1,0-2-0.675-2-1.5s0.9-1.5,2-1.5h16
			C44.6,33,45.5,33.675,45.5,34.5z"/>
	</g>
	<g>
		<path fill="#AE0000" d="M45.5,41.5c0,0.825-0.9,1.5-2,1.5h-16c-1.1,0-2-0.675-2-1.5s0.9-1.5,2-1.5h16
			C44.6,40,45.5,40.675,45.5,41.5z"/>
	</g>
	<g>
		<path fill="#282828" d="M481.5,251c0,1.1-0.9,2-2,2h-158c-1.1,0-2-0.9-2-2v-18c0-1.1,0.9-2,2-2h158c1.1,0,2,0.9,2,2V251z"/>
	</g>
	<g>
		<path fill="#D6D6D4" d="M586.5,280c0,1.1-0.9,2-2,2h-263c-1.1,0-2-0.9-2-2v-7c0-1.1,0.9-2,2-2h263c1.1,0,2,0.9,2,2V280z"/>
	</g>
	<g>
		<path fill="#D6D6D4" d="M859.5,374.5c0,0.825-0.9,1.5-2,1.5h-828c-1.1,0-2-0.675-2-1.5s0.9-1.5,2-1.5h828
			C858.6,373,859.5,373.675,859.5,374.5z"/>
	</g>
	<g>
		<path fill="#D6D6D4" d="M542.5,308c0,1.1-0.9,2-2,2h-219c-1.1,0-2-0.9-2-2v-7c0-1.1,0.9-2,2-2h219c1.1,0,2,0.9,2,2V308z"/>
	</g>
	<g>
		<g>
			<path fill="#D6D6D4" d="M202.5,439c0,1.1-0.9,2-2,2h-168c-1.1,0-2-0.9-2-2v-3c0-1.1,0.9-2,2-2h168c1.1,0,2,0.9,2,2V439z"/>
		</g>
		<g>
			<path fill="#D6D6D4" d="M202.5,457c0,1.1-0.9,2-2,2h-168c-1.1,0-2-0.9-2-2v-3c0-1.1,0.9-2,2-2h168c1.1,0,2,0.9,2,2V457z"/>
		</g>
		<g>
			<path fill="#D6D6D4" d="M185.5,471c0,0.55-0.9,1-2,1h-151c-1.1,0-2-0.45-2-1s0.9-1,2-1h151C184.6,470,185.5,470.45,185.5,471z"/>
		</g>
	</g>
	<g>
		<g>
			<path fill="#D6D6D4" d="M421.5,439c0,1.1-0.9,2-2,2h-168c-1.1,0-2-0.9-2-2v-3c0-1.1,0.9-2,2-2h168c1.1,0,2,0.9,2,2V439z"/>
		</g>
		<g>
			<path fill="#D6D6D4" d="M421.5,457c0,1.1-0.9,2-2,2h-168c-1.1,0-2-0.9-2-2v-3c0-1.1,0.9-2,2-2h168c1.1,0,2,0.9,2,2V457z"/>
		</g>
		<g>
			<path fill="#D6D6D4" d="M404.5,471c0,0.55-0.9,1-2,1h-151c-1.1,0-2-0.45-2-1s0.9-1,2-1h151C403.6,470,404.5,470.45,404.5,471z"/>
		</g>
	</g>
	<g>
		<g>
			<path fill="#D6D6D4" d="M640.5,439c0,1.1-0.9,2-2,2h-168c-1.1,0-2-0.9-2-2v-3c0-1.1,0.9-2,2-2h168c1.1,0,2,0.9,2,2V439z"/>
		</g>
		<g>
			<path fill="#D6D6D4" d="M640.5,457c0,1.1-0.9,2-2,2h-168c-1.1,0-2-0.9-2-2v-3c0-1.1,0.9-2,2-2h168c1.1,0,2,0.9,2,2V457z"/>
		</g>
		<g>
			<path fill="#D6D6D4" d="M623.5,471c0,0.55-0.9,1-2,1h-151c-1.1,0-2-0.45-2-1s0.9-1,2-1h151C622.6,470,623.5,470.45,623.5,471z"/>
		</g>
	</g>
	<g>
		<g>
			<path fill="#D6D6D4" d="M859.5,439c0,1.1-0.9,2-2,2h-168c-1.1,0-2-0.9-2-2v-3c0-1.1,0.9-2,2-2h168c1.1,0,2,0.9,2,2V439z"/>
		</g>
		<g>
			<path fill="#D6D6D4" d="M859.5,457c0,1.1-0.9,2-2,2h-168c-1.1,0-2-0.9-2-2v-3c0-1.1,0.9-2,2-2h168c1.1,0,2,0.9,2,2V457z"/>
		</g>
		<g>
			<path fill="#D6D6D4" d="M842.5,471c0,0.55-0.9,1-2,1h-151c-1.1,0-2-0.45-2-1s0.9-1,2-1h151C841.6,470,842.5,470.45,842.5,471z"/>
		</g>
	</g>
	<g>
		<path fill="#D6D6D4" d="M482.5,166c0-8.284,6.716-15,15-15c6.239,0,11.586,3.811,13.847,9.23l12.928-5.386
			C519.902,144.366,509.562,137,497.5,137c-16.017,0-29,12.984-29,29c0,8.92,4.031,16.896,10.367,22.216l8.997-10.728
			C484.587,174.737,482.5,170.614,482.5,166z"/>
		<path fill="#D6D6D4" d="M572.5,137c-1.539,0-3.049,0.122-4.523,0.353l2.188,13.847c0.764-0.12,1.54-0.2,2.337-0.2
			c8.284,0,15,6.716,15,15s-6.716,15-15,15c-7.708,0-14.051-5.816-14.896-13.297l-13.912,1.59
			C545.327,183.757,557.598,195,572.5,195c16.017,0,29-12.984,29-29S588.517,137,572.5,137z"/>
		<path fill="#D6D6D4" d="M646.5,137c-16.017,0-29,12.984-29,29c0,2.619,0.354,5.154,1.004,7.566l13.529-3.656
			c-0.337-1.249-0.533-2.555-0.533-3.91c0-8.284,6.716-15,15-15s15,6.716,15,15s-6.716,15-15,15c-0.306,0-0.604-0.028-0.906-0.046
			l-0.848,13.988c0.58,0.035,1.164,0.058,1.754,0.058c16.017,0,29-12.984,29-29S662.517,137,646.5,137z"/>
		<path fill="#D6D6D4" d="M423.5,181c-8.284,0-15-6.716-15-15c0-4.23,1.758-8.045,4.575-10.772l-9.737-10.062
			c-5.447,5.272-8.838,12.655-8.838,20.834c0,16.016,12.983,29,29,29s29-12.984,29-29h-14C438.5,174.284,431.784,181,423.5,181z"/>
		<path fill="#D6D6D4" d="M348.5,181c-8.284,0-15-6.716-15-15s6.716-15,15-15c5.249,0,9.861,2.701,12.542,6.783l11.713-7.674
			C367.573,142.216,358.648,137,348.5,137c-16.017,0-29,12.984-29,29s12.983,29,29,29c8.38,0,15.926-3.559,21.22-9.243
			l-10.253-9.546C356.728,179.15,352.834,181,348.5,181z"/>
		<path fill="#AE0000" d="M372.754,150.109l-11.713,7.674c1.55,2.361,2.458,5.181,2.458,8.217c0,3.95-1.538,7.532-4.033,10.21
			l10.253,9.546c4.824-5.179,7.78-12.121,7.78-19.757C377.5,160.131,375.751,154.674,372.754,150.109z"/>
		<path fill="#282828" d="M423.5,137c-7.837,0-14.943,3.114-20.162,8.166l9.737,10.062c2.7-2.613,6.371-4.228,10.425-4.228
			c8.284,0,15,6.716,15,15h14C452.5,149.984,439.517,137,423.5,137z"/>
		<path fill="#282828" d="M526.5,166c0-3.954-0.794-7.721-2.227-11.155l-12.928,5.386c0.741,1.776,1.153,3.725,1.153,5.77
			c0,8.284-6.716,15-15,15c-3.67,0-7.029-1.322-9.636-3.511l-8.997,10.728c5.041,4.23,11.538,6.782,18.634,6.782
			C513.517,195,526.5,182.016,526.5,166z"/>
		<path fill="#282828" d="M557.5,166c0-7.487,5.492-13.675,12.663-14.8l-2.188-13.847C554.109,139.525,543.5,151.523,543.5,166
			c0,1.114,0.069,2.211,0.191,3.292l13.911-1.59C557.54,167.143,557.5,166.577,557.5,166z"/>
		<path fill="#D6D6D4" d="M813,166c0,8.284-6.716,15-15,15c-6.239,0-11.586-3.811-13.847-9.23l-12.928,5.386
			C775.598,187.634,785.938,195,798,195c16.017,0,29-12.984,29-29c0-8.92-4.031-16.896-10.367-22.216l-8.997,10.728
			C810.913,157.263,813,161.386,813,166z"/>
		<path fill="#D6D6D4" d="M723,195c1.539,0,3.049-0.122,4.523-0.353l-2.188-13.847c-0.764,0.12-1.54,0.2-2.337,0.2
			c-8.284,0-15-6.716-15-15s6.716-15,15-15c7.708,0,14.051,5.816,14.896,13.297l13.912-1.59C750.173,148.243,737.902,137,723,137
			c-16.017,0-29,12.984-29,29S706.983,195,723,195z"/>
		<path fill="#282828" d="M769,166c0,3.954,0.794,7.721,2.227,11.155l12.928-5.386c-0.741-1.776-1.153-3.725-1.153-5.77
			c0-8.284,6.716-15,15-15c3.67,0,7.029,1.322,9.636,3.511l8.997-10.728C811.593,139.552,805.096,137,798,137
			C781.983,137,769,149.984,769,166z"/>
		<path fill="#282828" d="M738,166c0,7.487-5.492,13.675-12.663,14.8l2.188,13.847C741.391,192.475,752,180.477,752,166
			c0-1.114-0.069-2.211-0.191-3.292l-13.911,1.59C737.96,164.857,738,165.423,738,166z"/>
		<path fill="#AE0000" d="M632.033,169.91l-13.529,3.656c3.182,11.803,13.623,20.623,26.242,21.376l0.848-13.988
			C639.068,180.563,633.68,176.013,632.033,169.91z"/>
	</g>
	<g>
		<path fill="#282828" d="M82.758,43h-3.696l-0.99-3.256h-5.215L71.867,43H68.5l5.039-15.402h4.181L82.758,43z M73.759,36.773h3.389
			l-1.694-5.544L73.759,36.773z"/>
		<path fill="#282828" d="M87.486,33.869V43h-3.41V27.598h3.19l5.677,9.131v-9.131h3.411V43h-3.19L87.486,33.869z"/>
		<path fill="#282828" d="M111.27,37.411c0,3.697-2.42,5.589-6.161,5.589h-6.117V27.598h6.161c3.697,0,6.117,1.893,6.117,5.589
			V37.411z M107.859,33.187c0-1.738-1.078-2.618-2.707-2.618h-2.75v9.461h2.707c1.672,0,2.75-0.88,2.75-2.619V33.187z"/>
		<path fill="#282828" d="M118.857,27.598h3.499l2.266,11.046l2.354-11.046h3.3l2.333,11.046l2.288-11.046h3.389L134.567,43h-3.851
			l-2.156-9.153L126.426,43h-3.851L118.857,27.598z"/>
		<path fill="#282828" d="M139.494,27.598h10.737v2.971h-7.327v3.234h6.227v2.97h-6.227v3.257h7.327V43h-10.737V27.598z"/>
		<path fill="#282828" d="M152.429,27.598h7.129c2.707,0,4.489,1.386,4.489,4.093c0,1.716-0.726,2.926-1.958,3.564
			c1.364,0.616,2.178,1.848,2.178,3.652c0,2.707-1.782,4.093-4.488,4.093h-7.349L152.429,27.598L152.429,27.598z M155.839,33.803
			h3.125c1.1,0,1.562-0.572,1.562-1.628c0-1.056-0.484-1.606-1.562-1.606h-3.125V33.803z M155.839,40.03h3.345
			c1.078,0,1.562-0.55,1.562-1.606c0-1.056-0.462-1.65-1.562-1.65h-3.345V40.03z"/>
		<path fill="#282828" d="M186.003,43h-3.697l-0.99-3.256h-5.215L175.111,43h-3.367l5.039-15.402h4.181L186.003,43z M177.003,36.773
			h3.389l-1.694-5.544L177.003,36.773z"/>
		<path fill="#282828" d="M187.321,27.598h6.337c3.19,0,5.281,1.496,5.281,5.127c0,3.63-2.068,5.148-5.281,5.148h-2.927V43h-3.41
			V27.598z M190.731,34.903h2.816c1.145,0,1.871-0.528,1.871-2.178s-0.748-2.156-1.871-2.156h-2.816V34.903z"/>
		<path fill="#282828" d="M200.696,27.598h6.337c3.19,0,5.281,1.496,5.281,5.127c0,3.63-2.068,5.148-5.281,5.148h-2.927V43h-3.41
			V27.598z M204.106,34.903h2.816c1.145,0,1.871-0.528,1.871-2.178s-0.748-2.156-1.871-2.156h-2.816V34.903z"/>
		<path fill="#282828" d="M220.387,37.081l-2.531-0.44c-2.64-0.462-4.225-1.98-4.225-4.401c0-3.278,2.267-4.862,5.919-4.862
			c3.653,0,5.919,1.584,5.919,4.687v0.374h-3.411v-0.374c0-1.144-0.924-1.716-2.508-1.716s-2.398,0.462-2.398,1.65
			c0,0.814,0.638,1.364,1.562,1.518l2.53,0.44c2.772,0.484,4.225,1.98,4.225,4.379c0,3.3-2.266,4.885-5.919,4.885
			c-3.652,0-5.919-1.584-5.919-4.687V38.16h3.411v0.374c0,1.145,0.924,1.716,2.508,1.716s2.398-0.44,2.398-1.672
			C221.949,37.741,221.311,37.235,220.387,37.081z"/>
	</g>
</g>
</svg>
