<?xml version="1.0" encoding="utf-8"?>
<!-- Generator: Adobe Illustrator 16.0.0, SVG Export Plug-In . SVG Version: 6.00 Build 0)  -->
<!DOCTYPE svg PUBLIC "-//W3C//DTD SVG 1.1//EN" "http://www.w3.org/Graphics/SVG/1.1/DTD/svg11.dtd">
<svg version="1.1" xmlns="http://www.w3.org/2000/svg" xmlns:xlink="http://www.w3.org/1999/xlink" x="0px" y="0px" width="223px"
	 height="399px" viewBox="0 0 223 399" enable-background="new 0 0 223 399" xml:space="preserve">
<g id="Layer_1">
	<rect fill="#F5F5F1" width="223" height="399"/>
</g>
<g id="Layer_2">
	<g>
		<path fill="#282828" d="M149,105c0,2.2-1.8,4-4,4H84c-2.2,0-4-1.8-4-4v-3c0-2.2,1.8-4,4-4h61c2.2,0,4,1.8,4,4V105z"/>
	</g>
	<g>
		<path fill="#282828" d="M148,17c0,2.2-1.8,4-4,4H85c-2.2,0-4-1.8-4-4v-4c0-2.2,1.8-4,4-4h59c2.2,0,4,1.8,4,4V17z"/>
	</g>
	<g>
		<path fill="#282828" d="M161,303c0,2.2-1.8,4-4,4H84c-2.2,0-4-1.8-4-4v-3c0-2.2,1.8-4,4-4h73c2.2,0,4,1.8,4,4V303z"/>
	</g>
	<g>
		<path fill="#282828" d="M184,202c0,2.2-1.8,4-4,4H84c-2.2,0-4-1.8-4-4v-3c0-2.2,1.8-4,4-4h96c2.2,0,4,1.8,4,4V202z"/>
	</g>
	<g>
		<path fill="#D6D6D4" d="M214,122c0,1.1-0.9,2-2,2H82c-1.1,0-2-0.9-2-2v-2c0-1.1,0.9-2,2-2h130c1.1,0,2,0.9,2,2V122z"/>
	</g>
	<g>
		<path fill="#D6D6D4" d="M214,136c0,1.1-0.9,2-2,2H82c-1.1,0-2-0.9-2-2v-2c0-1.1,0.9-2,2-2h130c1.1,0,2,0.9,2,2V136z"/>
	</g>
	<g>
		<path fill="#D6D6D4" d="M134,150c0,1.1-0.9,2-2,2H82c-1.1,0-2-0.9-2-2v-2c0-1.1,0.9-2,2-2h50c1.1,0,2,0.9,2,2V150z"/>
	</g>
	<g>
		<path fill="#D6D6D4" d="M89,53c0,1.1-0.9,2-2,2H37c-1.1,0-2-0.9-2-2v-2c0-1.1,0.9-2,2-2h50c1.1,0,2,0.9,2,2V53z"/>
	</g>
	<g>
		<path fill="#AE0000" d="M22,10.5c0,0.825-0.9,1.5-2,1.5H7c-1.1,0-2-0.675-2-1.5S5.9,9,7,9h13C21.1,9,22,9.675,22,10.5z"/>
	</g>
	<g>
		<path fill="#AE0000" d="M22,16.5c0,0.825-0.9,1.5-2,1.5H7c-1.1,0-2-0.675-2-1.5S5.9,15,7,15h13C21.1,15,22,15.675,22,16.5z"/>
	</g>
	<g>
		<path fill="#AE0000" d="M22,22.5c0,0.825-0.9,1.5-2,1.5H7c-1.1,0-2-0.675-2-1.5S5.9,21,7,21h13C21.1,21,22,21.675,22,22.5z"/>
	</g>
	<g>
		<path fill="#D6D6D4" d="M214,219c0,1.1-0.9,2-2,2H82c-1.1,0-2-0.9-2-2v-2c0-1.1,0.9-2,2-2h130c1.1,0,2,0.9,2,2V219z"/>
	</g>
	<g>
		<path fill="#D6D6D4" d="M214,233c0,1.1-0.9,2-2,2H82c-1.1,0-2-0.9-2-2v-2c0-1.1,0.9-2,2-2h130c1.1,0,2,0.9,2,2V233z"/>
	</g>
	<g>
		<path fill="#D6D6D4" d="M179,247c0,1.1-0.9,2-2,2H82c-1.1,0-2-0.9-2-2v-2c0-1.1,0.9-2,2-2h95c1.1,0,2,0.9,2,2V247z"/>
	</g>
	<g>
		<path fill="#D6D6D4" d="M214,320c0,1.1-0.9,2-2,2H82c-1.1,0-2-0.9-2-2v-2c0-1.1,0.9-2,2-2h130c1.1,0,2,0.9,2,2V320z"/>
	</g>
	<g>
		<path fill="#D6D6D4" d="M214,334c0,1.1-0.9,2-2,2H82c-1.1,0-2-0.9-2-2v-2c0-1.1,0.9-2,2-2h130c1.1,0,2,0.9,2,2V334z"/>
	</g>
	<g>
		<path fill="#D6D6D4" d="M192,348c0,1.1-0.9,2-2,2H82c-1.1,0-2-0.9-2-2v-2c0-1.1,0.9-2,2-2h108c1.1,0,2,0.9,2,2V348z"/>
	</g>
	<rect y="31" fill="#D6D6D4" width="223" height="2"/>
	<rect y="69" fill="#D6D6D4" width="223" height="2"/>
	<rect y="170" fill="#D6D6D4" width="223" height="2"/>
	<rect y="271" fill="#D6D6D4" width="223" height="2"/>
	<rect y="371" fill="#D6D6D4" width="223" height="2"/>
	<circle fill="#D6D6D4" cx="40.5" cy="321.5" r="27.5"/>
	<circle fill="#D6D6D4" cx="40.5" cy="221.5" r="27.5"/>
	<circle fill="#D6D6D4" cx="40.5" cy="121.5" r="27.5"/>
	<path fill="#282828" d="M22.689,58.042l-0.752,0.756c-0.199,0.201-0.47,0.313-0.751,0.313c-0.282,0-0.552-0.113-0.751-0.313
		l-4.823-4.855c-0.949,0.564-2.055,0.89-3.237,0.89C8.854,54.834,6,51.96,6,48.417S8.854,42,12.375,42s6.375,2.873,6.375,6.417
		c0,1.19-0.323,2.303-0.883,3.259l4.823,4.854C23.104,56.947,23.104,57.625,22.689,58.042z M12.375,52.695
		c2.347,0,4.25-1.916,4.25-4.278c0-2.363-1.903-4.278-4.25-4.278s-4.25,1.916-4.25,4.278C8.125,50.779,10.028,52.695,12.375,52.695z
		"/>
</g>
</svg>
