<?xml version="1.0" encoding="utf-8"?>
<!-- Generator: Adobe Illustrator 16.0.0, SVG Export Plug-In . SVG Version: 6.00 Build 0)  -->
<!DOCTYPE svg PUBLIC "-//W3C//DTD SVG 1.1//EN" "http://www.w3.org/Graphics/SVG/1.1/DTD/svg11.dtd">
<svg version="1.1" id="Layer_2" xmlns="http://www.w3.org/2000/svg" xmlns:xlink="http://www.w3.org/1999/xlink" x="0px" y="0px"
	 width="223px" height="1178px" viewBox="0 0 223 1178" enable-background="new 0 0 223 1178" xml:space="preserve">
<rect y="68" fill="#D6D6D4" width="223" height="2"/>
<rect y="106" fill="#D6D6D4" width="223" height="2"/>
<rect y="207" fill="#D6D6D4" width="223" height="2"/>
<g>
	<path fill="#282828" d="M147,54c0,2.2-1.8,4-4,4H84c-2.2,0-4-1.8-4-4v-4c0-2.2,1.8-4,4-4h59c2.2,0,4,1.8,4,4V54z"/>
</g>
<g>
	<path fill="#282828" d="M148,142c0,2.2-1.8,4-4,4H83c-2.2,0-4-1.8-4-4v-3c0-2.2,1.8-4,4-4h61c2.2,0,4,1.8,4,4V142z"/>
</g>
<g>
	<path fill="#D6D6D4" d="M213,159c0,1.1-0.9,2-2,2H81c-1.1,0-2-0.9-2-2v-2c0-1.1,0.9-2,2-2h130c1.1,0,2,0.9,2,2V159z"/>
</g>
<g>
	<path fill="#D6D6D4" d="M213,173c0,1.1-0.9,2-2,2H81c-1.1,0-2-0.9-2-2v-2c0-1.1,0.9-2,2-2h130c1.1,0,2,0.9,2,2V173z"/>
</g>
<g>
	<path fill="#D6D6D4" d="M133,187c0,1.1-0.9,2-2,2H81c-1.1,0-2-0.9-2-2v-2c0-1.1,0.9-2,2-2h50c1.1,0,2,0.9,2,2V187z"/>
</g>
<rect y="304" fill="#D6D6D4" width="223" height="2"/>
<g>
	<path fill="#282828" d="M173,239c0,2.2-1.8,4-4,4H83c-2.2,0-4-1.8-4-4v-3c0-2.2,1.8-4,4-4h86c2.2,0,4,1.8,4,4V239z"/>
</g>
<g>
	<path fill="#D6D6D4" d="M201,256c0,1.104-0.896,2-2,2H81c-1.104,0-2-0.896-2-2v-2c0-1.104,0.896-2,2-2h118c1.104,0,2,0.896,2,2V256
		z"/>
</g>
<g>
	<path fill="#D6D6D4" d="M213,270c0,1.1-0.9,2-2,2H81c-1.1,0-2-0.9-2-2v-2c0-1.1,0.9-2,2-2h130c1.1,0,2,0.9,2,2V270z"/>
</g>
<g>
	<path fill="#D6D6D4" d="M133,284c0,1.1-0.9,2-2,2H81c-1.1,0-2-0.9-2-2v-2c0-1.1,0.9-2,2-2h50c1.1,0,2,0.9,2,2V284z"/>
</g>
<rect y="401" fill="#D6D6D4" width="223" height="2"/>
<g>
	<path fill="#282828" d="M190,336c0,2.2-1.8,4-4,4H83c-2.2,0-4-1.8-4-4v-3c0-2.2,1.8-4,4-4h103c2.2,0,4,1.8,4,4V336z"/>
</g>
<g>
	<path fill="#D6D6D4" d="M203,353c0,1.104-0.896,2-2,2H81c-1.104,0-2-0.896-2-2v-2c0-1.104,0.896-2,2-2h120c1.104,0,2,0.896,2,2V353
		z"/>
</g>
<g>
	<path fill="#D6D6D4" d="M213,367c0,1.1-0.9,2-2,2H81c-1.1,0-2-0.9-2-2v-2c0-1.1,0.9-2,2-2h130c1.1,0,2,0.9,2,2V367z"/>
</g>
<g>
	<path fill="#D6D6D4" d="M176,381c0,1.1-0.9,2-2,2H81c-1.1,0-2-0.9-2-2v-2c0-1.1,0.9-2,2-2h93c1.1,0,2,0.9,2,2V381z"/>
</g>
<rect y="498" fill="#D6D6D4" width="223" height="2"/>
<g>
	<path fill="#282828" d="M162,433c0,2.209-1.791,4-4,4H83c-2.209,0-4-1.791-4-4v-3c0-2.209,1.791-4,4-4h75c2.209,0,4,1.791,4,4V433z
		"/>
</g>
<g>
	<path fill="#D6D6D4" d="M213,450c0,1.1-0.9,2-2,2H81c-1.1,0-2-0.9-2-2v-2c0-1.1,0.9-2,2-2h130c1.1,0,2,0.9,2,2V450z"/>
</g>
<g>
	<path fill="#D6D6D4" d="M201,464c0,1.1-0.9,2-2,2H81c-1.1,0-2-0.9-2-2v-2c0-1.1,0.9-2,2-2h118c1.1,0,2,0.9,2,2V464z"/>
</g>
<g>
	<path fill="#D6D6D4" d="M133,478c0,1.1-0.9,2-2,2H81c-1.1,0-2-0.9-2-2v-2c0-1.1,0.9-2,2-2h50c1.1,0,2,0.9,2,2V478z"/>
</g>
<rect y="595" fill="#D6D6D4" width="223" height="2"/>
<g>
	<path fill="#282828" d="M162,530c0,2.209-1.791,4-4,4H83c-2.209,0-4-1.791-4-4v-3c0-2.209,1.791-4,4-4h75c2.209,0,4,1.791,4,4V530z
		"/>
</g>
<g>
	<path fill="#D6D6D4" d="M213,547c0,1.1-0.9,2-2,2H81c-1.1,0-2-0.9-2-2v-2c0-1.1,0.9-2,2-2h130c1.1,0,2,0.9,2,2V547z"/>
</g>
<g>
	<path fill="#D6D6D4" d="M201,561c0,1.1-0.9,2-2,2H81c-1.1,0-2-0.9-2-2v-2c0-1.1,0.9-2,2-2h118c1.1,0,2,0.9,2,2V561z"/>
</g>
<g>
	<path fill="#D6D6D4" d="M133,575c0,1.1-0.9,2-2,2H81c-1.1,0-2-0.9-2-2v-2c0-1.1,0.9-2,2-2h50c1.1,0,2,0.9,2,2V575z"/>
</g>
<rect y="692" fill="#D6D6D4" width="223" height="2"/>
<g>
	<path fill="#282828" d="M162,627c0,2.209-1.791,4-4,4H83c-2.209,0-4-1.791-4-4v-3c0-2.209,1.791-4,4-4h75c2.209,0,4,1.791,4,4V627z
		"/>
</g>
<g>
	<path fill="#D6D6D4" d="M213,644c0,1.1-0.9,2-2,2H81c-1.1,0-2-0.9-2-2v-2c0-1.1,0.9-2,2-2h130c1.1,0,2,0.9,2,2V644z"/>
</g>
<g>
	<path fill="#D6D6D4" d="M201,658c0,1.1-0.9,2-2,2H81c-1.1,0-2-0.9-2-2v-2c0-1.1,0.9-2,2-2h118c1.1,0,2,0.9,2,2V658z"/>
</g>
<rect y="789" fill="#D6D6D4" width="223" height="2"/>
<g>
	<path fill="#282828" d="M162,724c0,2.209-1.791,4-4,4H83c-2.209,0-4-1.791-4-4v-3c0-2.209,1.791-4,4-4h75c2.209,0,4,1.791,4,4V724z
		"/>
</g>
<g>
	<path fill="#D6D6D4" d="M213,741c0,1.1-0.9,2-2,2H81c-1.1,0-2-0.9-2-2v-2c0-1.1,0.9-2,2-2h130c1.1,0,2,0.9,2,2V741z"/>
</g>
<g>
	<path fill="#D6D6D4" d="M201,755c0,1.1-0.9,2-2,2H81c-1.1,0-2-0.9-2-2v-2c0-1.1,0.9-2,2-2h118c1.1,0,2,0.9,2,2V755z"/>
</g>
<rect y="886" fill="#D6D6D4" width="223" height="2"/>
<g>
	<path fill="#282828" d="M162,821c0,2.209-1.791,4-4,4H83c-2.209,0-4-1.791-4-4v-3c0-2.209,1.791-4,4-4h75c2.209,0,4,1.791,4,4V821z
		"/>
</g>
<g>
	<path fill="#D6D6D4" d="M213,838c0,1.1-0.9,2-2,2H81c-1.1,0-2-0.9-2-2v-2c0-1.1,0.9-2,2-2h130c1.1,0,2,0.9,2,2V838z"/>
</g>
<g>
	<path fill="#D6D6D4" d="M201,852c0,1.1-0.9,2-2,2H81c-1.1,0-2-0.9-2-2v-2c0-1.1,0.9-2,2-2h118c1.1,0,2,0.9,2,2V852z"/>
</g>
<rect y="983" fill="#D6D6D4" width="223" height="2"/>
<g>
	<path fill="#282828" d="M162,918c0,2.209-1.791,4-4,4H83c-2.209,0-4-1.791-4-4v-3c0-2.209,1.791-4,4-4h75c2.209,0,4,1.791,4,4V918z
		"/>
</g>
<g>
	<path fill="#D6D6D4" d="M213,935c0,1.1-0.9,2-2,2H81c-1.1,0-2-0.9-2-2v-2c0-1.1,0.9-2,2-2h130c1.1,0,2,0.9,2,2V935z"/>
</g>
<g>
	<path fill="#D6D6D4" d="M201,949c0,1.1-0.9,2-2,2H81c-1.1,0-2-0.9-2-2v-2c0-1.1,0.9-2,2-2h118c1.1,0,2,0.9,2,2V949z"/>
</g>
<rect y="1080" fill="#D6D6D4" width="223" height="2"/>
<g>
	<path fill="#282828" d="M162,1015c0,2.209-1.791,4-4,4H83c-2.209,0-4-1.791-4-4v-3c0-2.209,1.791-4,4-4h75c2.209,0,4,1.791,4,4
		V1015z"/>
</g>
<g>
	<path fill="#D6D6D4" d="M213,1032c0,1.1-0.9,2-2,2H81c-1.1,0-2-0.9-2-2v-2c0-1.1,0.9-2,2-2h130c1.1,0,2,0.9,2,2V1032z"/>
</g>
<g>
	<path fill="#D6D6D4" d="M201,1046c0,1.1-0.9,2-2,2H81c-1.1,0-2-0.9-2-2v-2c0-1.1,0.9-2,2-2h118c1.1,0,2,0.9,2,2V1046z"/>
</g>
<g>
	<path fill="#282828" d="M162,1112c0,2.209-1.791,4-4,4H83c-2.209,0-4-1.791-4-4v-3c0-2.209,1.791-4,4-4h75c2.209,0,4,1.791,4,4
		V1112z"/>
</g>
<g>
	<path fill="#D6D6D4" d="M213,1129c0,1.1-0.9,2-2,2H81c-1.1,0-2-0.9-2-2v-2c0-1.1,0.9-2,2-2h130c1.1,0,2,0.9,2,2V1129z"/>
</g>
<g>
	<path fill="#D6D6D4" d="M201,1143c0,1.1-0.9,2-2,2H81c-1.1,0-2-0.9-2-2v-2c0-1.1,0.9-2,2-2h118c1.1,0,2,0.9,2,2V1143z"/>
</g>
<g>
	<path fill="#D6D6D4" d="M133,672c0,1.1-0.9,2-2,2H81c-1.1,0-2-0.9-2-2v-2c0-1.1,0.9-2,2-2h50c1.1,0,2,0.9,2,2V672z"/>
</g>
</svg>
