<?xml version="1.0" encoding="utf-8"?>
<!-- Generator: Adobe Illustrator 16.0.0, SVG Export Plug-In . SVG Version: 6.00 Build 0)  -->
<!DOCTYPE svg PUBLIC "-//W3C//DTD SVG 1.1//EN" "http://www.w3.org/Graphics/SVG/1.1/DTD/svg11.dtd">
<svg version="1.1" xmlns="http://www.w3.org/2000/svg" xmlns:xlink="http://www.w3.org/1999/xlink" x="0px" y="0px" width="527px"
	 height="439px" viewBox="0 0 527 439" enable-background="new 0 0 527 439" xml:space="preserve">
<g id="Layer_1">
</g>
<g id="Layer_2">
	<circle fill="#D0B0AE" cx="379.5" cy="350.5" r="11.5"/>
	<path fill="#D6D6D4" d="M517.75,69.5c-2.25,4.75-1.25,3-7.5,3S508,138.75,508,138.75c-7.5-26.5-30.75-20-38.25-19.75
		s-22.25-11.5-26.5-12.25s-10.5,4.25-14.75,6c-2.818,1.16-10.147,1.001-21.469,0.179c-4.682,6.745-15.199,22.104-15.781,24.821
		c-0.75,3.5,4.5-0.75,4.25,0.5s-1.75,6-0.25,7.5s-3.25,2-8,2.75s-14,0-16.5,5s-1,6.5-4.75,9s-14.5,10.75-16.25,14.5
		s-9.25,12.5-11.75,14.5s-4.25,2.5-1.5-2.5s-6.5,2.75-7.5,5.25s-2.25,6.75-3.25,9.5s-2,4.5-4.5,6.75s-15.25,16.25-15.75,19
		s-2.5,4.5-6,4.5s-25.75,2.25-29,4c0,0,8,0.5,2.5,5.25S263,259,260.25,263.5s-13,23.5-7.5,23.5S271,292.75,270,312.25
		s-8.5,19.75-12.5,21.25s-14.25,3.75-16.5,12.25s-4.75,25.5-23.75,33s-76,20-81.5,20.75s-13.5,4-8-1.75s6.5-8.25,9.75-13.75
		s10.5-11.75,18.25-15.5s24.5-12.25,24.75-15.75s-1.25-4-1-7s12.5-11,13.5-20.75s-1.75-17.5-3.5-17.25s-1.75,0.75-2.5,2.25
		s-1.75-7-5-8.75s0.5-5.25,9-7s17.25-4.75,17.25-9s-2.75-7.25-4.5-7.25s0.5-2.25,3-4.5s5.75-8.75,10.75-8.75s21,7.5,24.5,3.75
		s9-10.5,10-13.25s2-6.5,3.75-7.75s2.5-4.25,3.25-6.75s3.5-10.25,16.25-10.5s24.75-0.5,25.5-2.5s-2-4.75,1.5-8.5
		s12.25-10.5,11-11.25s-3.25-2.5,2-5.5s13.75-13.25,17.25-17s6-7,7.5-10.75s8.75-6.75,11.5-9s10.25-10.75,11-13.75s7.5-14.25,9-14
		s3,4.25,8.5,3.25s5.5-4.25,9.75-11.25c2.709-4.461,7.953-12.371,11.403-17.524c-4.346-0.352-9.15-0.769-14.403-1.226
		c-23-2-34.25-8-46-11S306.5,83,292,83s-19.5,15-19.5,15s-62.75,29.75-99.5,29.75S129,98,128.75,97s-28.25-10.5-38.5-11
		S77,93,63,108.25S0,147.923,0,147.923V439h527V33.5C527,45,520,64.75,517.75,69.5z"/>
	<circle fill="#D0B0AE" cx="146.5" cy="217.5" r="11.5"/>
	<circle fill="#BC1C10" cx="379.5" cy="350.5" r="5.5"/>
	<circle fill="#D0B0AE" cx="70.5" cy="102.5" r="11.5"/>
	<circle fill="#BC1C10" cx="146.5" cy="217.5" r="5.5"/>
	<circle fill="#BC1C10" cx="70.5" cy="102.5" r="5.5"/>
	<g>
		<line fill="none" stroke="#A8A8A6" stroke-miterlimit="10" x1="93.556" y1="311.444" x2="99.272" y2="305.728"/>
	</g>
	<g>
		<line fill="none" stroke="#A8A8A6" stroke-miterlimit="10" x1="104.98" y1="305.02" x2="96.566" y2="313.434"/>
	</g>
	<g>
		<line fill="none" stroke="#A8A8A6" stroke-miterlimit="10" x1="109.783" y1="305.217" x2="100.479" y2="314.521"/>
	</g>
	<g>
		<line fill="none" stroke="#A8A8A6" stroke-miterlimit="10" x1="113.95" y1="306.05" x2="105.019" y2="314.98"/>
	</g>
	<g>
		<line fill="none" stroke="#A8A8A6" stroke-miterlimit="10" x1="117.402" y1="307.598" x2="110.284" y2="314.717"/>
	</g>
	<path fill="#BC1C10" d="M123,275c0,9.389-15,36-17,36s-17-26.611-17-36s7.611-17,17-17S123,265.611,123,275z"/>
</g>
</svg>
