<?xml version="1.0" encoding="utf-8"?>
<!-- Generator: Adobe Illustrator 16.0.0, SVG Export Plug-In . SVG Version: 6.00 Build 0)  -->
<!DOCTYPE svg PUBLIC "-//W3C//DTD SVG 1.1//EN" "http://www.w3.org/Graphics/SVG/1.1/DTD/svg11.dtd">
<svg version="1.1" xmlns="http://www.w3.org/2000/svg" xmlns:xlink="http://www.w3.org/1999/xlink" x="0px" y="0px" width="223px"
	 height="399px" viewBox="0 0 223 399" enable-background="new 0 0 223 399" xml:space="preserve">
<g id="Layer_1">
	<rect fill="#282828" width="223" height="399"/>
</g>
<g id="Layer_2">
	<path fill="#AE0000" d="M101.5,34C81.894,34,66,49.894,66,69.5S81.894,105,101.5,105c19.606,0,35.5-15.894,35.5-35.5
		S121.106,34,101.5,34z M101.5,102C83.551,102,69,87.449,69,69.5S83.551,37,101.5,37S134,51.551,134,69.5S119.449,102,101.5,102z"/>
	<path fill="#F5F5F1" d="M106,73c0-1.16,0.15-1.869,0.333-2.305C109.135,69.035,111,65.623,111,59.5c0-9.5-4.477-12.5-10-12.5
		s-10,3-10,12.5c0,6.852,1.913,10.072,4.772,11.491C95.904,71.434,96,72.073,96,73c0,2.268-9.714,6.821-14.455,8.908
		C85.694,88.566,93.078,93,101.5,93c8.277,0,15.55-4.283,19.736-10.75C116.892,80.365,106,75.402,106,73z"/>
	<g opacity="0.2">
		<g>
			<path fill-rule="evenodd" clip-rule="evenodd" fill="#FFFFFF" d="M52.791,208.096L47,200v-4l1.17-1.08
				c0.322-0.321,0.418-0.805,0.244-1.226C48.24,193.274,47.83,193,47.375,193h-6.75c-0.455,0-0.865,0.274-1.04,0.694
				c-0.174,0.421-0.078,0.905,0.244,1.226L41,196v4l-5.791,8.096c-0.242,0.34-0.277,0.785-0.091,1.158l0.562,1.125
				c0.19,0.381,0.58,0.621,1.006,0.621h14.625c0.426,0,0.816-0.24,1.006-0.621l0.562-1.125
				C53.067,208.881,53.033,208.436,52.791,208.096z M41.545,208.545c-0.904,0-1.636-0.732-1.636-1.636s0.732-1.636,1.636-1.636
				s1.636,0.732,1.636,1.636S42.449,208.545,41.545,208.545z M44.409,205.273c-1.13,0-2.045-0.916-2.045-2.046
				s0.916-2.046,2.045-2.046s2.046,0.916,2.046,2.046S45.539,205.273,44.409,205.273z"/>
		</g>
	</g>
	<path opacity="0.2" fill="#FFFFFF" d="M49.834,232H38.167c-0.644,0-1.167,0.561-1.167,1.25v17.5c0,0.48,0.257,0.919,0.662,1.127
		c0.161,0.083,0.333,0.123,0.505,0.123c0.26,0,0.518-0.093,0.729-0.273L44,247.352l5.104,4.375c0.211,0.181,0.469,0.273,0.729,0.273
		c0.172,0,0.344-0.04,0.505-0.123C50.742,251.669,51,251.23,51,250.75v-17.5C51,232.561,50.478,232,49.834,232z"/>
	<path opacity="0.2" fill="#FFFFFF" d="M36,280h-1c-0.328,0-1-0.141-1-0.469V278c0-0.328,0.672-1,1-1h1V280z M46,290v1
		c0,0.328,0.141,1,0.469,1H48c0.328,0,1-0.672,1-1v-1H46z M53,286v1c0,0.328-0.672,1-1,1H39c-0.328,0-1-0.672-1-1v-13
		c0-0.328,0.672-1,1-1h1.531c0.328,0,0.469,0.672,0.469,1v3h7c0.328,0,1,0.672,1,1v7h3C52.328,285,53,285.673,53,286z M46,280h-5v5
		h5V280z"/>
	<path opacity="0.2" fill="#FFFFFF" d="M52,318.626v6.752c0,0.376-0.191,0.728-0.509,0.937l-6.857,4.501
		c-0.192,0.126-0.413,0.188-0.634,0.188s-0.441-0.062-0.634-0.188l-6.857-4.501c-0.318-0.209-0.509-0.561-0.509-0.937v-6.752
		c0-0.376,0.191-0.728,0.509-0.937l6.857-4.5c0.384-0.253,0.884-0.253,1.268,0l6.857,4.5C51.809,317.898,52,318.25,52,318.626z
		 M44,326.503c2.524,0,4.571-2.016,4.571-4.501c0-2.486-2.047-4.501-4.571-4.501c-2.525,0-4.571,2.015-4.571,4.501
		C39.429,324.487,41.475,326.503,44,326.503z"/>
	<g>
		<path fill="#FFFFFF" d="M74.898,203.428l-1.955-0.34c-2.04-0.357-3.264-1.53-3.264-3.4c0-2.533,1.751-3.757,4.573-3.757
			s4.573,1.224,4.573,3.621v0.289H76.19v-0.289c0-0.884-0.714-1.326-1.938-1.326c-1.224,0-1.853,0.357-1.853,1.275
			c0,0.629,0.493,1.054,1.207,1.173l1.955,0.34c2.142,0.374,3.264,1.53,3.264,3.383c0,2.55-1.751,3.773-4.573,3.773
			s-4.573-1.224-4.573-3.62v-0.289h2.635v0.289c0,0.884,0.714,1.325,1.938,1.325c1.224,0,1.853-0.34,1.853-1.292
			C76.105,203.938,75.612,203.547,74.898,203.428z"/>
		<path fill="#FFFFFF" d="M83.67,204.906c0,1.122,0.527,1.156,2.21,1.071V208c-3.757,0.578-4.675-0.748-4.675-3.179v-3.536h-1.36
			v-2.124h1.36v-2.38l2.465-0.748v3.128h2.21v2.124h-2.21V204.906z"/>
		<path fill="#FFFFFF" d="M87.581,199.161h1.87l0.408,0.985c0.731-0.9,1.904-1.359,3.162-1.071v2.209
			c-2.006-0.237-2.975,0.222-2.975,1.055V208h-2.465V199.161z"/>
		<path fill="#FFFFFF" d="M96.556,202.629c0.935,0,1.717,0.255,2.244,0.748v-1.225c0-0.714-0.459-1.139-1.19-1.139
			c-0.884,0-1.19,0.289-1.19,0.952h-2.464c0-1.921,1.275-2.975,3.654-2.975c2.21,0,3.655,1.123,3.655,3.315V208h-1.87l-0.357-0.833
			c-0.527,0.663-1.394,1.003-2.499,1.003c-1.819,0-3.009-0.935-3.009-2.771S94.72,202.629,96.556,202.629z M97.389,206.045
			c0.85,0,1.411-0.221,1.411-0.73s-0.561-0.731-1.411-0.731c-0.85,0-1.394,0.222-1.394,0.731S96.539,206.045,97.389,206.045z"/>
		<path fill="#FFFFFF" d="M106.365,204.906c0,1.122,0.527,1.156,2.21,1.071V208c-3.757,0.578-4.675-0.748-4.675-3.179v-3.536h-1.36
			v-2.124h1.36v-2.38l2.465-0.748v3.128h2.21v2.124h-2.21V204.906z"/>
		<path fill="#FFFFFF" d="M117.737,205.11c-0.221,2.057-1.648,3.06-3.858,3.06c-2.295,0-3.858-1.173-3.858-3.519v-2.142
			c0-2.329,1.529-3.519,3.875-3.519c2.329,0,3.859,1.19,3.859,3.519v1.836h-5.27v0.476c0,0.748,0.476,1.224,1.394,1.224
			c0.935,0,1.258-0.407,1.394-0.935H117.737z M112.485,202.561h2.805v-0.221c0-0.833-0.544-1.225-1.395-1.225
			c-0.85,0-1.41,0.392-1.41,1.225V202.561z"/>
		<path fill="#FFFFFF" d="M119.285,202.51c0-2.329,1.225-3.519,3.111-3.519c1.02,0,1.853,0.34,2.396,1.037l0.356-0.866h1.87v8.89
			c0,2.329-1.529,3.519-3.875,3.519c-2.329,0-3.859-1.189-3.859-3.519v-0.017h2.465v0.187c0,0.833,0.544,1.225,1.395,1.225
			c0.85,0,1.41-0.392,1.41-1.225v-1.325c-0.544,0.51-1.274,0.765-2.142,0.765c-1.903,0-3.128-1.19-3.128-3.519V202.51z
			 M121.75,204.312c0,0.833,0.544,1.224,1.411,1.224c0.833,0,1.394-0.391,1.394-1.224v-1.972c0-0.833-0.561-1.225-1.41-1.225
			c-0.851,0-1.395,0.392-1.395,1.225V204.312z"/>
		<path fill="#FFFFFF" d="M130.182,211.399l1.156-3.399h-0.307l-2.991-8.839h2.635l1.921,6.085l1.903-6.085h2.465l-4.147,12.238
			H130.182z"/>
		<path fill="#FFFFFF" d="M70.02,236.102h2.635V248H70.02V236.102z"/>
		<path fill="#FFFFFF" d="M74.44,242.51c0-2.329,1.224-3.519,3.11-3.519c0.884,0,1.615,0.255,2.159,0.765v-4.335h2.465V248h-1.87
			l-0.357-0.85c-0.544,0.68-1.377,1.02-2.38,1.02c-1.904,0-3.127-1.189-3.127-3.519V242.51z M76.904,244.821
			c0,0.833,0.544,1.224,1.411,1.224c0.833,0,1.394-0.391,1.394-1.224v-2.481c0-0.833-0.561-1.225-1.411-1.225
			s-1.394,0.392-1.394,1.225V244.821z"/>
		<path fill="#FFFFFF" d="M91.677,245.11c-0.221,2.057-1.648,3.06-3.858,3.06c-2.295,0-3.858-1.173-3.858-3.519v-2.142
			c0-2.329,1.53-3.519,3.875-3.519c2.329,0,3.858,1.189,3.858,3.519v1.836h-5.27v0.476c0,0.748,0.476,1.224,1.394,1.224
			c0.935,0,1.258-0.407,1.394-0.935H91.677z M86.424,242.561h2.805v-0.221c0-0.833-0.544-1.225-1.394-1.225
			c-0.85,0-1.411,0.392-1.411,1.225V242.561z"/>
		<path fill="#FFFFFF" d="M93.48,239.161h1.87l0.357,0.85c0.561-0.68,1.377-1.02,2.397-1.02c1.87,0,3.11,1.189,3.11,3.519V248H98.75
			v-5.66c0-0.833-0.544-1.225-1.394-1.225s-1.411,0.392-1.411,1.225V248H93.48V239.161z"/>
		<path fill="#FFFFFF" d="M106.314,244.906c0,1.122,0.527,1.156,2.21,1.071V248c-3.757,0.578-4.675-0.748-4.675-3.179v-3.535h-1.36
			v-2.125h1.36v-2.38l2.465-0.748v3.128h2.21v2.125h-2.21V244.906z"/>
		<path fill="#FFFFFF" d="M110.225,235.421h2.465v2.465h-2.465V235.421z M110.225,239.161h2.465V248h-2.465V239.161z"/>
		<path fill="#FFFFFF" d="M117.875,244.906c0,1.122,0.526,1.156,2.209,1.071V248c-3.756,0.578-4.674-0.748-4.674-3.179v-3.535h-1.36
			v-2.125h1.36v-2.38l2.465-0.748v3.128h2.209v2.125h-2.209V244.906z"/>
		<path fill="#FFFFFF" d="M122.906,251.399l1.156-3.399h-0.307l-2.991-8.839h2.635l1.921,6.085l1.903-6.085h2.465l-4.147,12.238
			H122.906z"/>
		<path fill="#FFFFFF" d="M79.505,283.683c0,2.855-1.87,4.317-4.759,4.317H70.02v-11.898h4.759c2.856,0,4.726,1.462,4.726,4.317
			V283.683z M76.87,280.419c0-1.343-0.833-2.023-2.091-2.023h-2.125v7.31h2.091c1.292,0,2.125-0.68,2.125-2.022V280.419z"/>
		<path fill="#FFFFFF" d="M88.838,285.11c-0.221,2.057-1.648,3.06-3.858,3.06c-2.295,0-3.858-1.173-3.858-3.519v-2.142
			c0-2.329,1.53-3.519,3.875-3.519c2.329,0,3.858,1.189,3.858,3.519v1.836h-5.27v0.476c0,0.748,0.476,1.224,1.394,1.224
			c0.935,0,1.258-0.407,1.394-0.935H88.838z M83.585,282.561h2.805v-0.221c0-0.833-0.544-1.225-1.394-1.225
			c-0.85,0-1.411,0.392-1.411,1.225V282.561z"/>
		<path fill="#FFFFFF" d="M94.534,284.771l-1.632-0.34c-1.581-0.323-2.601-1.207-2.601-2.635c0-1.904,1.36-2.805,3.706-2.805
			c2.329,0,3.688,0.918,3.688,2.72v0.255H95.23v-0.17c0-0.544-0.408-0.766-1.224-0.766s-1.241,0.222-1.241,0.714
			c0,0.289,0.17,0.527,0.782,0.646l1.632,0.34c1.581,0.323,2.601,1.207,2.601,2.601c0,1.938-1.445,2.839-3.791,2.839
			c-2.329,0-3.774-0.918-3.774-2.72v-0.255h2.465v0.17c0,0.544,0.493,0.765,1.309,0.765s1.326-0.221,1.326-0.714
			C95.315,285.127,95.146,284.89,94.534,284.771z"/>
		<path fill="#FFFFFF" d="M99.396,275.421h2.465v2.465h-2.465V275.421z M99.396,279.161h2.465V288h-2.465V279.161z"/>
		<path fill="#FFFFFF" d="M103.646,282.51c0-2.329,1.224-3.519,3.11-3.519c1.02,0,1.853,0.34,2.397,1.036l0.357-0.866h1.87v8.89
			c0,2.329-1.53,3.519-3.875,3.519c-2.329,0-3.858-1.189-3.858-3.519v-0.017h2.464v0.187c0,0.833,0.544,1.225,1.394,1.225
			s1.411-0.392,1.411-1.225v-1.325c-0.544,0.51-1.274,0.765-2.142,0.765c-1.904,0-3.127-1.19-3.127-3.519V282.51z M106.11,284.312
			c0,0.833,0.544,1.224,1.411,1.224c0.833,0,1.394-0.391,1.394-1.224v-1.972c0-0.833-0.561-1.225-1.411-1.225
			s-1.394,0.392-1.394,1.225V284.312z"/>
		<path fill="#FFFFFF" d="M113.421,279.161h1.87l0.357,0.85c0.561-0.68,1.377-1.02,2.396-1.02c1.87,0,3.11,1.189,3.11,3.519V288
			h-2.465v-5.66c0-0.833-0.544-1.225-1.394-1.225s-1.411,0.392-1.411,1.225V288h-2.465V279.161z"/>
		<path fill="#FFFFFF" d="M79.505,323.683c0,2.855-1.87,4.317-4.759,4.317H70.02v-11.898h4.759c2.856,0,4.726,1.462,4.726,4.317
			V323.683z M76.87,320.419c0-1.343-0.833-2.023-2.091-2.023h-2.125v7.31h2.091c1.292,0,2.125-0.68,2.125-2.022V320.419z"/>
		<path fill="#FFFFFF" d="M88.838,325.11c-0.221,2.057-1.648,3.06-3.858,3.06c-2.295,0-3.858-1.173-3.858-3.519v-2.142
			c0-2.329,1.53-3.519,3.875-3.519c2.329,0,3.858,1.189,3.858,3.519v1.836h-5.27v0.476c0,0.748,0.476,1.224,1.394,1.224
			c0.935,0,1.258-0.407,1.394-0.935H88.838z M83.585,322.561h2.805v-0.221c0-0.833-0.544-1.225-1.394-1.225
			c-0.85,0-1.411,0.392-1.411,1.225V322.561z"/>
		<path fill="#FFFFFF" d="M92.273,328l-2.992-8.839h2.635l1.904,6.068l1.921-6.068h2.465L95.214,328H92.273z"/>
		<path fill="#FFFFFF" d="M106.348,325.11c-0.221,2.057-1.648,3.06-3.858,3.06c-2.295,0-3.858-1.173-3.858-3.519v-2.142
			c0-2.329,1.53-3.519,3.875-3.519c2.329,0,3.858,1.189,3.858,3.519v1.836h-5.27v0.476c0,0.748,0.476,1.224,1.394,1.224
			c0.935,0,1.258-0.407,1.394-0.935H106.348z M101.096,322.561h2.805v-0.221c0-0.833-0.544-1.225-1.394-1.225
			c-0.85,0-1.411,0.392-1.411,1.225V322.561z"/>
		<path fill="#FFFFFF" d="M108.151,315.421h2.465V328h-2.465V315.421z"/>
		<path fill="#FFFFFF" d="M120.135,324.651c0,2.329-1.529,3.519-3.875,3.519c-2.329,0-3.859-1.189-3.859-3.519v-2.142
			c0-2.329,1.53-3.519,3.876-3.519c2.329,0,3.858,1.189,3.858,3.519V324.651z M117.67,322.34c0-0.833-0.544-1.225-1.394-1.225
			s-1.411,0.392-1.411,1.225v2.481c0,0.833,0.562,1.224,1.395,1.224c0.866,0,1.41-0.391,1.41-1.224V322.34z"/>
		<path fill="#FFFFFF" d="M129.655,324.651c0,2.329-1.224,3.519-3.128,3.519c-0.884,0-1.614-0.255-2.142-0.765v3.994h-2.465v-12.238
			h1.87l0.357,0.85c0.544-0.68,1.377-1.02,2.396-1.02c1.887,0,3.11,1.189,3.11,3.519V324.651z M127.19,322.34
			c0-0.833-0.544-1.225-1.394-1.225s-1.411,0.392-1.411,1.225v2.481c0,0.833,0.562,1.224,1.395,1.224c0.866,0,1.41-0.391,1.41-1.224
			V322.34z"/>
		<path fill="#FFFFFF" d="M140.96,328v-5.882c0-0.696-0.459-1.003-1.139-1.003c-0.681,0-1.156,0.307-1.156,1.003V328H136.2v-5.882
			c0-0.696-0.459-1.003-1.139-1.003s-1.156,0.307-1.156,1.003V328h-2.465v-8.839h1.87l0.357,0.866
			c0.492-0.696,1.258-1.036,2.209-1.036c1.037,0,1.87,0.407,2.346,1.224c0.477-0.799,1.31-1.224,2.363-1.224
			c1.717,0,2.839,1.07,2.839,3.179V328H140.96z"/>
		<path fill="#FFFFFF" d="M152.844,325.11c-0.222,2.057-1.649,3.06-3.859,3.06c-2.294,0-3.858-1.173-3.858-3.519v-2.142
			c0-2.329,1.53-3.519,3.876-3.519c2.329,0,3.858,1.189,3.858,3.519v1.836h-5.27v0.476c0,0.748,0.477,1.224,1.394,1.224
			c0.936,0,1.259-0.407,1.395-0.935H152.844z M147.591,322.561h2.805v-0.221c0-0.833-0.544-1.225-1.394-1.225
			s-1.411,0.392-1.411,1.225V322.561z"/>
		<path fill="#FFFFFF" d="M154.646,319.161h1.87l0.357,0.85c0.561-0.68,1.377-1.02,2.396-1.02c1.87,0,3.11,1.189,3.11,3.519V328
			h-2.465v-5.66c0-0.833-0.544-1.225-1.394-1.225s-1.411,0.392-1.411,1.225V328h-2.465V319.161z"/>
		<path fill="#FFFFFF" d="M167.48,324.906c0,1.122,0.526,1.156,2.209,1.071V328c-3.756,0.578-4.674-0.748-4.674-3.179v-3.535h-1.36
			v-2.125h1.36v-2.38l2.465-0.748v3.128h2.209v2.125h-2.209V324.906z"/>
	</g>
	<g>
		<path fill="#FFFFFF" d="M48.401,129.707l-3.443,6.551l-3.443-6.551V138H38.26v-14.697h3.149l3.548,6.761l3.548-6.761h3.149V138
			h-3.254V129.707z"/>
		<path fill="#FFFFFF" d="M65.684,132.877c0,3.527-2.31,5.333-5.879,5.333c-3.527,0-5.837-1.806-5.837-5.333v-4.451
			c0-3.527,2.31-5.333,5.879-5.333c3.527,0,5.837,1.806,5.837,5.333V132.877z M62.429,128.426c0-1.659-1.029-2.499-2.583-2.499
			c-1.596,0-2.625,0.84-2.625,2.499v4.451c0,1.658,1.029,2.498,2.583,2.498c1.596,0,2.625-0.84,2.625-2.498V128.426z"/>
		<path fill="#FFFFFF" d="M67.996,123.303h6.803c2.583,0,4.284,1.323,4.284,3.905c0,1.638-0.693,2.792-1.869,3.401
			c1.302,0.588,2.078,1.764,2.078,3.485c0,2.583-1.7,3.905-4.283,3.905h-7.013V123.303z M71.25,129.224h2.981
			c1.05,0,1.491-0.546,1.491-1.554s-0.462-1.533-1.491-1.533H71.25V129.224z M71.25,135.166h3.191c1.029,0,1.491-0.525,1.491-1.533
			s-0.441-1.574-1.491-1.574H71.25V135.166z"/>
		<path fill="#FFFFFF" d="M81.394,123.303h3.255V138h-3.255V123.303z"/>
		<path fill="#FFFFFF" d="M87.168,123.303h3.254v11.863h6.992V138H87.168V123.303z"/>
		<path fill="#FFFFFF" d="M99.096,123.303h10.246v2.834h-6.992v3.086h5.942v2.835h-5.942v3.107h6.992V138H99.096V123.303z"/>
		<path fill="#FFFFFF" d="M130.089,138h-3.527l-0.944-3.107h-4.977L119.695,138h-3.212l4.808-14.697h3.99L130.089,138z
			 M121.502,132.059h3.232l-1.616-5.292L121.502,132.059z"/>
		<path fill="#FFFFFF" d="M131.352,123.303h6.047c3.045,0,5.039,1.428,5.039,4.892s-1.974,4.913-5.039,4.913h-2.793V138h-3.254
			V123.303z M134.605,130.273h2.688c1.092,0,1.785-0.504,1.785-2.079s-0.714-2.058-1.785-2.058h-2.688V130.273z"/>
		<path fill="#FFFFFF" d="M144.119,123.303h6.047c3.045,0,5.039,1.428,5.039,4.892s-1.974,4.913-5.039,4.913h-2.793V138h-3.254
			V123.303z M147.373,130.273h2.688c1.092,0,1.785-0.504,1.785-2.079s-0.714-2.058-1.785-2.058h-2.688V130.273z"/>
		<path fill="#FFFFFF" d="M162.912,132.352l-2.414-0.419c-2.52-0.441-4.031-1.89-4.031-4.199c0-3.128,2.162-4.64,5.648-4.64
			c3.484,0,5.647,1.512,5.647,4.472v0.357h-3.255v-0.357c0-1.092-0.881-1.638-2.393-1.638s-2.289,0.441-2.289,1.575
			c0,0.777,0.609,1.302,1.49,1.449l2.415,0.42c2.646,0.462,4.031,1.89,4.031,4.178c0,3.149-2.163,4.661-5.647,4.661
			c-3.486,0-5.648-1.512-5.648-4.472v-0.357h3.254v0.357c0,1.092,0.883,1.637,2.395,1.637s2.288-0.42,2.288-1.596
			C164.403,132.982,163.795,132.499,162.912,132.352z"/>
		<path fill="#FFFFFF" d="M43.689,155.315c0,1.849-1.21,2.795-3.081,2.795c-1.848,0-3.058-0.946-3.058-2.795v-2.332
			c0-1.849,1.21-2.795,3.08-2.795c1.849,0,3.059,0.946,3.059,2.795V155.315z M41.984,152.983c0-0.869-0.539-1.31-1.354-1.31
			c-0.836,0-1.375,0.44-1.375,1.31v2.332c0,0.869,0.539,1.31,1.353,1.31c0.836,0,1.375-0.44,1.375-1.31V152.983z"/>
		<path fill="#FFFFFF" d="M44.898,150.299h5.149v1.485h-3.444v1.947h2.894v1.485h-2.894V158h-1.705V150.299z"/>
		<path fill="#FFFFFF" d="M50.706,150.299h5.148v1.485h-3.443v1.947h2.894v1.485h-2.894V158h-1.705V150.299z"/>
		<path fill="#FFFFFF" d="M56.514,150.299h5.369v1.485h-3.664v1.617h3.114v1.485h-3.114v1.628h3.664V158h-5.369V150.299z"/>
		<path fill="#FFFFFF" d="M62.982,150.299h3.278c1.595,0,2.641,0.748,2.641,2.563c0,1.254-0.495,2.014-1.332,2.354L69.011,158h-1.98
			l-1.254-2.563h-1.089V158h-1.705V150.299z M64.687,153.951h1.519c0.572,0,0.935-0.264,0.935-1.089s-0.374-1.078-0.935-1.078
			h-1.519V153.951z"/>
		<path fill="#FFFFFF" d="M70,150.299h1.705V158H70V150.299z"/>
		<path fill="#FFFFFF" d="M74.73,153.435V158h-1.705v-7.701h1.595l2.838,4.565v-4.565h1.706V158h-1.596L74.73,153.435z"/>
		<path fill="#FFFFFF" d="M84.806,155.315v-0.099h-1.628v-1.485h3.334V158h-1.255l-0.253-0.572
			c-0.473,0.451-1.155,0.683-1.958,0.683c-1.573,0-2.674-0.913-2.674-2.795v-2.277c0-1.958,1.21-2.85,3.081-2.85
			c1.804,0,3.059,0.716,3.059,2.509v0.132h-1.706v-0.132c0-0.715-0.539-1.023-1.353-1.023c-0.837,0-1.376,0.386-1.376,1.364v2.277
			c0,0.869,0.539,1.31,1.354,1.31C84.267,156.625,84.806,156.185,84.806,155.315z"/>
		<path fill="#FFFFFF" d="M90.36,150.299h1.749l1.133,5.522l1.178-5.522h1.65l1.166,5.522l1.144-5.522h1.694L98.215,158H96.29
			l-1.078-4.576L94.145,158H92.22L90.36,150.299z"/>
		<path fill="#FFFFFF" d="M106.707,155.315c0,1.849-1.21,2.795-3.08,2.795c-1.848,0-3.059-0.946-3.059-2.795v-2.332
			c0-1.849,1.211-2.795,3.081-2.795c1.848,0,3.058,0.946,3.058,2.795V155.315z M105.002,152.983c0-0.869-0.539-1.31-1.353-1.31
			c-0.837,0-1.376,0.44-1.376,1.31v2.332c0,0.869,0.539,1.31,1.354,1.31c0.836,0,1.375-0.44,1.375-1.31V152.983z"/>
		<path fill="#FFFFFF" d="M107.916,150.299h3.278c1.596,0,2.641,0.748,2.641,2.563c0,1.254-0.495,2.014-1.331,2.354l1.441,2.783
			h-1.98l-1.255-2.563h-1.089V158h-1.705V150.299z M109.621,153.951h1.519c0.572,0,0.935-0.264,0.935-1.089
			s-0.374-1.078-0.935-1.078h-1.519V153.951z"/>
		<path fill="#FFFFFF" d="M114.934,150.299h1.705v6.216h3.664V158h-5.369V150.299z"/>
		<path fill="#FFFFFF" d="M127.32,155.206c0,1.848-1.21,2.794-3.08,2.794h-3.059v-7.701h3.08c1.849,0,3.059,0.946,3.059,2.795
			V155.206z M125.615,153.094c0-0.869-0.539-1.31-1.354-1.31h-1.375v4.73h1.354c0.836,0,1.375-0.439,1.375-1.309V153.094z"/>
		<path fill="#FFFFFF" d="M137.859,155.25v0.065c0,1.849-1.211,2.795-3.081,2.795c-1.849,0-3.059-0.946-3.059-2.795v-2.332
			c0-1.849,1.21-2.795,3.081-2.795c1.848,0,3.059,0.946,3.059,2.795v0.065h-1.706v-0.065c0-0.869-0.539-1.31-1.353-1.31
			c-0.837,0-1.376,0.44-1.376,1.31v2.332c0,0.869,0.539,1.31,1.354,1.31c0.836,0,1.375-0.44,1.375-1.31v-0.065H137.859z"/>
		<path fill="#FFFFFF" d="M138.958,150.299h1.705v6.216h3.664V158h-5.369V150.299z"/>
		<path fill="#FFFFFF" d="M151.675,158h-1.849l-0.494-1.628h-2.607L146.229,158h-1.684l2.52-7.701h2.09L151.675,158z
			 M147.175,154.887h1.694l-0.847-2.772L147.175,154.887z"/>
		<path fill="#FFFFFF" d="M155.491,155.041l-1.265-0.221c-1.32-0.23-2.112-0.99-2.112-2.2c0-1.639,1.133-2.432,2.959-2.432
			s2.96,0.793,2.96,2.344v0.187h-1.706v-0.187c0-0.572-0.462-0.858-1.254-0.858s-1.199,0.231-1.199,0.825
			c0,0.407,0.319,0.683,0.781,0.76l1.266,0.22c1.386,0.242,2.112,0.99,2.112,2.189c0,1.65-1.134,2.442-2.96,2.442
			s-2.959-0.792-2.959-2.344v-0.187h1.705v0.187c0,0.572,0.462,0.858,1.254,0.858s1.199-0.221,1.199-0.836
			C156.272,155.371,155.953,155.117,155.491,155.041z"/>
		<path fill="#FFFFFF" d="M162.289,155.041l-1.265-0.221c-1.32-0.23-2.112-0.99-2.112-2.2c0-1.639,1.133-2.432,2.959-2.432
			s2.96,0.793,2.96,2.344v0.187h-1.706v-0.187c0-0.572-0.462-0.858-1.254-0.858s-1.199,0.231-1.199,0.825
			c0,0.407,0.319,0.683,0.781,0.76l1.266,0.22c1.386,0.242,2.112,0.99,2.112,2.189c0,1.65-1.134,2.442-2.96,2.442
			s-2.959-0.792-2.959-2.344v-0.187h1.705v0.187c0,0.572,0.462,0.858,1.254,0.858s1.199-0.221,1.199-0.836
			C163.07,155.371,162.751,155.117,162.289,155.041z"/>
	</g>
	<g opacity="0.2">
		<path fill="#FFFFFF" d="M57.77,370.299h3.256c1.354,0,2.157,0.682,2.157,2.024c0,0.869-0.352,1.452-0.968,1.771
			c0.726,0.274,1.133,0.913,1.133,1.87c0,1.342-0.792,2.035-2.157,2.035H57.77V370.299z M58.683,373.742h2.189
			c0.924,0,1.375-0.462,1.375-1.331c0-0.858-0.462-1.32-1.364-1.32h-2.201V373.742z M58.683,377.208h2.354
			c0.913,0,1.375-0.462,1.375-1.331s-0.451-1.343-1.364-1.343h-2.366V377.208z"/>
		<path fill="#FFFFFF" d="M65.438,380.2l0.869-2.2h-0.11l-2.189-5.61h0.913l1.815,4.664l1.815-4.664h0.858l-3.058,7.811H65.438z"/>
		<path fill="#FFFFFF" d="M73.643,370.299h4.951v1.133h-3.642v2.421h3.091v1.133h-3.091V378h-1.309V370.299z"/>
		<path fill="#FFFFFF" d="M83.973,378h-0.946l-0.165-0.572c-0.374,0.451-0.935,0.683-1.639,0.683c-1.254,0-2.068-0.716-2.068-2.168
			v-3.608h1.221v3.696c0,0.704,0.451,1.023,1.167,1.023c0.715,0,1.21-0.352,1.21-1.056v-3.664h1.221V378z"/>
		<path fill="#FFFFFF" d="M90.066,376.195c-0.11,1.255-1.001,1.915-2.398,1.915c-1.463,0-2.42-0.76-2.42-2.2v-1.497
			c0-1.452,0.957-2.188,2.42-2.188c1.452,0,2.398,0.736,2.398,2.188v1.134H86.48v0.439c0,0.66,0.418,1.067,1.188,1.067
			s1.1-0.363,1.166-0.858H90.066z M86.48,374.611h2.365v-0.274c0-0.716-0.462-1.057-1.177-1.057c-0.715,0-1.188,0.341-1.188,1.057
			V374.611z"/>
		<path fill="#FFFFFF" d="M91.353,369.859h1.221V378h-1.221V369.859z"/>
		<path fill="#FFFFFF" d="M98.668,376.195c-0.11,1.255-1.001,1.915-2.398,1.915c-1.463,0-2.42-0.76-2.42-2.2v-1.497
			c0-1.452,0.957-2.188,2.42-2.188c1.452,0,2.398,0.736,2.398,2.188v1.134h-3.586v0.439c0,0.66,0.418,1.067,1.188,1.067
			s1.1-0.363,1.166-0.858H98.668z M95.082,374.611h2.365v-0.274c0-0.716-0.462-1.057-1.177-1.057s-1.188,0.341-1.188,1.057V374.611z
			"/>
		<path fill="#FFFFFF" d="M99.801,374.413c0-1.43,0.813-2.188,2.079-2.188c0.627,0,1.155,0.187,1.518,0.55v-2.915h1.222V378h-0.936
			l-0.153-0.583c-0.363,0.451-0.936,0.693-1.64,0.693c-1.276,0-2.09-0.76-2.09-2.189V374.413z M101.032,375.998
			c0,0.692,0.451,1.056,1.166,1.056c0.727,0,1.199-0.374,1.199-1.078v-1.617c0-0.704-0.473-1.078-1.199-1.078
			c-0.715,0-1.166,0.363-1.166,1.057V375.998z"/>
		<path fill="#FFFFFF" d="M109.403,370.046h0.857v1.243h-0.857V370.046z M109.403,372.39h0.857V378h-0.857V372.39z"/>
		<path fill="#FFFFFF" d="M111.802,372.39h0.66l0.109,0.638c0.374-0.495,0.99-0.748,1.761-0.748c1.287,0,2.101,0.66,2.101,2.046V378
			h-0.847v-3.729c0-0.869-0.55-1.254-1.431-1.254c-0.88,0-1.496,0.439-1.496,1.309V378h-0.857V372.39z"/>
		<path fill="#FFFFFF" d="M122.163,371.96V378h-0.913v-7.701h0.857l3.972,6.029v-6.029h0.913V378h-0.857L122.163,371.96z"/>
		<path fill="#FFFFFF" d="M131.524,378h-0.902v-2.948l-2.871-4.753h1.089l2.244,3.84l2.267-3.84h1.034l-2.86,4.753V378z"/>
		<path fill="#FFFFFF" d="M140.456,375.524v0.033c0,1.628-1.111,2.553-2.894,2.553c-1.826,0-2.959-0.99-2.959-2.762v-2.398
			c0-1.782,1.133-2.761,2.971-2.761c1.771,0,2.882,0.912,2.882,2.541v0.044h-0.913v-0.044c0-1.101-0.748-1.75-1.969-1.75
			c-1.287,0-2.058,0.716-2.058,1.97v2.398c0,1.254,0.771,1.97,2.046,1.97c1.232,0,1.98-0.649,1.98-1.761v-0.033H140.456z"/>
	</g>
</g>
</svg>
