<?xml version="1.0" encoding="utf-8"?>
<!-- Generator: Adobe Illustrator 16.0.0, SVG Export Plug-In . SVG Version: 6.00 Build 0)  -->
<!DOCTYPE svg PUBLIC "-//W3C//DTD SVG 1.1//EN" "http://www.w3.org/Graphics/SVG/1.1/DTD/svg11.dtd">
<svg version="1.1" id="Layer_3" xmlns="http://www.w3.org/2000/svg" xmlns:xlink="http://www.w3.org/1999/xlink" x="0px" y="0px"
	 width="200px" height="200px" viewBox="0 0 200 200" enable-background="new 0 0 200 200" xml:space="preserve">

<!-- <style>
@keyframes rotate {
  from {
    transform: rotate(1deg);
  }
  to {
    transform: rotate(360deg);
  }
}

g {
	animation: rotate 7s 0 linear infinite normal backwards;
}
</style> -->

<g>
	<path fill="#FF5453" d="M98.5,50.038V1.019C68.316,1.468,41.404,15.418,23.542,37.107L61.87,67.673
		C70.739,57.222,83.823,50.472,98.5,50.038z"/>
	<path fill="#9873E6" d="M59.99,70.011L21.674,39.455C8.716,56.193,1,77.194,1,100c0,7.054,0.743,13.934,2.146,20.57l47.795-10.91
		C50.329,106.534,50,103.306,50,100C50,88.749,53.718,78.366,59.99,70.011z"/>
	<path fill="#FFBE1A" d="M149.06,109.656l47.796,10.905C198.258,113.928,199,107.051,199,100c0-22.808-7.719-43.812-20.679-60.551
		l-38.313,30.56C146.281,78.364,150,88.748,150,100C150,103.305,149.671,106.531,149.06,109.656z"/>
	<path fill="#FF8133" d="M138.128,67.67l38.324-30.569C158.591,15.416,131.681,1.468,101.5,1.019v49.019
		C116.175,50.471,129.258,57.221,138.128,67.67z"/>
	<path fill="#01D174" d="M123.037,144.373l21.275,44.173c25.652-12.863,44.938-36.543,51.877-65.059l-47.788-10.904
		C144.814,126.418,135.447,137.916,123.037,144.373z"/>
	<path fill="#01B5D9" d="M79.67,145.679l-21.272,44.174C71.047,195.72,85.14,199,100,199c14.863,0,28.959-3.282,41.609-9.15
		l-21.275-44.173C114.12,148.447,107.243,150,100,150C92.758,150,85.883,148.448,79.67,145.679z"/>
	<path fill="#0085BF" d="M51.6,112.587L3.812,123.494c6.941,28.516,26.229,52.194,51.883,65.056l21.271-44.175
		C64.556,137.92,55.188,126.422,51.6,112.587z"/>

<!-- 	<animateTransform id="rotate" attributeType="XML" attributeName="transform" type="rotate" from="0 100 100" to="360 100 100" dur="240s" repeatCount="indefinite" /> --></g>
</svg>
