<?xml version="1.0" encoding="utf-8"?>
<!-- Generator: Adobe Illustrator 16.0.0, SVG Export Plug-In . SVG Version: 6.00 Build 0)  -->
<!DOCTYPE svg PUBLIC "-//W3C//DTD SVG 1.1//EN" "http://www.w3.org/Graphics/SVG/1.1/DTD/svg11.dtd">
<svg version="1.1" id="Layer_1" xmlns="http://www.w3.org/2000/svg" xmlns:xlink="http://www.w3.org/1999/xlink" x="0px" y="0px"
	 width="260px" height="200px" viewBox="0 0 260 200" enable-background="new 0 0 260 200" xml:space="preserve">
<g>
	<g>
		<path fill="#FFFFFF" d="M130.001,0c-29.06,0-52.654,24.097-52.654,53.774c0,29.675,23.594,53.772,52.654,53.772
			c29.059,0,52.653-24.098,52.653-53.772C182.654,24.097,159.06,0,130.001,0z M129.604,90.241v-26.36h-25.97l25.97-46.577v26.362
			h26.762L129.604,90.241z"/>
	</g>
	<g>
		<path fill="#FFFFFF" d="M36.756,189.995c-2.543,0.739-5.169,1.066-8.04,1.066C11.896,191.062,0,178.427,0,162.921v-0.164
			c0-15.507,11.896-28.225,28.798-28.225c16.819,0,28.633,12.554,28.633,28.06v0.165c0,8.041-3.199,15.341-8.779,20.511
			l16.164,16.163v0.574H46.931L36.756,189.995z M45.044,162.921v-0.164c0-9.354-6.811-17.148-16.492-17.148
			c-9.68,0-16.325,7.632-16.325,16.983v0.165c0,9.354,6.809,17.146,16.489,17.146C38.397,179.903,45.044,172.273,45.044,162.921z"/>
		<path fill="#FFFFFF" d="M62.273,175.31v-26.992H73.76v23.3c0,5.579,2.706,8.532,7.3,8.532c4.513,0,7.467-2.87,7.467-8.532v-23.3
			h12.308v41.843H88.526v-5.989c-2.461,3.527-6.152,6.727-12.142,6.727C67.359,190.897,62.273,184.909,62.273,175.31z"/>
		<path fill="#FFFFFF" d="M105.756,135.189h11.487v8.204h-11.487V135.189z M105.756,148.317h11.487v41.843h-11.487V148.317z"/>
		<path fill="#FFFFFF" d="M122.986,181.71l21.496-23.547h-20.676v-9.846h35.278v8.285l-21.577,23.712h21.577v9.846h-36.099V181.71z"
			/>
		<path fill="#FFFFFF" d="M164.828,166.694v-31.505h11.487v31.178c0,8.86,4.593,13.536,11.896,13.536
			c7.3,0,11.896-4.431,11.896-13.127v-31.587h12.309v31.096c0,16.571-9.274,24.695-23.958,24.695
			C173.771,190.897,164.828,182.776,164.828,166.694z"/>
		<path fill="#FFFFFF" d="M216.517,148.317h11.486v5.907c3.28-3.94,6.81-6.812,12.962-6.812c9.763,0,19.035,7.63,19.035,21.66v0.165
			c0,13.947-9.109,21.659-19.035,21.659c-6.315,0-9.682-2.87-12.962-6.234v15.342h-11.486V148.317z M248.514,169.238v-0.165
			c0-6.973-4.761-11.567-10.254-11.567c-5.582,0-10.257,4.595-10.257,11.567v0.165c0,6.975,4.675,11.566,10.257,11.566
			C243.753,180.805,248.514,176.294,248.514,169.238z"/>
	</g>
</g>
</svg>
