<?xml version="1.0" encoding="utf-8"?>
<!-- Generator: Adobe Illustrator 16.0.0, SVG Export Plug-In . SVG Version: 6.00 Build 0)  -->
<!DOCTYPE svg PUBLIC "-//W3C//DTD SVG 1.1//EN" "http://www.w3.org/Graphics/SVG/1.1/DTD/svg11.dtd">
<svg version="1.1" id="Layer_1" xmlns="http://www.w3.org/2000/svg" xmlns:xlink="http://www.w3.org/1999/xlink" x="0px" y="0px"
	 width="652px" height="65px" viewBox="0 0 652 65" enable-background="new 0 0 652 65" xml:space="preserve">
<g>
	<g>
		<path fill="#FF5454" d="M26.17,0.598C11.023,0.598,0,11.356,0,26.374s11.023,25.776,26.17,25.776
			c4.274,0,8.323-0.896,11.772-2.465l4.049,4.632l7.423-6.051l-3.674-4.259c4.049-4.483,6.523-10.609,6.523-17.632
			C52.264,11.356,41.241,0.598,26.17,0.598z M38.767,35.863l-5.474-6.426l-7.423,6.052l5.474,6.425
			c-1.575,0.523-3.299,0.821-5.174,0.821c-9.298,0-15.222-7.097-15.222-16.361c0-9.34,5.924-16.362,15.222-16.362
			c9.223,0,15.146,7.022,15.146,16.362C41.316,29.96,40.417,33.248,38.767,35.863z M83.984,39.599
			c-1.65,2.091-4.574,4.108-8.248,4.108c-4.049,0-6.674-1.643-6.674-6.649V15.167H59.54v25.626c0,7.023,3.749,11.356,11.697,11.356
			c5.924,0,10.273-2.764,12.748-5.454v4.558h9.523V15.167h-9.523V39.599z M107.681,0c-3.075,0-5.624,2.465-5.624,5.604
			c0,3.138,2.549,5.678,5.624,5.678c3.149,0,5.699-2.54,5.699-5.678C113.379,2.465,110.83,0,107.681,0z M102.957,51.253h9.523
			V15.167h-9.523V51.253z M149.671,21.966v-6.799h-29.318v8.293H136.7l-16.347,20.695v7.098h29.619V42.96h-16.947L149.671,21.966z
			 M192.338,31.006c0,6.948-3.974,11.729-11.697,11.729s-11.772-4.78-11.772-11.729V1.419H158.07v29.885
			c0,12.327,7.349,20.845,22.57,20.845s22.57-8.518,22.57-20.845V1.419h-10.873V31.006z M233.581,14.27
			c-4.424,0-8.398,1.943-11.173,5.455v-4.558h-9.522V65h9.522V46.621c3,3.736,6.899,5.529,11.173,5.529
			c9.298,0,16.046-6.948,16.046-18.977C249.627,21.143,242.879,14.27,233.581,14.27z M230.582,43.707
			c-3.075,0-6.598-1.867-8.173-4.185V26.822c1.65-2.39,5.099-4.108,8.173-4.108c5.474,0,9.223,4.258,9.223,10.459
			C239.805,39.449,236.055,43.707,230.582,43.707z M292.069,8.442c1.725,0,3,0.522,3.975,1.419l3.599-5.752
			c-2.174-2.466-5.923-3.437-9.448-3.437c-7.274,0-12.147,4.856-12.147,13v1.494h-5.999v8.293h5.999v27.793h9.523V23.46h7.349
			v-8.293h-7.349v-1.494C287.57,10.162,289.37,8.442,292.069,8.442z M317.189,14.27c-11.922,0-19.121,8.667-19.121,18.903
			c0,10.235,7.198,18.977,19.121,18.977c11.998,0,19.196-8.741,19.196-18.977C336.385,22.937,329.188,14.27,317.189,14.27z
			 M317.189,43.707c-5.924,0-9.223-4.855-9.223-10.534c0-5.604,3.299-10.459,9.223-10.459c5.999,0,9.298,4.855,9.298,10.459
			C326.488,38.852,323.188,43.707,317.189,43.707z M353.034,20.022v-4.855h-9.523v36.086h9.523V27.42
			c1.574-2.317,5.773-4.109,8.922-4.109c1.125,0,1.95,0.074,2.625,0.224V14.27C360.083,14.27,355.657,16.885,353.034,20.022z
			 M404.022,1.419l-19.27,49.834h12.072l3.148-8.442h21.446l3.15,8.442h12.072L417.369,1.419H404.022z M402.897,33.471l7.799-21.443
			l7.798,21.443H402.897z M463.261,14.27c-5.849,0-10.348,2.84-12.672,5.529v-4.632h-9.523v36.086h9.523V26.897
			c1.649-2.092,4.5-4.184,8.248-4.184c4.049,0,6.674,1.718,6.674,6.724v21.816h9.598V25.776
			C475.108,18.753,471.285,14.27,463.261,14.27z M509.378,19.799c-2.85-3.736-6.898-5.529-11.173-5.529
			c-9.223,0-16.046,7.173-16.046,18.903c0,12.104,6.973,18.977,16.046,18.977c4.424,0,8.324-1.943,11.173-5.529v4.633h9.598V1.419
			h-9.598V19.799z M509.378,39.599c-1.575,2.39-5.025,4.108-8.174,4.108c-5.474,0-9.223-4.258-9.223-10.534
			c0-6.201,3.75-10.459,9.223-10.459c3.148,0,6.599,1.718,8.174,4.108V39.599z M537.947,20.022v-4.855h-9.522v36.086h9.522V27.42
			c1.575-2.317,5.774-4.109,8.924-4.109c1.125,0,1.949,0.074,2.624,0.224V14.27C544.996,14.27,540.572,16.885,537.947,20.022z
			 M572.215,14.27c-11.922,0-19.12,8.667-19.12,18.903c0,10.235,7.198,18.977,19.12,18.977c11.998,0,19.196-8.741,19.196-18.977
			C591.411,22.937,584.213,14.27,572.215,14.27z M572.215,43.707c-5.924,0-9.223-4.855-9.223-10.534
			c0-5.604,3.299-10.459,9.223-10.459c5.999,0,9.299,4.855,9.299,10.459C581.514,38.852,578.214,43.707,572.215,43.707z M603.261,0
			c-3.075,0-5.624,2.465-5.624,5.604c0,3.138,2.549,5.678,5.624,5.678c3.148,0,5.698-2.54,5.698-5.678
			C608.959,2.465,606.409,0,603.261,0z M598.537,51.253h9.522V15.167h-9.522V51.253z M642.402,1.419v18.379
			c-2.85-3.736-6.899-5.529-11.173-5.529c-9.224,0-16.046,7.173-16.046,18.903c0,12.104,6.973,18.977,16.046,18.977
			c4.424,0,8.323-1.943,11.173-5.529v4.633H652V1.419H642.402z M642.402,39.599c-1.575,2.39-5.024,4.108-8.174,4.108
			c-5.474,0-9.223-4.258-9.223-10.534c0-6.201,3.749-10.459,9.223-10.459c3.149,0,6.599,1.718,8.174,4.108V39.599z"/>
	</g>
</g>
</svg>
