<?xml version="1.0" encoding="utf-8"?>
<!-- Generator: Adobe Illustrator 16.0.0, SVG Export Plug-In . SVG Version: 6.00 Build 0)  -->
<!DOCTYPE svg PUBLIC "-//W3C//DTD SVG 1.1//EN" "http://www.w3.org/Graphics/SVG/1.1/DTD/svg11.dtd">
<svg version="1.1" id="Layer_1" xmlns="http://www.w3.org/2000/svg" xmlns:xlink="http://www.w3.org/1999/xlink" x="0px" y="0px"
	 width="378px" height="220px" viewBox="0 0 378 220" enable-background="new 0 0 378 220" xml:space="preserve">
<g>
	<g>
		<path fill="#FFFFFF" d="M244.204,118.399c0.215-0.774,0.307-1.594,0.217-2.442c-0.37-3.489-3.412-6.092-6.927-5.923
			c-0.122,0.005-0.24,0.017-0.37,0.027c-0.904,0.096-1.758,0.375-2.531,0.804c-3.399-1.612-5.464-5.389-5.482-5.425l-0.182-0.304
			c-0.132-0.182-0.254-0.393-0.386-0.587c3.354-11.208,13.354-14.987,17.805-16.614c3.267,1.221,13.447,4.436,21.517,0.611
			c2.806-1.331,4.714-4.096,5.38-7.792c1.104-6.126-1.164-13.847-5.609-19.893l0.028-0.02c-0.425-0.567-0.865-1.105-1.317-1.618
			c-0.42-0.492-0.846-0.975-1.298-1.43l-0.038,0.036c-0.854-0.829-1.754-1.574-2.688-2.228c15.606-7.721,20.771-25.933,18.799-34.38
			c-1.27-5.446-4.917-6.823-7.909-6.294l-1.941,0.343l-0.266,1.939c-0.527,3.812-1.784,9.608-4.704,13.561
			c1.665-10.408-0.079-20.474-3.41-25.841c-2.757-4.441-6.679-6.01-10.494-4.185l-1.552,0.742l0.024,1.722
			c0.338,23.208-1.31,36.57-11.804,53.793c-8.945,6.843-23.387,11.238-33.829,10.254c-8.327-0.784-20.549-4.362-38.355-11.54
			c-3.433-1.27-7.097-1.856-10.751-1.679c-6.602,0.313-12.754,3.015-17.427,7.409c-2.045-0.525-11.483-2.828-18.383-2.495
			c-3.066,0.144-5.315,0.791-6.86,1.97c-2.038,1.558-2.791,3.754-2.016,5.873c1.63,4.443,9.775,7.092,16.366,6.78
			c1.278-0.064,2.471-0.26,3.607-0.529c-1.731,5.436-1.74,11.248,0.098,16.77c0.583,1.749,1.328,3.41,2.228,4.977
			c-0.492,2.244-2.005,7.066-6.099,8.85c-0.067-0.088-0.112-0.19-0.187-0.277c-1.404-1.733-3.574-2.705-5.804-2.597
			c-1.491,0.073-2.9,0.603-4.075,1.545c-1.462,1.18-2.371,2.856-2.566,4.719c-0.022,0.226-0.001,0.438-0.004,0.657
			c-0.199,0.071-0.393,0.163-0.571,0.284c-17.001,11.684-17.268,14.788-17.358,15.812c-0.076,0.92,0.246,1.802,0.835,2.377
			c2.218,2.306,4.861,3.447,7.658,3.313c3.78-0.185,7.643-2.778,10.329-6.938c1.776-2.748,2.776-5.745,2.938-8.535
			c1.068,0.539,2.271,0.816,3.492,0.758c0.692-0.034,1.357-0.175,1.995-0.4c2.354,1.925,4.988,3.459,7.9,4.519
			c2.821,1.027,5.793,1.465,8.783,1.322c3.264-0.157,6.556-1.004,9.693-2.537c4.505-2.199,8.366-5.639,10.965-9.548
			c2.171-0.346,4.271-0.94,6.265-1.774c7.01,4.674,17.7,6.938,27.777,6.458c5.176-0.247,10.186-1.225,14.445-2.969
			c1.167,2.42,4.024,7.167,9.342,9.567c2.395,1.078,4.968,1.552,7.7,1.422c1.576-0.073,3.215-0.371,4.896-0.854
			c1.189,2.038,3.411,3.358,5.896,3.295c-0.721,3.951,0.174,8.421,1.914,11.751c2.33,4.454,5.982,6.9,10.021,6.708
			c1.654-0.077,3.318-0.605,4.887-1.52c0.791-0.427,1.35-1.189,1.528-2.099C256.532,137.106,257.111,134.059,244.204,118.399z
			 M111.76,119.872c-1.803,2.786-4.264,4.585-6.425,4.688c-0.965,0.047-1.886-0.239-2.795-0.878c1.72-1.952,6.44-5.742,11.314-9.271
			C113.618,116.171,112.896,118.111,111.76,119.872z M125.145,108.1c-0.088,0.839-0.501,1.593-1.169,2.125
			c-0.524,0.425-1.157,0.666-1.833,0.699c-1.001,0.047-1.974-0.387-2.613-1.18c-0.526-0.652-0.773-1.475-0.688-2.313
			c0.094-0.84,0.504-1.596,1.152-2.125c0.533-0.423,1.167-0.667,1.841-0.698c1.026-0.046,1.982,0.378,2.626,1.173
			C124.997,106.438,125.239,107.262,125.145,108.1z M264.134,39.294c6.837-2.941,10.061-10.5,11.55-17.522
			c0.063,0.195,0.123,0.42,0.187,0.672c1.534,6.563-3.229,24.041-19.043,29.597C260.129,48.202,262.517,43.83,264.134,39.294z
			 M256.29,5.61c0.559,0.278,1.237,0.897,2.019,2.153c5.301,8.542,5.599,32.393-9.569,44.65c-0.356,0.062-0.712,0.122-1.064,0.206
			C254.982,38.107,256.457,25.228,256.29,5.61z M245.582,59.143c5.427-2.986,11.339-1.887,15.938,2.786
			c5.29,5.68,7.256,13.231,6.419,17.874c-0.246,1.367-0.865,3.156-2.394,3.884c-7.304,3.457-17.986-1.052-18.083-1.1l-0.79-0.342
			l0.019-0.029c-1.147-0.765-4.999-3.519-6.536-6.968C237.218,68.662,239.253,62.64,245.582,59.143z M220.848,71.162
			c4.42-1.073,8.826-2.65,12.89-4.628c-0.636,3.429-0.181,7.152,1.491,10.898c1.278,2.875,3.456,5.236,5.459,6.973
			c-4.797,2.132-11.435,6.094-15.379,13.782C222.127,90.246,220.324,79.698,220.848,71.162z M127.553,68.2
			c-5.311,0.249-9.797-1.788-10.853-2.977c0.011-0.008,0.026-0.018,0.034-0.025c0.29-0.222,1.242-0.747,3.849-0.872
			c4.271-0.205,9.944,0.807,13.568,1.586C132.346,67.573,129.73,68.092,127.553,68.2z M148.335,112.838
			c-3.318,1.615-8.475,3.099-14.261,0.993c-2.082-0.765-4.007-1.808-5.737-3.121c0.26-0.562,0.447-1.159,0.555-1.782
			c4.463-1.569,7.236-5.28,8.803-8.891c2.135,2.225,4.635,4.11,7.478,5.532c2.953,1.477,6.153,2.393,9.41,2.735
			C152.793,110.115,150.663,111.693,148.335,112.838z M159.162,101.17c-0.203,0.63-0.471,1.266-0.771,1.893
			c-3.715,0.169-7.454-0.626-10.803-2.3c-5.219-2.619-9.114-7.109-10.955-12.648c-1.803-5.418-1.411-11.205,1.064-16.344
			c2.881-0.122,5.722,0.289,8.456,1.284C157.207,77.086,162.921,89.433,159.162,101.17z M164.555,101.874
			c4.045-14.213-3.066-28.959-16.549-33.87c-2.199-0.802-4.452-1.282-6.741-1.504c3.856-4.198,9.269-6.81,15.122-7.09
			c3.73-0.178,7.475,0.619,10.834,2.303c10.786,5.412,15.162,18.566,9.755,29.326C174.377,96.19,169.876,100.028,164.555,101.874z
			 M173.388,103.287c3.495-2.52,6.409-5.86,8.405-9.832c4.503-8.952,3.546-19.219-1.564-27.069c7.486,2.617,13.706,4.395,18.893,5.4
			c-3.215,3.325-5.378,7.559-6.091,12.221c-0.923,5.988,0.557,11.979,4.157,16.859c1.637,2.226,3.641,4.079,5.89,5.549
			C193.484,108.602,181.41,107.395,173.388,103.287z M212.883,104.539c-4.578-0.698-8.612-3.133-11.358-6.858
			c-2.74-3.726-3.868-8.292-3.167-12.859c0.774-5.04,3.737-9.456,8.132-12.104c1.271,0.051,2.563,0.072,3.904,0.008
			c1.63-0.078,3.304-0.254,4.994-0.505c-0.351,10.34,2.197,22.726,6.413,31.334C218.979,104.657,215.946,105.004,212.883,104.539z
			 M221.755,114.518c-2.333-1.043-4.029-2.815-5.185-4.422c0.028,0,0.058,0.002,0.084,0c2.707-0.125,5.354-0.749,7.863-1.836
			c0.588,1.027,2.666,4.305,6.105,6.535C227.298,115.74,224.322,115.657,221.755,114.518z M238.103,119.414
			c-1.539,0.14-2.897-0.956-3.054-2.479c-0.076-0.739,0.136-1.462,0.604-2.039c0.473-0.574,1.136-0.938,1.868-1.014l0.157-0.015
			c1.481-0.063,2.757,1.028,2.914,2.489C240.749,117.884,239.638,119.255,238.103,119.414z M249.688,136.802v0.003
			c-2.889,0.14-4.75-2.8-5.414-4.076c-1.368-2.615-1.876-5.717-1.497-8.243c3.719,4.737,7.223,9.681,8.338,12.026
			C250.622,136.685,250.148,136.779,249.688,136.802z M254.874,74.985c1.996-1.098,2.716-3.602,1.619-5.592
			c-1.101-1.987-3.604-2.713-5.607-1.615c-1.988,1.097-2.716,3.6-1.616,5.594C250.372,75.361,252.88,76.083,254.874,74.985z
			 M78.564,141.109c0.089,0.013,0.179,0.013,0.267,0.009c0.818-0.036,1.517-0.665,1.606-1.508c0.341-3.184,2.187-6.071,4.931-7.733
			c0.801-0.481,1.057-1.526,0.57-2.327c-0.487-0.799-1.529-1.058-2.333-0.57c-3.644,2.203-6.087,6.045-6.546,10.27
			C76.959,140.175,77.635,141.014,78.564,141.109z M94.28,135.705c-3.644,2.201-6.092,6.038-6.55,10.268
			c-0.101,0.93,0.573,1.766,1.506,1.871c0.092,0.004,0.179,0.004,0.264,0.002c0.823-0.042,1.516-0.669,1.604-1.507
			c0.348-3.186,2.191-6.077,4.937-7.741c0.799-0.484,1.06-1.524,0.569-2.32C96.127,135.473,95.083,135.215,94.28,135.705z
			 M92.918,133.136c0.799-0.484,1.059-1.526,0.57-2.327c-0.482-0.802-1.53-1.057-2.33-0.569c-5.376,3.25-8.988,8.915-9.661,15.153
			c-0.105,0.927,0.575,1.761,1.502,1.862c0.092,0.014,0.181,0.015,0.268,0.014c0.821-0.041,1.516-0.674,1.603-1.515
			C85.435,140.563,88.441,135.848,92.918,133.136z M40.608,166.196c-3.129,0-5.656,2.527-5.656,5.639v26.793l-22.087-28.939
			c-1.563-2.005-3.201-3.341-5.952-3.341h-1.19c-3.195,0-5.723,2.522-5.723,5.715v41.334c0,3.119,2.527,5.645,5.649,5.645
			c3.12,0,5.652-2.525,5.652-5.645v-27.83l22.909,29.984c1.565,2.001,3.196,3.335,5.948,3.335h0.374
			c3.197,0,5.727-2.521,5.727-5.712v-41.339C46.26,168.724,43.73,166.196,40.608,166.196z M78.398,166.198
			c-3.198,0-5.727,2.525-5.727,5.715v41.409c0,3.191,2.528,5.716,5.727,5.716s5.726-2.524,5.726-5.716v-41.409
			C84.124,168.724,81.597,166.198,78.398,166.198z M156.796,166.348h-1.265c-2.304,0-3.938,0.964-5.132,2.891l-13.906,22.562
			l-13.837-22.489c-1.038-1.701-2.751-2.964-5.207-2.964h-1.262c-3.198,0-5.725,2.522-5.725,5.715v41.41
			c0,3.112,2.449,5.568,5.578,5.568c3.12,0,5.648-2.456,5.648-5.568v-25.828l9.894,15.215c1.193,1.78,2.682,2.894,4.761,2.894
			s3.575-1.113,4.76-2.894l10.04-15.436v25.899c0,3.117,2.529,5.718,5.652,5.718c3.198,0,5.727-2.525,5.727-5.718v-41.261
			C162.522,168.87,159.994,166.348,156.796,166.348z M223.299,191.43c3.718-2.078,6.844-5.347,6.844-11.204v-0.151
			c0-3.559-1.189-6.452-3.568-8.834c-2.978-2.963-7.665-4.593-13.613-4.593h-18.448c-3.195,0-5.722,2.519-5.722,5.71v40.52
			c0,3.191,2.526,5.716,5.722,5.716h19.04c11.756,0,19.488-4.751,19.488-14.245v-0.153
			C233.041,197.219,229.323,193.729,223.299,191.43z M199.946,176.661h11.303c4.833,0,7.511,1.93,7.511,5.345v0.145
			c0,3.858-3.193,5.494-8.255,5.494h-10.559V176.661z M221.665,202.936c0,3.854-3.055,5.64-8.112,5.64h-13.606v-11.431h13.236
			c5.875,0,8.482,2.149,8.482,5.644V202.936z M288.904,208.201h-21.197v-36.288c0-3.189-2.529-5.715-5.729-5.715
			c-3.196,0-5.723,2.525-5.723,5.715v40.964c0,3.192,2.526,5.716,5.723,5.716h26.926c2.9,0,5.206-2.303,5.206-5.196
			C294.11,210.502,291.805,208.201,288.904,208.201z M349.678,208.425h-23.577v-10.909h19.855c2.828,0,5.137-2.227,5.137-5.045
			c0-2.82-2.309-5.123-5.137-5.123h-19.855v-10.537h23.203c2.831,0,5.135-2.225,5.135-5.047c0-2.818-2.304-5.123-5.135-5.123
			h-28.859c-3.193,0-5.722,2.525-5.722,5.717v40.521c0,3.189,2.528,5.714,5.722,5.714h29.233c2.828,0,5.132-2.229,5.132-5.048
			C354.81,210.724,352.506,208.425,349.678,208.425z M370.37,166.272h-3.916c-0.326,0-0.592,0.271-0.592,0.598
			c0,0.323,0.266,0.592,0.592,0.592h1.288v4.156c0,0.362,0.308,0.664,0.672,0.664c0.363,0,0.67-0.302,0.67-0.664v-4.156h1.286
			c0.324,0,0.593-0.269,0.593-0.592C370.963,166.543,370.694,166.272,370.37,166.272z M377.37,166.198h-0.154
			c-0.267,0-0.44,0.116-0.572,0.345l-1.596,2.545l-1.55-2.545c-0.115-0.19-0.326-0.345-0.597-0.345h-0.152
			c-0.367,0-0.652,0.287-0.652,0.652v4.803c0,0.344,0.285,0.629,0.633,0.629c0.343,0,0.634-0.285,0.634-0.629v-3.04l1.131,1.739
			c0.154,0.231,0.307,0.345,0.554,0.345c0.251,0,0.405-0.133,0.539-0.345l1.15-1.78v3.081c0,0.344,0.288,0.629,0.633,0.629
			c0.347,0,0.634-0.285,0.634-0.629v-4.803C378.004,166.485,377.717,166.198,377.37,166.198z"/>
	</g>
</g>
</svg>
