<?xml version="1.0" encoding="utf-8"?>
<!-- Generator: Adobe Illustrator 16.0.0, SVG Export Plug-In . SVG Version: 6.00 Build 0)  -->
<!DOCTYPE svg PUBLIC "-//W3C//DTD SVG 1.1//EN" "http://www.w3.org/Graphics/SVG/1.1/DTD/svg11.dtd">
<svg version="1.1" id="Layer_1" xmlns="http://www.w3.org/2000/svg" xmlns:xlink="http://www.w3.org/1999/xlink" x="0px" y="0px"
	 width="647px" height="72px" viewBox="0 0 647 72" enable-background="new 0 0 647 72" xml:space="preserve">
<g>
	<g>
		<path fill="#7BC9A5" d="M33.444,51.227c-0.15,0.746-0.375,0.82-1.2,0.82H10.948V31.048h20.997v-4.169H10.948V6.479h19.646
			c0.825,0,1.125,0.223,1.275,0.968l1.049,5.807l3.824,0.223V2.309H0v3.351L4.724,6.18c1.049,0.075,1.2,0.374,1.2,1.489v43.26
			c0,1.118-0.15,1.341-1.2,1.489L0,52.94v3.275h38.393V44.75h-3.75L33.444,51.227z M77.537,50.781L66.514,36.559l10.198-12.955
			c0.6-0.745,0.975-1.117,1.875-1.416l3.524-0.744v-3.276H68.239l-0.75,3.276l5.024,0.595l-9.074,11.392L54.591,22.04l5.024-0.595
			v-3.276H45.518l-0.75,3.276l3.375,0.818c0.9,0.298,1.2,0.521,1.799,1.266l10.273,13.327L49.192,50.929
			c-0.6,0.745-0.9,1.043-1.725,1.191l-4.199,0.819v3.275h15.748V52.94l-5.174-0.67l9.448-12.137l9.374,12.137l-5.1,0.67v3.275
			h16.422V52.94l-4.499-0.819C78.587,51.972,78.212,51.599,77.537,50.781z M111.807,17.424c-5.399,0-10.348,2.681-13.798,5.287
			l-0.15-0.075l-0.6-4.467h-8.548l-0.6,3.126l4.349,1.416c0.75,0.223,0.975,0.744,0.975,1.563v42.44c0,1.117-0.15,1.34-1.2,1.489
			l-3.149,0.447V72h17.322v-3.275l-6.749-0.522c-1.125-0.075-1.2-0.298-1.2-1.489V52.791l0.15-0.075
			c3.075,2.979,7.049,4.393,11.473,4.393c1.049,0,2.024-0.074,3-0.223c7.724-1.266,12.748-7.594,12.748-21.22
			C125.829,22.859,120.28,17.424,111.807,17.424z M109.632,52.791c-4.124,0-8.398-2.606-11.173-5.51V27.252
			c2.324-1.937,7.499-5.362,12.522-5.362c5.475,0,9.898,3.202,9.898,14.371C120.88,46.462,117.955,52.791,109.632,52.791z
			 M149.227,17.424c-9.148,0-16.497,6.253-16.497,19.582c0,11.244,4.199,20.104,17.472,20.104c5.249,0,9.523-1.191,12.898-3.127
			l-1.875-4.17c-3.6,1.936-6,2.755-10.648,2.755c-9.073,0-12.373-5.882-12.598-14.371h26.17c0.075-1.117,0.15-2.159,0.15-3.201
			C164.299,22.263,158.075,17.424,149.227,17.424z M138.128,34.176c0.675-9.233,5.474-12.36,11.173-12.36
			c5.25,0,9.673,3.127,9.823,12.36H138.128z M180.497,22.934l-0.675-4.765h-8.548l-0.6,3.126l4.35,1.416
			c0.75,0.223,0.975,0.744,0.975,1.563v26.656c0,1.118-0.15,1.341-1.2,1.489l-3.899,0.447v3.35h18.072V52.94l-6.749-0.522
			c-1.125-0.148-1.2-0.297-1.2-1.489V27.401c1.95-1.937,6.374-5.511,10.348-5.511c0.75,0,0.825,0.149,0.9,0.671l0.975,5.658
			l3.824,0.224v-10.35c-1.349-0.373-3.224-0.67-4.949-0.67C186.871,17.424,182.972,20.625,180.497,22.934z M212.292,50.929V18.168
			h-9.748l-0.6,3.126l4.349,1.416c0.75,0.223,0.975,0.744,0.975,1.563v26.656c0,1.118-0.15,1.341-1.2,1.489l-5.399,0.447v3.35
			h18.072V52.94l-5.249-0.522C212.367,52.27,212.292,52.121,212.292,50.929z M208.768,8.935c2.55,0,4.049-1.416,4.049-3.946
			c0-2.531-1.499-3.947-4.049-3.947s-4.049,1.416-4.049,3.947C204.718,7.52,206.218,8.935,208.768,8.935z M239.362,17.424
			c-9.148,0-16.497,6.253-16.497,19.582c0,11.244,4.199,20.104,17.471,20.104c5.249,0,9.523-1.191,12.898-3.127l-1.875-4.17
			c-3.6,1.936-5.999,2.755-10.648,2.755c-9.073,0-12.373-5.882-12.598-14.371h26.17c0.075-1.117,0.15-2.159,0.15-3.201
			C254.434,22.263,248.21,17.424,239.362,17.424z M228.264,34.176c0.675-9.233,5.474-12.36,11.173-12.36
			c5.249,0,9.673,3.127,9.823,12.36H228.264z M296.878,50.929V31.57c0-8.637-2.849-14.146-11.623-14.146
			c-5.999,0-10.798,2.681-14.547,5.435l-0.225-0.075l-0.6-4.616h-8.474l-0.6,3.126l4.35,1.416c0.75,0.223,0.975,0.744,0.975,1.563
			v26.656c0,1.118-0.15,1.341-1.2,1.489l-3.899,0.447v3.35h15.823V52.94l-4.5-0.522c-1.125-0.148-1.2-0.297-1.2-1.489v-23.38
			c2.25-2.084,7.574-5.584,13.048-5.584c5.549,0,7.648,3.5,7.648,11.169v17.869c0,1.117-0.15,1.267-1.199,1.415l-3.899,0.447v3.35
			h15.822V52.94l-4.499-0.522C296.953,52.27,296.878,52.121,296.878,50.929z M326.274,52.641c-8.023,0-13.198-4.541-13.198-15.262
			c0-11.393,5.924-15.637,13.422-15.637c2.325,0,4.65,0.373,5.699,0.745c0.675,0.224,0.75,0.522,0.824,0.968l0.9,4.915l3.825,0.223
			v-9.158c-1.425-0.595-5.25-2.01-10.648-2.01c-11.173,0-19.271,5.956-19.271,20.178c0,11.467,5.249,19.507,17.771,19.507
			c4.724,0,9.673-1.191,12.297-2.904l-1.949-4.17C333.473,51.599,330.024,52.641,326.274,52.641z M359.27,17.424
			c-9.148,0-16.497,6.253-16.497,19.582c0,11.244,4.199,20.104,17.472,20.104c5.249,0,9.523-1.191,12.897-3.127l-1.875-4.17
			c-3.6,1.936-5.999,2.755-10.648,2.755c-9.074,0-12.373-5.882-12.598-14.371h26.17c0.074-1.117,0.149-2.159,0.149-3.201
			C374.342,22.263,368.118,17.424,359.27,17.424z M348.172,34.176c0.675-9.233,5.474-12.36,11.173-12.36
			c5.25,0,9.674,3.127,9.823,12.36H348.172z M435.008,5.584l4.724,0.521c1.05,0.149,1.2,0.374,1.2,1.489v41.697L413.037,2.234
			h-13.197v3.351l4.724,0.521c1.05,0.149,1.2,0.374,1.2,1.489v43.335c0,1.118-0.15,1.341-1.2,1.489l-4.724,0.522v3.275h17.171V52.94
			l-5.024-0.595c-1.125-0.149-1.2-0.298-1.2-1.489V8.711l28.795,47.503h6.299V7.594c0-1.116,0.075-1.265,1.2-1.415l5.023-0.595
			V2.309h-17.096V5.584z M466.504,8.935c2.549,0,4.049-1.416,4.049-3.946c0-2.531-1.5-3.947-4.049-3.947s-4.049,1.416-4.049,3.947
			C462.455,7.52,463.955,8.935,466.504,8.935z M470.028,50.929V18.168h-9.748l-0.601,3.126l4.349,1.416
			c0.75,0.223,0.975,0.744,0.975,1.563v26.656c0,1.118-0.15,1.341-1.2,1.489l-5.399,0.447v3.35h18.072V52.94l-5.249-0.522
			C470.104,52.27,470.028,52.121,470.028,50.929z M539.091,50.929V31.57c0-8.637-2.325-14.146-11.099-14.146
			c-5.624,0-10.122,2.308-13.723,4.839c-1.424-3.127-4.049-4.839-8.923-4.839c-6.299,0-11.023,3.052-14.097,5.435l-0.226-0.075
			l-0.6-4.616h-8.474l-0.6,3.126l4.35,1.416c0.75,0.223,0.975,0.744,0.975,1.563v26.656c0,1.118-0.149,1.341-1.2,1.489l-3.898,0.447
			v3.35h15.822V52.94l-4.5-0.522c-1.125-0.148-1.2-0.297-1.2-1.489v-23.38c2.175-2.01,6.899-5.584,12.522-5.584
			c5.549,0,6.449,3.425,6.449,10.797v18.242c0,1.117-0.15,1.267-1.2,1.415l-3.674,0.447v3.35h14.998V52.94l-3.9-0.522
			c-1.125-0.148-1.2-0.297-1.2-1.489V31.198c0-1.787-0.074-3.425-0.3-4.84c2.775-2.01,6.974-4.393,11.474-4.393
			c5.849,0,7.199,3.798,7.199,11.169v17.869c0,1.117-0.15,1.267-1.2,1.415l-3.9,0.447v3.35h15.823V52.94l-4.499-0.522
			C539.166,52.27,539.091,52.121,539.091,50.929z M573.212,17.424c-5.399,0-9.749,2.382-13.348,4.541c0,0,0,0,0-21.965h-9.974
			l-0.6,3.127l4.574,1.415c0.75,0.224,0.976,0.746,0.976,1.563v39.537c0,3.575-0.45,8.042-0.825,10.573h5.023l0.375-3.499
			l0.15-0.075c3.599,3.203,7.499,4.468,11.922,4.468c9.449,0,15.748-6.105,15.748-21.443
			C587.234,22.859,581.686,17.424,573.212,17.424z M571.037,52.791c-4.124,0-8.399-2.606-11.173-5.51v-20.7
			c2.924-2.084,7.499-4.765,12.522-4.765c5.474,0,9.898,3.275,9.898,14.444C582.285,46.462,579.36,52.791,571.037,52.791z
			 M604.857,50.929V0h-9.973l-0.601,3.127l4.574,1.415c0.75,0.224,0.975,0.746,0.975,1.563v44.824c0,1.118-0.149,1.416-1.2,1.489
			l-5.023,0.447v3.35h17.321V52.94l-4.873-0.522C604.933,52.27,604.857,52.121,604.857,50.929z M647,34.996
			c0-12.733-6.224-17.572-15.072-17.572c-9.148,0-16.497,6.253-16.497,19.582c0,11.244,4.199,20.104,17.472,20.104
			c5.249,0,9.523-1.191,12.897-3.127l-1.875-4.17c-3.599,1.936-5.999,2.755-10.647,2.755c-9.074,0-12.372-5.882-12.598-14.371h26.17
			C646.925,37.08,647,36.038,647,34.996z M620.83,34.176c0.675-9.233,5.474-12.36,11.172-12.36c5.249,0,9.674,3.127,9.824,12.36
			H620.83z"/>
	</g>
</g>
</svg>
